%TF.GenerationSoftware,KiCad,Pcbnew,(6.0.1)*%
%TF.CreationDate,2022-07-28T11:00:42-05:00*%
%TF.ProjectId,proton_detector_amplifier,70726f74-6f6e-45f6-9465-746563746f72,rev?*%
%TF.SameCoordinates,Original*%
%TF.FileFunction,Copper,L4,Bot*%
%TF.FilePolarity,Positive*%
%FSLAX46Y46*%
G04 Gerber Fmt 4.6, Leading zero omitted, Abs format (unit mm)*
G04 Created by KiCad (PCBNEW (6.0.1)) date 2022-07-28 11:00:42*
%MOMM*%
%LPD*%
G01*
G04 APERTURE LIST*
%TA.AperFunction,ComponentPad*%
%ADD10C,0.800000*%
%TD*%
%TA.AperFunction,ComponentPad*%
%ADD11C,7.000000*%
%TD*%
%TA.AperFunction,ComponentPad*%
%ADD12R,1.700000X1.700000*%
%TD*%
%TA.AperFunction,ComponentPad*%
%ADD13C,2.050000*%
%TD*%
%TA.AperFunction,ComponentPad*%
%ADD14C,2.250000*%
%TD*%
%TA.AperFunction,ComponentPad*%
%ADD15R,2.400000X2.400000*%
%TD*%
%TA.AperFunction,ComponentPad*%
%ADD16C,2.400000*%
%TD*%
%TA.AperFunction,ComponentPad*%
%ADD17O,1.700000X1.700000*%
%TD*%
%TA.AperFunction,ViaPad*%
%ADD18C,0.800000*%
%TD*%
G04 APERTURE END LIST*
D10*
%TO.P,H2,1*%
%TO.N,N/C*%
X33867000Y-38100000D03*
X31242000Y-35475000D03*
D11*
X31242000Y-38100000D03*
D10*
X29385845Y-36243845D03*
X33098155Y-36243845D03*
X33098155Y-39956155D03*
X29385845Y-39956155D03*
X31242000Y-40725000D03*
X28617000Y-38100000D03*
%TD*%
D12*
%TO.P,+9V,1,1*%
%TO.N,+5V*%
X30480000Y-62738000D03*
%TD*%
D13*
%TO.P,J2,1,In*%
%TO.N,Net-(C14-Pad1)*%
X58674000Y-89916000D03*
D14*
%TO.P,J2,2,Ext*%
%TO.N,Earth*%
X61214000Y-87376000D03*
X56134000Y-87376000D03*
X61214000Y-92456000D03*
X56134000Y-92456000D03*
%TD*%
D12*
%TO.P,-60V,1,1*%
%TO.N,-VDC*%
X43180000Y-62786000D03*
%TD*%
%TO.P,-5VA,1,1*%
%TO.N,-5VA*%
X43180000Y-57150000D03*
%TD*%
D10*
%TO.P,H4,1*%
%TO.N,N/C*%
X93387000Y-90170000D03*
X97868155Y-92026155D03*
X96012000Y-87545000D03*
X94155845Y-88313845D03*
D11*
X96012000Y-90170000D03*
D10*
X98637000Y-90170000D03*
X94155845Y-92026155D03*
X96012000Y-92795000D03*
X97868155Y-88313845D03*
%TD*%
D12*
%TO.P,-9V,1,1*%
%TO.N,-5V*%
X36830000Y-62738000D03*
%TD*%
%TO.P,GND,1,1*%
%TO.N,Earth*%
X49530000Y-62786000D03*
%TD*%
D13*
%TO.P,J6,1,In*%
%TO.N,Net-(J6-Pad1)*%
X70612000Y-38608000D03*
D14*
%TO.P,J6,2,Ext*%
%TO.N,Earth*%
X73152000Y-41148000D03*
X73152000Y-36068000D03*
X68072000Y-41148000D03*
X68072000Y-36068000D03*
%TD*%
D13*
%TO.P,J5,1,In*%
%TO.N,Net-(J5-Pad1)*%
X84328000Y-38608000D03*
D14*
%TO.P,J5,2,Ext*%
%TO.N,Earth*%
X81788000Y-41148000D03*
X86868000Y-41148000D03*
X86868000Y-36068000D03*
X81788000Y-36068000D03*
%TD*%
D10*
%TO.P,H3,1*%
%TO.N,N/C*%
X33098155Y-92026155D03*
X31242000Y-87545000D03*
X28617000Y-90170000D03*
D11*
X31242000Y-90170000D03*
D10*
X33098155Y-88313845D03*
X29385845Y-88313845D03*
X31242000Y-92795000D03*
X29385845Y-92026155D03*
X33867000Y-90170000D03*
%TD*%
D15*
%TO.P,J1,1,Pin_1*%
%TO.N,+5V*%
X43828000Y-38508000D03*
D16*
%TO.P,J1,2,Pin_2*%
%TO.N,Earth*%
X47328000Y-38508000D03*
%TO.P,J1,3,Pin_3*%
%TO.N,-5V*%
X50828000Y-38508000D03*
%TO.P,J1,4,Pin_4*%
%TO.N,Earth*%
X54328000Y-38508000D03*
%TO.P,J1,5,Pin_5*%
%TO.N,-VDC*%
X57828000Y-38508000D03*
%TO.P,J1,6,Pin_6*%
%TO.N,Earth*%
X61328000Y-38508000D03*
%TD*%
D12*
%TO.P,J3,1,Pin_1*%
%TO.N,Net-(C14-Pad2)*%
X64531000Y-70866000D03*
D17*
%TO.P,J3,2,Pin_2*%
%TO.N,Earth*%
X67071000Y-70866000D03*
%TO.P,J3,3,Pin_3*%
%TO.N,unconnected-(J3-Pad3)*%
X69611000Y-70866000D03*
%TO.P,J3,4,Pin_4*%
%TO.N,Earth*%
X72151000Y-70866000D03*
%TO.P,J3,5,Pin_5*%
%TO.N,-5VA*%
X74691000Y-70866000D03*
%TO.P,J3,6,Pin_6*%
%TO.N,+5VA*%
X77231000Y-70866000D03*
%TO.P,J3,7,Pin_7*%
%TO.N,Earth*%
X79771000Y-70866000D03*
%TO.P,J3,8,Pin_8*%
%TO.N,Net-(C17-Pad2)*%
X82311000Y-70866000D03*
%TD*%
D12*
%TO.P,J4,1,Pin_1*%
%TO.N,Net-(C13-Pad2)*%
X87361000Y-47244000D03*
D17*
%TO.P,J4,2,Pin_2*%
%TO.N,Net-(J4-Pad2)*%
X84821000Y-47244000D03*
%TO.P,J4,3,Pin_3*%
%TO.N,Earth*%
X82281000Y-47244000D03*
%TO.P,J4,4,Pin_4*%
%TO.N,-5VA*%
X79741000Y-47244000D03*
%TO.P,J4,5,Pin_5*%
%TO.N,+5VA*%
X77201000Y-47244000D03*
%TO.P,J4,6,Pin_6*%
%TO.N,Earth*%
X74661000Y-47244000D03*
%TO.P,J4,7,Pin_7*%
X72121000Y-47244000D03*
%TO.P,J4,8,Pin_8*%
%TO.N,Net-(C26-Pad1)*%
X69581000Y-47244000D03*
%TD*%
D11*
%TO.P,H1,1*%
%TO.N,N/C*%
X96012000Y-38100000D03*
D10*
X94155845Y-36243845D03*
X93387000Y-38100000D03*
X94155845Y-39956155D03*
X96012000Y-35475000D03*
X96012000Y-40725000D03*
X97868155Y-39956155D03*
X98637000Y-38100000D03*
X97868155Y-36243845D03*
%TD*%
D12*
%TO.P,+5VA,1,1*%
%TO.N,+5VA*%
X49530000Y-57150000D03*
%TD*%
D18*
%TO.N,+5V*%
X30226000Y-48006000D03*
X32512000Y-55118000D03*
X32512000Y-75184000D03*
%TO.N,-5V*%
X34290000Y-55118000D03*
X34290000Y-77978000D03*
X37338000Y-48006000D03*
%TO.N,-VDC*%
X52324000Y-70866000D03*
X44196000Y-48006000D03*
%TO.N,Earth*%
X97282000Y-42672000D03*
X99060000Y-41656000D03*
X52324000Y-79756000D03*
X99060000Y-64770000D03*
X99060000Y-78994000D03*
X91440000Y-38100000D03*
X60198000Y-35052000D03*
X72390000Y-44450000D03*
X99060000Y-55880000D03*
X96012000Y-70358000D03*
X99060000Y-82550000D03*
X91948000Y-40132000D03*
X94234000Y-59944000D03*
X91440000Y-84328000D03*
X36068000Y-73660000D03*
X87376000Y-73660000D03*
X96012000Y-68580000D03*
X91694000Y-36322000D03*
X92964000Y-48260000D03*
X96012000Y-61468000D03*
X99060000Y-59436000D03*
X90678000Y-35052000D03*
X89154000Y-35052000D03*
X93218000Y-41656000D03*
X62992000Y-52324000D03*
X60198000Y-40894000D03*
X99060000Y-46990000D03*
X96012000Y-79248000D03*
X96012000Y-72136000D03*
X99060000Y-84328000D03*
X93218000Y-84328000D03*
X91694000Y-46990000D03*
X99060000Y-52324000D03*
X70866000Y-44450000D03*
X29972000Y-56642000D03*
X75438000Y-44450000D03*
X99060000Y-54102000D03*
X45720000Y-79248000D03*
X63754000Y-35052000D03*
X78740000Y-35052000D03*
X96012000Y-57912000D03*
X97028000Y-84328000D03*
X66294000Y-52324000D03*
X48006000Y-79248000D03*
X67818000Y-52070000D03*
X40894000Y-72644000D03*
X35814000Y-79502000D03*
X59177701Y-48255701D03*
X48260000Y-73660000D03*
X66294000Y-44450000D03*
X88138000Y-84328000D03*
X77216000Y-35052000D03*
X89662000Y-84328000D03*
X99060000Y-73660000D03*
X90678000Y-80010000D03*
X99060000Y-77216000D03*
X99060000Y-66548000D03*
X64516000Y-52324000D03*
X90424000Y-45720000D03*
X94996000Y-84328000D03*
X80010000Y-83312000D03*
X82296000Y-44958000D03*
X92902500Y-68834000D03*
X67818000Y-44450000D03*
X99060000Y-61214000D03*
X66294000Y-46228000D03*
X96012000Y-59690000D03*
X37084000Y-51054000D03*
X59436000Y-62738000D03*
X99060000Y-45212000D03*
X96012000Y-73914000D03*
X79502000Y-78232000D03*
X99060000Y-68326000D03*
X89154000Y-54356000D03*
X58161701Y-49271701D03*
X58674000Y-52070000D03*
X99060000Y-57658000D03*
X90424000Y-60198000D03*
X78994000Y-61214000D03*
X96012000Y-65024000D03*
X69342000Y-44450000D03*
X30226000Y-51054000D03*
X99060000Y-50546000D03*
X96012000Y-77470000D03*
X95504000Y-50800000D03*
X75692000Y-35052000D03*
X99060000Y-80772000D03*
X80772000Y-44958000D03*
X65024000Y-77978000D03*
X92456000Y-80010000D03*
X99060000Y-62992000D03*
X79248000Y-44958000D03*
X94996000Y-42672000D03*
X66294000Y-50038000D03*
X99060000Y-48768000D03*
X96012000Y-52578000D03*
X92456000Y-35052000D03*
X78740000Y-75692000D03*
X99060000Y-71882000D03*
X73660000Y-59690000D03*
X94234000Y-80010000D03*
X99060000Y-43434000D03*
X99060000Y-75438000D03*
X89154000Y-44704000D03*
X96012000Y-66802000D03*
X96012000Y-63246000D03*
X96012000Y-75692000D03*
X44196000Y-51054000D03*
X96012000Y-54356000D03*
X99060000Y-70104000D03*
X45720000Y-73660000D03*
X94234000Y-49530000D03*
X61976000Y-35052000D03*
X37084000Y-56642000D03*
X66294000Y-48260000D03*
X60198000Y-45974000D03*
X60198000Y-43434000D03*
X65532000Y-35052000D03*
X76962000Y-44450000D03*
X62738000Y-79756000D03*
X96012000Y-56134000D03*
X41656000Y-78486000D03*
X73914000Y-44450000D03*
%TO.N,+5VA*%
X88900000Y-75184000D03*
X48260000Y-76454000D03*
X77216000Y-59436000D03*
X57658000Y-57912000D03*
X74168000Y-74168000D03*
%TO.N,-5VA*%
X78486000Y-81534000D03*
X64554500Y-81495500D03*
X69596000Y-53848000D03*
X50205500Y-75270500D03*
X87122000Y-54864000D03*
%TO.N,Net-(C14-Pad1)*%
X58674000Y-76708000D03*
%TO.N,Net-(C14-Pad2)*%
X64524000Y-76716000D03*
%TO.N,Net-(C17-Pad2)*%
X75438000Y-78232000D03*
%TO.N,Net-(C13-Pad2)*%
X91694000Y-76454000D03*
%TO.N,Net-(C26-Pad1)*%
X57658000Y-55626000D03*
%TD*%
%TA.AperFunction,Conductor*%
%TO.N,Earth*%
G36*
X67079682Y-34564002D02*
G01*
X67126175Y-34617658D01*
X67136279Y-34687932D01*
X67117072Y-34738873D01*
X67112811Y-34745401D01*
X67118817Y-34755607D01*
X68059188Y-35695978D01*
X68073132Y-35703592D01*
X68074965Y-35703461D01*
X68081580Y-35699210D01*
X69023724Y-34757066D01*
X69031116Y-34743529D01*
X69030206Y-34742228D01*
X69007546Y-34674944D01*
X69024860Y-34606091D01*
X69076649Y-34557529D01*
X69133449Y-34544000D01*
X72091561Y-34544000D01*
X72159682Y-34564002D01*
X72206175Y-34617658D01*
X72216279Y-34687932D01*
X72197072Y-34738873D01*
X72192811Y-34745401D01*
X72198817Y-34755607D01*
X73139188Y-35695978D01*
X73153132Y-35703592D01*
X73154965Y-35703461D01*
X73161580Y-35699210D01*
X74103724Y-34757066D01*
X74111116Y-34743529D01*
X74110206Y-34742228D01*
X74087546Y-34674944D01*
X74104860Y-34606091D01*
X74156649Y-34557529D01*
X74213449Y-34544000D01*
X80727561Y-34544000D01*
X80795682Y-34564002D01*
X80842175Y-34617658D01*
X80852279Y-34687932D01*
X80833072Y-34738873D01*
X80828811Y-34745401D01*
X80834817Y-34755607D01*
X81775188Y-35695978D01*
X81789132Y-35703592D01*
X81790965Y-35703461D01*
X81797580Y-35699210D01*
X82739724Y-34757066D01*
X82747116Y-34743529D01*
X82746206Y-34742228D01*
X82723546Y-34674944D01*
X82740860Y-34606091D01*
X82792649Y-34557529D01*
X82849449Y-34544000D01*
X85807561Y-34544000D01*
X85875682Y-34564002D01*
X85922175Y-34617658D01*
X85932279Y-34687932D01*
X85913072Y-34738873D01*
X85908811Y-34745401D01*
X85914817Y-34755607D01*
X86855188Y-35695978D01*
X86869132Y-35703592D01*
X86870965Y-35703461D01*
X86877580Y-35699210D01*
X87819724Y-34757066D01*
X87827116Y-34743529D01*
X87826206Y-34742228D01*
X87803546Y-34674944D01*
X87820860Y-34606091D01*
X87872649Y-34557529D01*
X87929449Y-34544000D01*
X93698886Y-34544000D01*
X93767007Y-34564002D01*
X93813500Y-34617658D01*
X93823604Y-34687932D01*
X93794110Y-34752512D01*
X93772948Y-34771935D01*
X93769553Y-34774402D01*
X93499711Y-34970453D01*
X93499705Y-34970458D01*
X93497230Y-34972256D01*
X93494944Y-34974285D01*
X93494941Y-34974288D01*
X93415123Y-35045154D01*
X93204017Y-35232583D01*
X93201938Y-35234828D01*
X93201931Y-35234835D01*
X92939694Y-35518026D01*
X92937608Y-35520279D01*
X92700544Y-35832599D01*
X92671964Y-35879055D01*
X92553901Y-36070965D01*
X92495089Y-36166562D01*
X92323203Y-36518980D01*
X92322131Y-36521864D01*
X92322130Y-36521865D01*
X92206250Y-36833457D01*
X92186527Y-36886489D01*
X92086367Y-37265581D01*
X92077319Y-37321447D01*
X92040311Y-37549940D01*
X92023677Y-37652638D01*
X92023483Y-37655718D01*
X92023483Y-37655720D01*
X92000635Y-38018890D01*
X91999057Y-38043965D01*
X91999735Y-38063371D01*
X92010523Y-38372300D01*
X92012741Y-38435827D01*
X92013147Y-38438871D01*
X92013148Y-38438881D01*
X92023649Y-38517580D01*
X92064599Y-38824484D01*
X92065299Y-38827468D01*
X92065300Y-38827474D01*
X92112178Y-39027338D01*
X92154136Y-39206225D01*
X92280496Y-39577407D01*
X92442475Y-39934487D01*
X92638525Y-40274056D01*
X92640314Y-40276554D01*
X92640316Y-40276558D01*
X92740047Y-40415860D01*
X92866776Y-40592874D01*
X93125049Y-40887896D01*
X93410878Y-41156308D01*
X93721536Y-41395546D01*
X93724139Y-41397173D01*
X93724144Y-41397176D01*
X93843576Y-41471805D01*
X94054056Y-41603328D01*
X94405266Y-41777670D01*
X94771812Y-41916907D01*
X95150195Y-42019712D01*
X95448419Y-42070153D01*
X95533783Y-42084591D01*
X95533786Y-42084591D01*
X95536805Y-42085102D01*
X95691444Y-42095916D01*
X95924885Y-42112240D01*
X95924893Y-42112240D01*
X95927951Y-42112454D01*
X96180037Y-42105413D01*
X96316825Y-42101592D01*
X96316828Y-42101592D01*
X96319899Y-42101506D01*
X96322952Y-42101120D01*
X96322956Y-42101120D01*
X96464576Y-42083229D01*
X96708908Y-42052362D01*
X96711912Y-42051680D01*
X96711915Y-42051679D01*
X97088269Y-41966174D01*
X97088275Y-41966172D01*
X97091265Y-41965493D01*
X97094184Y-41964522D01*
X97460396Y-41842700D01*
X97460402Y-41842698D01*
X97463320Y-41841727D01*
X97604735Y-41778765D01*
X97818722Y-41683492D01*
X97818728Y-41683489D01*
X97821522Y-41682245D01*
X97862867Y-41658758D01*
X98159784Y-41490086D01*
X98159790Y-41490083D01*
X98162452Y-41488570D01*
X98482855Y-41262550D01*
X98779674Y-41006344D01*
X98893381Y-40886940D01*
X99047957Y-40724618D01*
X99050074Y-40722395D01*
X99109271Y-40646627D01*
X99289565Y-40415860D01*
X99289567Y-40415857D01*
X99291475Y-40413415D01*
X99335616Y-40343860D01*
X99389004Y-40297063D01*
X99459219Y-40286558D01*
X99523968Y-40315682D01*
X99562691Y-40375188D01*
X99568000Y-40411376D01*
X99568000Y-87855013D01*
X99547998Y-87923134D01*
X99494342Y-87969627D01*
X99424068Y-87979731D01*
X99359488Y-87950237D01*
X99340583Y-87929784D01*
X99333994Y-87920846D01*
X99122111Y-87633455D01*
X98859744Y-87342068D01*
X98570195Y-87077673D01*
X98256228Y-86842795D01*
X98208015Y-86813596D01*
X97923467Y-86641267D01*
X97923458Y-86641262D01*
X97920839Y-86639676D01*
X97567229Y-86470255D01*
X97564339Y-86469203D01*
X97564334Y-86469201D01*
X97201674Y-86337204D01*
X97201671Y-86337203D01*
X97198775Y-86336149D01*
X96922563Y-86265229D01*
X96821977Y-86239403D01*
X96821974Y-86239402D01*
X96818993Y-86238637D01*
X96431508Y-86178651D01*
X96040018Y-86156764D01*
X96036939Y-86156893D01*
X96036936Y-86156893D01*
X95781188Y-86167612D01*
X95648261Y-86173183D01*
X95645217Y-86173611D01*
X95645215Y-86173611D01*
X95434778Y-86203186D01*
X95259976Y-86227753D01*
X94878869Y-86319953D01*
X94508579Y-86448902D01*
X94152638Y-86613369D01*
X93814446Y-86811785D01*
X93654444Y-86928033D01*
X93499711Y-87040453D01*
X93499705Y-87040458D01*
X93497230Y-87042256D01*
X93494944Y-87044285D01*
X93494941Y-87044288D01*
X93415364Y-87114940D01*
X93204017Y-87302583D01*
X93201938Y-87304828D01*
X93201931Y-87304835D01*
X93127161Y-87385580D01*
X92937608Y-87590279D01*
X92904836Y-87633455D01*
X92719692Y-87877373D01*
X92700544Y-87902599D01*
X92495089Y-88236562D01*
X92323203Y-88588980D01*
X92322131Y-88591864D01*
X92322130Y-88591865D01*
X92232480Y-88832927D01*
X92186527Y-88956489D01*
X92086367Y-89335581D01*
X92023677Y-89722638D01*
X92023483Y-89725718D01*
X92023483Y-89725720D01*
X92019978Y-89781440D01*
X91999057Y-90113965D01*
X92012741Y-90505827D01*
X92013147Y-90508871D01*
X92013148Y-90508881D01*
X92027784Y-90618567D01*
X92064599Y-90894484D01*
X92065299Y-90897468D01*
X92065300Y-90897474D01*
X92123373Y-91145066D01*
X92154136Y-91276225D01*
X92280496Y-91647407D01*
X92442475Y-92004487D01*
X92638525Y-92344056D01*
X92640314Y-92346554D01*
X92640316Y-92346558D01*
X92740047Y-92485860D01*
X92866776Y-92662874D01*
X92868802Y-92665189D01*
X92868805Y-92665192D01*
X92914212Y-92717060D01*
X93125049Y-92957896D01*
X93410878Y-93226308D01*
X93548837Y-93332550D01*
X93665745Y-93422581D01*
X93721536Y-93465546D01*
X93724139Y-93467173D01*
X93724144Y-93467176D01*
X93765705Y-93493146D01*
X93812875Y-93546207D01*
X93823870Y-93616347D01*
X93795199Y-93681297D01*
X93735965Y-93720436D01*
X93698935Y-93726000D01*
X62550170Y-93726000D01*
X62482049Y-93705998D01*
X62435556Y-93652342D01*
X62425452Y-93582068D01*
X62454359Y-93518169D01*
X62536000Y-93422581D01*
X62541792Y-93414608D01*
X62670927Y-93203879D01*
X62675408Y-93195085D01*
X62769984Y-92966758D01*
X62773033Y-92957373D01*
X62830728Y-92717060D01*
X62832271Y-92707313D01*
X62851662Y-92460930D01*
X62851662Y-92451070D01*
X62832271Y-92204687D01*
X62830728Y-92194940D01*
X62773033Y-91954627D01*
X62769984Y-91945242D01*
X62675408Y-91716915D01*
X62670927Y-91708121D01*
X62544660Y-91502072D01*
X62536599Y-91496810D01*
X62526393Y-91502817D01*
X61303095Y-92726115D01*
X61240783Y-92760141D01*
X61169968Y-92755076D01*
X61124905Y-92726115D01*
X59903066Y-91504276D01*
X59889529Y-91496884D01*
X59884260Y-91500570D01*
X59757073Y-91708121D01*
X59752592Y-91716915D01*
X59658016Y-91945242D01*
X59654967Y-91954627D01*
X59597272Y-92194940D01*
X59595729Y-92204687D01*
X59576338Y-92451070D01*
X59576338Y-92460930D01*
X59595729Y-92707313D01*
X59597272Y-92717060D01*
X59654967Y-92957373D01*
X59658016Y-92966758D01*
X59752592Y-93195085D01*
X59757073Y-93203879D01*
X59886208Y-93414608D01*
X59892000Y-93422581D01*
X59973641Y-93518169D01*
X60002672Y-93582959D01*
X59992067Y-93653159D01*
X59945193Y-93706481D01*
X59877830Y-93726000D01*
X57470170Y-93726000D01*
X57402049Y-93705998D01*
X57355556Y-93652342D01*
X57345452Y-93582068D01*
X57374359Y-93518169D01*
X57456000Y-93422581D01*
X57461792Y-93414608D01*
X57590927Y-93203879D01*
X57595408Y-93195085D01*
X57689984Y-92966758D01*
X57693033Y-92957373D01*
X57750728Y-92717060D01*
X57752271Y-92707313D01*
X57771662Y-92460930D01*
X57771662Y-92451070D01*
X57752271Y-92204687D01*
X57750728Y-92194940D01*
X57693033Y-91954627D01*
X57689984Y-91945242D01*
X57595408Y-91716915D01*
X57590927Y-91708121D01*
X57464660Y-91502072D01*
X57456599Y-91496810D01*
X57446393Y-91502817D01*
X56223095Y-92726115D01*
X56160783Y-92760141D01*
X56089968Y-92755076D01*
X56044905Y-92726115D01*
X54823066Y-91504276D01*
X54809529Y-91496884D01*
X54804260Y-91500570D01*
X54677073Y-91708121D01*
X54672592Y-91716915D01*
X54578016Y-91945242D01*
X54574967Y-91954627D01*
X54517272Y-92194940D01*
X54515729Y-92204687D01*
X54496338Y-92451070D01*
X54496338Y-92460930D01*
X54515729Y-92707313D01*
X54517272Y-92717060D01*
X54574967Y-92957373D01*
X54578016Y-92966758D01*
X54672592Y-93195085D01*
X54677073Y-93203879D01*
X54806208Y-93414608D01*
X54812000Y-93422581D01*
X54893641Y-93518169D01*
X54922672Y-93582959D01*
X54912067Y-93653159D01*
X54865193Y-93706481D01*
X54797830Y-93726000D01*
X33552307Y-93726000D01*
X33484186Y-93705998D01*
X33437693Y-93652342D01*
X33427589Y-93582068D01*
X33457083Y-93517488D01*
X33479676Y-93497040D01*
X33710342Y-93334323D01*
X33710346Y-93334320D01*
X33712855Y-93332550D01*
X34009674Y-93076344D01*
X34280074Y-92792395D01*
X34331858Y-92726115D01*
X34519565Y-92485860D01*
X34519567Y-92485857D01*
X34521475Y-92483415D01*
X34731574Y-92152354D01*
X34764481Y-92087210D01*
X34906977Y-91805113D01*
X34908363Y-91802370D01*
X34968469Y-91647407D01*
X35049041Y-91439681D01*
X35049044Y-91439672D01*
X35050156Y-91436805D01*
X35134868Y-91133401D01*
X55174810Y-91133401D01*
X55180817Y-91143607D01*
X56121188Y-92083978D01*
X56135132Y-92091592D01*
X56136965Y-92091461D01*
X56143580Y-92087210D01*
X57085724Y-91145066D01*
X57093116Y-91131529D01*
X57089430Y-91126260D01*
X56881879Y-90999073D01*
X56873085Y-90994592D01*
X56644758Y-90900016D01*
X56635373Y-90896967D01*
X56395060Y-90839272D01*
X56385313Y-90837729D01*
X56138930Y-90818338D01*
X56129070Y-90818338D01*
X55882687Y-90837729D01*
X55872940Y-90839272D01*
X55632627Y-90896967D01*
X55623242Y-90900016D01*
X55394915Y-90994592D01*
X55386121Y-90999073D01*
X55180072Y-91125340D01*
X55174810Y-91133401D01*
X35134868Y-91133401D01*
X35155600Y-91059148D01*
X35223688Y-90673004D01*
X35236788Y-90502747D01*
X35253619Y-90284013D01*
X35253619Y-90284002D01*
X35253769Y-90282059D01*
X35255334Y-90170000D01*
X35254681Y-90156634D01*
X35242911Y-89916000D01*
X57135758Y-89916000D01*
X57154696Y-90156634D01*
X57155850Y-90161441D01*
X57155851Y-90161447D01*
X57184808Y-90282059D01*
X57211045Y-90391343D01*
X57212938Y-90395914D01*
X57212939Y-90395916D01*
X57259731Y-90508881D01*
X57303416Y-90614347D01*
X57429536Y-90820156D01*
X57586299Y-91003701D01*
X57769844Y-91160464D01*
X57975653Y-91286584D01*
X57980223Y-91288477D01*
X57980227Y-91288479D01*
X58194084Y-91377061D01*
X58198657Y-91378955D01*
X58281039Y-91398733D01*
X58428553Y-91434149D01*
X58428559Y-91434150D01*
X58433366Y-91435304D01*
X58674000Y-91454242D01*
X58914634Y-91435304D01*
X58919441Y-91434150D01*
X58919447Y-91434149D01*
X59066961Y-91398733D01*
X59149343Y-91378955D01*
X59153916Y-91377061D01*
X59367773Y-91288479D01*
X59367777Y-91288477D01*
X59372347Y-91286584D01*
X59578156Y-91160464D01*
X59609843Y-91133401D01*
X60254810Y-91133401D01*
X60260817Y-91143607D01*
X61201188Y-92083978D01*
X61215132Y-92091592D01*
X61216965Y-92091461D01*
X61223580Y-92087210D01*
X62165724Y-91145066D01*
X62173116Y-91131529D01*
X62169430Y-91126260D01*
X61961879Y-90999073D01*
X61953085Y-90994592D01*
X61724758Y-90900016D01*
X61715373Y-90896967D01*
X61475060Y-90839272D01*
X61465313Y-90837729D01*
X61218930Y-90818338D01*
X61209070Y-90818338D01*
X60962687Y-90837729D01*
X60952940Y-90839272D01*
X60712627Y-90896967D01*
X60703242Y-90900016D01*
X60474915Y-90994592D01*
X60466121Y-90999073D01*
X60260072Y-91125340D01*
X60254810Y-91133401D01*
X59609843Y-91133401D01*
X59761701Y-91003701D01*
X59918464Y-90820156D01*
X60044584Y-90614347D01*
X60088270Y-90508881D01*
X60135061Y-90395916D01*
X60135062Y-90395914D01*
X60136955Y-90391343D01*
X60163192Y-90282059D01*
X60192149Y-90161447D01*
X60192150Y-90161441D01*
X60193304Y-90156634D01*
X60212242Y-89916000D01*
X60193304Y-89675366D01*
X60192150Y-89670559D01*
X60192149Y-89670553D01*
X60138110Y-89445469D01*
X60136955Y-89440657D01*
X60094688Y-89338614D01*
X60046479Y-89222227D01*
X60046477Y-89222223D01*
X60044584Y-89217653D01*
X59918464Y-89011844D01*
X59761701Y-88828299D01*
X59612034Y-88700471D01*
X60254884Y-88700471D01*
X60258570Y-88705740D01*
X60466121Y-88832927D01*
X60474915Y-88837408D01*
X60703242Y-88931984D01*
X60712627Y-88935033D01*
X60952940Y-88992728D01*
X60962687Y-88994271D01*
X61209070Y-89013662D01*
X61218930Y-89013662D01*
X61465313Y-88994271D01*
X61475060Y-88992728D01*
X61715373Y-88935033D01*
X61724758Y-88931984D01*
X61953085Y-88837408D01*
X61961879Y-88832927D01*
X62167928Y-88706660D01*
X62173190Y-88698599D01*
X62167183Y-88688393D01*
X61226812Y-87748022D01*
X61212868Y-87740408D01*
X61211035Y-87740539D01*
X61204420Y-87744790D01*
X60262276Y-88686934D01*
X60254884Y-88700471D01*
X59612034Y-88700471D01*
X59578156Y-88671536D01*
X59372347Y-88545416D01*
X59367777Y-88543523D01*
X59367773Y-88543521D01*
X59153916Y-88454939D01*
X59153914Y-88454938D01*
X59149343Y-88453045D01*
X59066961Y-88433267D01*
X58919447Y-88397851D01*
X58919441Y-88397850D01*
X58914634Y-88396696D01*
X58674000Y-88377758D01*
X58433366Y-88396696D01*
X58428559Y-88397850D01*
X58428553Y-88397851D01*
X58281039Y-88433267D01*
X58198657Y-88453045D01*
X58194086Y-88454938D01*
X58194084Y-88454939D01*
X57980227Y-88543521D01*
X57980223Y-88543523D01*
X57975653Y-88545416D01*
X57769844Y-88671536D01*
X57586299Y-88828299D01*
X57429536Y-89011844D01*
X57303416Y-89217653D01*
X57301523Y-89222223D01*
X57301521Y-89222227D01*
X57253312Y-89338614D01*
X57211045Y-89440657D01*
X57209890Y-89445469D01*
X57155851Y-89670553D01*
X57155850Y-89670559D01*
X57154696Y-89675366D01*
X57135758Y-89916000D01*
X35242911Y-89916000D01*
X35236330Y-89781440D01*
X35236180Y-89778367D01*
X35178901Y-89390473D01*
X35084043Y-89010019D01*
X35078436Y-88994271D01*
X34973818Y-88700471D01*
X55174884Y-88700471D01*
X55178570Y-88705740D01*
X55386121Y-88832927D01*
X55394915Y-88837408D01*
X55623242Y-88931984D01*
X55632627Y-88935033D01*
X55872940Y-88992728D01*
X55882687Y-88994271D01*
X56129070Y-89013662D01*
X56138930Y-89013662D01*
X56385313Y-88994271D01*
X56395060Y-88992728D01*
X56635373Y-88935033D01*
X56644758Y-88931984D01*
X56873085Y-88837408D01*
X56881879Y-88832927D01*
X57087928Y-88706660D01*
X57093190Y-88698599D01*
X57087183Y-88688393D01*
X56146812Y-87748022D01*
X56132868Y-87740408D01*
X56131035Y-87740539D01*
X56124420Y-87744790D01*
X55182276Y-88686934D01*
X55174884Y-88700471D01*
X34973818Y-88700471D01*
X34969517Y-88688393D01*
X34952512Y-88640637D01*
X34785564Y-88285854D01*
X34783997Y-88283225D01*
X34783992Y-88283216D01*
X34603161Y-87979871D01*
X34584791Y-87949055D01*
X34582977Y-87946595D01*
X34582972Y-87946587D01*
X34353933Y-87635926D01*
X34353931Y-87635923D01*
X34352111Y-87633455D01*
X34124736Y-87380930D01*
X54496338Y-87380930D01*
X54515729Y-87627313D01*
X54517272Y-87637060D01*
X54574967Y-87877373D01*
X54578016Y-87886758D01*
X54672592Y-88115085D01*
X54677073Y-88123879D01*
X54803340Y-88329928D01*
X54811401Y-88335190D01*
X54821607Y-88329183D01*
X55761978Y-87388812D01*
X55768356Y-87377132D01*
X56498408Y-87377132D01*
X56498539Y-87378965D01*
X56502790Y-87385580D01*
X57444934Y-88327724D01*
X57458471Y-88335116D01*
X57463740Y-88331430D01*
X57590927Y-88123879D01*
X57595408Y-88115085D01*
X57689984Y-87886758D01*
X57693033Y-87877373D01*
X57750728Y-87637060D01*
X57752271Y-87627313D01*
X57771662Y-87380930D01*
X59576338Y-87380930D01*
X59595729Y-87627313D01*
X59597272Y-87637060D01*
X59654967Y-87877373D01*
X59658016Y-87886758D01*
X59752592Y-88115085D01*
X59757073Y-88123879D01*
X59883340Y-88329928D01*
X59891401Y-88335190D01*
X59901607Y-88329183D01*
X60841978Y-87388812D01*
X60848356Y-87377132D01*
X61578408Y-87377132D01*
X61578539Y-87378965D01*
X61582790Y-87385580D01*
X62524934Y-88327724D01*
X62538471Y-88335116D01*
X62543740Y-88331430D01*
X62670927Y-88123879D01*
X62675408Y-88115085D01*
X62769984Y-87886758D01*
X62773033Y-87877373D01*
X62830728Y-87637060D01*
X62832271Y-87627313D01*
X62851662Y-87380930D01*
X62851662Y-87371070D01*
X62832271Y-87124687D01*
X62830728Y-87114940D01*
X62773033Y-86874627D01*
X62769984Y-86865242D01*
X62675408Y-86636915D01*
X62670927Y-86628121D01*
X62544660Y-86422072D01*
X62536599Y-86416810D01*
X62526393Y-86422817D01*
X61586022Y-87363188D01*
X61578408Y-87377132D01*
X60848356Y-87377132D01*
X60849592Y-87374868D01*
X60849461Y-87373035D01*
X60845210Y-87366420D01*
X59903066Y-86424276D01*
X59889529Y-86416884D01*
X59884260Y-86420570D01*
X59757073Y-86628121D01*
X59752592Y-86636915D01*
X59658016Y-86865242D01*
X59654967Y-86874627D01*
X59597272Y-87114940D01*
X59595729Y-87124687D01*
X59576338Y-87371070D01*
X59576338Y-87380930D01*
X57771662Y-87380930D01*
X57771662Y-87371070D01*
X57752271Y-87124687D01*
X57750728Y-87114940D01*
X57693033Y-86874627D01*
X57689984Y-86865242D01*
X57595408Y-86636915D01*
X57590927Y-86628121D01*
X57464660Y-86422072D01*
X57456599Y-86416810D01*
X57446393Y-86422817D01*
X56506022Y-87363188D01*
X56498408Y-87377132D01*
X55768356Y-87377132D01*
X55769592Y-87374868D01*
X55769461Y-87373035D01*
X55765210Y-87366420D01*
X54823066Y-86424276D01*
X54809529Y-86416884D01*
X54804260Y-86420570D01*
X54677073Y-86628121D01*
X54672592Y-86636915D01*
X54578016Y-86865242D01*
X54574967Y-86874627D01*
X54517272Y-87114940D01*
X54515729Y-87124687D01*
X54496338Y-87371070D01*
X54496338Y-87380930D01*
X34124736Y-87380930D01*
X34089744Y-87342068D01*
X33800195Y-87077673D01*
X33486228Y-86842795D01*
X33438015Y-86813596D01*
X33153467Y-86641267D01*
X33153458Y-86641262D01*
X33150839Y-86639676D01*
X32797229Y-86470255D01*
X32794339Y-86469203D01*
X32794334Y-86469201D01*
X32431674Y-86337204D01*
X32431671Y-86337203D01*
X32428775Y-86336149D01*
X32152563Y-86265229D01*
X32051977Y-86239403D01*
X32051974Y-86239402D01*
X32048993Y-86238637D01*
X31661508Y-86178651D01*
X31270018Y-86156764D01*
X31266939Y-86156893D01*
X31266936Y-86156893D01*
X31011188Y-86167612D01*
X30878261Y-86173183D01*
X30875217Y-86173611D01*
X30875215Y-86173611D01*
X30664778Y-86203186D01*
X30489976Y-86227753D01*
X30108869Y-86319953D01*
X29738579Y-86448902D01*
X29382638Y-86613369D01*
X29044446Y-86811785D01*
X28884444Y-86928033D01*
X28729711Y-87040453D01*
X28729705Y-87040458D01*
X28727230Y-87042256D01*
X28724944Y-87044285D01*
X28724941Y-87044288D01*
X28645364Y-87114940D01*
X28434017Y-87302583D01*
X28431938Y-87304828D01*
X28431931Y-87304835D01*
X28357161Y-87385580D01*
X28167608Y-87590279D01*
X28134836Y-87633455D01*
X27949692Y-87877373D01*
X27930544Y-87902599D01*
X27928930Y-87905223D01*
X27928924Y-87905232D01*
X27919318Y-87920846D01*
X27866588Y-87968386D01*
X27796527Y-87979871D01*
X27731378Y-87951655D01*
X27691826Y-87892696D01*
X27686000Y-87854825D01*
X27686000Y-86053401D01*
X55174810Y-86053401D01*
X55180817Y-86063607D01*
X56121188Y-87003978D01*
X56135132Y-87011592D01*
X56136965Y-87011461D01*
X56143580Y-87007210D01*
X57085724Y-86065066D01*
X57092094Y-86053401D01*
X60254810Y-86053401D01*
X60260817Y-86063607D01*
X61201188Y-87003978D01*
X61215132Y-87011592D01*
X61216965Y-87011461D01*
X61223580Y-87007210D01*
X62165724Y-86065066D01*
X62173116Y-86051529D01*
X62169430Y-86046260D01*
X61961879Y-85919073D01*
X61953085Y-85914592D01*
X61724758Y-85820016D01*
X61715373Y-85816967D01*
X61475060Y-85759272D01*
X61465313Y-85757729D01*
X61218930Y-85738338D01*
X61209070Y-85738338D01*
X60962687Y-85757729D01*
X60952940Y-85759272D01*
X60712627Y-85816967D01*
X60703242Y-85820016D01*
X60474915Y-85914592D01*
X60466121Y-85919073D01*
X60260072Y-86045340D01*
X60254810Y-86053401D01*
X57092094Y-86053401D01*
X57093116Y-86051529D01*
X57089430Y-86046260D01*
X56881879Y-85919073D01*
X56873085Y-85914592D01*
X56644758Y-85820016D01*
X56635373Y-85816967D01*
X56395060Y-85759272D01*
X56385313Y-85757729D01*
X56138930Y-85738338D01*
X56129070Y-85738338D01*
X55882687Y-85757729D01*
X55872940Y-85759272D01*
X55632627Y-85816967D01*
X55623242Y-85820016D01*
X55394915Y-85914592D01*
X55386121Y-85919073D01*
X55180072Y-86045340D01*
X55174810Y-86053401D01*
X27686000Y-86053401D01*
X27686000Y-81495500D01*
X63640996Y-81495500D01*
X63660958Y-81685428D01*
X63719973Y-81867056D01*
X63815460Y-82032444D01*
X63819878Y-82037351D01*
X63819879Y-82037352D01*
X63854545Y-82075852D01*
X63943247Y-82174366D01*
X64097748Y-82286618D01*
X64103776Y-82289302D01*
X64103778Y-82289303D01*
X64190251Y-82327803D01*
X64272212Y-82364294D01*
X64365613Y-82384147D01*
X64452556Y-82402628D01*
X64452561Y-82402628D01*
X64459013Y-82404000D01*
X64649987Y-82404000D01*
X64656439Y-82402628D01*
X64656444Y-82402628D01*
X64743387Y-82384147D01*
X64836788Y-82364294D01*
X64918749Y-82327803D01*
X65005222Y-82289303D01*
X65005224Y-82289302D01*
X65011252Y-82286618D01*
X65165753Y-82174366D01*
X65254455Y-82075852D01*
X65289121Y-82037352D01*
X65289122Y-82037351D01*
X65293540Y-82032444D01*
X65389027Y-81867056D01*
X65448042Y-81685428D01*
X65468004Y-81495500D01*
X65452778Y-81350635D01*
X65448732Y-81312135D01*
X65448732Y-81312133D01*
X65448042Y-81305572D01*
X65389027Y-81123944D01*
X65293540Y-80958556D01*
X65204841Y-80860045D01*
X65170175Y-80821545D01*
X65170174Y-80821544D01*
X65165753Y-80816634D01*
X65066657Y-80744636D01*
X65016594Y-80708263D01*
X65016593Y-80708262D01*
X65011252Y-80704382D01*
X65005224Y-80701698D01*
X65005222Y-80701697D01*
X64842819Y-80629391D01*
X64842818Y-80629391D01*
X64836788Y-80626706D01*
X64743388Y-80606853D01*
X64656444Y-80588372D01*
X64656439Y-80588372D01*
X64649987Y-80587000D01*
X64459013Y-80587000D01*
X64452561Y-80588372D01*
X64452556Y-80588372D01*
X64365612Y-80606853D01*
X64272212Y-80626706D01*
X64266182Y-80629391D01*
X64266181Y-80629391D01*
X64103778Y-80701697D01*
X64103776Y-80701698D01*
X64097748Y-80704382D01*
X64092407Y-80708262D01*
X64092406Y-80708263D01*
X64042343Y-80744636D01*
X63943247Y-80816634D01*
X63938826Y-80821544D01*
X63938825Y-80821545D01*
X63904160Y-80860045D01*
X63815460Y-80958556D01*
X63719973Y-81123944D01*
X63660958Y-81305572D01*
X63660268Y-81312133D01*
X63660268Y-81312135D01*
X63656222Y-81350635D01*
X63640996Y-81495500D01*
X27686000Y-81495500D01*
X27686000Y-77978000D01*
X33376496Y-77978000D01*
X33396458Y-78167928D01*
X33455473Y-78349556D01*
X33550960Y-78514944D01*
X33555378Y-78519851D01*
X33555379Y-78519852D01*
X33674325Y-78651955D01*
X33678747Y-78656866D01*
X33833248Y-78769118D01*
X33839276Y-78771802D01*
X33839278Y-78771803D01*
X34001681Y-78844109D01*
X34007712Y-78846794D01*
X34101113Y-78866647D01*
X34188056Y-78885128D01*
X34188061Y-78885128D01*
X34194513Y-78886500D01*
X34385487Y-78886500D01*
X34391939Y-78885128D01*
X34391944Y-78885128D01*
X34478887Y-78866647D01*
X34572288Y-78846794D01*
X34578319Y-78844109D01*
X34740722Y-78771803D01*
X34740724Y-78771802D01*
X34746752Y-78769118D01*
X34901253Y-78656866D01*
X34905675Y-78651955D01*
X35024621Y-78519852D01*
X35024622Y-78519851D01*
X35029040Y-78514944D01*
X35124527Y-78349556D01*
X35183542Y-78167928D01*
X35203504Y-77978000D01*
X35183542Y-77788072D01*
X35124527Y-77606444D01*
X35112820Y-77586166D01*
X35032341Y-77446774D01*
X35029040Y-77441056D01*
X34987451Y-77394866D01*
X34905675Y-77304045D01*
X34905674Y-77304044D01*
X34901253Y-77299134D01*
X34746752Y-77186882D01*
X34740724Y-77184198D01*
X34740722Y-77184197D01*
X34578319Y-77111891D01*
X34578318Y-77111891D01*
X34572288Y-77109206D01*
X34478887Y-77089353D01*
X34391944Y-77070872D01*
X34391939Y-77070872D01*
X34385487Y-77069500D01*
X34194513Y-77069500D01*
X34188061Y-77070872D01*
X34188056Y-77070872D01*
X34101113Y-77089353D01*
X34007712Y-77109206D01*
X34001682Y-77111891D01*
X34001681Y-77111891D01*
X33839278Y-77184197D01*
X33839276Y-77184198D01*
X33833248Y-77186882D01*
X33678747Y-77299134D01*
X33674326Y-77304044D01*
X33674325Y-77304045D01*
X33592550Y-77394866D01*
X33550960Y-77441056D01*
X33547659Y-77446774D01*
X33467181Y-77586166D01*
X33455473Y-77606444D01*
X33396458Y-77788072D01*
X33376496Y-77978000D01*
X27686000Y-77978000D01*
X27686000Y-76454000D01*
X47346496Y-76454000D01*
X47366458Y-76643928D01*
X47425473Y-76825556D01*
X47520960Y-76990944D01*
X47525378Y-76995851D01*
X47525379Y-76995852D01*
X47607950Y-77087556D01*
X47648747Y-77132866D01*
X47803248Y-77245118D01*
X47809276Y-77247802D01*
X47809278Y-77247803D01*
X47971681Y-77320109D01*
X47977712Y-77322794D01*
X48068069Y-77342000D01*
X48158056Y-77361128D01*
X48158061Y-77361128D01*
X48164513Y-77362500D01*
X48355487Y-77362500D01*
X48361939Y-77361128D01*
X48361944Y-77361128D01*
X48451931Y-77342000D01*
X48542288Y-77322794D01*
X48548319Y-77320109D01*
X48710722Y-77247803D01*
X48710724Y-77247802D01*
X48716752Y-77245118D01*
X48871253Y-77132866D01*
X48912050Y-77087556D01*
X48994621Y-76995852D01*
X48994622Y-76995851D01*
X48999040Y-76990944D01*
X49094527Y-76825556D01*
X49132724Y-76708000D01*
X57760496Y-76708000D01*
X57780458Y-76897928D01*
X57839473Y-77079556D01*
X57934960Y-77244944D01*
X57939378Y-77249851D01*
X57939379Y-77249852D01*
X58039572Y-77361128D01*
X58062747Y-77386866D01*
X58217248Y-77499118D01*
X58223276Y-77501802D01*
X58223278Y-77501803D01*
X58385681Y-77574109D01*
X58391712Y-77576794D01*
X58485113Y-77596647D01*
X58572056Y-77615128D01*
X58572061Y-77615128D01*
X58578513Y-77616500D01*
X58769487Y-77616500D01*
X58775939Y-77615128D01*
X58775944Y-77615128D01*
X58862887Y-77596647D01*
X58956288Y-77576794D01*
X58962319Y-77574109D01*
X59124722Y-77501803D01*
X59124724Y-77501802D01*
X59130752Y-77499118D01*
X59285253Y-77386866D01*
X59308428Y-77361128D01*
X59408621Y-77249852D01*
X59408622Y-77249851D01*
X59413040Y-77244944D01*
X59508527Y-77079556D01*
X59567542Y-76897928D01*
X59586663Y-76716000D01*
X63610496Y-76716000D01*
X63630458Y-76905928D01*
X63689473Y-77087556D01*
X63692776Y-77093278D01*
X63692777Y-77093279D01*
X63701973Y-77109206D01*
X63784960Y-77252944D01*
X63789378Y-77257851D01*
X63789379Y-77257852D01*
X63901122Y-77381955D01*
X63912747Y-77394866D01*
X63969567Y-77436148D01*
X64059933Y-77501803D01*
X64067248Y-77507118D01*
X64073276Y-77509802D01*
X64073278Y-77509803D01*
X64226825Y-77578166D01*
X64241712Y-77584794D01*
X64335112Y-77604647D01*
X64422056Y-77623128D01*
X64422061Y-77623128D01*
X64428513Y-77624500D01*
X64619487Y-77624500D01*
X64625939Y-77623128D01*
X64625944Y-77623128D01*
X64712888Y-77604647D01*
X64806288Y-77584794D01*
X64821175Y-77578166D01*
X64974722Y-77509803D01*
X64974724Y-77509802D01*
X64980752Y-77507118D01*
X64988068Y-77501803D01*
X65077939Y-77436507D01*
X65144806Y-77412649D01*
X65213958Y-77428729D01*
X65263438Y-77479643D01*
X65278000Y-77538443D01*
X65278000Y-77724000D01*
X65406000Y-77724000D01*
X65474121Y-77744002D01*
X65520614Y-77797658D01*
X65532000Y-77850000D01*
X65532000Y-78486000D01*
X67946000Y-78486000D01*
X68014121Y-78506002D01*
X68060614Y-78559658D01*
X68072000Y-78612000D01*
X68072000Y-80138000D01*
X68051998Y-80206121D01*
X67998342Y-80252614D01*
X67946000Y-80264000D01*
X66802000Y-80264000D01*
X66802000Y-85344000D01*
X71882000Y-85344000D01*
X71882000Y-81534000D01*
X77572496Y-81534000D01*
X77573186Y-81540565D01*
X77588412Y-81685428D01*
X77592458Y-81723928D01*
X77651473Y-81905556D01*
X77746960Y-82070944D01*
X77751378Y-82075851D01*
X77751379Y-82075852D01*
X77840081Y-82174366D01*
X77874747Y-82212866D01*
X77970916Y-82282737D01*
X77976258Y-82286618D01*
X78029248Y-82325118D01*
X78035276Y-82327802D01*
X78035278Y-82327803D01*
X78197681Y-82400109D01*
X78203712Y-82402794D01*
X78297112Y-82422647D01*
X78384056Y-82441128D01*
X78384061Y-82441128D01*
X78390513Y-82442500D01*
X78581487Y-82442500D01*
X78587939Y-82441128D01*
X78587944Y-82441128D01*
X78674888Y-82422647D01*
X78768288Y-82402794D01*
X78774319Y-82400109D01*
X78936722Y-82327803D01*
X78936724Y-82327802D01*
X78942752Y-82325118D01*
X78995743Y-82286618D01*
X79001084Y-82282737D01*
X79097253Y-82212866D01*
X79131919Y-82174366D01*
X79220621Y-82075852D01*
X79220622Y-82075851D01*
X79225040Y-82070944D01*
X79320527Y-81905556D01*
X79379542Y-81723928D01*
X79383589Y-81685428D01*
X79398814Y-81540565D01*
X79399504Y-81534000D01*
X79379542Y-81344072D01*
X79320527Y-81162444D01*
X79225040Y-80997056D01*
X79190375Y-80958556D01*
X79101675Y-80860045D01*
X79101674Y-80860044D01*
X79097253Y-80855134D01*
X78942752Y-80742882D01*
X78936724Y-80740198D01*
X78936722Y-80740197D01*
X78774319Y-80667891D01*
X78774318Y-80667891D01*
X78768288Y-80665206D01*
X78674887Y-80645353D01*
X78587944Y-80626872D01*
X78587939Y-80626872D01*
X78581487Y-80625500D01*
X78390513Y-80625500D01*
X78384061Y-80626872D01*
X78384056Y-80626872D01*
X78297113Y-80645353D01*
X78203712Y-80665206D01*
X78197682Y-80667891D01*
X78197681Y-80667891D01*
X78035278Y-80740197D01*
X78035276Y-80740198D01*
X78029248Y-80742882D01*
X77874747Y-80855134D01*
X77870326Y-80860044D01*
X77870325Y-80860045D01*
X77781626Y-80958556D01*
X77746960Y-80997056D01*
X77651473Y-81162444D01*
X77592458Y-81344072D01*
X77572496Y-81534000D01*
X71882000Y-81534000D01*
X71882000Y-80264000D01*
X70738000Y-80264000D01*
X70669879Y-80243998D01*
X70623386Y-80190342D01*
X70612000Y-80138000D01*
X70612000Y-78612000D01*
X70632002Y-78543879D01*
X70685658Y-78497386D01*
X70738000Y-78486000D01*
X73026000Y-78486000D01*
X73094121Y-78506002D01*
X73140614Y-78559658D01*
X73152000Y-78612000D01*
X73152000Y-79502000D01*
X77724000Y-79502000D01*
X77724000Y-78612000D01*
X77744002Y-78543879D01*
X77797658Y-78497386D01*
X77850000Y-78486000D01*
X78486000Y-78486000D01*
X79719095Y-77252905D01*
X79781407Y-77218879D01*
X79808190Y-77216000D01*
X80138000Y-77216000D01*
X80206121Y-77236002D01*
X80252614Y-77289658D01*
X80264000Y-77342000D01*
X80264000Y-78486000D01*
X82424000Y-78486000D01*
X82492121Y-78506002D01*
X82538614Y-78559658D01*
X82550000Y-78612000D01*
X82550000Y-80646000D01*
X82529998Y-80714121D01*
X82476342Y-80760614D01*
X82424000Y-80772000D01*
X81280000Y-80772000D01*
X81280000Y-85852000D01*
X86360000Y-85852000D01*
X86360000Y-80772000D01*
X85216000Y-80772000D01*
X85147879Y-80751998D01*
X85101386Y-80698342D01*
X85090000Y-80646000D01*
X85090000Y-78612000D01*
X85110002Y-78543879D01*
X85163658Y-78497386D01*
X85216000Y-78486000D01*
X89154000Y-78486000D01*
X89154000Y-77724000D01*
X85216000Y-77724000D01*
X85147879Y-77703998D01*
X85101386Y-77650342D01*
X85090000Y-77598000D01*
X85090000Y-76454000D01*
X90780496Y-76454000D01*
X90800458Y-76643928D01*
X90859473Y-76825556D01*
X90954960Y-76990944D01*
X90959378Y-76995851D01*
X90959379Y-76995852D01*
X91041950Y-77087556D01*
X91082747Y-77132866D01*
X91237248Y-77245118D01*
X91243276Y-77247802D01*
X91243278Y-77247803D01*
X91405681Y-77320109D01*
X91411712Y-77322794D01*
X91502069Y-77342000D01*
X91592056Y-77361128D01*
X91592061Y-77361128D01*
X91598513Y-77362500D01*
X91789487Y-77362500D01*
X91795939Y-77361128D01*
X91795944Y-77361128D01*
X91885931Y-77342000D01*
X91976288Y-77322794D01*
X91982319Y-77320109D01*
X92144722Y-77247803D01*
X92144724Y-77247802D01*
X92150752Y-77245118D01*
X92305253Y-77132866D01*
X92346050Y-77087556D01*
X92428621Y-76995852D01*
X92428622Y-76995851D01*
X92433040Y-76990944D01*
X92528527Y-76825556D01*
X92587542Y-76643928D01*
X92607504Y-76454000D01*
X92587542Y-76264072D01*
X92528527Y-76082444D01*
X92514263Y-76057737D01*
X92468112Y-75977803D01*
X92433040Y-75917056D01*
X92387744Y-75866749D01*
X92309675Y-75780045D01*
X92309674Y-75780044D01*
X92305253Y-75775134D01*
X92150752Y-75662882D01*
X92144724Y-75660198D01*
X92144722Y-75660197D01*
X91982319Y-75587891D01*
X91982318Y-75587891D01*
X91976288Y-75585206D01*
X91863721Y-75561279D01*
X91795944Y-75546872D01*
X91795939Y-75546872D01*
X91789487Y-75545500D01*
X91598513Y-75545500D01*
X91592061Y-75546872D01*
X91592056Y-75546872D01*
X91524279Y-75561279D01*
X91411712Y-75585206D01*
X91405682Y-75587891D01*
X91405681Y-75587891D01*
X91243278Y-75660197D01*
X91243276Y-75660198D01*
X91237248Y-75662882D01*
X91082747Y-75775134D01*
X91078326Y-75780044D01*
X91078325Y-75780045D01*
X91000257Y-75866749D01*
X90954960Y-75917056D01*
X90919888Y-75977803D01*
X90873738Y-76057737D01*
X90859473Y-76082444D01*
X90800458Y-76264072D01*
X90780496Y-76454000D01*
X85090000Y-76454000D01*
X79502000Y-76454000D01*
X78014905Y-77941095D01*
X77952593Y-77975121D01*
X77925810Y-77978000D01*
X77850000Y-77978000D01*
X77781879Y-77957998D01*
X77735386Y-77904342D01*
X77724000Y-77852000D01*
X77724000Y-76962000D01*
X73152000Y-76962000D01*
X73152000Y-77090000D01*
X73131998Y-77158121D01*
X73078342Y-77204614D01*
X73026000Y-77216000D01*
X70738000Y-77216000D01*
X70669879Y-77195998D01*
X70623386Y-77142342D01*
X70612000Y-77090000D01*
X70612000Y-76200000D01*
X68198000Y-76200000D01*
X68129879Y-76179998D01*
X68083386Y-76126342D01*
X68072000Y-76074000D01*
X68072000Y-75946000D01*
X65278000Y-75946000D01*
X65278000Y-75953794D01*
X65258611Y-75976170D01*
X65258464Y-75976042D01*
X65250946Y-75989810D01*
X65188633Y-76023835D01*
X65117818Y-76018769D01*
X65087790Y-76002650D01*
X64986094Y-75928763D01*
X64986093Y-75928762D01*
X64980752Y-75924882D01*
X64974724Y-75922198D01*
X64974722Y-75922197D01*
X64812319Y-75849891D01*
X64812318Y-75849891D01*
X64806288Y-75847206D01*
X64712888Y-75827353D01*
X64625944Y-75808872D01*
X64625939Y-75808872D01*
X64619487Y-75807500D01*
X64428513Y-75807500D01*
X64422061Y-75808872D01*
X64422056Y-75808872D01*
X64335112Y-75827353D01*
X64241712Y-75847206D01*
X64235682Y-75849891D01*
X64235681Y-75849891D01*
X64073278Y-75922197D01*
X64073276Y-75922198D01*
X64067248Y-75924882D01*
X63912747Y-76037134D01*
X63908326Y-76042044D01*
X63908325Y-76042045D01*
X63864131Y-76091128D01*
X63784960Y-76179056D01*
X63689473Y-76344444D01*
X63630458Y-76526072D01*
X63610496Y-76716000D01*
X59586663Y-76716000D01*
X59587504Y-76708000D01*
X59567542Y-76518072D01*
X59508527Y-76336444D01*
X59413040Y-76171056D01*
X59384442Y-76139294D01*
X59289675Y-76034045D01*
X59289674Y-76034044D01*
X59285253Y-76029134D01*
X59138862Y-75922774D01*
X59136094Y-75920763D01*
X59136093Y-75920762D01*
X59130752Y-75916882D01*
X59124724Y-75914198D01*
X59124722Y-75914197D01*
X58962319Y-75841891D01*
X58962318Y-75841891D01*
X58956288Y-75839206D01*
X58829951Y-75812352D01*
X58775944Y-75800872D01*
X58775939Y-75800872D01*
X58769487Y-75799500D01*
X58578513Y-75799500D01*
X58572061Y-75800872D01*
X58572056Y-75800872D01*
X58518049Y-75812352D01*
X58391712Y-75839206D01*
X58385682Y-75841891D01*
X58385681Y-75841891D01*
X58223278Y-75914197D01*
X58223276Y-75914198D01*
X58217248Y-75916882D01*
X58211907Y-75920762D01*
X58211906Y-75920763D01*
X58209138Y-75922774D01*
X58062747Y-76029134D01*
X58058326Y-76034044D01*
X58058325Y-76034045D01*
X57963559Y-76139294D01*
X57934960Y-76171056D01*
X57839473Y-76336444D01*
X57780458Y-76518072D01*
X57760496Y-76708000D01*
X49132724Y-76708000D01*
X49153542Y-76643928D01*
X49173504Y-76454000D01*
X49153542Y-76264072D01*
X49094527Y-76082444D01*
X49080263Y-76057737D01*
X49034112Y-75977803D01*
X48999040Y-75917056D01*
X48953744Y-75866749D01*
X48875675Y-75780045D01*
X48875674Y-75780044D01*
X48871253Y-75775134D01*
X48716752Y-75662882D01*
X48710724Y-75660198D01*
X48710722Y-75660197D01*
X48548319Y-75587891D01*
X48548318Y-75587891D01*
X48542288Y-75585206D01*
X48429721Y-75561279D01*
X48361944Y-75546872D01*
X48361939Y-75546872D01*
X48355487Y-75545500D01*
X48164513Y-75545500D01*
X48158061Y-75546872D01*
X48158056Y-75546872D01*
X48090279Y-75561279D01*
X47977712Y-75585206D01*
X47971682Y-75587891D01*
X47971681Y-75587891D01*
X47809278Y-75660197D01*
X47809276Y-75660198D01*
X47803248Y-75662882D01*
X47648747Y-75775134D01*
X47644326Y-75780044D01*
X47644325Y-75780045D01*
X47566257Y-75866749D01*
X47520960Y-75917056D01*
X47485888Y-75977803D01*
X47439738Y-76057737D01*
X47425473Y-76082444D01*
X47366458Y-76264072D01*
X47346496Y-76454000D01*
X27686000Y-76454000D01*
X27686000Y-75184000D01*
X31598496Y-75184000D01*
X31618458Y-75373928D01*
X31677473Y-75555556D01*
X31772960Y-75720944D01*
X31777378Y-75725851D01*
X31777379Y-75725852D01*
X31855264Y-75812352D01*
X31900747Y-75862866D01*
X31968578Y-75912148D01*
X32019804Y-75949366D01*
X32055248Y-75975118D01*
X32061276Y-75977802D01*
X32061278Y-75977803D01*
X32205569Y-76042045D01*
X32229712Y-76052794D01*
X32323113Y-76072647D01*
X32410056Y-76091128D01*
X32410061Y-76091128D01*
X32416513Y-76092500D01*
X32607487Y-76092500D01*
X32613939Y-76091128D01*
X32613944Y-76091128D01*
X32700887Y-76072647D01*
X32794288Y-76052794D01*
X32818431Y-76042045D01*
X32962722Y-75977803D01*
X32962724Y-75977802D01*
X32968752Y-75975118D01*
X33004197Y-75949366D01*
X33055422Y-75912148D01*
X33123253Y-75862866D01*
X33168736Y-75812352D01*
X33246621Y-75725852D01*
X33246622Y-75725851D01*
X33251040Y-75720944D01*
X33346527Y-75555556D01*
X33405542Y-75373928D01*
X33416413Y-75270500D01*
X49291996Y-75270500D01*
X49292686Y-75277065D01*
X49302867Y-75373928D01*
X49311958Y-75460428D01*
X49370973Y-75642056D01*
X49374276Y-75647778D01*
X49374277Y-75647779D01*
X49408186Y-75706510D01*
X49466460Y-75807444D01*
X49470878Y-75812351D01*
X49470879Y-75812352D01*
X49575696Y-75928763D01*
X49594247Y-75949366D01*
X49748748Y-76061618D01*
X49754776Y-76064302D01*
X49754778Y-76064303D01*
X49818110Y-76092500D01*
X49923212Y-76139294D01*
X50016612Y-76159147D01*
X50103556Y-76177628D01*
X50103561Y-76177628D01*
X50110013Y-76179000D01*
X50300987Y-76179000D01*
X50307439Y-76177628D01*
X50307444Y-76177628D01*
X50394388Y-76159147D01*
X50487788Y-76139294D01*
X50592890Y-76092500D01*
X50656222Y-76064303D01*
X50656224Y-76064302D01*
X50662252Y-76061618D01*
X50816753Y-75949366D01*
X50835304Y-75928763D01*
X50940121Y-75812352D01*
X50940122Y-75812351D01*
X50944540Y-75807444D01*
X51002814Y-75706510D01*
X51036723Y-75647779D01*
X51036724Y-75647778D01*
X51040027Y-75642056D01*
X51099042Y-75460428D01*
X51108134Y-75373928D01*
X51118314Y-75277065D01*
X51119004Y-75270500D01*
X51109913Y-75184000D01*
X87986496Y-75184000D01*
X88006458Y-75373928D01*
X88065473Y-75555556D01*
X88160960Y-75720944D01*
X88165378Y-75725851D01*
X88165379Y-75725852D01*
X88243264Y-75812352D01*
X88288747Y-75862866D01*
X88356578Y-75912148D01*
X88407804Y-75949366D01*
X88443248Y-75975118D01*
X88449276Y-75977802D01*
X88449278Y-75977803D01*
X88593569Y-76042045D01*
X88617712Y-76052794D01*
X88711113Y-76072647D01*
X88798056Y-76091128D01*
X88798061Y-76091128D01*
X88804513Y-76092500D01*
X88995487Y-76092500D01*
X89001939Y-76091128D01*
X89001944Y-76091128D01*
X89088887Y-76072647D01*
X89182288Y-76052794D01*
X89206431Y-76042045D01*
X89350722Y-75977803D01*
X89350724Y-75977802D01*
X89356752Y-75975118D01*
X89392197Y-75949366D01*
X89443422Y-75912148D01*
X89511253Y-75862866D01*
X89556736Y-75812352D01*
X89634621Y-75725852D01*
X89634622Y-75725851D01*
X89639040Y-75720944D01*
X89734527Y-75555556D01*
X89793542Y-75373928D01*
X89813504Y-75184000D01*
X89803323Y-75087135D01*
X89794232Y-75000635D01*
X89794232Y-75000633D01*
X89793542Y-74994072D01*
X89734527Y-74812444D01*
X89639040Y-74647056D01*
X89511253Y-74505134D01*
X89356752Y-74392882D01*
X89350724Y-74390198D01*
X89350722Y-74390197D01*
X89188319Y-74317891D01*
X89188318Y-74317891D01*
X89182288Y-74315206D01*
X89088887Y-74295353D01*
X89001944Y-74276872D01*
X89001939Y-74276872D01*
X88995487Y-74275500D01*
X88804513Y-74275500D01*
X88798061Y-74276872D01*
X88798056Y-74276872D01*
X88711113Y-74295353D01*
X88617712Y-74315206D01*
X88611682Y-74317891D01*
X88611681Y-74317891D01*
X88449278Y-74390197D01*
X88449276Y-74390198D01*
X88443248Y-74392882D01*
X88288747Y-74505134D01*
X88160960Y-74647056D01*
X88065473Y-74812444D01*
X88006458Y-74994072D01*
X88005768Y-75000633D01*
X88005768Y-75000635D01*
X87996677Y-75087135D01*
X87986496Y-75184000D01*
X51109913Y-75184000D01*
X51099042Y-75080572D01*
X51040027Y-74898944D01*
X50944540Y-74733556D01*
X50816753Y-74591634D01*
X50704456Y-74510045D01*
X50667594Y-74483263D01*
X50667593Y-74483262D01*
X50662252Y-74479382D01*
X50656224Y-74476698D01*
X50656222Y-74476697D01*
X50493819Y-74404391D01*
X50493818Y-74404391D01*
X50487788Y-74401706D01*
X50394388Y-74381853D01*
X50307444Y-74363372D01*
X50307439Y-74363372D01*
X50300987Y-74362000D01*
X50110013Y-74362000D01*
X50103561Y-74363372D01*
X50103556Y-74363372D01*
X50016612Y-74381853D01*
X49923212Y-74401706D01*
X49917182Y-74404391D01*
X49917181Y-74404391D01*
X49754778Y-74476697D01*
X49754776Y-74476698D01*
X49748748Y-74479382D01*
X49743407Y-74483262D01*
X49743406Y-74483263D01*
X49706544Y-74510045D01*
X49594247Y-74591634D01*
X49466460Y-74733556D01*
X49370973Y-74898944D01*
X49311958Y-75080572D01*
X49291996Y-75270500D01*
X33416413Y-75270500D01*
X33425504Y-75184000D01*
X33415323Y-75087135D01*
X33406232Y-75000635D01*
X33406232Y-75000633D01*
X33405542Y-74994072D01*
X33346527Y-74812444D01*
X33251040Y-74647056D01*
X33123253Y-74505134D01*
X32968752Y-74392882D01*
X32962724Y-74390198D01*
X32962722Y-74390197D01*
X32800319Y-74317891D01*
X32800318Y-74317891D01*
X32794288Y-74315206D01*
X32700887Y-74295353D01*
X32613944Y-74276872D01*
X32613939Y-74276872D01*
X32607487Y-74275500D01*
X32416513Y-74275500D01*
X32410061Y-74276872D01*
X32410056Y-74276872D01*
X32323113Y-74295353D01*
X32229712Y-74315206D01*
X32223682Y-74317891D01*
X32223681Y-74317891D01*
X32061278Y-74390197D01*
X32061276Y-74390198D01*
X32055248Y-74392882D01*
X31900747Y-74505134D01*
X31772960Y-74647056D01*
X31677473Y-74812444D01*
X31618458Y-74994072D01*
X31617768Y-75000633D01*
X31617768Y-75000635D01*
X31608677Y-75087135D01*
X31598496Y-75184000D01*
X27686000Y-75184000D01*
X27686000Y-74168000D01*
X73254496Y-74168000D01*
X73255186Y-74174565D01*
X73269824Y-74313834D01*
X73274458Y-74357928D01*
X73333473Y-74539556D01*
X73428960Y-74704944D01*
X73556747Y-74846866D01*
X73711248Y-74959118D01*
X73717276Y-74961802D01*
X73717278Y-74961803D01*
X73789756Y-74994072D01*
X73885712Y-75036794D01*
X73979113Y-75056647D01*
X74066056Y-75075128D01*
X74066061Y-75075128D01*
X74072513Y-75076500D01*
X74263487Y-75076500D01*
X74269939Y-75075128D01*
X74269944Y-75075128D01*
X74356887Y-75056647D01*
X74450288Y-75036794D01*
X74546244Y-74994072D01*
X74618722Y-74961803D01*
X74618724Y-74961802D01*
X74624752Y-74959118D01*
X74779253Y-74846866D01*
X74907040Y-74704944D01*
X75002527Y-74539556D01*
X75061542Y-74357928D01*
X75066177Y-74313834D01*
X75080814Y-74174565D01*
X75081504Y-74168000D01*
X75061542Y-73978072D01*
X75002527Y-73796444D01*
X74907040Y-73631056D01*
X74779253Y-73489134D01*
X74624752Y-73376882D01*
X74618724Y-73374198D01*
X74618722Y-73374197D01*
X74456319Y-73301891D01*
X74456318Y-73301891D01*
X74450288Y-73299206D01*
X74356887Y-73279353D01*
X74269944Y-73260872D01*
X74269939Y-73260872D01*
X74263487Y-73259500D01*
X74072513Y-73259500D01*
X74066061Y-73260872D01*
X74066056Y-73260872D01*
X73979113Y-73279353D01*
X73885712Y-73299206D01*
X73879682Y-73301891D01*
X73879681Y-73301891D01*
X73717278Y-73374197D01*
X73717276Y-73374198D01*
X73711248Y-73376882D01*
X73556747Y-73489134D01*
X73428960Y-73631056D01*
X73333473Y-73796444D01*
X73274458Y-73978072D01*
X73254496Y-74168000D01*
X27686000Y-74168000D01*
X27686000Y-70866000D01*
X51410496Y-70866000D01*
X51411186Y-70872565D01*
X51417844Y-70935908D01*
X51430458Y-71055928D01*
X51489473Y-71237556D01*
X51492776Y-71243278D01*
X51492777Y-71243279D01*
X51526686Y-71302010D01*
X51584960Y-71402944D01*
X51589378Y-71407851D01*
X51589379Y-71407852D01*
X51695631Y-71525857D01*
X51712747Y-71544866D01*
X51867248Y-71657118D01*
X51873276Y-71659802D01*
X51873278Y-71659803D01*
X51907389Y-71674990D01*
X52041712Y-71734794D01*
X52126480Y-71752812D01*
X52222056Y-71773128D01*
X52222061Y-71773128D01*
X52228513Y-71774500D01*
X52419487Y-71774500D01*
X52425939Y-71773128D01*
X52425944Y-71773128D01*
X52468256Y-71764134D01*
X63172500Y-71764134D01*
X63179255Y-71826316D01*
X63230385Y-71962705D01*
X63317739Y-72079261D01*
X63434295Y-72166615D01*
X63570684Y-72217745D01*
X63632866Y-72224500D01*
X65429134Y-72224500D01*
X65491316Y-72217745D01*
X65627705Y-72166615D01*
X65744261Y-72079261D01*
X65831615Y-71962705D01*
X65875798Y-71844848D01*
X65918440Y-71788084D01*
X65985001Y-71763384D01*
X66054350Y-71778592D01*
X66089017Y-71806580D01*
X66114218Y-71835673D01*
X66121580Y-71842883D01*
X66285434Y-71978916D01*
X66293881Y-71984831D01*
X66477756Y-72092279D01*
X66487042Y-72096729D01*
X66686001Y-72172703D01*
X66695899Y-72175579D01*
X66799250Y-72196606D01*
X66813299Y-72195410D01*
X66817000Y-72185065D01*
X66817000Y-72184517D01*
X67325000Y-72184517D01*
X67329064Y-72198359D01*
X67342478Y-72200393D01*
X67349184Y-72199534D01*
X67359262Y-72197392D01*
X67563255Y-72136191D01*
X67572842Y-72132433D01*
X67764095Y-72038739D01*
X67772945Y-72033464D01*
X67946328Y-71909792D01*
X67954200Y-71903139D01*
X68105052Y-71752812D01*
X68111730Y-71744965D01*
X68239022Y-71567819D01*
X68240279Y-71568722D01*
X68287373Y-71525362D01*
X68357311Y-71513145D01*
X68422751Y-71540678D01*
X68450579Y-71572511D01*
X68510987Y-71671088D01*
X68657250Y-71839938D01*
X68829126Y-71982632D01*
X69022000Y-72095338D01*
X69230692Y-72175030D01*
X69235760Y-72176061D01*
X69235763Y-72176062D01*
X69330862Y-72195410D01*
X69449597Y-72219567D01*
X69454772Y-72219757D01*
X69454774Y-72219757D01*
X69667673Y-72227564D01*
X69667677Y-72227564D01*
X69672837Y-72227753D01*
X69677957Y-72227097D01*
X69677959Y-72227097D01*
X69889288Y-72200025D01*
X69889289Y-72200025D01*
X69894416Y-72199368D01*
X69899366Y-72197883D01*
X70103429Y-72136661D01*
X70103434Y-72136659D01*
X70108384Y-72135174D01*
X70308994Y-72036896D01*
X70490860Y-71907173D01*
X70649096Y-71749489D01*
X70658670Y-71736166D01*
X70779453Y-71568077D01*
X70780640Y-71568930D01*
X70827960Y-71525362D01*
X70897897Y-71513145D01*
X70963338Y-71540678D01*
X70991166Y-71572511D01*
X71048694Y-71666388D01*
X71054777Y-71674699D01*
X71194213Y-71835667D01*
X71201580Y-71842883D01*
X71365434Y-71978916D01*
X71373881Y-71984831D01*
X71557756Y-72092279D01*
X71567042Y-72096729D01*
X71766001Y-72172703D01*
X71775899Y-72175579D01*
X71879250Y-72196606D01*
X71893299Y-72195410D01*
X71897000Y-72185065D01*
X71897000Y-72184517D01*
X72405000Y-72184517D01*
X72409064Y-72198359D01*
X72422478Y-72200393D01*
X72429184Y-72199534D01*
X72439262Y-72197392D01*
X72643255Y-72136191D01*
X72652842Y-72132433D01*
X72844095Y-72038739D01*
X72852945Y-72033464D01*
X73026328Y-71909792D01*
X73034200Y-71903139D01*
X73185052Y-71752812D01*
X73191730Y-71744965D01*
X73319022Y-71567819D01*
X73320279Y-71568722D01*
X73367373Y-71525362D01*
X73437311Y-71513145D01*
X73502751Y-71540678D01*
X73530579Y-71572511D01*
X73590987Y-71671088D01*
X73737250Y-71839938D01*
X73909126Y-71982632D01*
X74102000Y-72095338D01*
X74310692Y-72175030D01*
X74315760Y-72176061D01*
X74315763Y-72176062D01*
X74410862Y-72195410D01*
X74529597Y-72219567D01*
X74534772Y-72219757D01*
X74534774Y-72219757D01*
X74747673Y-72227564D01*
X74747677Y-72227564D01*
X74752837Y-72227753D01*
X74757957Y-72227097D01*
X74757959Y-72227097D01*
X74969288Y-72200025D01*
X74969289Y-72200025D01*
X74974416Y-72199368D01*
X74979366Y-72197883D01*
X75183429Y-72136661D01*
X75183434Y-72136659D01*
X75188384Y-72135174D01*
X75388994Y-72036896D01*
X75570860Y-71907173D01*
X75729096Y-71749489D01*
X75738670Y-71736166D01*
X75859453Y-71568077D01*
X75860776Y-71569028D01*
X75907645Y-71525857D01*
X75977580Y-71513625D01*
X76043026Y-71541144D01*
X76070875Y-71572994D01*
X76130987Y-71671088D01*
X76277250Y-71839938D01*
X76449126Y-71982632D01*
X76642000Y-72095338D01*
X76850692Y-72175030D01*
X76855760Y-72176061D01*
X76855763Y-72176062D01*
X76950862Y-72195410D01*
X77069597Y-72219567D01*
X77074772Y-72219757D01*
X77074774Y-72219757D01*
X77287673Y-72227564D01*
X77287677Y-72227564D01*
X77292837Y-72227753D01*
X77297957Y-72227097D01*
X77297959Y-72227097D01*
X77509288Y-72200025D01*
X77509289Y-72200025D01*
X77514416Y-72199368D01*
X77519366Y-72197883D01*
X77723429Y-72136661D01*
X77723434Y-72136659D01*
X77728384Y-72135174D01*
X77928994Y-72036896D01*
X78110860Y-71907173D01*
X78269096Y-71749489D01*
X78278670Y-71736166D01*
X78399453Y-71568077D01*
X78400640Y-71568930D01*
X78447960Y-71525362D01*
X78517897Y-71513145D01*
X78583338Y-71540678D01*
X78611166Y-71572511D01*
X78668694Y-71666388D01*
X78674777Y-71674699D01*
X78814213Y-71835667D01*
X78821580Y-71842883D01*
X78985434Y-71978916D01*
X78993881Y-71984831D01*
X79177756Y-72092279D01*
X79187042Y-72096729D01*
X79386001Y-72172703D01*
X79395899Y-72175579D01*
X79499250Y-72196606D01*
X79513299Y-72195410D01*
X79517000Y-72185065D01*
X79517000Y-72184517D01*
X80025000Y-72184517D01*
X80029064Y-72198359D01*
X80042478Y-72200393D01*
X80049184Y-72199534D01*
X80059262Y-72197392D01*
X80263255Y-72136191D01*
X80272842Y-72132433D01*
X80464095Y-72038739D01*
X80472945Y-72033464D01*
X80646328Y-71909792D01*
X80654200Y-71903139D01*
X80805052Y-71752812D01*
X80811730Y-71744965D01*
X80939022Y-71567819D01*
X80940279Y-71568722D01*
X80987373Y-71525362D01*
X81057311Y-71513145D01*
X81122751Y-71540678D01*
X81150579Y-71572511D01*
X81210987Y-71671088D01*
X81357250Y-71839938D01*
X81529126Y-71982632D01*
X81722000Y-72095338D01*
X81930692Y-72175030D01*
X81935760Y-72176061D01*
X81935763Y-72176062D01*
X82030862Y-72195410D01*
X82149597Y-72219567D01*
X82154772Y-72219757D01*
X82154774Y-72219757D01*
X82367673Y-72227564D01*
X82367677Y-72227564D01*
X82372837Y-72227753D01*
X82377957Y-72227097D01*
X82377959Y-72227097D01*
X82589288Y-72200025D01*
X82589289Y-72200025D01*
X82594416Y-72199368D01*
X82599366Y-72197883D01*
X82803429Y-72136661D01*
X82803434Y-72136659D01*
X82808384Y-72135174D01*
X83008994Y-72036896D01*
X83190860Y-71907173D01*
X83349096Y-71749489D01*
X83358670Y-71736166D01*
X83476435Y-71572277D01*
X83479453Y-71568077D01*
X83489006Y-71548749D01*
X83576136Y-71372453D01*
X83576137Y-71372451D01*
X83578430Y-71367811D01*
X83643370Y-71154069D01*
X83672529Y-70932590D01*
X83674156Y-70866000D01*
X83655852Y-70643361D01*
X83601431Y-70426702D01*
X83512354Y-70221840D01*
X83472906Y-70160862D01*
X83393822Y-70038617D01*
X83393820Y-70038614D01*
X83391014Y-70034277D01*
X83240670Y-69869051D01*
X83236619Y-69865852D01*
X83236615Y-69865848D01*
X83069414Y-69733800D01*
X83069410Y-69733798D01*
X83065359Y-69730598D01*
X83029028Y-69710542D01*
X83013136Y-69701769D01*
X82869789Y-69622638D01*
X82864920Y-69620914D01*
X82864916Y-69620912D01*
X82664087Y-69549795D01*
X82664083Y-69549794D01*
X82659212Y-69548069D01*
X82654119Y-69547162D01*
X82654116Y-69547161D01*
X82444373Y-69509800D01*
X82444367Y-69509799D01*
X82439284Y-69508894D01*
X82365452Y-69507992D01*
X82221081Y-69506228D01*
X82221079Y-69506228D01*
X82215911Y-69506165D01*
X81995091Y-69539955D01*
X81782756Y-69609357D01*
X81584607Y-69712507D01*
X81580474Y-69715610D01*
X81580471Y-69715612D01*
X81410100Y-69843530D01*
X81405965Y-69846635D01*
X81251629Y-70008138D01*
X81144204Y-70165618D01*
X81143898Y-70166066D01*
X81088987Y-70211069D01*
X81018462Y-70219240D01*
X80954715Y-70187986D01*
X80934018Y-70163502D01*
X80853426Y-70038926D01*
X80847136Y-70030757D01*
X80703806Y-69873240D01*
X80696273Y-69866215D01*
X80529139Y-69734222D01*
X80520552Y-69728517D01*
X80334117Y-69625599D01*
X80324705Y-69621369D01*
X80123959Y-69550280D01*
X80113988Y-69547646D01*
X80042837Y-69534972D01*
X80029540Y-69536432D01*
X80025000Y-69550989D01*
X80025000Y-72184517D01*
X79517000Y-72184517D01*
X79517000Y-69549102D01*
X79513082Y-69535758D01*
X79498806Y-69533771D01*
X79460324Y-69539660D01*
X79450288Y-69542051D01*
X79247868Y-69608212D01*
X79238359Y-69612209D01*
X79049463Y-69710542D01*
X79040738Y-69716036D01*
X78870433Y-69843905D01*
X78862726Y-69850748D01*
X78715590Y-70004717D01*
X78709109Y-70012722D01*
X78604498Y-70166074D01*
X78549587Y-70211076D01*
X78479062Y-70219247D01*
X78415315Y-70187993D01*
X78394618Y-70163509D01*
X78313822Y-70038617D01*
X78313820Y-70038614D01*
X78311014Y-70034277D01*
X78160670Y-69869051D01*
X78156619Y-69865852D01*
X78156615Y-69865848D01*
X77989414Y-69733800D01*
X77989410Y-69733798D01*
X77985359Y-69730598D01*
X77949028Y-69710542D01*
X77933136Y-69701769D01*
X77789789Y-69622638D01*
X77784920Y-69620914D01*
X77784916Y-69620912D01*
X77584087Y-69549795D01*
X77584083Y-69549794D01*
X77579212Y-69548069D01*
X77574119Y-69547162D01*
X77574116Y-69547161D01*
X77364373Y-69509800D01*
X77364367Y-69509799D01*
X77359284Y-69508894D01*
X77285452Y-69507992D01*
X77141081Y-69506228D01*
X77141079Y-69506228D01*
X77135911Y-69506165D01*
X76915091Y-69539955D01*
X76702756Y-69609357D01*
X76504607Y-69712507D01*
X76500474Y-69715610D01*
X76500471Y-69715612D01*
X76330100Y-69843530D01*
X76325965Y-69846635D01*
X76171629Y-70008138D01*
X76064201Y-70165621D01*
X76009293Y-70210621D01*
X75938768Y-70218792D01*
X75875021Y-70187538D01*
X75854324Y-70163054D01*
X75773822Y-70038617D01*
X75773820Y-70038614D01*
X75771014Y-70034277D01*
X75620670Y-69869051D01*
X75616619Y-69865852D01*
X75616615Y-69865848D01*
X75449414Y-69733800D01*
X75449410Y-69733798D01*
X75445359Y-69730598D01*
X75409028Y-69710542D01*
X75393136Y-69701769D01*
X75249789Y-69622638D01*
X75244920Y-69620914D01*
X75244916Y-69620912D01*
X75044087Y-69549795D01*
X75044083Y-69549794D01*
X75039212Y-69548069D01*
X75034119Y-69547162D01*
X75034116Y-69547161D01*
X74824373Y-69509800D01*
X74824367Y-69509799D01*
X74819284Y-69508894D01*
X74745452Y-69507992D01*
X74601081Y-69506228D01*
X74601079Y-69506228D01*
X74595911Y-69506165D01*
X74375091Y-69539955D01*
X74162756Y-69609357D01*
X73964607Y-69712507D01*
X73960474Y-69715610D01*
X73960471Y-69715612D01*
X73790100Y-69843530D01*
X73785965Y-69846635D01*
X73631629Y-70008138D01*
X73524204Y-70165618D01*
X73523898Y-70166066D01*
X73468987Y-70211069D01*
X73398462Y-70219240D01*
X73334715Y-70187986D01*
X73314018Y-70163502D01*
X73233426Y-70038926D01*
X73227136Y-70030757D01*
X73083806Y-69873240D01*
X73076273Y-69866215D01*
X72909139Y-69734222D01*
X72900552Y-69728517D01*
X72714117Y-69625599D01*
X72704705Y-69621369D01*
X72503959Y-69550280D01*
X72493988Y-69547646D01*
X72422837Y-69534972D01*
X72409540Y-69536432D01*
X72405000Y-69550989D01*
X72405000Y-72184517D01*
X71897000Y-72184517D01*
X71897000Y-69549102D01*
X71893082Y-69535758D01*
X71878806Y-69533771D01*
X71840324Y-69539660D01*
X71830288Y-69542051D01*
X71627868Y-69608212D01*
X71618359Y-69612209D01*
X71429463Y-69710542D01*
X71420738Y-69716036D01*
X71250433Y-69843905D01*
X71242726Y-69850748D01*
X71095590Y-70004717D01*
X71089109Y-70012722D01*
X70984498Y-70166074D01*
X70929587Y-70211076D01*
X70859062Y-70219247D01*
X70795315Y-70187993D01*
X70774618Y-70163509D01*
X70693822Y-70038617D01*
X70693820Y-70038614D01*
X70691014Y-70034277D01*
X70540670Y-69869051D01*
X70536619Y-69865852D01*
X70536615Y-69865848D01*
X70369414Y-69733800D01*
X70369410Y-69733798D01*
X70365359Y-69730598D01*
X70329028Y-69710542D01*
X70313136Y-69701769D01*
X70169789Y-69622638D01*
X70164920Y-69620914D01*
X70164916Y-69620912D01*
X69964087Y-69549795D01*
X69964083Y-69549794D01*
X69959212Y-69548069D01*
X69954119Y-69547162D01*
X69954116Y-69547161D01*
X69744373Y-69509800D01*
X69744367Y-69509799D01*
X69739284Y-69508894D01*
X69665452Y-69507992D01*
X69521081Y-69506228D01*
X69521079Y-69506228D01*
X69515911Y-69506165D01*
X69295091Y-69539955D01*
X69082756Y-69609357D01*
X68884607Y-69712507D01*
X68880474Y-69715610D01*
X68880471Y-69715612D01*
X68710100Y-69843530D01*
X68705965Y-69846635D01*
X68551629Y-70008138D01*
X68444204Y-70165618D01*
X68443898Y-70166066D01*
X68388987Y-70211069D01*
X68318462Y-70219240D01*
X68254715Y-70187986D01*
X68234018Y-70163502D01*
X68153426Y-70038926D01*
X68147136Y-70030757D01*
X68003806Y-69873240D01*
X67996273Y-69866215D01*
X67829139Y-69734222D01*
X67820552Y-69728517D01*
X67634117Y-69625599D01*
X67624705Y-69621369D01*
X67423959Y-69550280D01*
X67413988Y-69547646D01*
X67342837Y-69534972D01*
X67329540Y-69536432D01*
X67325000Y-69550989D01*
X67325000Y-72184517D01*
X66817000Y-72184517D01*
X66817000Y-69549102D01*
X66813082Y-69535758D01*
X66798806Y-69533771D01*
X66760324Y-69539660D01*
X66750288Y-69542051D01*
X66547868Y-69608212D01*
X66538359Y-69612209D01*
X66349463Y-69710542D01*
X66340738Y-69716036D01*
X66170433Y-69843905D01*
X66162726Y-69850748D01*
X66085478Y-69931584D01*
X66023954Y-69967014D01*
X65953042Y-69963557D01*
X65895255Y-69922311D01*
X65876402Y-69888763D01*
X65834767Y-69777703D01*
X65831615Y-69769295D01*
X65744261Y-69652739D01*
X65627705Y-69565385D01*
X65491316Y-69514255D01*
X65429134Y-69507500D01*
X63632866Y-69507500D01*
X63570684Y-69514255D01*
X63434295Y-69565385D01*
X63317739Y-69652739D01*
X63230385Y-69769295D01*
X63179255Y-69905684D01*
X63172500Y-69967866D01*
X63172500Y-71764134D01*
X52468256Y-71764134D01*
X52521520Y-71752812D01*
X52606288Y-71734794D01*
X52740611Y-71674990D01*
X52774722Y-71659803D01*
X52774724Y-71659802D01*
X52780752Y-71657118D01*
X52935253Y-71544866D01*
X52952369Y-71525857D01*
X53058621Y-71407852D01*
X53058622Y-71407851D01*
X53063040Y-71402944D01*
X53121314Y-71302010D01*
X53155223Y-71243279D01*
X53155224Y-71243278D01*
X53158527Y-71237556D01*
X53217542Y-71055928D01*
X53230157Y-70935908D01*
X53236814Y-70872565D01*
X53237504Y-70866000D01*
X53217542Y-70676072D01*
X53158527Y-70494444D01*
X53063040Y-70329056D01*
X52966503Y-70221840D01*
X52939675Y-70192045D01*
X52939674Y-70192044D01*
X52935253Y-70187134D01*
X52780752Y-70074882D01*
X52774724Y-70072198D01*
X52774722Y-70072197D01*
X52612319Y-69999891D01*
X52612318Y-69999891D01*
X52606288Y-69997206D01*
X52484331Y-69971283D01*
X52425944Y-69958872D01*
X52425939Y-69958872D01*
X52419487Y-69957500D01*
X52228513Y-69957500D01*
X52222061Y-69958872D01*
X52222056Y-69958872D01*
X52163669Y-69971283D01*
X52041712Y-69997206D01*
X52035682Y-69999891D01*
X52035681Y-69999891D01*
X51873278Y-70072197D01*
X51873276Y-70072198D01*
X51867248Y-70074882D01*
X51712747Y-70187134D01*
X51708326Y-70192044D01*
X51708325Y-70192045D01*
X51681498Y-70221840D01*
X51584960Y-70329056D01*
X51489473Y-70494444D01*
X51430458Y-70676072D01*
X51410496Y-70866000D01*
X27686000Y-70866000D01*
X27686000Y-63636134D01*
X29121500Y-63636134D01*
X29128255Y-63698316D01*
X29179385Y-63834705D01*
X29266739Y-63951261D01*
X29383295Y-64038615D01*
X29519684Y-64089745D01*
X29581866Y-64096500D01*
X31378134Y-64096500D01*
X31440316Y-64089745D01*
X31576705Y-64038615D01*
X31693261Y-63951261D01*
X31780615Y-63834705D01*
X31831745Y-63698316D01*
X31838500Y-63636134D01*
X35471500Y-63636134D01*
X35478255Y-63698316D01*
X35529385Y-63834705D01*
X35616739Y-63951261D01*
X35733295Y-64038615D01*
X35869684Y-64089745D01*
X35931866Y-64096500D01*
X37728134Y-64096500D01*
X37790316Y-64089745D01*
X37926705Y-64038615D01*
X38043261Y-63951261D01*
X38130615Y-63834705D01*
X38181745Y-63698316D01*
X38183286Y-63684134D01*
X41821500Y-63684134D01*
X41828255Y-63746316D01*
X41879385Y-63882705D01*
X41966739Y-63999261D01*
X42083295Y-64086615D01*
X42219684Y-64137745D01*
X42281866Y-64144500D01*
X44078134Y-64144500D01*
X44140316Y-64137745D01*
X44276705Y-64086615D01*
X44393261Y-63999261D01*
X44480615Y-63882705D01*
X44531745Y-63746316D01*
X44538500Y-63684134D01*
X44538500Y-63680669D01*
X48172001Y-63680669D01*
X48172371Y-63687490D01*
X48177895Y-63738352D01*
X48181521Y-63753604D01*
X48226676Y-63874054D01*
X48235214Y-63889649D01*
X48311715Y-63991724D01*
X48324276Y-64004285D01*
X48426351Y-64080786D01*
X48441946Y-64089324D01*
X48562394Y-64134478D01*
X48577649Y-64138105D01*
X48628514Y-64143631D01*
X48635328Y-64144000D01*
X49257885Y-64144000D01*
X49273124Y-64139525D01*
X49274329Y-64138135D01*
X49276000Y-64130452D01*
X49276000Y-64125884D01*
X49784000Y-64125884D01*
X49788475Y-64141123D01*
X49789865Y-64142328D01*
X49797548Y-64143999D01*
X50424669Y-64143999D01*
X50431490Y-64143629D01*
X50482352Y-64138105D01*
X50497604Y-64134479D01*
X50618054Y-64089324D01*
X50633649Y-64080786D01*
X50735724Y-64004285D01*
X50748285Y-63991724D01*
X50824786Y-63889649D01*
X50833324Y-63874054D01*
X50878478Y-63753606D01*
X50882105Y-63738351D01*
X50887631Y-63687486D01*
X50888000Y-63680672D01*
X50888000Y-63058115D01*
X50883525Y-63042876D01*
X50882135Y-63041671D01*
X50874452Y-63040000D01*
X49802115Y-63040000D01*
X49786876Y-63044475D01*
X49785671Y-63045865D01*
X49784000Y-63053548D01*
X49784000Y-64125884D01*
X49276000Y-64125884D01*
X49276000Y-63058115D01*
X49271525Y-63042876D01*
X49270135Y-63041671D01*
X49262452Y-63040000D01*
X48190116Y-63040000D01*
X48174877Y-63044475D01*
X48173672Y-63045865D01*
X48172001Y-63053548D01*
X48172001Y-63680669D01*
X44538500Y-63680669D01*
X44538500Y-62513885D01*
X48172000Y-62513885D01*
X48176475Y-62529124D01*
X48177865Y-62530329D01*
X48185548Y-62532000D01*
X49257885Y-62532000D01*
X49273124Y-62527525D01*
X49274329Y-62526135D01*
X49276000Y-62518452D01*
X49276000Y-62513885D01*
X49784000Y-62513885D01*
X49788475Y-62529124D01*
X49789865Y-62530329D01*
X49797548Y-62532000D01*
X50869884Y-62532000D01*
X50885123Y-62527525D01*
X50886328Y-62526135D01*
X50887999Y-62518452D01*
X50887999Y-61891331D01*
X50887629Y-61884510D01*
X50882105Y-61833648D01*
X50878479Y-61818396D01*
X50833324Y-61697946D01*
X50824786Y-61682351D01*
X50748285Y-61580276D01*
X50735724Y-61567715D01*
X50633649Y-61491214D01*
X50618054Y-61482676D01*
X50497606Y-61437522D01*
X50482351Y-61433895D01*
X50431486Y-61428369D01*
X50424672Y-61428000D01*
X49802115Y-61428000D01*
X49786876Y-61432475D01*
X49785671Y-61433865D01*
X49784000Y-61441548D01*
X49784000Y-62513885D01*
X49276000Y-62513885D01*
X49276000Y-61446116D01*
X49271525Y-61430877D01*
X49270135Y-61429672D01*
X49262452Y-61428001D01*
X48635331Y-61428001D01*
X48628510Y-61428371D01*
X48577648Y-61433895D01*
X48562396Y-61437521D01*
X48441946Y-61482676D01*
X48426351Y-61491214D01*
X48324276Y-61567715D01*
X48311715Y-61580276D01*
X48235214Y-61682351D01*
X48226676Y-61697946D01*
X48181522Y-61818394D01*
X48177895Y-61833649D01*
X48172369Y-61884514D01*
X48172000Y-61891328D01*
X48172000Y-62513885D01*
X44538500Y-62513885D01*
X44538500Y-61887866D01*
X44531745Y-61825684D01*
X44480615Y-61689295D01*
X44393261Y-61572739D01*
X44276705Y-61485385D01*
X44140316Y-61434255D01*
X44078134Y-61427500D01*
X42281866Y-61427500D01*
X42219684Y-61434255D01*
X42083295Y-61485385D01*
X41966739Y-61572739D01*
X41879385Y-61689295D01*
X41828255Y-61825684D01*
X41821500Y-61887866D01*
X41821500Y-63684134D01*
X38183286Y-63684134D01*
X38188500Y-63636134D01*
X38188500Y-61839866D01*
X38181745Y-61777684D01*
X38130615Y-61641295D01*
X38043261Y-61524739D01*
X37926705Y-61437385D01*
X37790316Y-61386255D01*
X37728134Y-61379500D01*
X35931866Y-61379500D01*
X35869684Y-61386255D01*
X35733295Y-61437385D01*
X35616739Y-61524739D01*
X35529385Y-61641295D01*
X35478255Y-61777684D01*
X35471500Y-61839866D01*
X35471500Y-63636134D01*
X31838500Y-63636134D01*
X31838500Y-61839866D01*
X31831745Y-61777684D01*
X31780615Y-61641295D01*
X31693261Y-61524739D01*
X31576705Y-61437385D01*
X31440316Y-61386255D01*
X31378134Y-61379500D01*
X29581866Y-61379500D01*
X29519684Y-61386255D01*
X29383295Y-61437385D01*
X29266739Y-61524739D01*
X29179385Y-61641295D01*
X29128255Y-61777684D01*
X29121500Y-61839866D01*
X29121500Y-63636134D01*
X27686000Y-63636134D01*
X27686000Y-58048134D01*
X41821500Y-58048134D01*
X41828255Y-58110316D01*
X41879385Y-58246705D01*
X41966739Y-58363261D01*
X42083295Y-58450615D01*
X42219684Y-58501745D01*
X42281866Y-58508500D01*
X44078134Y-58508500D01*
X44140316Y-58501745D01*
X44276705Y-58450615D01*
X44393261Y-58363261D01*
X44480615Y-58246705D01*
X44531745Y-58110316D01*
X44538500Y-58048134D01*
X48171500Y-58048134D01*
X48178255Y-58110316D01*
X48229385Y-58246705D01*
X48316739Y-58363261D01*
X48433295Y-58450615D01*
X48569684Y-58501745D01*
X48631866Y-58508500D01*
X50428134Y-58508500D01*
X50490316Y-58501745D01*
X50626705Y-58450615D01*
X50743261Y-58363261D01*
X50830615Y-58246705D01*
X50881745Y-58110316D01*
X50888500Y-58048134D01*
X50888500Y-57912000D01*
X56744496Y-57912000D01*
X56764458Y-58101928D01*
X56823473Y-58283556D01*
X56918960Y-58448944D01*
X56923378Y-58453851D01*
X56923379Y-58453852D01*
X57024208Y-58565834D01*
X57046747Y-58590866D01*
X57201248Y-58703118D01*
X57207276Y-58705802D01*
X57207278Y-58705803D01*
X57369681Y-58778109D01*
X57375712Y-58780794D01*
X57469113Y-58800647D01*
X57556056Y-58819128D01*
X57556061Y-58819128D01*
X57562513Y-58820500D01*
X57753487Y-58820500D01*
X57759939Y-58819128D01*
X57759944Y-58819128D01*
X57846887Y-58800647D01*
X57940288Y-58780794D01*
X57946319Y-58778109D01*
X58108722Y-58705803D01*
X58108724Y-58705802D01*
X58114752Y-58703118D01*
X58269253Y-58590866D01*
X58291792Y-58565834D01*
X58392621Y-58453852D01*
X58392622Y-58453851D01*
X58397040Y-58448944D01*
X58492527Y-58283556D01*
X58551542Y-58101928D01*
X58571504Y-57912000D01*
X58551542Y-57722072D01*
X58492527Y-57540444D01*
X58397040Y-57375056D01*
X58269253Y-57233134D01*
X58154829Y-57150000D01*
X60452000Y-57150000D01*
X63120000Y-57150000D01*
X63188121Y-57170002D01*
X63234614Y-57223658D01*
X63246000Y-57276000D01*
X63246000Y-60072000D01*
X63225998Y-60140121D01*
X63172342Y-60186614D01*
X63120000Y-60198000D01*
X61976000Y-60198000D01*
X61976000Y-67564000D01*
X67056000Y-67564000D01*
X67056000Y-60198000D01*
X65912000Y-60198000D01*
X65843879Y-60177998D01*
X65797386Y-60124342D01*
X65786000Y-60072000D01*
X65786000Y-59436000D01*
X76302496Y-59436000D01*
X76322458Y-59625928D01*
X76381473Y-59807556D01*
X76476960Y-59972944D01*
X76604747Y-60114866D01*
X76691640Y-60177998D01*
X76721471Y-60199671D01*
X76759248Y-60227118D01*
X76765276Y-60229802D01*
X76765278Y-60229803D01*
X76927681Y-60302109D01*
X76933712Y-60304794D01*
X77027113Y-60324647D01*
X77114056Y-60343128D01*
X77114061Y-60343128D01*
X77120513Y-60344500D01*
X77311487Y-60344500D01*
X77317939Y-60343128D01*
X77317944Y-60343128D01*
X77404887Y-60324647D01*
X77498288Y-60304794D01*
X77504319Y-60302109D01*
X77666722Y-60229803D01*
X77666724Y-60229802D01*
X77672752Y-60227118D01*
X77710530Y-60199671D01*
X77740360Y-60177998D01*
X77827253Y-60114866D01*
X77955040Y-59972944D01*
X78050527Y-59807556D01*
X78109542Y-59625928D01*
X78129504Y-59436000D01*
X78109542Y-59246072D01*
X78050527Y-59064444D01*
X77955040Y-58899056D01*
X77827253Y-58757134D01*
X77672752Y-58644882D01*
X77666724Y-58642198D01*
X77666722Y-58642197D01*
X77504319Y-58569891D01*
X77504318Y-58569891D01*
X77498288Y-58567206D01*
X77398522Y-58546000D01*
X77317944Y-58528872D01*
X77317939Y-58528872D01*
X77311487Y-58527500D01*
X77120513Y-58527500D01*
X77114061Y-58528872D01*
X77114056Y-58528872D01*
X77033478Y-58546000D01*
X76933712Y-58567206D01*
X76927682Y-58569891D01*
X76927681Y-58569891D01*
X76765278Y-58642197D01*
X76765276Y-58642198D01*
X76759248Y-58644882D01*
X76604747Y-58757134D01*
X76476960Y-58899056D01*
X76381473Y-59064444D01*
X76322458Y-59246072D01*
X76302496Y-59436000D01*
X65786000Y-59436000D01*
X65786000Y-58546000D01*
X65806002Y-58477879D01*
X65859658Y-58431386D01*
X65912000Y-58420000D01*
X68580000Y-58420000D01*
X68580000Y-58166000D01*
X80264000Y-58166000D01*
X82678000Y-58166000D01*
X82746121Y-58186002D01*
X82792614Y-58239658D01*
X82804000Y-58292000D01*
X82804000Y-61088000D01*
X82783998Y-61156121D01*
X82730342Y-61202614D01*
X82678000Y-61214000D01*
X81534000Y-61214000D01*
X81534000Y-68580000D01*
X86614000Y-68580000D01*
X86614000Y-61214000D01*
X85470000Y-61214000D01*
X85401879Y-61193998D01*
X85355386Y-61140342D01*
X85344000Y-61088000D01*
X85344000Y-59562000D01*
X85364002Y-59493879D01*
X85417658Y-59447386D01*
X85470000Y-59436000D01*
X88138000Y-59436000D01*
X88138000Y-57404000D01*
X80264000Y-57404000D01*
X80264000Y-58166000D01*
X68580000Y-58166000D01*
X68580000Y-56388000D01*
X60452000Y-56388000D01*
X60452000Y-57150000D01*
X58154829Y-57150000D01*
X58120094Y-57124763D01*
X58120093Y-57124762D01*
X58114752Y-57120882D01*
X58108724Y-57118198D01*
X58108722Y-57118197D01*
X57946319Y-57045891D01*
X57946318Y-57045891D01*
X57940288Y-57043206D01*
X57846887Y-57023353D01*
X57759944Y-57004872D01*
X57759939Y-57004872D01*
X57753487Y-57003500D01*
X57562513Y-57003500D01*
X57556061Y-57004872D01*
X57556056Y-57004872D01*
X57469113Y-57023353D01*
X57375712Y-57043206D01*
X57369682Y-57045891D01*
X57369681Y-57045891D01*
X57207278Y-57118197D01*
X57207276Y-57118198D01*
X57201248Y-57120882D01*
X57195907Y-57124762D01*
X57195906Y-57124763D01*
X57161171Y-57150000D01*
X57046747Y-57233134D01*
X56918960Y-57375056D01*
X56823473Y-57540444D01*
X56764458Y-57722072D01*
X56744496Y-57912000D01*
X50888500Y-57912000D01*
X50888500Y-56251866D01*
X50881745Y-56189684D01*
X50830615Y-56053295D01*
X50743261Y-55936739D01*
X50626705Y-55849385D01*
X50490316Y-55798255D01*
X50434440Y-55792185D01*
X50431531Y-55791869D01*
X50428134Y-55791500D01*
X48631866Y-55791500D01*
X48628469Y-55791869D01*
X48625560Y-55792185D01*
X48569684Y-55798255D01*
X48433295Y-55849385D01*
X48316739Y-55936739D01*
X48229385Y-56053295D01*
X48178255Y-56189684D01*
X48171500Y-56251866D01*
X48171500Y-58048134D01*
X44538500Y-58048134D01*
X44538500Y-56251866D01*
X44531745Y-56189684D01*
X44480615Y-56053295D01*
X44393261Y-55936739D01*
X44276705Y-55849385D01*
X44140316Y-55798255D01*
X44084440Y-55792185D01*
X44081531Y-55791869D01*
X44078134Y-55791500D01*
X42281866Y-55791500D01*
X42278469Y-55791869D01*
X42275560Y-55792185D01*
X42219684Y-55798255D01*
X42083295Y-55849385D01*
X41966739Y-55936739D01*
X41879385Y-56053295D01*
X41828255Y-56189684D01*
X41821500Y-56251866D01*
X41821500Y-58048134D01*
X27686000Y-58048134D01*
X27686000Y-55118000D01*
X31598496Y-55118000D01*
X31618458Y-55307928D01*
X31677473Y-55489556D01*
X31680776Y-55495278D01*
X31680777Y-55495279D01*
X31705416Y-55537955D01*
X31772960Y-55654944D01*
X31900747Y-55796866D01*
X32055248Y-55909118D01*
X32061276Y-55911802D01*
X32061278Y-55911803D01*
X32223681Y-55984109D01*
X32229712Y-55986794D01*
X32323113Y-56006647D01*
X32410056Y-56025128D01*
X32410061Y-56025128D01*
X32416513Y-56026500D01*
X32607487Y-56026500D01*
X32613939Y-56025128D01*
X32613944Y-56025128D01*
X32700887Y-56006647D01*
X32794288Y-55986794D01*
X32800319Y-55984109D01*
X32962722Y-55911803D01*
X32962724Y-55911802D01*
X32968752Y-55909118D01*
X33123253Y-55796866D01*
X33251040Y-55654944D01*
X33291882Y-55584204D01*
X33343263Y-55535212D01*
X33412977Y-55521776D01*
X33478888Y-55548162D01*
X33510118Y-55584204D01*
X33550960Y-55654944D01*
X33678747Y-55796866D01*
X33833248Y-55909118D01*
X33839276Y-55911802D01*
X33839278Y-55911803D01*
X34001681Y-55984109D01*
X34007712Y-55986794D01*
X34101113Y-56006647D01*
X34188056Y-56025128D01*
X34188061Y-56025128D01*
X34194513Y-56026500D01*
X34385487Y-56026500D01*
X34391939Y-56025128D01*
X34391944Y-56025128D01*
X34478887Y-56006647D01*
X34572288Y-55986794D01*
X34578319Y-55984109D01*
X34740722Y-55911803D01*
X34740724Y-55911802D01*
X34746752Y-55909118D01*
X34901253Y-55796866D01*
X35029040Y-55654944D01*
X35045751Y-55626000D01*
X56744496Y-55626000D01*
X56745186Y-55632565D01*
X56762863Y-55800749D01*
X56764458Y-55815928D01*
X56823473Y-55997556D01*
X56918960Y-56162944D01*
X56923378Y-56167851D01*
X56923379Y-56167852D01*
X57002102Y-56255283D01*
X57046747Y-56304866D01*
X57145843Y-56376864D01*
X57163471Y-56389671D01*
X57201248Y-56417118D01*
X57207276Y-56419802D01*
X57207278Y-56419803D01*
X57369681Y-56492109D01*
X57375712Y-56494794D01*
X57469113Y-56514647D01*
X57556056Y-56533128D01*
X57556061Y-56533128D01*
X57562513Y-56534500D01*
X57753487Y-56534500D01*
X57759939Y-56533128D01*
X57759944Y-56533128D01*
X57846888Y-56514647D01*
X57940288Y-56494794D01*
X57946319Y-56492109D01*
X58108722Y-56419803D01*
X58108724Y-56419802D01*
X58114752Y-56417118D01*
X58152530Y-56389671D01*
X58170157Y-56376864D01*
X58269253Y-56304866D01*
X58313898Y-56255283D01*
X58392621Y-56167852D01*
X58392622Y-56167851D01*
X58397040Y-56162944D01*
X58492527Y-55997556D01*
X58551542Y-55815928D01*
X58553138Y-55800749D01*
X58570814Y-55632565D01*
X58571504Y-55626000D01*
X58563323Y-55548162D01*
X58552232Y-55442635D01*
X58552232Y-55442633D01*
X58551542Y-55436072D01*
X58492527Y-55254444D01*
X58397040Y-55089056D01*
X58371064Y-55060206D01*
X58273675Y-54952045D01*
X58273674Y-54952044D01*
X58269253Y-54947134D01*
X58154829Y-54864000D01*
X86208496Y-54864000D01*
X86209186Y-54870565D01*
X86216826Y-54943251D01*
X86228458Y-55053928D01*
X86287473Y-55235556D01*
X86382960Y-55400944D01*
X86387378Y-55405851D01*
X86387379Y-55405852D01*
X86491757Y-55521776D01*
X86510747Y-55542866D01*
X86567645Y-55584205D01*
X86634207Y-55632565D01*
X86665248Y-55655118D01*
X86671276Y-55657802D01*
X86671278Y-55657803D01*
X86833681Y-55730109D01*
X86839712Y-55732794D01*
X86933113Y-55752647D01*
X87020056Y-55771128D01*
X87020061Y-55771128D01*
X87026513Y-55772500D01*
X87217487Y-55772500D01*
X87223939Y-55771128D01*
X87223944Y-55771128D01*
X87310887Y-55752647D01*
X87404288Y-55732794D01*
X87410319Y-55730109D01*
X87572722Y-55657803D01*
X87572724Y-55657802D01*
X87578752Y-55655118D01*
X87609794Y-55632565D01*
X87676355Y-55584205D01*
X87733253Y-55542866D01*
X87752243Y-55521776D01*
X87856621Y-55405852D01*
X87856622Y-55405851D01*
X87861040Y-55400944D01*
X87956527Y-55235556D01*
X88015542Y-55053928D01*
X88027175Y-54943251D01*
X88034814Y-54870565D01*
X88035504Y-54864000D01*
X88024280Y-54757206D01*
X88016232Y-54680635D01*
X88016232Y-54680633D01*
X88015542Y-54674072D01*
X87956527Y-54492444D01*
X87861040Y-54327056D01*
X87733253Y-54185134D01*
X87578752Y-54072882D01*
X87572724Y-54070198D01*
X87572722Y-54070197D01*
X87410319Y-53997891D01*
X87410318Y-53997891D01*
X87404288Y-53995206D01*
X87310888Y-53975353D01*
X87223944Y-53956872D01*
X87223939Y-53956872D01*
X87217487Y-53955500D01*
X87026513Y-53955500D01*
X87020061Y-53956872D01*
X87020056Y-53956872D01*
X86933113Y-53975353D01*
X86839712Y-53995206D01*
X86833682Y-53997891D01*
X86833681Y-53997891D01*
X86671278Y-54070197D01*
X86671276Y-54070198D01*
X86665248Y-54072882D01*
X86510747Y-54185134D01*
X86382960Y-54327056D01*
X86287473Y-54492444D01*
X86228458Y-54674072D01*
X86227768Y-54680633D01*
X86227768Y-54680635D01*
X86219720Y-54757206D01*
X86208496Y-54864000D01*
X58154829Y-54864000D01*
X58120094Y-54838763D01*
X58120093Y-54838762D01*
X58114752Y-54834882D01*
X58108724Y-54832198D01*
X58108722Y-54832197D01*
X57946319Y-54759891D01*
X57946318Y-54759891D01*
X57940288Y-54757206D01*
X57846887Y-54737353D01*
X57759944Y-54718872D01*
X57759939Y-54718872D01*
X57753487Y-54717500D01*
X57562513Y-54717500D01*
X57556061Y-54718872D01*
X57556056Y-54718872D01*
X57469113Y-54737353D01*
X57375712Y-54757206D01*
X57369682Y-54759891D01*
X57369681Y-54759891D01*
X57207278Y-54832197D01*
X57207276Y-54832198D01*
X57201248Y-54834882D01*
X57195907Y-54838762D01*
X57195906Y-54838763D01*
X57161171Y-54864000D01*
X57046747Y-54947134D01*
X57042326Y-54952044D01*
X57042325Y-54952045D01*
X56944937Y-55060206D01*
X56918960Y-55089056D01*
X56823473Y-55254444D01*
X56764458Y-55436072D01*
X56763768Y-55442633D01*
X56763768Y-55442635D01*
X56752677Y-55548162D01*
X56744496Y-55626000D01*
X35045751Y-55626000D01*
X35096584Y-55537955D01*
X35121223Y-55495279D01*
X35121224Y-55495278D01*
X35124527Y-55489556D01*
X35183542Y-55307928D01*
X35203504Y-55118000D01*
X35186062Y-54952045D01*
X35184232Y-54934635D01*
X35184232Y-54934633D01*
X35183542Y-54928072D01*
X35124527Y-54746444D01*
X35098168Y-54700788D01*
X35032341Y-54586774D01*
X35029040Y-54581056D01*
X34983744Y-54530749D01*
X34905675Y-54444045D01*
X34905674Y-54444044D01*
X34901253Y-54439134D01*
X34746752Y-54326882D01*
X34740724Y-54324198D01*
X34740722Y-54324197D01*
X34578319Y-54251891D01*
X34578318Y-54251891D01*
X34572288Y-54249206D01*
X34459721Y-54225279D01*
X34391944Y-54210872D01*
X34391939Y-54210872D01*
X34385487Y-54209500D01*
X34194513Y-54209500D01*
X34188061Y-54210872D01*
X34188056Y-54210872D01*
X34120279Y-54225279D01*
X34007712Y-54249206D01*
X34001682Y-54251891D01*
X34001681Y-54251891D01*
X33839278Y-54324197D01*
X33839276Y-54324198D01*
X33833248Y-54326882D01*
X33678747Y-54439134D01*
X33674326Y-54444044D01*
X33674325Y-54444045D01*
X33596257Y-54530749D01*
X33550960Y-54581056D01*
X33547659Y-54586774D01*
X33510119Y-54651795D01*
X33458737Y-54700788D01*
X33389023Y-54714224D01*
X33323112Y-54687838D01*
X33291881Y-54651795D01*
X33254341Y-54586774D01*
X33251040Y-54581056D01*
X33205744Y-54530749D01*
X33127675Y-54444045D01*
X33127674Y-54444044D01*
X33123253Y-54439134D01*
X32968752Y-54326882D01*
X32962724Y-54324198D01*
X32962722Y-54324197D01*
X32800319Y-54251891D01*
X32800318Y-54251891D01*
X32794288Y-54249206D01*
X32681721Y-54225279D01*
X32613944Y-54210872D01*
X32613939Y-54210872D01*
X32607487Y-54209500D01*
X32416513Y-54209500D01*
X32410061Y-54210872D01*
X32410056Y-54210872D01*
X32342279Y-54225279D01*
X32229712Y-54249206D01*
X32223682Y-54251891D01*
X32223681Y-54251891D01*
X32061278Y-54324197D01*
X32061276Y-54324198D01*
X32055248Y-54326882D01*
X31900747Y-54439134D01*
X31896326Y-54444044D01*
X31896325Y-54444045D01*
X31818257Y-54530749D01*
X31772960Y-54581056D01*
X31769659Y-54586774D01*
X31703833Y-54700788D01*
X31677473Y-54746444D01*
X31618458Y-54928072D01*
X31617768Y-54934633D01*
X31617768Y-54934635D01*
X31615938Y-54952045D01*
X31598496Y-55118000D01*
X27686000Y-55118000D01*
X27686000Y-53848000D01*
X68682496Y-53848000D01*
X68683186Y-53854565D01*
X68697824Y-53993834D01*
X68702458Y-54037928D01*
X68761473Y-54219556D01*
X68856960Y-54384944D01*
X68861378Y-54389851D01*
X68861379Y-54389852D01*
X68905753Y-54439134D01*
X68984747Y-54526866D01*
X69139248Y-54639118D01*
X69145276Y-54641802D01*
X69145278Y-54641803D01*
X69307681Y-54714109D01*
X69313712Y-54716794D01*
X69407112Y-54736647D01*
X69494056Y-54755128D01*
X69494061Y-54755128D01*
X69500513Y-54756500D01*
X69691487Y-54756500D01*
X69697939Y-54755128D01*
X69697944Y-54755128D01*
X69784888Y-54736647D01*
X69878288Y-54716794D01*
X69884319Y-54714109D01*
X70046722Y-54641803D01*
X70046724Y-54641802D01*
X70052752Y-54639118D01*
X70207253Y-54526866D01*
X70286247Y-54439134D01*
X70330621Y-54389852D01*
X70330622Y-54389851D01*
X70335040Y-54384944D01*
X70430527Y-54219556D01*
X70489542Y-54037928D01*
X70494177Y-53993834D01*
X70508814Y-53854565D01*
X70509504Y-53848000D01*
X70489542Y-53658072D01*
X70430527Y-53476444D01*
X70335040Y-53311056D01*
X70207253Y-53169134D01*
X70052752Y-53056882D01*
X70046724Y-53054198D01*
X70046722Y-53054197D01*
X69884319Y-52981891D01*
X69884318Y-52981891D01*
X69878288Y-52979206D01*
X69784888Y-52959353D01*
X69697944Y-52940872D01*
X69697939Y-52940872D01*
X69691487Y-52939500D01*
X69500513Y-52939500D01*
X69494061Y-52940872D01*
X69494056Y-52940872D01*
X69407113Y-52959353D01*
X69313712Y-52979206D01*
X69307682Y-52981891D01*
X69307681Y-52981891D01*
X69145278Y-53054197D01*
X69145276Y-53054198D01*
X69139248Y-53056882D01*
X68984747Y-53169134D01*
X68856960Y-53311056D01*
X68761473Y-53476444D01*
X68702458Y-53658072D01*
X68682496Y-53848000D01*
X27686000Y-53848000D01*
X27686000Y-48006000D01*
X29312496Y-48006000D01*
X29313186Y-48012565D01*
X29326938Y-48143404D01*
X29332458Y-48195928D01*
X29391473Y-48377556D01*
X29486960Y-48542944D01*
X29491378Y-48547851D01*
X29491379Y-48547852D01*
X29535270Y-48596598D01*
X29614747Y-48684866D01*
X29769248Y-48797118D01*
X29775276Y-48799802D01*
X29775278Y-48799803D01*
X29937681Y-48872109D01*
X29943712Y-48874794D01*
X30037112Y-48894647D01*
X30124056Y-48913128D01*
X30124061Y-48913128D01*
X30130513Y-48914500D01*
X30321487Y-48914500D01*
X30327939Y-48913128D01*
X30327944Y-48913128D01*
X30414888Y-48894647D01*
X30508288Y-48874794D01*
X30514319Y-48872109D01*
X30676722Y-48799803D01*
X30676724Y-48799802D01*
X30682752Y-48797118D01*
X30837253Y-48684866D01*
X30916730Y-48596598D01*
X30960621Y-48547852D01*
X30960622Y-48547851D01*
X30965040Y-48542944D01*
X31060527Y-48377556D01*
X31119542Y-48195928D01*
X31125063Y-48143404D01*
X31138814Y-48012565D01*
X31139504Y-48006000D01*
X36424496Y-48006000D01*
X36425186Y-48012565D01*
X36438938Y-48143404D01*
X36444458Y-48195928D01*
X36503473Y-48377556D01*
X36598960Y-48542944D01*
X36603378Y-48547851D01*
X36603379Y-48547852D01*
X36647270Y-48596598D01*
X36726747Y-48684866D01*
X36881248Y-48797118D01*
X36887276Y-48799802D01*
X36887278Y-48799803D01*
X37049681Y-48872109D01*
X37055712Y-48874794D01*
X37149112Y-48894647D01*
X37236056Y-48913128D01*
X37236061Y-48913128D01*
X37242513Y-48914500D01*
X37433487Y-48914500D01*
X37439939Y-48913128D01*
X37439944Y-48913128D01*
X37526888Y-48894647D01*
X37620288Y-48874794D01*
X37626319Y-48872109D01*
X37788722Y-48799803D01*
X37788724Y-48799802D01*
X37794752Y-48797118D01*
X37949253Y-48684866D01*
X38028730Y-48596598D01*
X38072621Y-48547852D01*
X38072622Y-48547851D01*
X38077040Y-48542944D01*
X38172527Y-48377556D01*
X38231542Y-48195928D01*
X38237063Y-48143404D01*
X38250814Y-48012565D01*
X38251504Y-48006000D01*
X43282496Y-48006000D01*
X43283186Y-48012565D01*
X43296938Y-48143404D01*
X43302458Y-48195928D01*
X43361473Y-48377556D01*
X43456960Y-48542944D01*
X43461378Y-48547851D01*
X43461379Y-48547852D01*
X43505270Y-48596598D01*
X43584747Y-48684866D01*
X43739248Y-48797118D01*
X43745276Y-48799802D01*
X43745278Y-48799803D01*
X43907681Y-48872109D01*
X43913712Y-48874794D01*
X44007112Y-48894647D01*
X44094056Y-48913128D01*
X44094061Y-48913128D01*
X44100513Y-48914500D01*
X44291487Y-48914500D01*
X44297939Y-48913128D01*
X44297944Y-48913128D01*
X44384888Y-48894647D01*
X44478288Y-48874794D01*
X44484319Y-48872109D01*
X44646722Y-48799803D01*
X44646724Y-48799802D01*
X44652752Y-48797118D01*
X44807253Y-48684866D01*
X44886730Y-48596598D01*
X44930621Y-48547852D01*
X44930622Y-48547851D01*
X44935040Y-48542944D01*
X45030527Y-48377556D01*
X45089542Y-48195928D01*
X45095063Y-48143404D01*
X45108814Y-48012565D01*
X45109504Y-48006000D01*
X45100276Y-47918197D01*
X45090232Y-47822635D01*
X45090232Y-47822633D01*
X45089542Y-47816072D01*
X45030527Y-47634444D01*
X44935040Y-47469056D01*
X44807253Y-47327134D01*
X44652752Y-47214882D01*
X44646724Y-47212198D01*
X44646722Y-47212197D01*
X44643348Y-47210695D01*
X68218251Y-47210695D01*
X68231110Y-47433715D01*
X68232247Y-47438761D01*
X68232248Y-47438767D01*
X68246606Y-47502475D01*
X68280222Y-47651639D01*
X68364266Y-47858616D01*
X68401685Y-47919678D01*
X68478291Y-48044688D01*
X68480987Y-48049088D01*
X68627250Y-48217938D01*
X68799126Y-48360632D01*
X68992000Y-48473338D01*
X69200692Y-48553030D01*
X69205760Y-48554061D01*
X69205763Y-48554062D01*
X69300862Y-48573410D01*
X69419597Y-48597567D01*
X69424772Y-48597757D01*
X69424774Y-48597757D01*
X69637673Y-48605564D01*
X69637677Y-48605564D01*
X69642837Y-48605753D01*
X69647957Y-48605097D01*
X69647959Y-48605097D01*
X69859288Y-48578025D01*
X69859289Y-48578025D01*
X69864416Y-48577368D01*
X69869366Y-48575883D01*
X70073429Y-48514661D01*
X70073434Y-48514659D01*
X70078384Y-48513174D01*
X70278994Y-48414896D01*
X70460860Y-48285173D01*
X70619096Y-48127489D01*
X70678594Y-48044689D01*
X70749453Y-47946077D01*
X70750640Y-47946930D01*
X70797960Y-47903362D01*
X70867897Y-47891145D01*
X70933338Y-47918678D01*
X70961166Y-47950511D01*
X71018694Y-48044388D01*
X71024777Y-48052699D01*
X71164213Y-48213667D01*
X71171580Y-48220883D01*
X71335434Y-48356916D01*
X71343881Y-48362831D01*
X71527756Y-48470279D01*
X71537042Y-48474729D01*
X71736001Y-48550703D01*
X71745899Y-48553579D01*
X71849250Y-48574606D01*
X71863299Y-48573410D01*
X71867000Y-48563065D01*
X71867000Y-48562517D01*
X72375000Y-48562517D01*
X72379064Y-48576359D01*
X72392478Y-48578393D01*
X72399184Y-48577534D01*
X72409262Y-48575392D01*
X72613255Y-48514191D01*
X72622842Y-48510433D01*
X72814095Y-48416739D01*
X72822945Y-48411464D01*
X72996328Y-48287792D01*
X73004200Y-48281139D01*
X73155052Y-48130812D01*
X73161730Y-48122965D01*
X73289022Y-47945819D01*
X73290147Y-47946627D01*
X73337669Y-47902876D01*
X73407607Y-47890661D01*
X73473046Y-47918197D01*
X73500870Y-47950028D01*
X73558690Y-48044383D01*
X73564777Y-48052699D01*
X73704213Y-48213667D01*
X73711580Y-48220883D01*
X73875434Y-48356916D01*
X73883881Y-48362831D01*
X74067756Y-48470279D01*
X74077042Y-48474729D01*
X74276001Y-48550703D01*
X74285899Y-48553579D01*
X74389250Y-48574606D01*
X74403299Y-48573410D01*
X74407000Y-48563065D01*
X74407000Y-48562517D01*
X74915000Y-48562517D01*
X74919064Y-48576359D01*
X74932478Y-48578393D01*
X74939184Y-48577534D01*
X74949262Y-48575392D01*
X75153255Y-48514191D01*
X75162842Y-48510433D01*
X75354095Y-48416739D01*
X75362945Y-48411464D01*
X75536328Y-48287792D01*
X75544200Y-48281139D01*
X75695052Y-48130812D01*
X75701730Y-48122965D01*
X75829022Y-47945819D01*
X75830279Y-47946722D01*
X75877373Y-47903362D01*
X75947311Y-47891145D01*
X76012751Y-47918678D01*
X76040579Y-47950511D01*
X76100987Y-48049088D01*
X76247250Y-48217938D01*
X76419126Y-48360632D01*
X76612000Y-48473338D01*
X76820692Y-48553030D01*
X76825760Y-48554061D01*
X76825763Y-48554062D01*
X76920862Y-48573410D01*
X77039597Y-48597567D01*
X77044772Y-48597757D01*
X77044774Y-48597757D01*
X77257673Y-48605564D01*
X77257677Y-48605564D01*
X77262837Y-48605753D01*
X77267957Y-48605097D01*
X77267959Y-48605097D01*
X77479288Y-48578025D01*
X77479289Y-48578025D01*
X77484416Y-48577368D01*
X77489366Y-48575883D01*
X77693429Y-48514661D01*
X77693434Y-48514659D01*
X77698384Y-48513174D01*
X77898994Y-48414896D01*
X78080860Y-48285173D01*
X78239096Y-48127489D01*
X78298594Y-48044689D01*
X78369453Y-47946077D01*
X78370776Y-47947028D01*
X78417645Y-47903857D01*
X78487580Y-47891625D01*
X78553026Y-47919144D01*
X78580875Y-47950994D01*
X78640987Y-48049088D01*
X78787250Y-48217938D01*
X78959126Y-48360632D01*
X79152000Y-48473338D01*
X79360692Y-48553030D01*
X79365760Y-48554061D01*
X79365763Y-48554062D01*
X79460862Y-48573410D01*
X79579597Y-48597567D01*
X79584772Y-48597757D01*
X79584774Y-48597757D01*
X79797673Y-48605564D01*
X79797677Y-48605564D01*
X79802837Y-48605753D01*
X79807957Y-48605097D01*
X79807959Y-48605097D01*
X80019288Y-48578025D01*
X80019289Y-48578025D01*
X80024416Y-48577368D01*
X80029366Y-48575883D01*
X80233429Y-48514661D01*
X80233434Y-48514659D01*
X80238384Y-48513174D01*
X80438994Y-48414896D01*
X80620860Y-48285173D01*
X80779096Y-48127489D01*
X80838594Y-48044689D01*
X80909453Y-47946077D01*
X80910640Y-47946930D01*
X80957960Y-47903362D01*
X81027897Y-47891145D01*
X81093338Y-47918678D01*
X81121166Y-47950511D01*
X81178694Y-48044388D01*
X81184777Y-48052699D01*
X81324213Y-48213667D01*
X81331580Y-48220883D01*
X81495434Y-48356916D01*
X81503881Y-48362831D01*
X81687756Y-48470279D01*
X81697042Y-48474729D01*
X81896001Y-48550703D01*
X81905899Y-48553579D01*
X82009250Y-48574606D01*
X82023299Y-48573410D01*
X82027000Y-48563065D01*
X82027000Y-48562517D01*
X82535000Y-48562517D01*
X82539064Y-48576359D01*
X82552478Y-48578393D01*
X82559184Y-48577534D01*
X82569262Y-48575392D01*
X82773255Y-48514191D01*
X82782842Y-48510433D01*
X82974095Y-48416739D01*
X82982945Y-48411464D01*
X83156328Y-48287792D01*
X83164200Y-48281139D01*
X83315052Y-48130812D01*
X83321730Y-48122965D01*
X83449022Y-47945819D01*
X83450279Y-47946722D01*
X83497373Y-47903362D01*
X83567311Y-47891145D01*
X83632751Y-47918678D01*
X83660579Y-47950511D01*
X83720987Y-48049088D01*
X83867250Y-48217938D01*
X84039126Y-48360632D01*
X84232000Y-48473338D01*
X84440692Y-48553030D01*
X84445760Y-48554061D01*
X84445763Y-48554062D01*
X84540862Y-48573410D01*
X84659597Y-48597567D01*
X84664772Y-48597757D01*
X84664774Y-48597757D01*
X84877673Y-48605564D01*
X84877677Y-48605564D01*
X84882837Y-48605753D01*
X84887957Y-48605097D01*
X84887959Y-48605097D01*
X85099288Y-48578025D01*
X85099289Y-48578025D01*
X85104416Y-48577368D01*
X85109366Y-48575883D01*
X85313429Y-48514661D01*
X85313434Y-48514659D01*
X85318384Y-48513174D01*
X85518994Y-48414896D01*
X85700860Y-48285173D01*
X85809091Y-48177319D01*
X85871462Y-48143404D01*
X85942268Y-48148592D01*
X85999030Y-48191238D01*
X86016012Y-48222341D01*
X86060385Y-48340705D01*
X86147739Y-48457261D01*
X86264295Y-48544615D01*
X86400684Y-48595745D01*
X86462866Y-48602500D01*
X88259134Y-48602500D01*
X88321316Y-48595745D01*
X88457705Y-48544615D01*
X88574261Y-48457261D01*
X88661615Y-48340705D01*
X88712745Y-48204316D01*
X88719500Y-48142134D01*
X88719500Y-46345866D01*
X88712745Y-46283684D01*
X88661615Y-46147295D01*
X88574261Y-46030739D01*
X88457705Y-45943385D01*
X88321316Y-45892255D01*
X88259134Y-45885500D01*
X86462866Y-45885500D01*
X86400684Y-45892255D01*
X86264295Y-45943385D01*
X86147739Y-46030739D01*
X86060385Y-46147295D01*
X86057233Y-46155703D01*
X86015919Y-46265907D01*
X85973277Y-46322671D01*
X85906716Y-46347371D01*
X85837367Y-46332163D01*
X85804743Y-46306476D01*
X85754151Y-46250875D01*
X85754142Y-46250866D01*
X85750670Y-46247051D01*
X85746619Y-46243852D01*
X85746615Y-46243848D01*
X85579414Y-46111800D01*
X85579410Y-46111798D01*
X85575359Y-46108598D01*
X85539028Y-46088542D01*
X85523136Y-46079769D01*
X85379789Y-46000638D01*
X85374920Y-45998914D01*
X85374916Y-45998912D01*
X85174087Y-45927795D01*
X85174083Y-45927794D01*
X85169212Y-45926069D01*
X85164119Y-45925162D01*
X85164116Y-45925161D01*
X84954373Y-45887800D01*
X84954367Y-45887799D01*
X84949284Y-45886894D01*
X84875452Y-45885992D01*
X84731081Y-45884228D01*
X84731079Y-45884228D01*
X84725911Y-45884165D01*
X84505091Y-45917955D01*
X84292756Y-45987357D01*
X84094607Y-46090507D01*
X84090474Y-46093610D01*
X84090471Y-46093612D01*
X83920100Y-46221530D01*
X83915965Y-46224635D01*
X83890541Y-46251240D01*
X83822280Y-46322671D01*
X83761629Y-46386138D01*
X83758720Y-46390403D01*
X83758714Y-46390411D01*
X83746404Y-46408457D01*
X83654204Y-46543618D01*
X83653898Y-46544066D01*
X83598987Y-46589069D01*
X83528462Y-46597240D01*
X83464715Y-46565986D01*
X83444018Y-46541502D01*
X83363426Y-46416926D01*
X83357136Y-46408757D01*
X83213806Y-46251240D01*
X83206273Y-46244215D01*
X83039139Y-46112222D01*
X83030552Y-46106517D01*
X82844117Y-46003599D01*
X82834705Y-45999369D01*
X82633959Y-45928280D01*
X82623988Y-45925646D01*
X82552837Y-45912972D01*
X82539540Y-45914432D01*
X82535000Y-45928989D01*
X82535000Y-48562517D01*
X82027000Y-48562517D01*
X82027000Y-45927102D01*
X82023082Y-45913758D01*
X82008806Y-45911771D01*
X81970324Y-45917660D01*
X81960288Y-45920051D01*
X81757868Y-45986212D01*
X81748359Y-45990209D01*
X81559463Y-46088542D01*
X81550738Y-46094036D01*
X81380433Y-46221905D01*
X81372726Y-46228748D01*
X81225590Y-46382717D01*
X81219109Y-46390722D01*
X81114498Y-46544074D01*
X81059587Y-46589076D01*
X80989062Y-46597247D01*
X80925315Y-46565993D01*
X80904618Y-46541509D01*
X80823822Y-46416617D01*
X80823820Y-46416614D01*
X80821014Y-46412277D01*
X80670670Y-46247051D01*
X80666619Y-46243852D01*
X80666615Y-46243848D01*
X80499414Y-46111800D01*
X80499410Y-46111798D01*
X80495359Y-46108598D01*
X80459028Y-46088542D01*
X80443136Y-46079769D01*
X80299789Y-46000638D01*
X80294920Y-45998914D01*
X80294916Y-45998912D01*
X80094087Y-45927795D01*
X80094083Y-45927794D01*
X80089212Y-45926069D01*
X80084119Y-45925162D01*
X80084116Y-45925161D01*
X79874373Y-45887800D01*
X79874367Y-45887799D01*
X79869284Y-45886894D01*
X79795452Y-45885992D01*
X79651081Y-45884228D01*
X79651079Y-45884228D01*
X79645911Y-45884165D01*
X79425091Y-45917955D01*
X79212756Y-45987357D01*
X79014607Y-46090507D01*
X79010474Y-46093610D01*
X79010471Y-46093612D01*
X78840100Y-46221530D01*
X78835965Y-46224635D01*
X78810541Y-46251240D01*
X78742280Y-46322671D01*
X78681629Y-46386138D01*
X78574201Y-46543621D01*
X78519293Y-46588621D01*
X78448768Y-46596792D01*
X78385021Y-46565538D01*
X78364324Y-46541054D01*
X78283822Y-46416617D01*
X78283820Y-46416614D01*
X78281014Y-46412277D01*
X78130670Y-46247051D01*
X78126619Y-46243852D01*
X78126615Y-46243848D01*
X77959414Y-46111800D01*
X77959410Y-46111798D01*
X77955359Y-46108598D01*
X77919028Y-46088542D01*
X77903136Y-46079769D01*
X77759789Y-46000638D01*
X77754920Y-45998914D01*
X77754916Y-45998912D01*
X77554087Y-45927795D01*
X77554083Y-45927794D01*
X77549212Y-45926069D01*
X77544119Y-45925162D01*
X77544116Y-45925161D01*
X77334373Y-45887800D01*
X77334367Y-45887799D01*
X77329284Y-45886894D01*
X77255452Y-45885992D01*
X77111081Y-45884228D01*
X77111079Y-45884228D01*
X77105911Y-45884165D01*
X76885091Y-45917955D01*
X76672756Y-45987357D01*
X76474607Y-46090507D01*
X76470474Y-46093610D01*
X76470471Y-46093612D01*
X76300100Y-46221530D01*
X76295965Y-46224635D01*
X76270541Y-46251240D01*
X76202280Y-46322671D01*
X76141629Y-46386138D01*
X76138720Y-46390403D01*
X76138714Y-46390411D01*
X76126404Y-46408457D01*
X76034204Y-46543618D01*
X76033898Y-46544066D01*
X75978987Y-46589069D01*
X75908462Y-46597240D01*
X75844715Y-46565986D01*
X75824018Y-46541502D01*
X75743426Y-46416926D01*
X75737136Y-46408757D01*
X75593806Y-46251240D01*
X75586273Y-46244215D01*
X75419139Y-46112222D01*
X75410552Y-46106517D01*
X75224117Y-46003599D01*
X75214705Y-45999369D01*
X75013959Y-45928280D01*
X75003988Y-45925646D01*
X74932837Y-45912972D01*
X74919540Y-45914432D01*
X74915000Y-45928989D01*
X74915000Y-48562517D01*
X74407000Y-48562517D01*
X74407000Y-47516115D01*
X74402525Y-47500876D01*
X74401135Y-47499671D01*
X74393452Y-47498000D01*
X72393115Y-47498000D01*
X72377876Y-47502475D01*
X72376671Y-47503865D01*
X72375000Y-47511548D01*
X72375000Y-48562517D01*
X71867000Y-48562517D01*
X71867000Y-46971885D01*
X72375000Y-46971885D01*
X72379475Y-46987124D01*
X72380865Y-46988329D01*
X72388548Y-46990000D01*
X74388885Y-46990000D01*
X74404124Y-46985525D01*
X74405329Y-46984135D01*
X74407000Y-46976452D01*
X74407000Y-45927102D01*
X74403082Y-45913758D01*
X74388806Y-45911771D01*
X74350324Y-45917660D01*
X74340288Y-45920051D01*
X74137868Y-45986212D01*
X74128359Y-45990209D01*
X73939463Y-46088542D01*
X73930738Y-46094036D01*
X73760433Y-46221905D01*
X73752726Y-46228748D01*
X73605590Y-46382717D01*
X73599104Y-46390727D01*
X73494193Y-46544521D01*
X73439282Y-46589524D01*
X73368757Y-46597695D01*
X73305010Y-46566441D01*
X73284313Y-46541957D01*
X73203427Y-46416926D01*
X73197136Y-46408757D01*
X73053806Y-46251240D01*
X73046273Y-46244215D01*
X72879139Y-46112222D01*
X72870552Y-46106517D01*
X72684117Y-46003599D01*
X72674705Y-45999369D01*
X72473959Y-45928280D01*
X72463988Y-45925646D01*
X72392837Y-45912972D01*
X72379540Y-45914432D01*
X72375000Y-45928989D01*
X72375000Y-46971885D01*
X71867000Y-46971885D01*
X71867000Y-45927102D01*
X71863082Y-45913758D01*
X71848806Y-45911771D01*
X71810324Y-45917660D01*
X71800288Y-45920051D01*
X71597868Y-45986212D01*
X71588359Y-45990209D01*
X71399463Y-46088542D01*
X71390738Y-46094036D01*
X71220433Y-46221905D01*
X71212726Y-46228748D01*
X71065590Y-46382717D01*
X71059109Y-46390722D01*
X70954498Y-46544074D01*
X70899587Y-46589076D01*
X70829062Y-46597247D01*
X70765315Y-46565993D01*
X70744618Y-46541509D01*
X70663822Y-46416617D01*
X70663820Y-46416614D01*
X70661014Y-46412277D01*
X70510670Y-46247051D01*
X70506619Y-46243852D01*
X70506615Y-46243848D01*
X70339414Y-46111800D01*
X70339410Y-46111798D01*
X70335359Y-46108598D01*
X70299028Y-46088542D01*
X70283136Y-46079769D01*
X70139789Y-46000638D01*
X70134920Y-45998914D01*
X70134916Y-45998912D01*
X69934087Y-45927795D01*
X69934083Y-45927794D01*
X69929212Y-45926069D01*
X69924119Y-45925162D01*
X69924116Y-45925161D01*
X69714373Y-45887800D01*
X69714367Y-45887799D01*
X69709284Y-45886894D01*
X69635452Y-45885992D01*
X69491081Y-45884228D01*
X69491079Y-45884228D01*
X69485911Y-45884165D01*
X69265091Y-45917955D01*
X69052756Y-45987357D01*
X68854607Y-46090507D01*
X68850474Y-46093610D01*
X68850471Y-46093612D01*
X68680100Y-46221530D01*
X68675965Y-46224635D01*
X68650541Y-46251240D01*
X68582280Y-46322671D01*
X68521629Y-46386138D01*
X68518720Y-46390403D01*
X68518714Y-46390411D01*
X68506404Y-46408457D01*
X68395743Y-46570680D01*
X68301688Y-46773305D01*
X68241989Y-46988570D01*
X68218251Y-47210695D01*
X44643348Y-47210695D01*
X44484319Y-47139891D01*
X44484318Y-47139891D01*
X44478288Y-47137206D01*
X44384887Y-47117353D01*
X44297944Y-47098872D01*
X44297939Y-47098872D01*
X44291487Y-47097500D01*
X44100513Y-47097500D01*
X44094061Y-47098872D01*
X44094056Y-47098872D01*
X44007113Y-47117353D01*
X43913712Y-47137206D01*
X43907682Y-47139891D01*
X43907681Y-47139891D01*
X43745278Y-47212197D01*
X43745276Y-47212198D01*
X43739248Y-47214882D01*
X43584747Y-47327134D01*
X43456960Y-47469056D01*
X43361473Y-47634444D01*
X43302458Y-47816072D01*
X43301768Y-47822633D01*
X43301768Y-47822635D01*
X43291724Y-47918197D01*
X43282496Y-48006000D01*
X38251504Y-48006000D01*
X38242276Y-47918197D01*
X38232232Y-47822635D01*
X38232232Y-47822633D01*
X38231542Y-47816072D01*
X38172527Y-47634444D01*
X38077040Y-47469056D01*
X37949253Y-47327134D01*
X37794752Y-47214882D01*
X37788724Y-47212198D01*
X37788722Y-47212197D01*
X37626319Y-47139891D01*
X37626318Y-47139891D01*
X37620288Y-47137206D01*
X37526887Y-47117353D01*
X37439944Y-47098872D01*
X37439939Y-47098872D01*
X37433487Y-47097500D01*
X37242513Y-47097500D01*
X37236061Y-47098872D01*
X37236056Y-47098872D01*
X37149113Y-47117353D01*
X37055712Y-47137206D01*
X37049682Y-47139891D01*
X37049681Y-47139891D01*
X36887278Y-47212197D01*
X36887276Y-47212198D01*
X36881248Y-47214882D01*
X36726747Y-47327134D01*
X36598960Y-47469056D01*
X36503473Y-47634444D01*
X36444458Y-47816072D01*
X36443768Y-47822633D01*
X36443768Y-47822635D01*
X36433724Y-47918197D01*
X36424496Y-48006000D01*
X31139504Y-48006000D01*
X31130276Y-47918197D01*
X31120232Y-47822635D01*
X31120232Y-47822633D01*
X31119542Y-47816072D01*
X31060527Y-47634444D01*
X30965040Y-47469056D01*
X30837253Y-47327134D01*
X30682752Y-47214882D01*
X30676724Y-47212198D01*
X30676722Y-47212197D01*
X30514319Y-47139891D01*
X30514318Y-47139891D01*
X30508288Y-47137206D01*
X30414887Y-47117353D01*
X30327944Y-47098872D01*
X30327939Y-47098872D01*
X30321487Y-47097500D01*
X30130513Y-47097500D01*
X30124061Y-47098872D01*
X30124056Y-47098872D01*
X30037113Y-47117353D01*
X29943712Y-47137206D01*
X29937682Y-47139891D01*
X29937681Y-47139891D01*
X29775278Y-47212197D01*
X29775276Y-47212198D01*
X29769248Y-47214882D01*
X29614747Y-47327134D01*
X29486960Y-47469056D01*
X29391473Y-47634444D01*
X29332458Y-47816072D01*
X29331768Y-47822633D01*
X29331768Y-47822635D01*
X29321724Y-47918197D01*
X29312496Y-48006000D01*
X27686000Y-48006000D01*
X27686000Y-42472471D01*
X67112884Y-42472471D01*
X67116570Y-42477740D01*
X67324121Y-42604927D01*
X67332915Y-42609408D01*
X67561242Y-42703984D01*
X67570627Y-42707033D01*
X67810940Y-42764728D01*
X67820687Y-42766271D01*
X68067070Y-42785662D01*
X68076930Y-42785662D01*
X68323313Y-42766271D01*
X68333060Y-42764728D01*
X68573373Y-42707033D01*
X68582758Y-42703984D01*
X68811085Y-42609408D01*
X68819879Y-42604927D01*
X69025928Y-42478660D01*
X69029968Y-42472471D01*
X72192884Y-42472471D01*
X72196570Y-42477740D01*
X72404121Y-42604927D01*
X72412915Y-42609408D01*
X72641242Y-42703984D01*
X72650627Y-42707033D01*
X72890940Y-42764728D01*
X72900687Y-42766271D01*
X73147070Y-42785662D01*
X73156930Y-42785662D01*
X73403313Y-42766271D01*
X73413060Y-42764728D01*
X73653373Y-42707033D01*
X73662758Y-42703984D01*
X73891085Y-42609408D01*
X73899879Y-42604927D01*
X74105928Y-42478660D01*
X74109968Y-42472471D01*
X80828884Y-42472471D01*
X80832570Y-42477740D01*
X81040121Y-42604927D01*
X81048915Y-42609408D01*
X81277242Y-42703984D01*
X81286627Y-42707033D01*
X81526940Y-42764728D01*
X81536687Y-42766271D01*
X81783070Y-42785662D01*
X81792930Y-42785662D01*
X82039313Y-42766271D01*
X82049060Y-42764728D01*
X82289373Y-42707033D01*
X82298758Y-42703984D01*
X82527085Y-42609408D01*
X82535879Y-42604927D01*
X82741928Y-42478660D01*
X82745968Y-42472471D01*
X85908884Y-42472471D01*
X85912570Y-42477740D01*
X86120121Y-42604927D01*
X86128915Y-42609408D01*
X86357242Y-42703984D01*
X86366627Y-42707033D01*
X86606940Y-42764728D01*
X86616687Y-42766271D01*
X86863070Y-42785662D01*
X86872930Y-42785662D01*
X87119313Y-42766271D01*
X87129060Y-42764728D01*
X87369373Y-42707033D01*
X87378758Y-42703984D01*
X87607085Y-42609408D01*
X87615879Y-42604927D01*
X87821928Y-42478660D01*
X87827190Y-42470599D01*
X87821183Y-42460393D01*
X86880812Y-41520022D01*
X86866868Y-41512408D01*
X86865035Y-41512539D01*
X86858420Y-41516790D01*
X85916276Y-42458934D01*
X85908884Y-42472471D01*
X82745968Y-42472471D01*
X82747190Y-42470599D01*
X82741183Y-42460393D01*
X81800812Y-41520022D01*
X81786868Y-41512408D01*
X81785035Y-41512539D01*
X81778420Y-41516790D01*
X80836276Y-42458934D01*
X80828884Y-42472471D01*
X74109968Y-42472471D01*
X74111190Y-42470599D01*
X74105183Y-42460393D01*
X73164812Y-41520022D01*
X73150868Y-41512408D01*
X73149035Y-41512539D01*
X73142420Y-41516790D01*
X72200276Y-42458934D01*
X72192884Y-42472471D01*
X69029968Y-42472471D01*
X69031190Y-42470599D01*
X69025183Y-42460393D01*
X68084812Y-41520022D01*
X68070868Y-41512408D01*
X68069035Y-41512539D01*
X68062420Y-41516790D01*
X67120276Y-42458934D01*
X67112884Y-42472471D01*
X27686000Y-42472471D01*
X27686000Y-40411552D01*
X27706002Y-40343431D01*
X27759658Y-40296938D01*
X27829932Y-40286834D01*
X27894512Y-40316328D01*
X27914451Y-40338205D01*
X27970047Y-40415860D01*
X28096776Y-40592874D01*
X28355049Y-40887896D01*
X28640878Y-41156308D01*
X28951536Y-41395546D01*
X28954139Y-41397173D01*
X28954144Y-41397176D01*
X29073576Y-41471805D01*
X29284056Y-41603328D01*
X29635266Y-41777670D01*
X30001812Y-41916907D01*
X30380195Y-42019712D01*
X30678419Y-42070153D01*
X30763783Y-42084591D01*
X30763786Y-42084591D01*
X30766805Y-42085102D01*
X30921444Y-42095916D01*
X31154885Y-42112240D01*
X31154893Y-42112240D01*
X31157951Y-42112454D01*
X31410037Y-42105413D01*
X31546825Y-42101592D01*
X31546828Y-42101592D01*
X31549899Y-42101506D01*
X31552952Y-42101120D01*
X31552956Y-42101120D01*
X31694576Y-42083229D01*
X31938908Y-42052362D01*
X31941912Y-42051680D01*
X31941915Y-42051679D01*
X32318269Y-41966174D01*
X32318275Y-41966172D01*
X32321265Y-41965493D01*
X32324184Y-41964522D01*
X32690396Y-41842700D01*
X32690402Y-41842698D01*
X32693320Y-41841727D01*
X32834735Y-41778765D01*
X33048722Y-41683492D01*
X33048728Y-41683489D01*
X33051522Y-41682245D01*
X33092867Y-41658758D01*
X33389784Y-41490086D01*
X33389790Y-41490083D01*
X33392452Y-41488570D01*
X33712855Y-41262550D01*
X33839852Y-41152930D01*
X66434338Y-41152930D01*
X66453729Y-41399313D01*
X66455272Y-41409060D01*
X66512967Y-41649373D01*
X66516016Y-41658758D01*
X66610592Y-41887085D01*
X66615073Y-41895879D01*
X66741340Y-42101928D01*
X66749401Y-42107190D01*
X66759607Y-42101183D01*
X67699978Y-41160812D01*
X67706356Y-41149132D01*
X68436408Y-41149132D01*
X68436539Y-41150965D01*
X68440790Y-41157580D01*
X69382934Y-42099724D01*
X69396471Y-42107116D01*
X69401740Y-42103430D01*
X69528927Y-41895879D01*
X69533408Y-41887085D01*
X69627984Y-41658758D01*
X69631033Y-41649373D01*
X69688728Y-41409060D01*
X69690271Y-41399313D01*
X69709662Y-41152930D01*
X71514338Y-41152930D01*
X71533729Y-41399313D01*
X71535272Y-41409060D01*
X71592967Y-41649373D01*
X71596016Y-41658758D01*
X71690592Y-41887085D01*
X71695073Y-41895879D01*
X71821340Y-42101928D01*
X71829401Y-42107190D01*
X71839607Y-42101183D01*
X72779978Y-41160812D01*
X72786356Y-41149132D01*
X73516408Y-41149132D01*
X73516539Y-41150965D01*
X73520790Y-41157580D01*
X74462934Y-42099724D01*
X74476471Y-42107116D01*
X74481740Y-42103430D01*
X74608927Y-41895879D01*
X74613408Y-41887085D01*
X74707984Y-41658758D01*
X74711033Y-41649373D01*
X74768728Y-41409060D01*
X74770271Y-41399313D01*
X74789662Y-41152930D01*
X80150338Y-41152930D01*
X80169729Y-41399313D01*
X80171272Y-41409060D01*
X80228967Y-41649373D01*
X80232016Y-41658758D01*
X80326592Y-41887085D01*
X80331073Y-41895879D01*
X80457340Y-42101928D01*
X80465401Y-42107190D01*
X80475607Y-42101183D01*
X81415978Y-41160812D01*
X81422356Y-41149132D01*
X82152408Y-41149132D01*
X82152539Y-41150965D01*
X82156790Y-41157580D01*
X83098934Y-42099724D01*
X83112471Y-42107116D01*
X83117740Y-42103430D01*
X83244927Y-41895879D01*
X83249408Y-41887085D01*
X83343984Y-41658758D01*
X83347033Y-41649373D01*
X83404728Y-41409060D01*
X83406271Y-41399313D01*
X83425662Y-41152930D01*
X85230338Y-41152930D01*
X85249729Y-41399313D01*
X85251272Y-41409060D01*
X85308967Y-41649373D01*
X85312016Y-41658758D01*
X85406592Y-41887085D01*
X85411073Y-41895879D01*
X85537340Y-42101928D01*
X85545401Y-42107190D01*
X85555607Y-42101183D01*
X86495978Y-41160812D01*
X86502356Y-41149132D01*
X87232408Y-41149132D01*
X87232539Y-41150965D01*
X87236790Y-41157580D01*
X88178934Y-42099724D01*
X88192471Y-42107116D01*
X88197740Y-42103430D01*
X88324927Y-41895879D01*
X88329408Y-41887085D01*
X88423984Y-41658758D01*
X88427033Y-41649373D01*
X88484728Y-41409060D01*
X88486271Y-41399313D01*
X88505662Y-41152930D01*
X88505662Y-41143070D01*
X88486271Y-40896687D01*
X88484728Y-40886940D01*
X88427033Y-40646627D01*
X88423984Y-40637242D01*
X88329408Y-40408915D01*
X88324927Y-40400121D01*
X88198660Y-40194072D01*
X88190599Y-40188810D01*
X88180393Y-40194817D01*
X87240022Y-41135188D01*
X87232408Y-41149132D01*
X86502356Y-41149132D01*
X86503592Y-41146868D01*
X86503461Y-41145035D01*
X86499210Y-41138420D01*
X85557066Y-40196276D01*
X85543529Y-40188884D01*
X85538260Y-40192570D01*
X85411073Y-40400121D01*
X85406592Y-40408915D01*
X85312016Y-40637242D01*
X85308967Y-40646627D01*
X85251272Y-40886940D01*
X85249729Y-40896687D01*
X85230338Y-41143070D01*
X85230338Y-41152930D01*
X83425662Y-41152930D01*
X83425662Y-41143070D01*
X83406271Y-40896687D01*
X83404728Y-40886940D01*
X83347033Y-40646627D01*
X83343984Y-40637242D01*
X83249408Y-40408915D01*
X83244927Y-40400121D01*
X83118660Y-40194072D01*
X83110599Y-40188810D01*
X83100393Y-40194817D01*
X82160022Y-41135188D01*
X82152408Y-41149132D01*
X81422356Y-41149132D01*
X81423592Y-41146868D01*
X81423461Y-41145035D01*
X81419210Y-41138420D01*
X80477066Y-40196276D01*
X80463529Y-40188884D01*
X80458260Y-40192570D01*
X80331073Y-40400121D01*
X80326592Y-40408915D01*
X80232016Y-40637242D01*
X80228967Y-40646627D01*
X80171272Y-40886940D01*
X80169729Y-40896687D01*
X80150338Y-41143070D01*
X80150338Y-41152930D01*
X74789662Y-41152930D01*
X74789662Y-41143070D01*
X74770271Y-40896687D01*
X74768728Y-40886940D01*
X74711033Y-40646627D01*
X74707984Y-40637242D01*
X74613408Y-40408915D01*
X74608927Y-40400121D01*
X74482660Y-40194072D01*
X74474599Y-40188810D01*
X74464393Y-40194817D01*
X73524022Y-41135188D01*
X73516408Y-41149132D01*
X72786356Y-41149132D01*
X72787592Y-41146868D01*
X72787461Y-41145035D01*
X72783210Y-41138420D01*
X71841066Y-40196276D01*
X71827529Y-40188884D01*
X71822260Y-40192570D01*
X71695073Y-40400121D01*
X71690592Y-40408915D01*
X71596016Y-40637242D01*
X71592967Y-40646627D01*
X71535272Y-40886940D01*
X71533729Y-40896687D01*
X71514338Y-41143070D01*
X71514338Y-41152930D01*
X69709662Y-41152930D01*
X69709662Y-41143070D01*
X69690271Y-40896687D01*
X69688728Y-40886940D01*
X69631033Y-40646627D01*
X69627984Y-40637242D01*
X69533408Y-40408915D01*
X69528927Y-40400121D01*
X69402660Y-40194072D01*
X69394599Y-40188810D01*
X69384393Y-40194817D01*
X68444022Y-41135188D01*
X68436408Y-41149132D01*
X67706356Y-41149132D01*
X67707592Y-41146868D01*
X67707461Y-41145035D01*
X67703210Y-41138420D01*
X66761066Y-40196276D01*
X66747529Y-40188884D01*
X66742260Y-40192570D01*
X66615073Y-40400121D01*
X66610592Y-40408915D01*
X66516016Y-40637242D01*
X66512967Y-40646627D01*
X66455272Y-40886940D01*
X66453729Y-40896687D01*
X66434338Y-41143070D01*
X66434338Y-41152930D01*
X33839852Y-41152930D01*
X34009674Y-41006344D01*
X34123381Y-40886940D01*
X34277957Y-40724618D01*
X34280074Y-40722395D01*
X34339271Y-40646627D01*
X34519565Y-40415860D01*
X34519567Y-40415857D01*
X34521475Y-40413415D01*
X34731574Y-40082354D01*
X34734460Y-40076642D01*
X34815452Y-39916303D01*
X34896359Y-39756134D01*
X42119500Y-39756134D01*
X42126255Y-39818316D01*
X42177385Y-39954705D01*
X42264739Y-40071261D01*
X42381295Y-40158615D01*
X42517684Y-40209745D01*
X42579866Y-40216500D01*
X45076134Y-40216500D01*
X45138316Y-40209745D01*
X45274705Y-40158615D01*
X45391261Y-40071261D01*
X45478615Y-39954705D01*
X45506111Y-39881359D01*
X46319386Y-39881359D01*
X46328099Y-39892879D01*
X46416586Y-39957760D01*
X46424505Y-39962708D01*
X46640877Y-40076547D01*
X46649451Y-40080275D01*
X46880282Y-40160885D01*
X46889291Y-40163299D01*
X47129518Y-40208908D01*
X47138775Y-40209962D01*
X47383107Y-40219563D01*
X47392420Y-40219237D01*
X47635478Y-40192618D01*
X47644655Y-40190917D01*
X47881107Y-40128665D01*
X47889926Y-40125628D01*
X48114584Y-40029107D01*
X48122856Y-40024800D01*
X48330777Y-39896135D01*
X48332620Y-39894796D01*
X48340038Y-39883541D01*
X48333974Y-39873184D01*
X47340812Y-38880022D01*
X47326868Y-38872408D01*
X47325035Y-38872539D01*
X47318420Y-38876790D01*
X46326044Y-39869166D01*
X46319386Y-39881359D01*
X45506111Y-39881359D01*
X45529745Y-39818316D01*
X45536500Y-39756134D01*
X45536500Y-39283281D01*
X45556502Y-39215160D01*
X45610158Y-39168667D01*
X45680432Y-39158563D01*
X45745012Y-39188057D01*
X45773492Y-39223643D01*
X45881234Y-39424160D01*
X45886245Y-39432027D01*
X45943173Y-39508263D01*
X45954431Y-39516712D01*
X45966850Y-39509940D01*
X46955978Y-38520812D01*
X46962356Y-38509132D01*
X47692408Y-38509132D01*
X47692539Y-38510965D01*
X47696790Y-38517580D01*
X48691732Y-39512522D01*
X48704112Y-39519282D01*
X48712453Y-39513038D01*
X48830700Y-39329202D01*
X48835147Y-39321011D01*
X48935572Y-39098076D01*
X48938766Y-39089302D01*
X48956237Y-39027354D01*
X48993979Y-38967220D01*
X49058240Y-38937038D01*
X49128618Y-38946389D01*
X49182769Y-38992304D01*
X49196093Y-39018977D01*
X49262831Y-39204858D01*
X49277604Y-39232351D01*
X49380666Y-39424160D01*
X49383025Y-39428551D01*
X49385820Y-39432294D01*
X49385822Y-39432297D01*
X49532171Y-39628282D01*
X49532176Y-39628288D01*
X49534963Y-39632020D01*
X49538272Y-39635300D01*
X49538277Y-39635306D01*
X49711990Y-39807509D01*
X49715307Y-39810797D01*
X49719069Y-39813555D01*
X49719072Y-39813558D01*
X49900106Y-39946297D01*
X49920094Y-39960953D01*
X49924229Y-39963129D01*
X49924233Y-39963131D01*
X50041447Y-40024800D01*
X50144827Y-40079191D01*
X50277803Y-40125628D01*
X50378764Y-40160885D01*
X50384568Y-40162912D01*
X50634050Y-40210278D01*
X50754532Y-40215011D01*
X50883125Y-40220064D01*
X50883130Y-40220064D01*
X50887793Y-40220247D01*
X50978821Y-40210278D01*
X51135569Y-40193112D01*
X51135575Y-40193111D01*
X51140222Y-40192602D01*
X51249680Y-40163784D01*
X51381273Y-40129138D01*
X51385793Y-40127948D01*
X51518449Y-40070955D01*
X51614807Y-40029557D01*
X51614810Y-40029555D01*
X51619110Y-40027708D01*
X51623090Y-40025245D01*
X51623094Y-40025243D01*
X51831064Y-39896547D01*
X51831066Y-39896545D01*
X51835047Y-39894082D01*
X51850076Y-39881359D01*
X53319386Y-39881359D01*
X53328099Y-39892879D01*
X53416586Y-39957760D01*
X53424505Y-39962708D01*
X53640877Y-40076547D01*
X53649451Y-40080275D01*
X53880282Y-40160885D01*
X53889291Y-40163299D01*
X54129518Y-40208908D01*
X54138775Y-40209962D01*
X54383107Y-40219563D01*
X54392420Y-40219237D01*
X54635478Y-40192618D01*
X54644655Y-40190917D01*
X54881107Y-40128665D01*
X54889926Y-40125628D01*
X55114584Y-40029107D01*
X55122856Y-40024800D01*
X55330777Y-39896135D01*
X55332620Y-39894796D01*
X55340038Y-39883541D01*
X55333974Y-39873184D01*
X54340812Y-38880022D01*
X54326868Y-38872408D01*
X54325035Y-38872539D01*
X54318420Y-38876790D01*
X53326044Y-39869166D01*
X53319386Y-39881359D01*
X51850076Y-39881359D01*
X51864479Y-39869166D01*
X52025289Y-39733031D01*
X52025291Y-39733029D01*
X52028862Y-39730006D01*
X52196295Y-39539084D01*
X52202313Y-39529729D01*
X52331141Y-39329442D01*
X52333669Y-39325512D01*
X52437967Y-39093980D01*
X52439287Y-39089302D01*
X52456762Y-39027338D01*
X52494504Y-38967204D01*
X52558765Y-38937022D01*
X52629143Y-38946373D01*
X52683294Y-38992288D01*
X52696619Y-39018963D01*
X52761706Y-39200246D01*
X52765505Y-39208778D01*
X52881234Y-39424160D01*
X52886245Y-39432027D01*
X52943173Y-39508263D01*
X52954431Y-39516712D01*
X52966850Y-39509940D01*
X53955978Y-38520812D01*
X53962356Y-38509132D01*
X54692408Y-38509132D01*
X54692539Y-38510965D01*
X54696790Y-38517580D01*
X55691732Y-39512522D01*
X55704112Y-39519282D01*
X55712453Y-39513038D01*
X55830700Y-39329202D01*
X55835147Y-39321011D01*
X55935572Y-39098076D01*
X55938766Y-39089302D01*
X55956237Y-39027354D01*
X55993979Y-38967220D01*
X56058240Y-38937038D01*
X56128618Y-38946389D01*
X56182769Y-38992304D01*
X56196093Y-39018977D01*
X56262831Y-39204858D01*
X56277604Y-39232351D01*
X56380666Y-39424160D01*
X56383025Y-39428551D01*
X56385820Y-39432294D01*
X56385822Y-39432297D01*
X56532171Y-39628282D01*
X56532176Y-39628288D01*
X56534963Y-39632020D01*
X56538272Y-39635300D01*
X56538277Y-39635306D01*
X56711990Y-39807509D01*
X56715307Y-39810797D01*
X56719069Y-39813555D01*
X56719072Y-39813558D01*
X56900106Y-39946297D01*
X56920094Y-39960953D01*
X56924229Y-39963129D01*
X56924233Y-39963131D01*
X57041447Y-40024800D01*
X57144827Y-40079191D01*
X57277803Y-40125628D01*
X57378764Y-40160885D01*
X57384568Y-40162912D01*
X57634050Y-40210278D01*
X57754532Y-40215011D01*
X57883125Y-40220064D01*
X57883130Y-40220064D01*
X57887793Y-40220247D01*
X57978821Y-40210278D01*
X58135569Y-40193112D01*
X58135575Y-40193111D01*
X58140222Y-40192602D01*
X58249680Y-40163784D01*
X58381273Y-40129138D01*
X58385793Y-40127948D01*
X58518449Y-40070955D01*
X58614807Y-40029557D01*
X58614810Y-40029555D01*
X58619110Y-40027708D01*
X58623090Y-40025245D01*
X58623094Y-40025243D01*
X58831064Y-39896547D01*
X58831066Y-39896545D01*
X58835047Y-39894082D01*
X58850076Y-39881359D01*
X60319386Y-39881359D01*
X60328099Y-39892879D01*
X60416586Y-39957760D01*
X60424505Y-39962708D01*
X60640877Y-40076547D01*
X60649451Y-40080275D01*
X60880282Y-40160885D01*
X60889291Y-40163299D01*
X61129518Y-40208908D01*
X61138775Y-40209962D01*
X61383107Y-40219563D01*
X61392420Y-40219237D01*
X61635478Y-40192618D01*
X61644655Y-40190917D01*
X61881107Y-40128665D01*
X61889926Y-40125628D01*
X62114584Y-40029107D01*
X62122856Y-40024800D01*
X62330777Y-39896135D01*
X62332620Y-39894796D01*
X62340038Y-39883541D01*
X62333974Y-39873184D01*
X62286191Y-39825401D01*
X67112810Y-39825401D01*
X67118817Y-39835607D01*
X68059188Y-40775978D01*
X68073132Y-40783592D01*
X68074965Y-40783461D01*
X68081580Y-40779210D01*
X69023724Y-39837066D01*
X69031116Y-39823529D01*
X69027430Y-39818260D01*
X68819879Y-39691073D01*
X68811085Y-39686592D01*
X68582758Y-39592016D01*
X68573373Y-39588967D01*
X68333060Y-39531272D01*
X68323313Y-39529729D01*
X68076930Y-39510338D01*
X68067070Y-39510338D01*
X67820687Y-39529729D01*
X67810940Y-39531272D01*
X67570627Y-39588967D01*
X67561242Y-39592016D01*
X67332915Y-39686592D01*
X67324121Y-39691073D01*
X67118072Y-39817340D01*
X67112810Y-39825401D01*
X62286191Y-39825401D01*
X61340812Y-38880022D01*
X61326868Y-38872408D01*
X61325035Y-38872539D01*
X61318420Y-38876790D01*
X60326044Y-39869166D01*
X60319386Y-39881359D01*
X58850076Y-39881359D01*
X58864479Y-39869166D01*
X59025289Y-39733031D01*
X59025291Y-39733029D01*
X59028862Y-39730006D01*
X59196295Y-39539084D01*
X59202313Y-39529729D01*
X59331141Y-39329442D01*
X59333669Y-39325512D01*
X59437967Y-39093980D01*
X59439287Y-39089302D01*
X59456762Y-39027338D01*
X59494504Y-38967204D01*
X59558765Y-38937022D01*
X59629143Y-38946373D01*
X59683294Y-38992288D01*
X59696619Y-39018963D01*
X59761706Y-39200246D01*
X59765505Y-39208778D01*
X59881234Y-39424160D01*
X59886245Y-39432027D01*
X59943173Y-39508263D01*
X59954431Y-39516712D01*
X59966850Y-39509940D01*
X60955978Y-38520812D01*
X60962356Y-38509132D01*
X61692408Y-38509132D01*
X61692539Y-38510965D01*
X61696790Y-38517580D01*
X62691732Y-39512522D01*
X62704112Y-39519282D01*
X62712453Y-39513038D01*
X62830700Y-39329202D01*
X62835147Y-39321011D01*
X62935572Y-39098076D01*
X62938767Y-39089298D01*
X63005135Y-38853973D01*
X63006993Y-38844844D01*
X63037124Y-38608000D01*
X69073758Y-38608000D01*
X69092696Y-38848634D01*
X69093850Y-38853441D01*
X69093851Y-38853447D01*
X69113916Y-38937022D01*
X69149045Y-39083343D01*
X69150938Y-39087914D01*
X69150939Y-39087916D01*
X69231862Y-39283281D01*
X69241416Y-39306347D01*
X69367536Y-39512156D01*
X69524299Y-39695701D01*
X69707844Y-39852464D01*
X69913653Y-39978584D01*
X69918223Y-39980477D01*
X69918227Y-39980479D01*
X70132084Y-40069061D01*
X70136657Y-40070955D01*
X70219039Y-40090733D01*
X70366553Y-40126149D01*
X70366559Y-40126150D01*
X70371366Y-40127304D01*
X70612000Y-40146242D01*
X70852634Y-40127304D01*
X70857441Y-40126150D01*
X70857447Y-40126149D01*
X71004961Y-40090733D01*
X71087343Y-40070955D01*
X71091916Y-40069061D01*
X71305773Y-39980479D01*
X71305777Y-39980477D01*
X71310347Y-39978584D01*
X71516156Y-39852464D01*
X71547843Y-39825401D01*
X72192810Y-39825401D01*
X72198817Y-39835607D01*
X73139188Y-40775978D01*
X73153132Y-40783592D01*
X73154965Y-40783461D01*
X73161580Y-40779210D01*
X74103724Y-39837066D01*
X74110094Y-39825401D01*
X80828810Y-39825401D01*
X80834817Y-39835607D01*
X81775188Y-40775978D01*
X81789132Y-40783592D01*
X81790965Y-40783461D01*
X81797580Y-40779210D01*
X82739724Y-39837066D01*
X82747116Y-39823529D01*
X82743430Y-39818260D01*
X82535879Y-39691073D01*
X82527085Y-39686592D01*
X82298758Y-39592016D01*
X82289373Y-39588967D01*
X82049060Y-39531272D01*
X82039313Y-39529729D01*
X81792930Y-39510338D01*
X81783070Y-39510338D01*
X81536687Y-39529729D01*
X81526940Y-39531272D01*
X81286627Y-39588967D01*
X81277242Y-39592016D01*
X81048915Y-39686592D01*
X81040121Y-39691073D01*
X80834072Y-39817340D01*
X80828810Y-39825401D01*
X74110094Y-39825401D01*
X74111116Y-39823529D01*
X74107430Y-39818260D01*
X73899879Y-39691073D01*
X73891085Y-39686592D01*
X73662758Y-39592016D01*
X73653373Y-39588967D01*
X73413060Y-39531272D01*
X73403313Y-39529729D01*
X73156930Y-39510338D01*
X73147070Y-39510338D01*
X72900687Y-39529729D01*
X72890940Y-39531272D01*
X72650627Y-39588967D01*
X72641242Y-39592016D01*
X72412915Y-39686592D01*
X72404121Y-39691073D01*
X72198072Y-39817340D01*
X72192810Y-39825401D01*
X71547843Y-39825401D01*
X71699701Y-39695701D01*
X71856464Y-39512156D01*
X71982584Y-39306347D01*
X71992139Y-39283281D01*
X72073061Y-39087916D01*
X72073062Y-39087914D01*
X72074955Y-39083343D01*
X72110084Y-38937022D01*
X72130149Y-38853447D01*
X72130150Y-38853441D01*
X72131304Y-38848634D01*
X72150242Y-38608000D01*
X82789758Y-38608000D01*
X82808696Y-38848634D01*
X82809850Y-38853441D01*
X82809851Y-38853447D01*
X82829916Y-38937022D01*
X82865045Y-39083343D01*
X82866938Y-39087914D01*
X82866939Y-39087916D01*
X82947862Y-39283281D01*
X82957416Y-39306347D01*
X83083536Y-39512156D01*
X83240299Y-39695701D01*
X83423844Y-39852464D01*
X83629653Y-39978584D01*
X83634223Y-39980477D01*
X83634227Y-39980479D01*
X83848084Y-40069061D01*
X83852657Y-40070955D01*
X83935039Y-40090733D01*
X84082553Y-40126149D01*
X84082559Y-40126150D01*
X84087366Y-40127304D01*
X84328000Y-40146242D01*
X84568634Y-40127304D01*
X84573441Y-40126150D01*
X84573447Y-40126149D01*
X84720961Y-40090733D01*
X84803343Y-40070955D01*
X84807916Y-40069061D01*
X85021773Y-39980479D01*
X85021777Y-39980477D01*
X85026347Y-39978584D01*
X85232156Y-39852464D01*
X85263843Y-39825401D01*
X85908810Y-39825401D01*
X85914817Y-39835607D01*
X86855188Y-40775978D01*
X86869132Y-40783592D01*
X86870965Y-40783461D01*
X86877580Y-40779210D01*
X87819724Y-39837066D01*
X87827116Y-39823529D01*
X87823430Y-39818260D01*
X87615879Y-39691073D01*
X87607085Y-39686592D01*
X87378758Y-39592016D01*
X87369373Y-39588967D01*
X87129060Y-39531272D01*
X87119313Y-39529729D01*
X86872930Y-39510338D01*
X86863070Y-39510338D01*
X86616687Y-39529729D01*
X86606940Y-39531272D01*
X86366627Y-39588967D01*
X86357242Y-39592016D01*
X86128915Y-39686592D01*
X86120121Y-39691073D01*
X85914072Y-39817340D01*
X85908810Y-39825401D01*
X85263843Y-39825401D01*
X85415701Y-39695701D01*
X85572464Y-39512156D01*
X85698584Y-39306347D01*
X85708139Y-39283281D01*
X85789061Y-39087916D01*
X85789062Y-39087914D01*
X85790955Y-39083343D01*
X85826084Y-38937022D01*
X85846149Y-38853447D01*
X85846150Y-38853441D01*
X85847304Y-38848634D01*
X85866242Y-38608000D01*
X85847304Y-38367366D01*
X85846150Y-38362559D01*
X85846149Y-38362553D01*
X85792110Y-38137469D01*
X85790955Y-38132657D01*
X85762256Y-38063371D01*
X85700479Y-37914227D01*
X85700477Y-37914223D01*
X85698584Y-37909653D01*
X85572464Y-37703844D01*
X85415701Y-37520299D01*
X85266034Y-37392471D01*
X85908884Y-37392471D01*
X85912570Y-37397740D01*
X86120121Y-37524927D01*
X86128915Y-37529408D01*
X86357242Y-37623984D01*
X86366627Y-37627033D01*
X86606940Y-37684728D01*
X86616687Y-37686271D01*
X86863070Y-37705662D01*
X86872930Y-37705662D01*
X87119313Y-37686271D01*
X87129060Y-37684728D01*
X87369373Y-37627033D01*
X87378758Y-37623984D01*
X87607085Y-37529408D01*
X87615879Y-37524927D01*
X87821928Y-37398660D01*
X87827190Y-37390599D01*
X87821183Y-37380393D01*
X86880812Y-36440022D01*
X86866868Y-36432408D01*
X86865035Y-36432539D01*
X86858420Y-36436790D01*
X85916276Y-37378934D01*
X85908884Y-37392471D01*
X85266034Y-37392471D01*
X85232156Y-37363536D01*
X85026347Y-37237416D01*
X85021777Y-37235523D01*
X85021773Y-37235521D01*
X84807916Y-37146939D01*
X84807914Y-37146938D01*
X84803343Y-37145045D01*
X84708083Y-37122175D01*
X84573447Y-37089851D01*
X84573441Y-37089850D01*
X84568634Y-37088696D01*
X84328000Y-37069758D01*
X84087366Y-37088696D01*
X84082559Y-37089850D01*
X84082553Y-37089851D01*
X83947917Y-37122175D01*
X83852657Y-37145045D01*
X83848086Y-37146938D01*
X83848084Y-37146939D01*
X83634227Y-37235521D01*
X83634223Y-37235523D01*
X83629653Y-37237416D01*
X83423844Y-37363536D01*
X83240299Y-37520299D01*
X83083536Y-37703844D01*
X82957416Y-37909653D01*
X82955523Y-37914223D01*
X82955521Y-37914227D01*
X82893744Y-38063371D01*
X82865045Y-38132657D01*
X82863890Y-38137469D01*
X82809851Y-38362553D01*
X82809850Y-38362559D01*
X82808696Y-38367366D01*
X82789758Y-38608000D01*
X72150242Y-38608000D01*
X72131304Y-38367366D01*
X72130150Y-38362559D01*
X72130149Y-38362553D01*
X72076110Y-38137469D01*
X72074955Y-38132657D01*
X72046256Y-38063371D01*
X71984479Y-37914227D01*
X71984477Y-37914223D01*
X71982584Y-37909653D01*
X71856464Y-37703844D01*
X71699701Y-37520299D01*
X71550034Y-37392471D01*
X72192884Y-37392471D01*
X72196570Y-37397740D01*
X72404121Y-37524927D01*
X72412915Y-37529408D01*
X72641242Y-37623984D01*
X72650627Y-37627033D01*
X72890940Y-37684728D01*
X72900687Y-37686271D01*
X73147070Y-37705662D01*
X73156930Y-37705662D01*
X73403313Y-37686271D01*
X73413060Y-37684728D01*
X73653373Y-37627033D01*
X73662758Y-37623984D01*
X73891085Y-37529408D01*
X73899879Y-37524927D01*
X74105928Y-37398660D01*
X74109968Y-37392471D01*
X80828884Y-37392471D01*
X80832570Y-37397740D01*
X81040121Y-37524927D01*
X81048915Y-37529408D01*
X81277242Y-37623984D01*
X81286627Y-37627033D01*
X81526940Y-37684728D01*
X81536687Y-37686271D01*
X81783070Y-37705662D01*
X81792930Y-37705662D01*
X82039313Y-37686271D01*
X82049060Y-37684728D01*
X82289373Y-37627033D01*
X82298758Y-37623984D01*
X82527085Y-37529408D01*
X82535879Y-37524927D01*
X82741928Y-37398660D01*
X82747190Y-37390599D01*
X82741183Y-37380393D01*
X81800812Y-36440022D01*
X81786868Y-36432408D01*
X81785035Y-36432539D01*
X81778420Y-36436790D01*
X80836276Y-37378934D01*
X80828884Y-37392471D01*
X74109968Y-37392471D01*
X74111190Y-37390599D01*
X74105183Y-37380393D01*
X73164812Y-36440022D01*
X73150868Y-36432408D01*
X73149035Y-36432539D01*
X73142420Y-36436790D01*
X72200276Y-37378934D01*
X72192884Y-37392471D01*
X71550034Y-37392471D01*
X71516156Y-37363536D01*
X71310347Y-37237416D01*
X71305777Y-37235523D01*
X71305773Y-37235521D01*
X71091916Y-37146939D01*
X71091914Y-37146938D01*
X71087343Y-37145045D01*
X70992083Y-37122175D01*
X70857447Y-37089851D01*
X70857441Y-37089850D01*
X70852634Y-37088696D01*
X70612000Y-37069758D01*
X70371366Y-37088696D01*
X70366559Y-37089850D01*
X70366553Y-37089851D01*
X70231917Y-37122175D01*
X70136657Y-37145045D01*
X70132086Y-37146938D01*
X70132084Y-37146939D01*
X69918227Y-37235521D01*
X69918223Y-37235523D01*
X69913653Y-37237416D01*
X69707844Y-37363536D01*
X69524299Y-37520299D01*
X69367536Y-37703844D01*
X69241416Y-37909653D01*
X69239523Y-37914223D01*
X69239521Y-37914227D01*
X69177744Y-38063371D01*
X69149045Y-38132657D01*
X69147890Y-38137469D01*
X69093851Y-38362553D01*
X69093850Y-38362559D01*
X69092696Y-38367366D01*
X69073758Y-38608000D01*
X63037124Y-38608000D01*
X63038044Y-38600770D01*
X63038525Y-38594483D01*
X63040706Y-38511160D01*
X63040555Y-38504851D01*
X63022321Y-38259486D01*
X63020944Y-38250280D01*
X62966979Y-38011786D01*
X62964255Y-38002875D01*
X62875633Y-37774983D01*
X62871619Y-37766567D01*
X62750284Y-37554276D01*
X62745074Y-37546553D01*
X62713787Y-37506865D01*
X62701863Y-37498395D01*
X62690328Y-37504882D01*
X61700022Y-38495188D01*
X61692408Y-38509132D01*
X60962356Y-38509132D01*
X60963592Y-38506868D01*
X60963461Y-38505035D01*
X60959210Y-38498420D01*
X59964828Y-37504038D01*
X59951520Y-37496771D01*
X59941481Y-37503893D01*
X59936581Y-37509784D01*
X59931168Y-37517373D01*
X59804322Y-37726409D01*
X59800084Y-37734726D01*
X59705529Y-37960214D01*
X59702573Y-37969050D01*
X59700328Y-37977888D01*
X59664172Y-38038989D01*
X59600722Y-38070843D01*
X59530124Y-38063336D01*
X59474790Y-38018853D01*
X59460772Y-37992538D01*
X59376084Y-37774762D01*
X59376083Y-37774760D01*
X59374391Y-37770409D01*
X59353866Y-37734498D01*
X59250702Y-37553997D01*
X59250700Y-37553995D01*
X59248383Y-37549940D01*
X59091171Y-37350517D01*
X58973690Y-37240002D01*
X58909610Y-37179722D01*
X58909608Y-37179720D01*
X58906209Y-37176523D01*
X58857443Y-37142693D01*
X58843351Y-37132917D01*
X60317330Y-37132917D01*
X60321903Y-37142693D01*
X61315188Y-38135978D01*
X61329132Y-38143592D01*
X61330965Y-38143461D01*
X61337580Y-38139210D01*
X62084319Y-37392471D01*
X67112884Y-37392471D01*
X67116570Y-37397740D01*
X67324121Y-37524927D01*
X67332915Y-37529408D01*
X67561242Y-37623984D01*
X67570627Y-37627033D01*
X67810940Y-37684728D01*
X67820687Y-37686271D01*
X68067070Y-37705662D01*
X68076930Y-37705662D01*
X68323313Y-37686271D01*
X68333060Y-37684728D01*
X68573373Y-37627033D01*
X68582758Y-37623984D01*
X68811085Y-37529408D01*
X68819879Y-37524927D01*
X69025928Y-37398660D01*
X69031190Y-37390599D01*
X69025183Y-37380393D01*
X68084812Y-36440022D01*
X68070868Y-36432408D01*
X68069035Y-36432539D01*
X68062420Y-36436790D01*
X67120276Y-37378934D01*
X67112884Y-37392471D01*
X62084319Y-37392471D01*
X62330488Y-37146302D01*
X62336872Y-37134612D01*
X62327460Y-37122502D01*
X62201144Y-37034873D01*
X62193116Y-37030145D01*
X61973810Y-36921995D01*
X61965177Y-36918507D01*
X61732288Y-36843958D01*
X61723238Y-36841785D01*
X61481891Y-36802480D01*
X61472602Y-36801668D01*
X61228114Y-36798467D01*
X61218803Y-36799037D01*
X60976522Y-36832010D01*
X60967403Y-36833948D01*
X60732668Y-36902367D01*
X60723915Y-36905639D01*
X60501869Y-37008004D01*
X60493714Y-37012524D01*
X60326468Y-37122175D01*
X60317330Y-37132917D01*
X58843351Y-37132917D01*
X58701393Y-37034437D01*
X58701390Y-37034435D01*
X58697561Y-37031779D01*
X58693384Y-37029719D01*
X58693377Y-37029715D01*
X58473996Y-36921528D01*
X58473992Y-36921527D01*
X58469810Y-36919464D01*
X58227960Y-36842047D01*
X58223355Y-36841297D01*
X57981935Y-36801980D01*
X57981934Y-36801980D01*
X57977323Y-36801229D01*
X57850364Y-36799567D01*
X57728083Y-36797966D01*
X57728080Y-36797966D01*
X57723406Y-36797905D01*
X57471787Y-36832149D01*
X57467301Y-36833457D01*
X57467299Y-36833457D01*
X57440401Y-36841297D01*
X57227993Y-36903208D01*
X57223740Y-36905168D01*
X57223739Y-36905169D01*
X57195818Y-36918041D01*
X56997380Y-37009522D01*
X56979594Y-37021183D01*
X56788928Y-37146189D01*
X56788923Y-37146193D01*
X56785015Y-37148755D01*
X56730195Y-37197684D01*
X56657447Y-37262614D01*
X56595562Y-37317848D01*
X56433183Y-37513087D01*
X56301447Y-37730182D01*
X56299638Y-37734496D01*
X56299637Y-37734498D01*
X56224271Y-37914227D01*
X56203246Y-37964365D01*
X56199804Y-37977919D01*
X56163651Y-38039019D01*
X56100203Y-38070875D01*
X56029604Y-38063371D01*
X55974269Y-38018890D01*
X55960248Y-37992571D01*
X55875633Y-37774983D01*
X55871619Y-37766567D01*
X55750284Y-37554276D01*
X55745074Y-37546553D01*
X55713787Y-37506865D01*
X55701863Y-37498395D01*
X55690328Y-37504882D01*
X54700022Y-38495188D01*
X54692408Y-38509132D01*
X53962356Y-38509132D01*
X53963592Y-38506868D01*
X53963461Y-38505035D01*
X53959210Y-38498420D01*
X52964828Y-37504038D01*
X52951520Y-37496771D01*
X52941481Y-37503893D01*
X52936581Y-37509784D01*
X52931168Y-37517373D01*
X52804322Y-37726409D01*
X52800084Y-37734726D01*
X52705529Y-37960214D01*
X52702573Y-37969050D01*
X52700328Y-37977888D01*
X52664172Y-38038989D01*
X52600722Y-38070843D01*
X52530124Y-38063336D01*
X52474790Y-38018853D01*
X52460772Y-37992538D01*
X52376084Y-37774762D01*
X52376083Y-37774760D01*
X52374391Y-37770409D01*
X52353866Y-37734498D01*
X52250702Y-37553997D01*
X52250700Y-37553995D01*
X52248383Y-37549940D01*
X52091171Y-37350517D01*
X51973690Y-37240002D01*
X51909610Y-37179722D01*
X51909608Y-37179720D01*
X51906209Y-37176523D01*
X51857443Y-37142693D01*
X51843351Y-37132917D01*
X53317330Y-37132917D01*
X53321903Y-37142693D01*
X54315188Y-38135978D01*
X54329132Y-38143592D01*
X54330965Y-38143461D01*
X54337580Y-38139210D01*
X55330488Y-37146302D01*
X55336872Y-37134612D01*
X55327460Y-37122502D01*
X55201144Y-37034873D01*
X55193116Y-37030145D01*
X54973810Y-36921995D01*
X54965177Y-36918507D01*
X54732288Y-36843958D01*
X54723238Y-36841785D01*
X54481891Y-36802480D01*
X54472602Y-36801668D01*
X54228114Y-36798467D01*
X54218803Y-36799037D01*
X53976522Y-36832010D01*
X53967403Y-36833948D01*
X53732668Y-36902367D01*
X53723915Y-36905639D01*
X53501869Y-37008004D01*
X53493714Y-37012524D01*
X53326468Y-37122175D01*
X53317330Y-37132917D01*
X51843351Y-37132917D01*
X51701393Y-37034437D01*
X51701390Y-37034435D01*
X51697561Y-37031779D01*
X51693384Y-37029719D01*
X51693377Y-37029715D01*
X51473996Y-36921528D01*
X51473992Y-36921527D01*
X51469810Y-36919464D01*
X51227960Y-36842047D01*
X51223355Y-36841297D01*
X50981935Y-36801980D01*
X50981934Y-36801980D01*
X50977323Y-36801229D01*
X50850364Y-36799567D01*
X50728083Y-36797966D01*
X50728080Y-36797966D01*
X50723406Y-36797905D01*
X50471787Y-36832149D01*
X50467301Y-36833457D01*
X50467299Y-36833457D01*
X50440401Y-36841297D01*
X50227993Y-36903208D01*
X50223740Y-36905168D01*
X50223739Y-36905169D01*
X50195818Y-36918041D01*
X49997380Y-37009522D01*
X49979594Y-37021183D01*
X49788928Y-37146189D01*
X49788923Y-37146193D01*
X49785015Y-37148755D01*
X49730195Y-37197684D01*
X49657447Y-37262614D01*
X49595562Y-37317848D01*
X49433183Y-37513087D01*
X49301447Y-37730182D01*
X49299638Y-37734496D01*
X49299637Y-37734498D01*
X49224271Y-37914227D01*
X49203246Y-37964365D01*
X49199804Y-37977919D01*
X49163651Y-38039019D01*
X49100203Y-38070875D01*
X49029604Y-38063371D01*
X48974269Y-38018890D01*
X48960248Y-37992571D01*
X48875633Y-37774983D01*
X48871619Y-37766567D01*
X48750284Y-37554276D01*
X48745074Y-37546553D01*
X48713787Y-37506865D01*
X48701863Y-37498395D01*
X48690328Y-37504882D01*
X47700022Y-38495188D01*
X47692408Y-38509132D01*
X46962356Y-38509132D01*
X46963592Y-38506868D01*
X46963461Y-38505035D01*
X46959210Y-38498420D01*
X45964828Y-37504038D01*
X45951520Y-37496771D01*
X45941481Y-37503893D01*
X45936581Y-37509784D01*
X45931168Y-37517373D01*
X45804322Y-37726409D01*
X45800082Y-37734730D01*
X45778697Y-37785728D01*
X45733909Y-37840814D01*
X45666448Y-37862941D01*
X45597734Y-37845083D01*
X45549583Y-37792911D01*
X45536500Y-37737003D01*
X45536500Y-37259866D01*
X45529745Y-37197684D01*
X45505465Y-37132917D01*
X46317330Y-37132917D01*
X46321903Y-37142693D01*
X47315188Y-38135978D01*
X47329132Y-38143592D01*
X47330965Y-38143461D01*
X47337580Y-38139210D01*
X48330488Y-37146302D01*
X48336872Y-37134612D01*
X48327460Y-37122502D01*
X48201144Y-37034873D01*
X48193116Y-37030145D01*
X47973810Y-36921995D01*
X47965177Y-36918507D01*
X47732288Y-36843958D01*
X47723238Y-36841785D01*
X47481891Y-36802480D01*
X47472602Y-36801668D01*
X47228114Y-36798467D01*
X47218803Y-36799037D01*
X46976522Y-36832010D01*
X46967403Y-36833948D01*
X46732668Y-36902367D01*
X46723915Y-36905639D01*
X46501869Y-37008004D01*
X46493714Y-37012524D01*
X46326468Y-37122175D01*
X46317330Y-37132917D01*
X45505465Y-37132917D01*
X45478615Y-37061295D01*
X45391261Y-36944739D01*
X45274705Y-36857385D01*
X45138316Y-36806255D01*
X45076134Y-36799500D01*
X42579866Y-36799500D01*
X42517684Y-36806255D01*
X42381295Y-36857385D01*
X42264739Y-36944739D01*
X42177385Y-37061295D01*
X42126255Y-37197684D01*
X42119500Y-37259866D01*
X42119500Y-39756134D01*
X34896359Y-39756134D01*
X34908363Y-39732370D01*
X34909473Y-39729509D01*
X35049041Y-39369681D01*
X35049044Y-39369672D01*
X35050156Y-39366805D01*
X35147271Y-39018979D01*
X35154772Y-38992114D01*
X35154773Y-38992112D01*
X35155600Y-38989148D01*
X35223688Y-38603004D01*
X35236788Y-38432747D01*
X35253619Y-38214013D01*
X35253619Y-38214002D01*
X35253769Y-38212059D01*
X35255334Y-38100000D01*
X35252594Y-38043965D01*
X35243740Y-37862941D01*
X35236180Y-37708367D01*
X35178901Y-37320473D01*
X35177470Y-37314731D01*
X35134575Y-37142693D01*
X35084043Y-36940019D01*
X35071634Y-36905169D01*
X35019989Y-36760134D01*
X34952512Y-36570637D01*
X34785564Y-36215854D01*
X34783997Y-36213225D01*
X34783992Y-36213216D01*
X34700364Y-36072930D01*
X66434338Y-36072930D01*
X66453729Y-36319313D01*
X66455272Y-36329060D01*
X66512967Y-36569373D01*
X66516016Y-36578758D01*
X66610592Y-36807085D01*
X66615073Y-36815879D01*
X66741340Y-37021928D01*
X66749401Y-37027190D01*
X66759607Y-37021183D01*
X67699978Y-36080812D01*
X67706356Y-36069132D01*
X68436408Y-36069132D01*
X68436539Y-36070965D01*
X68440790Y-36077580D01*
X69382934Y-37019724D01*
X69396471Y-37027116D01*
X69401740Y-37023430D01*
X69528927Y-36815879D01*
X69533408Y-36807085D01*
X69627984Y-36578758D01*
X69631033Y-36569373D01*
X69688728Y-36329060D01*
X69690271Y-36319313D01*
X69709662Y-36072930D01*
X71514338Y-36072930D01*
X71533729Y-36319313D01*
X71535272Y-36329060D01*
X71592967Y-36569373D01*
X71596016Y-36578758D01*
X71690592Y-36807085D01*
X71695073Y-36815879D01*
X71821340Y-37021928D01*
X71829401Y-37027190D01*
X71839607Y-37021183D01*
X72779978Y-36080812D01*
X72786356Y-36069132D01*
X73516408Y-36069132D01*
X73516539Y-36070965D01*
X73520790Y-36077580D01*
X74462934Y-37019724D01*
X74476471Y-37027116D01*
X74481740Y-37023430D01*
X74608927Y-36815879D01*
X74613408Y-36807085D01*
X74707984Y-36578758D01*
X74711033Y-36569373D01*
X74768728Y-36329060D01*
X74770271Y-36319313D01*
X74789662Y-36072930D01*
X80150338Y-36072930D01*
X80169729Y-36319313D01*
X80171272Y-36329060D01*
X80228967Y-36569373D01*
X80232016Y-36578758D01*
X80326592Y-36807085D01*
X80331073Y-36815879D01*
X80457340Y-37021928D01*
X80465401Y-37027190D01*
X80475607Y-37021183D01*
X81415978Y-36080812D01*
X81422356Y-36069132D01*
X82152408Y-36069132D01*
X82152539Y-36070965D01*
X82156790Y-36077580D01*
X83098934Y-37019724D01*
X83112471Y-37027116D01*
X83117740Y-37023430D01*
X83244927Y-36815879D01*
X83249408Y-36807085D01*
X83343984Y-36578758D01*
X83347033Y-36569373D01*
X83404728Y-36329060D01*
X83406271Y-36319313D01*
X83425662Y-36072930D01*
X85230338Y-36072930D01*
X85249729Y-36319313D01*
X85251272Y-36329060D01*
X85308967Y-36569373D01*
X85312016Y-36578758D01*
X85406592Y-36807085D01*
X85411073Y-36815879D01*
X85537340Y-37021928D01*
X85545401Y-37027190D01*
X85555607Y-37021183D01*
X86495978Y-36080812D01*
X86502356Y-36069132D01*
X87232408Y-36069132D01*
X87232539Y-36070965D01*
X87236790Y-36077580D01*
X88178934Y-37019724D01*
X88192471Y-37027116D01*
X88197740Y-37023430D01*
X88324927Y-36815879D01*
X88329408Y-36807085D01*
X88423984Y-36578758D01*
X88427033Y-36569373D01*
X88484728Y-36329060D01*
X88486271Y-36319313D01*
X88505662Y-36072930D01*
X88505662Y-36063070D01*
X88486271Y-35816687D01*
X88484728Y-35806940D01*
X88427033Y-35566627D01*
X88423984Y-35557242D01*
X88329408Y-35328915D01*
X88324927Y-35320121D01*
X88198660Y-35114072D01*
X88190599Y-35108810D01*
X88180393Y-35114817D01*
X87240022Y-36055188D01*
X87232408Y-36069132D01*
X86502356Y-36069132D01*
X86503592Y-36066868D01*
X86503461Y-36065035D01*
X86499210Y-36058420D01*
X85557066Y-35116276D01*
X85543529Y-35108884D01*
X85538260Y-35112570D01*
X85411073Y-35320121D01*
X85406592Y-35328915D01*
X85312016Y-35557242D01*
X85308967Y-35566627D01*
X85251272Y-35806940D01*
X85249729Y-35816687D01*
X85230338Y-36063070D01*
X85230338Y-36072930D01*
X83425662Y-36072930D01*
X83425662Y-36063070D01*
X83406271Y-35816687D01*
X83404728Y-35806940D01*
X83347033Y-35566627D01*
X83343984Y-35557242D01*
X83249408Y-35328915D01*
X83244927Y-35320121D01*
X83118660Y-35114072D01*
X83110599Y-35108810D01*
X83100393Y-35114817D01*
X82160022Y-36055188D01*
X82152408Y-36069132D01*
X81422356Y-36069132D01*
X81423592Y-36066868D01*
X81423461Y-36065035D01*
X81419210Y-36058420D01*
X80477066Y-35116276D01*
X80463529Y-35108884D01*
X80458260Y-35112570D01*
X80331073Y-35320121D01*
X80326592Y-35328915D01*
X80232016Y-35557242D01*
X80228967Y-35566627D01*
X80171272Y-35806940D01*
X80169729Y-35816687D01*
X80150338Y-36063070D01*
X80150338Y-36072930D01*
X74789662Y-36072930D01*
X74789662Y-36063070D01*
X74770271Y-35816687D01*
X74768728Y-35806940D01*
X74711033Y-35566627D01*
X74707984Y-35557242D01*
X74613408Y-35328915D01*
X74608927Y-35320121D01*
X74482660Y-35114072D01*
X74474599Y-35108810D01*
X74464393Y-35114817D01*
X73524022Y-36055188D01*
X73516408Y-36069132D01*
X72786356Y-36069132D01*
X72787592Y-36066868D01*
X72787461Y-36065035D01*
X72783210Y-36058420D01*
X71841066Y-35116276D01*
X71827529Y-35108884D01*
X71822260Y-35112570D01*
X71695073Y-35320121D01*
X71690592Y-35328915D01*
X71596016Y-35557242D01*
X71592967Y-35566627D01*
X71535272Y-35806940D01*
X71533729Y-35816687D01*
X71514338Y-36063070D01*
X71514338Y-36072930D01*
X69709662Y-36072930D01*
X69709662Y-36063070D01*
X69690271Y-35816687D01*
X69688728Y-35806940D01*
X69631033Y-35566627D01*
X69627984Y-35557242D01*
X69533408Y-35328915D01*
X69528927Y-35320121D01*
X69402660Y-35114072D01*
X69394599Y-35108810D01*
X69384393Y-35114817D01*
X68444022Y-36055188D01*
X68436408Y-36069132D01*
X67706356Y-36069132D01*
X67707592Y-36066868D01*
X67707461Y-36065035D01*
X67703210Y-36058420D01*
X66761066Y-35116276D01*
X66747529Y-35108884D01*
X66742260Y-35112570D01*
X66615073Y-35320121D01*
X66610592Y-35328915D01*
X66516016Y-35557242D01*
X66512967Y-35566627D01*
X66455272Y-35806940D01*
X66453729Y-35816687D01*
X66434338Y-36063070D01*
X66434338Y-36072930D01*
X34700364Y-36072930D01*
X34603161Y-35909871D01*
X34584791Y-35879055D01*
X34582977Y-35876595D01*
X34582972Y-35876587D01*
X34353933Y-35565926D01*
X34353931Y-35565923D01*
X34352111Y-35563455D01*
X34089744Y-35272068D01*
X33800195Y-35007673D01*
X33486228Y-34772795D01*
X33486616Y-34772277D01*
X33443133Y-34719778D01*
X33434597Y-34649296D01*
X33465520Y-34585388D01*
X33526086Y-34548344D01*
X33558884Y-34544000D01*
X67011561Y-34544000D01*
X67079682Y-34564002D01*
G37*
%TD.AperFunction*%
%TD*%
M02*
