M48
; DRILL file {KiCad (6.0.1)} date Thu Jul 28 11:00:44 2022
; FORMAT={-:-/ absolute / inch / decimal}
; #@! TF.CreationDate,2022-07-28T11:00:44-05:00
; #@! TF.GenerationSoftware,Kicad,Pcbnew,(6.0.1)
; #@! TF.FileFunction,Plated,1,4,PTH
FMAT,2
INCH
; #@! TA.AperFunction,Plated,PTH,ViaDrill
T1C0.0157
; #@! TA.AperFunction,Plated,PTH,ComponentDrill
T2C0.0197
; #@! TA.AperFunction,Plated,PTH,ComponentDrill
T3C0.0394
; #@! TA.AperFunction,Plated,PTH,ComponentDrill
T4C0.0472
; #@! TA.AperFunction,Plated,PTH,ComponentDrill
T5C0.0591
; #@! TA.AperFunction,Plated,PTH,ComponentDrill
T6C0.0669
; #@! TA.AperFunction,Plated,PTH,ComponentDrill
T7C0.1378
%
G90
G05
T1
X1.18Y-2.23
X1.19Y-1.89
X1.19Y-2.01
X1.28Y-2.17
X1.28Y-2.96
X1.35Y-2.17
X1.35Y-3.07
X1.41Y-3.13
X1.42Y-2.9
X1.46Y-2.01
X1.46Y-2.23
X1.47Y-1.89
X1.61Y-2.86
X1.64Y-3.09
X1.74Y-1.89
X1.74Y-2.01
X1.8Y-2.9
X1.8Y-3.12
X1.89Y-3.12
X1.9Y-2.9
X1.9Y-3.01
X1.9766Y-2.9634
X2.06Y-2.79
X2.06Y-3.14
X2.27Y-2.19
X2.27Y-2.28
X2.2898Y-1.9398
X2.31Y-2.05
X2.31Y-3.02
X2.3298Y-1.8998
X2.34Y-2.47
X2.37Y-1.38
X2.37Y-1.61
X2.37Y-1.71
X2.37Y-1.81
X2.44Y-1.38
X2.47Y-3.14
X2.48Y-2.06
X2.51Y-1.38
X2.54Y-2.06
X2.5403Y-3.0203
X2.5415Y-3.2085
X2.56Y-3.07
X2.58Y-1.38
X2.61Y-1.75
X2.61Y-1.82
X2.61Y-1.9
X2.61Y-1.97
X2.61Y-2.06
X2.67Y-1.75
X2.67Y-2.05
X2.73Y-1.75
X2.74Y-2.12
X2.79Y-1.75
X2.85Y-1.75
X2.9Y-2.35
X2.91Y-1.75
X2.92Y-2.92
X2.97Y-1.75
X2.97Y-3.08
X2.98Y-1.38
X3.03Y-1.75
X3.04Y-1.38
X3.04Y-2.34
X3.09Y-3.21
X3.1Y-1.38
X3.1Y-2.98
X3.11Y-2.41
X3.12Y-1.77
X3.13Y-3.08
X3.15Y-3.28
X3.18Y-1.77
X3.24Y-1.77
X3.43Y-2.16
X3.44Y-2.9
X3.47Y-3.32
X3.5Y-2.96
X3.51Y-1.38
X3.51Y-1.76
X3.51Y-2.14
X3.53Y-3.32
X3.56Y-1.8
X3.56Y-2.37
X3.57Y-1.38
X3.57Y-3.15
X3.6Y-1.5
X3.6Y-3.32
X3.61Y-1.43
X3.61Y-1.85
X3.61Y-3.01
X3.62Y-1.58
X3.64Y-1.38
X3.64Y-3.15
X3.6576Y-2.71
X3.66Y-1.9
X3.67Y-1.64
X3.67Y-3.32
X3.71Y-1.95
X3.71Y-2.36
X3.71Y-3.15
X3.74Y-1.68
X3.74Y-3.32
X3.76Y-2.0
X3.78Y-2.07
X3.78Y-2.14
X3.78Y-2.21
X3.78Y-2.28
X3.78Y-2.35
X3.78Y-2.42
X3.78Y-2.49
X3.78Y-2.56
X3.78Y-2.63
X3.78Y-2.7
X3.78Y-2.77
X3.78Y-2.84
X3.78Y-2.91
X3.78Y-2.98
X3.78Y-3.05
X3.78Y-3.12
X3.82Y-3.32
X3.83Y-1.68
X3.9Y-1.64
X3.9Y-1.71
X3.9Y-1.78
X3.9Y-1.85
X3.9Y-1.92
X3.9Y-1.99
X3.9Y-2.06
X3.9Y-2.13
X3.9Y-2.2
X3.9Y-2.27
X3.9Y-2.34
X3.9Y-2.41
X3.9Y-2.48
X3.9Y-2.55
X3.9Y-2.62
X3.9Y-2.69
X3.9Y-2.76
X3.9Y-2.83
X3.9Y-2.9
X3.9Y-2.97
X3.9Y-3.04
X3.9Y-3.11
X3.9Y-3.18
X3.9Y-3.25
X3.9Y-3.32
T2
X1.1267Y-1.5
X1.1267Y-3.55
X1.1569Y-1.4269
X1.1569Y-1.5731
X1.1569Y-3.4769
X1.1569Y-3.6231
X1.23Y-1.3967
X1.23Y-1.6033
X1.23Y-3.4467
X1.23Y-3.6533
X1.3031Y-1.4269
X1.3031Y-1.5731
X1.3031Y-3.4769
X1.3031Y-3.6231
X1.3333Y-1.5
X1.3333Y-3.55
X3.6767Y-1.5
X3.6767Y-3.55
X3.7069Y-1.4269
X3.7069Y-1.5731
X3.7069Y-3.4769
X3.7069Y-3.6231
X3.78Y-1.3967
X3.78Y-1.6033
X3.78Y-3.4467
X3.78Y-3.6533
X3.8531Y-1.4269
X3.8531Y-1.5731
X3.8531Y-3.4769
X3.8531Y-3.6231
X3.8833Y-1.5
X3.8833Y-3.55
T3
X1.2Y-2.47
X1.45Y-2.47
X1.7Y-2.25
X1.7Y-2.4719
X1.95Y-2.25
X1.95Y-2.4719
X2.5406Y-2.79
X2.6406Y-2.79
X2.7394Y-1.86
X2.7406Y-2.79
X2.8394Y-1.86
X2.8406Y-2.79
X2.9394Y-1.86
X2.9406Y-2.79
X3.0394Y-1.86
X3.0406Y-2.79
X3.1394Y-1.86
X3.1406Y-2.79
X3.2394Y-1.86
X3.2406Y-2.79
X3.3394Y-1.86
X3.4394Y-1.86
T4
X1.7255Y-1.5161
X1.8633Y-1.5161
X2.0011Y-1.5161
X2.1389Y-1.5161
X2.2767Y-1.5161
X2.4145Y-1.5161
T5
X2.31Y-3.54
X2.78Y-1.52
X3.32Y-1.52
T6
X2.21Y-3.44
X2.21Y-3.64
X2.41Y-3.44
X2.41Y-3.64
X2.68Y-1.42
X2.68Y-1.62
X2.88Y-1.42
X2.88Y-1.62
X3.22Y-1.42
X3.22Y-1.62
X3.42Y-1.42
X3.42Y-1.62
T7
X1.23Y-1.5
X1.23Y-3.55
X3.78Y-1.5
X3.78Y-3.55
T0
M30
