%TF.GenerationSoftware,KiCad,Pcbnew,(6.0.1)*%
%TF.CreationDate,2022-07-28T11:00:42-05:00*%
%TF.ProjectId,proton_detector_amplifier,70726f74-6f6e-45f6-9465-746563746f72,rev?*%
%TF.SameCoordinates,Original*%
%TF.FileFunction,Legend,Bot*%
%TF.FilePolarity,Positive*%
%FSLAX46Y46*%
G04 Gerber Fmt 4.6, Leading zero omitted, Abs format (unit mm)*
G04 Created by KiCad (PCBNEW (6.0.1)) date 2022-07-28 11:00:42*
%MOMM*%
%LPD*%
G01*
G04 APERTURE LIST*
%ADD10C,0.300000*%
G04 APERTURE END LIST*
D10*
%TO.C, *%
G36*
X43212119Y-88823652D02*
G01*
X43212119Y-91602283D01*
X43169449Y-91593623D01*
X43168863Y-91593504D01*
X43136482Y-91587539D01*
X43081297Y-91577923D01*
X43010887Y-91565959D01*
X42932828Y-91552949D01*
X42866768Y-91541892D01*
X42761106Y-91523773D01*
X42655672Y-91505272D01*
X42565671Y-91489037D01*
X42392467Y-91457139D01*
X42399158Y-90151416D01*
X42399647Y-90051338D01*
X42400626Y-89801009D01*
X42401105Y-89580192D01*
X42401087Y-89389076D01*
X42400572Y-89227851D01*
X42399562Y-89096707D01*
X42398058Y-88995832D01*
X42396062Y-88925418D01*
X42393574Y-88885652D01*
X42390596Y-88876726D01*
X42389192Y-88880681D01*
X42381064Y-88911224D01*
X42367154Y-88968527D01*
X42348058Y-89049973D01*
X42324372Y-89152945D01*
X42296690Y-89274829D01*
X42265609Y-89413007D01*
X42231723Y-89564864D01*
X42195628Y-89727783D01*
X42157920Y-89899148D01*
X42143177Y-89966312D01*
X42106336Y-90133639D01*
X42071547Y-90290917D01*
X42039382Y-90435613D01*
X42010409Y-90565192D01*
X41985199Y-90677121D01*
X41964322Y-90768866D01*
X41948346Y-90837892D01*
X41937843Y-90881666D01*
X41933381Y-90897655D01*
X41918599Y-90897358D01*
X41879366Y-90890873D01*
X41822091Y-90879140D01*
X41753043Y-90863352D01*
X41688839Y-90848415D01*
X41631296Y-90835900D01*
X41591633Y-90828290D01*
X41575973Y-90826849D01*
X41572918Y-90839416D01*
X41565940Y-90877132D01*
X41556339Y-90933606D01*
X41545234Y-91002444D01*
X41505652Y-91237504D01*
X41446519Y-91540249D01*
X41381504Y-91823770D01*
X41311075Y-92086994D01*
X41235703Y-92328849D01*
X41155857Y-92548261D01*
X41072005Y-92744158D01*
X40984618Y-92915468D01*
X40894165Y-93061117D01*
X40801116Y-93180034D01*
X40705939Y-93271144D01*
X40609104Y-93333376D01*
X40511081Y-93365656D01*
X40510629Y-93365731D01*
X40481833Y-93367616D01*
X40425435Y-93368897D01*
X40344750Y-93369578D01*
X40243091Y-93369667D01*
X40123770Y-93369167D01*
X39990102Y-93368087D01*
X39845399Y-93366430D01*
X39692976Y-93364204D01*
X39610455Y-93362856D01*
X39437350Y-93359826D01*
X39291320Y-93356742D01*
X39169590Y-93353299D01*
X39069383Y-93349189D01*
X38987925Y-93344105D01*
X38922441Y-93337742D01*
X38870156Y-93329792D01*
X38828294Y-93319948D01*
X38794080Y-93307904D01*
X38764739Y-93293352D01*
X38737496Y-93275987D01*
X38709576Y-93255501D01*
X38669963Y-93222054D01*
X38586493Y-93130309D01*
X38503342Y-93011419D01*
X38421620Y-92867997D01*
X38342435Y-92702655D01*
X38266895Y-92518007D01*
X38196111Y-92316666D01*
X38131190Y-92101243D01*
X38073241Y-91874353D01*
X38023374Y-91638607D01*
X37986471Y-91431166D01*
X37947862Y-91179691D01*
X37912647Y-90909466D01*
X37880303Y-90616413D01*
X37850303Y-90296457D01*
X37849263Y-90284188D01*
X37840370Y-90155005D01*
X37832755Y-90000305D01*
X37826453Y-89825042D01*
X37821500Y-89634170D01*
X37817932Y-89432643D01*
X37815784Y-89225414D01*
X37815193Y-89047404D01*
X39406724Y-89047404D01*
X39407966Y-89277814D01*
X39414579Y-89602865D01*
X39427366Y-89910140D01*
X39446864Y-90207319D01*
X39473609Y-90502086D01*
X39508136Y-90802120D01*
X39550982Y-91115105D01*
X39563889Y-91199535D01*
X39611265Y-91463081D01*
X39667194Y-91714484D01*
X39730696Y-91950617D01*
X39800792Y-92168350D01*
X39876502Y-92364554D01*
X39956847Y-92536100D01*
X40040847Y-92679858D01*
X40056128Y-92701768D01*
X40116326Y-92775042D01*
X40186531Y-92845932D01*
X40258190Y-92906301D01*
X40322749Y-92948012D01*
X40407574Y-92977455D01*
X40498973Y-92979283D01*
X40590367Y-92950919D01*
X40680908Y-92892774D01*
X40769751Y-92805259D01*
X40856048Y-92688786D01*
X40906211Y-92608502D01*
X40998567Y-92442713D01*
X41081897Y-92266182D01*
X41157366Y-92075538D01*
X41226140Y-91867411D01*
X41289384Y-91638431D01*
X41348265Y-91385226D01*
X41403947Y-91104425D01*
X41418810Y-91023079D01*
X41433996Y-90935359D01*
X41443090Y-90871532D01*
X41445958Y-90827795D01*
X41442467Y-90800346D01*
X41432485Y-90785382D01*
X41415878Y-90779100D01*
X41392513Y-90777697D01*
X41371913Y-90769676D01*
X41350549Y-90742548D01*
X41350385Y-90742129D01*
X41344021Y-90719426D01*
X41331430Y-90669346D01*
X41313255Y-90594606D01*
X41290139Y-90497925D01*
X41262725Y-90382021D01*
X41231658Y-90249613D01*
X41197578Y-90103418D01*
X41161131Y-89946156D01*
X41122958Y-89780544D01*
X41119289Y-89764591D01*
X41081473Y-89600967D01*
X41045534Y-89446902D01*
X41012097Y-89304983D01*
X40981787Y-89177797D01*
X40955230Y-89067934D01*
X40933049Y-88977979D01*
X40915872Y-88910523D01*
X40904321Y-88868151D01*
X40899024Y-88853452D01*
X40897530Y-88865546D01*
X40896144Y-88906315D01*
X40895065Y-88973495D01*
X40894297Y-89064648D01*
X40893846Y-89177335D01*
X40893719Y-89309114D01*
X40893919Y-89457547D01*
X40894453Y-89620195D01*
X40895326Y-89794618D01*
X40896543Y-89978375D01*
X40897632Y-90142949D01*
X40898492Y-90318483D01*
X40898980Y-90482501D01*
X40899106Y-90632566D01*
X40898877Y-90766236D01*
X40898302Y-90881073D01*
X40897388Y-90974638D01*
X40896146Y-91044490D01*
X40894581Y-91088190D01*
X40892704Y-91103299D01*
X40877913Y-91099662D01*
X40836975Y-91087968D01*
X40774131Y-91069388D01*
X40693435Y-91045134D01*
X40598942Y-91016414D01*
X40494704Y-90984441D01*
X40108881Y-90865583D01*
X40108881Y-86776841D01*
X40252406Y-86729646D01*
X40253548Y-86729270D01*
X40319133Y-86708273D01*
X40402881Y-86682283D01*
X40500007Y-86652706D01*
X40605727Y-86620947D01*
X40715257Y-86588415D01*
X40823813Y-86556513D01*
X40926612Y-86526649D01*
X41018868Y-86500228D01*
X41095799Y-86478656D01*
X41152619Y-86463340D01*
X41184545Y-86455685D01*
X41238755Y-86445516D01*
X41255555Y-86528439D01*
X41265764Y-86579628D01*
X41284558Y-86676179D01*
X41307690Y-86797001D01*
X41334468Y-86938406D01*
X41364200Y-87096708D01*
X41396194Y-87268219D01*
X41429758Y-87449253D01*
X41464202Y-87636124D01*
X41498833Y-87825144D01*
X41502569Y-87845575D01*
X41526132Y-87973325D01*
X41548034Y-88090208D01*
X41567635Y-88192944D01*
X41584297Y-88278254D01*
X41597379Y-88342859D01*
X41606244Y-88383480D01*
X41610252Y-88396838D01*
X41612952Y-88383658D01*
X41614032Y-88342317D01*
X41612801Y-88276850D01*
X41609504Y-88191020D01*
X41604387Y-88088593D01*
X41597695Y-87973333D01*
X41589672Y-87849004D01*
X41580565Y-87719370D01*
X41570618Y-87588197D01*
X41560076Y-87459249D01*
X41549184Y-87336289D01*
X41538187Y-87223084D01*
X41527332Y-87123397D01*
X41520295Y-87064919D01*
X41483182Y-86800201D01*
X41438710Y-86543188D01*
X41387629Y-86296214D01*
X41330691Y-86061610D01*
X41268648Y-85841710D01*
X41202249Y-85638845D01*
X41132247Y-85455350D01*
X41059392Y-85293555D01*
X40984436Y-85155795D01*
X40908129Y-85044402D01*
X40831224Y-84961707D01*
X40807678Y-84942156D01*
X40731915Y-84891757D01*
X40656513Y-84858085D01*
X40590304Y-84845407D01*
X40518949Y-84857208D01*
X40436429Y-84894921D01*
X40349495Y-84955338D01*
X40261389Y-85035171D01*
X40175350Y-85131133D01*
X40094621Y-85239933D01*
X40022441Y-85358284D01*
X39962052Y-85482898D01*
X39941264Y-85533721D01*
X39883073Y-85690827D01*
X39824005Y-85870342D01*
X39765839Y-86066089D01*
X39710356Y-86271890D01*
X39659335Y-86481568D01*
X39614557Y-86688943D01*
X39587091Y-86830751D01*
X39530202Y-87168884D01*
X39484593Y-87513320D01*
X39449851Y-87868724D01*
X39425566Y-88239763D01*
X39411328Y-88631101D01*
X39406724Y-89047404D01*
X37815193Y-89047404D01*
X37815094Y-89017436D01*
X37815895Y-88813664D01*
X37818224Y-88619052D01*
X37822117Y-88438552D01*
X37827610Y-88277119D01*
X37834737Y-88139707D01*
X37858812Y-87810950D01*
X37903174Y-87353437D01*
X37958536Y-86923209D01*
X38025088Y-86519166D01*
X38103015Y-86140209D01*
X38192507Y-85785237D01*
X38293751Y-85453152D01*
X38356894Y-85274813D01*
X38440765Y-85070115D01*
X38527214Y-84895046D01*
X38616723Y-84748838D01*
X38709774Y-84630724D01*
X38806849Y-84539940D01*
X38908430Y-84475718D01*
X38908542Y-84475663D01*
X38931827Y-84463923D01*
X38951982Y-84453972D01*
X38971634Y-84445705D01*
X38993411Y-84439020D01*
X39019940Y-84433812D01*
X39053850Y-84429978D01*
X39097768Y-84427412D01*
X39154321Y-84426013D01*
X39226137Y-84425675D01*
X39315845Y-84426294D01*
X39426071Y-84427768D01*
X39559443Y-84429992D01*
X39718589Y-84432862D01*
X39906137Y-84436274D01*
X39998296Y-84437998D01*
X40171790Y-84441703D01*
X40316662Y-84445529D01*
X40434551Y-84449547D01*
X40527095Y-84453826D01*
X40595933Y-84458437D01*
X40642702Y-84463449D01*
X40669042Y-84468934D01*
X40717086Y-84488894D01*
X40804770Y-84544315D01*
X40890340Y-84624473D01*
X40975107Y-84730902D01*
X41060383Y-84865137D01*
X41147478Y-85028711D01*
X41190501Y-85120093D01*
X41283253Y-85351039D01*
X41367296Y-85610269D01*
X41442413Y-85896674D01*
X41508381Y-86209144D01*
X41564983Y-86546571D01*
X41611998Y-86907845D01*
X41649206Y-87291856D01*
X41676387Y-87697496D01*
X41678558Y-87737780D01*
X41686765Y-87878185D01*
X41694393Y-87989121D01*
X41701410Y-88070276D01*
X41707788Y-88121339D01*
X41713496Y-88142001D01*
X41718504Y-88131949D01*
X41722043Y-88111712D01*
X41730380Y-88063578D01*
X41743032Y-87990347D01*
X41759524Y-87894775D01*
X41779382Y-87779618D01*
X41802129Y-87647629D01*
X41827291Y-87501564D01*
X41854392Y-87344178D01*
X41882959Y-87178226D01*
X42041760Y-86255535D01*
X42095510Y-86243735D01*
X42121000Y-86238259D01*
X42193611Y-86223412D01*
X42283829Y-86205699D01*
X42387283Y-86185913D01*
X42499602Y-86164845D01*
X42616415Y-86143286D01*
X42733350Y-86122027D01*
X42846036Y-86101861D01*
X42950101Y-86083577D01*
X43041173Y-86067969D01*
X43114882Y-86055826D01*
X43166856Y-86047941D01*
X43192724Y-86045104D01*
X43194836Y-86048997D01*
X43197149Y-86064388D01*
X43199261Y-86092550D01*
X43201178Y-86134625D01*
X43202910Y-86191754D01*
X43204463Y-86265079D01*
X43205847Y-86355740D01*
X43207068Y-86464880D01*
X43208135Y-86593639D01*
X43209056Y-86743158D01*
X43209839Y-86914580D01*
X43210492Y-87109044D01*
X43211022Y-87327693D01*
X43211438Y-87571668D01*
X43211748Y-87842110D01*
X43211959Y-88140161D01*
X43212034Y-88342317D01*
X43212080Y-88466961D01*
X43212119Y-88823652D01*
G37*
G36*
X53699610Y-85463165D02*
G01*
X53714007Y-85509713D01*
X53728404Y-85556262D01*
X53774453Y-85705145D01*
X53848453Y-85985309D01*
X53916461Y-86286478D01*
X53978035Y-86606693D01*
X54032732Y-86943996D01*
X54080110Y-87296429D01*
X54119726Y-87662034D01*
X54151139Y-88038852D01*
X54152004Y-88051276D01*
X54159480Y-88183236D01*
X54165814Y-88339715D01*
X54170946Y-88514845D01*
X54174818Y-88702762D01*
X54177373Y-88897597D01*
X54178321Y-89055162D01*
X54178551Y-89093484D01*
X54178295Y-89284555D01*
X54176547Y-89464945D01*
X54173247Y-89628787D01*
X54168339Y-89770213D01*
X54149292Y-90118227D01*
X54119317Y-90505546D01*
X54081130Y-90873981D01*
X54035018Y-91221622D01*
X53981269Y-91546558D01*
X53920171Y-91846878D01*
X53852012Y-92120673D01*
X53777080Y-92366031D01*
X53746381Y-92453991D01*
X53661753Y-92671320D01*
X53574962Y-92857954D01*
X53485868Y-93014092D01*
X53394332Y-93139937D01*
X53300217Y-93235688D01*
X53203382Y-93301545D01*
X53103689Y-93337710D01*
X53078856Y-93340768D01*
X53023848Y-93344577D01*
X52944192Y-93348510D01*
X52843336Y-93352446D01*
X52724726Y-93356265D01*
X52591810Y-93359846D01*
X52448035Y-93363071D01*
X52296847Y-93365818D01*
X52162055Y-93367864D01*
X52019678Y-93369757D01*
X51888303Y-93371229D01*
X51771268Y-93372254D01*
X51671911Y-93372810D01*
X51593569Y-93372872D01*
X51539579Y-93372416D01*
X51513280Y-93371419D01*
X51447500Y-93356342D01*
X51354110Y-93311947D01*
X51260252Y-93242931D01*
X51170029Y-93152454D01*
X51087545Y-93043675D01*
X51057661Y-92996888D01*
X50957559Y-92816149D01*
X50862588Y-92606937D01*
X50773226Y-92370980D01*
X50689950Y-92110008D01*
X50613239Y-91825748D01*
X50543571Y-91519930D01*
X50481423Y-91194282D01*
X50427274Y-90850532D01*
X50381601Y-90490409D01*
X50377454Y-90452931D01*
X50363916Y-90323562D01*
X50350649Y-90186995D01*
X50338101Y-90048667D01*
X50326718Y-89914011D01*
X50316949Y-89788462D01*
X50309240Y-89677454D01*
X50304038Y-89586423D01*
X50301792Y-89520802D01*
X50301764Y-89518645D01*
X50299836Y-89472110D01*
X50296109Y-89444979D01*
X50291363Y-89443067D01*
X50290962Y-89444385D01*
X50285856Y-89468855D01*
X50276097Y-89520749D01*
X50262157Y-89597402D01*
X50244507Y-89696145D01*
X50223620Y-89814312D01*
X50199968Y-89949237D01*
X50174021Y-90098253D01*
X50146252Y-90258692D01*
X50117133Y-90427889D01*
X49952107Y-91389437D01*
X49859908Y-91408780D01*
X49830163Y-91414732D01*
X49769062Y-91426417D01*
X49686842Y-91441811D01*
X49588665Y-91459975D01*
X49479695Y-91479972D01*
X49365094Y-91500865D01*
X49250026Y-91521715D01*
X49139653Y-91541584D01*
X49039139Y-91559536D01*
X48953645Y-91574632D01*
X48888336Y-91585934D01*
X48848374Y-91592505D01*
X48782430Y-91602545D01*
X48782430Y-89376413D01*
X50399414Y-89376413D01*
X50401447Y-89437713D01*
X50405429Y-89517850D01*
X50411117Y-89613136D01*
X50418266Y-89719884D01*
X50426633Y-89834404D01*
X50435974Y-89953010D01*
X50446045Y-90072013D01*
X50456604Y-90187724D01*
X50467406Y-90296457D01*
X50475954Y-90373616D01*
X50500253Y-90562042D01*
X50530403Y-90764155D01*
X50565071Y-90972514D01*
X50602924Y-91179678D01*
X50642630Y-91378206D01*
X50682856Y-91560658D01*
X50722270Y-91719592D01*
X50802850Y-91986182D01*
X50901767Y-92245683D01*
X51014532Y-92483409D01*
X51139572Y-92695683D01*
X51167862Y-92737633D01*
X51222586Y-92810429D01*
X51274802Y-92865086D01*
X51331625Y-92908481D01*
X51400169Y-92947487D01*
X51449404Y-92967807D01*
X51539275Y-92980814D01*
X51630900Y-92963297D01*
X51724725Y-92915139D01*
X51821198Y-92836222D01*
X51889801Y-92760708D01*
X51977715Y-92635333D01*
X52061825Y-92482756D01*
X52141362Y-92305105D01*
X52215559Y-92104503D01*
X52283647Y-91883077D01*
X52344856Y-91642951D01*
X52398420Y-91386252D01*
X52443567Y-91115105D01*
X52466140Y-90955918D01*
X52505586Y-90642875D01*
X52536645Y-90338886D01*
X52559872Y-90036035D01*
X52575823Y-89726407D01*
X52585053Y-89402088D01*
X52588117Y-89055162D01*
X52586429Y-88785432D01*
X52577563Y-88424239D01*
X52560675Y-88083290D01*
X52535286Y-87756755D01*
X52500915Y-87438802D01*
X52457085Y-87123599D01*
X52403317Y-86805315D01*
X52391142Y-86740901D01*
X52351337Y-86551021D01*
X52304910Y-86354347D01*
X52253613Y-86157144D01*
X52199198Y-85965675D01*
X52143419Y-85786204D01*
X52088028Y-85624992D01*
X52061252Y-85556262D01*
X52227024Y-85556262D01*
X52234782Y-85564020D01*
X52242540Y-85556262D01*
X52234782Y-85548504D01*
X52227024Y-85556262D01*
X52061252Y-85556262D01*
X52043118Y-85509713D01*
X52211508Y-85509713D01*
X52219266Y-85517471D01*
X52227024Y-85509713D01*
X52219266Y-85501955D01*
X52211508Y-85509713D01*
X52043118Y-85509713D01*
X52034778Y-85488305D01*
X52023201Y-85463165D01*
X52195992Y-85463165D01*
X52203750Y-85470923D01*
X52211508Y-85463165D01*
X52203750Y-85455406D01*
X52195992Y-85463165D01*
X52023201Y-85463165D01*
X52001764Y-85416616D01*
X52180476Y-85416616D01*
X52188234Y-85424374D01*
X52195992Y-85416616D01*
X52188234Y-85408858D01*
X52180476Y-85416616D01*
X52001764Y-85416616D01*
X51995974Y-85404042D01*
X51976969Y-85370067D01*
X52164959Y-85370067D01*
X52172718Y-85377826D01*
X52180476Y-85370067D01*
X52172718Y-85362309D01*
X52164959Y-85370067D01*
X51976969Y-85370067D01*
X51950932Y-85323519D01*
X52149443Y-85323519D01*
X52157201Y-85331277D01*
X52164959Y-85323519D01*
X52157201Y-85315761D01*
X52149443Y-85323519D01*
X51950932Y-85323519D01*
X51927116Y-85280943D01*
X51849525Y-85167797D01*
X51766060Y-85067311D01*
X51679580Y-84982195D01*
X51592944Y-84915155D01*
X51509009Y-84868902D01*
X51430634Y-84846143D01*
X51360677Y-84849586D01*
X51344037Y-84854574D01*
X51254527Y-84897026D01*
X51166181Y-84963028D01*
X51086547Y-85047140D01*
X51042072Y-85108686D01*
X50971640Y-85228044D01*
X50901086Y-85372836D01*
X50831682Y-85539699D01*
X50764695Y-85725269D01*
X50701396Y-85926182D01*
X50643053Y-86139075D01*
X50590937Y-86360582D01*
X50576242Y-86430480D01*
X50556927Y-86528542D01*
X50540065Y-86621173D01*
X50526465Y-86703390D01*
X50516938Y-86770211D01*
X50512294Y-86816653D01*
X50513343Y-86837734D01*
X50515895Y-86840166D01*
X50540778Y-86850243D01*
X50581051Y-86859409D01*
X50641695Y-86869655D01*
X50680244Y-87035316D01*
X50682192Y-87043696D01*
X50694739Y-87097838D01*
X50713223Y-87177771D01*
X50736808Y-87279874D01*
X50764658Y-87400526D01*
X50795938Y-87536103D01*
X50829811Y-87682987D01*
X50865442Y-87837553D01*
X50901995Y-87996182D01*
X50917079Y-88061506D01*
X50951583Y-88209754D01*
X50983966Y-88347301D01*
X51013548Y-88471352D01*
X51039649Y-88579114D01*
X51061589Y-88667792D01*
X51078686Y-88734593D01*
X51090262Y-88776723D01*
X51095634Y-88791387D01*
X51097073Y-88779293D01*
X51098406Y-88738524D01*
X51099440Y-88671344D01*
X51100170Y-88580191D01*
X51100592Y-88467505D01*
X51100700Y-88335725D01*
X51100490Y-88187292D01*
X51099957Y-88024644D01*
X51099096Y-87850221D01*
X51097901Y-87666463D01*
X51097813Y-87654315D01*
X51096321Y-87432669D01*
X51095275Y-87240253D01*
X51094691Y-87075356D01*
X51094586Y-86936268D01*
X51094976Y-86821277D01*
X51095878Y-86728671D01*
X51097307Y-86656741D01*
X51099280Y-86603773D01*
X51101814Y-86568058D01*
X51104924Y-86547884D01*
X51108627Y-86541540D01*
X51112778Y-86542170D01*
X51142277Y-86549617D01*
X51194648Y-86564281D01*
X51264975Y-86584690D01*
X51348343Y-86609371D01*
X51439833Y-86636851D01*
X51534530Y-86665656D01*
X51627516Y-86694315D01*
X51713876Y-86721352D01*
X51788692Y-86745296D01*
X51885668Y-86776813D01*
X51885668Y-90869354D01*
X51804208Y-90893289D01*
X51791648Y-90896989D01*
X51744535Y-90910919D01*
X51674027Y-90931803D01*
X51584485Y-90958347D01*
X51480268Y-90989259D01*
X51365736Y-91023247D01*
X51245247Y-91059018D01*
X51177325Y-91079099D01*
X51066420Y-91111482D01*
X50967354Y-91139904D01*
X50883700Y-91163368D01*
X50819036Y-91180876D01*
X50776936Y-91191433D01*
X50760975Y-91194041D01*
X50760939Y-91193995D01*
X50756817Y-91177144D01*
X50747574Y-91132503D01*
X50733720Y-91062725D01*
X50715766Y-90970463D01*
X50694221Y-90858370D01*
X50669595Y-90729099D01*
X50642399Y-90585302D01*
X50613141Y-90429631D01*
X50582333Y-90264740D01*
X50581763Y-90261684D01*
X50550941Y-90096625D01*
X50521673Y-89940592D01*
X50494470Y-89796270D01*
X50469845Y-89666346D01*
X50448312Y-89553506D01*
X50430381Y-89460434D01*
X50416566Y-89389818D01*
X50407380Y-89344343D01*
X50403335Y-89326695D01*
X50402168Y-89325077D01*
X50399573Y-89337639D01*
X50399414Y-89376413D01*
X48782430Y-89376413D01*
X48782430Y-88823783D01*
X48782431Y-88727090D01*
X48782446Y-88390652D01*
X48782491Y-88083548D01*
X48782579Y-87804443D01*
X48782725Y-87552001D01*
X48782942Y-87324886D01*
X48783243Y-87121763D01*
X48783641Y-86941298D01*
X48784151Y-86782153D01*
X48784786Y-86642995D01*
X48785559Y-86522487D01*
X48786484Y-86419293D01*
X48787574Y-86332080D01*
X48788843Y-86259510D01*
X48790304Y-86200249D01*
X48791972Y-86152962D01*
X48793858Y-86116312D01*
X48795978Y-86088964D01*
X48798344Y-86069584D01*
X48800969Y-86056835D01*
X48803868Y-86049382D01*
X48807054Y-86045889D01*
X48810541Y-86045022D01*
X48816437Y-86045474D01*
X48850107Y-86050098D01*
X48906818Y-86058975D01*
X48981250Y-86071181D01*
X49068085Y-86085793D01*
X49162004Y-86101888D01*
X49257688Y-86118543D01*
X49349819Y-86134836D01*
X49433077Y-86149844D01*
X49502144Y-86162643D01*
X49551701Y-86172310D01*
X49576428Y-86177923D01*
X49579511Y-86179532D01*
X49583722Y-86185246D01*
X49587339Y-86196617D01*
X49590386Y-86215598D01*
X49592890Y-86244139D01*
X49594876Y-86284193D01*
X49596372Y-86337712D01*
X49597401Y-86406647D01*
X49597991Y-86492950D01*
X49598167Y-86598574D01*
X49597954Y-86725470D01*
X49597380Y-86875590D01*
X49596469Y-87050885D01*
X49595247Y-87253308D01*
X49593741Y-87484811D01*
X49592947Y-87612098D01*
X49591951Y-87803848D01*
X49591253Y-87984791D01*
X49590848Y-88152679D01*
X49590733Y-88305265D01*
X49590904Y-88440303D01*
X49591357Y-88555545D01*
X49592088Y-88648744D01*
X49593094Y-88717653D01*
X49594370Y-88760025D01*
X49595913Y-88773613D01*
X49600631Y-88760962D01*
X49611327Y-88721390D01*
X49626602Y-88659129D01*
X49645464Y-88578353D01*
X49666919Y-88483235D01*
X49689977Y-88377950D01*
X49711200Y-88280300D01*
X49739349Y-88151982D01*
X49771642Y-88005698D01*
X49806667Y-87847818D01*
X49843010Y-87684712D01*
X49879257Y-87522751D01*
X49913996Y-87368304D01*
X49927933Y-87306494D01*
X49957295Y-87176061D01*
X49984100Y-87056714D01*
X50007632Y-86951651D01*
X50027179Y-86864069D01*
X50042024Y-86797164D01*
X50051455Y-86754134D01*
X50054758Y-86738175D01*
X50061457Y-86737995D01*
X50092371Y-86743242D01*
X50142684Y-86753887D01*
X50206041Y-86768650D01*
X50248865Y-86778863D01*
X50308211Y-86792469D01*
X50351960Y-86801808D01*
X50372847Y-86805285D01*
X50374432Y-86804379D01*
X50382843Y-86783248D01*
X50393468Y-86738333D01*
X50405106Y-86675277D01*
X50416555Y-86599725D01*
X50416846Y-86597611D01*
X50450397Y-86379165D01*
X50490932Y-86158513D01*
X50537108Y-85941193D01*
X50587588Y-85732740D01*
X50641029Y-85538692D01*
X50696094Y-85364585D01*
X50751441Y-85215956D01*
X50832309Y-85034992D01*
X50920110Y-84870986D01*
X51010474Y-84733640D01*
X51102101Y-84625138D01*
X51122778Y-84604149D01*
X51167367Y-84560245D01*
X51206974Y-84525943D01*
X51246099Y-84499938D01*
X51289243Y-84480922D01*
X51340905Y-84467588D01*
X51405586Y-84458631D01*
X51487786Y-84452745D01*
X51592007Y-84448621D01*
X51722748Y-84444954D01*
X51785152Y-84443365D01*
X51926944Y-84440134D01*
X52084190Y-84436953D01*
X52246534Y-84434015D01*
X52403624Y-84431513D01*
X52545106Y-84429640D01*
X52979559Y-84424655D01*
X53070859Y-84466881D01*
X53088798Y-84475780D01*
X53175976Y-84534271D01*
X53264703Y-84616719D01*
X53350051Y-84718057D01*
X53427093Y-84833219D01*
X53427376Y-84833697D01*
X53520922Y-85010262D01*
X53610245Y-85215663D01*
X53649554Y-85323519D01*
X53666519Y-85370067D01*
X53683484Y-85416616D01*
X53694902Y-85447944D01*
X53699610Y-85463165D01*
G37*
G36*
X45451240Y-91811549D02*
G01*
X45380324Y-91809491D01*
X45272147Y-91805883D01*
X45173138Y-91802036D01*
X45088759Y-91798186D01*
X45024477Y-91794568D01*
X44985754Y-91791420D01*
X44903383Y-91781739D01*
X44903383Y-89691326D01*
X44451603Y-89691326D01*
X44456388Y-90723158D01*
X44456754Y-90807701D01*
X44457332Y-90979343D01*
X44457656Y-91140332D01*
X44457732Y-91288120D01*
X44457569Y-91420160D01*
X44457174Y-91533904D01*
X44456553Y-91626805D01*
X44455715Y-91696317D01*
X44454666Y-91739891D01*
X44453414Y-91754981D01*
X44448945Y-91754742D01*
X44417512Y-91751775D01*
X44362005Y-91745877D01*
X44287372Y-91737622D01*
X44198564Y-91727587D01*
X44100533Y-91716348D01*
X43998229Y-91704482D01*
X43896602Y-91692565D01*
X43800603Y-91681173D01*
X43715183Y-91670882D01*
X43645292Y-91662268D01*
X43595882Y-91655908D01*
X43571902Y-91652378D01*
X43522443Y-91642486D01*
X43522443Y-88186256D01*
X44453414Y-88186256D01*
X44903383Y-88186256D01*
X44903383Y-87034315D01*
X44690036Y-87045609D01*
X44666896Y-87046871D01*
X44590961Y-87051569D01*
X44528003Y-87056301D01*
X44484031Y-87060578D01*
X44465051Y-87063912D01*
X44462489Y-87079168D01*
X44460018Y-87122131D01*
X44457834Y-87189234D01*
X44456009Y-87276955D01*
X44454616Y-87381770D01*
X44453727Y-87500155D01*
X44453414Y-87628589D01*
X44453414Y-88186256D01*
X43522443Y-88186256D01*
X43522443Y-86001201D01*
X43580628Y-85992036D01*
X43593871Y-85990205D01*
X43638962Y-85984702D01*
X43708348Y-85976676D01*
X43797851Y-85966596D01*
X43903290Y-85954930D01*
X44020486Y-85942148D01*
X44145261Y-85928718D01*
X44276259Y-85915121D01*
X44442882Y-85899136D01*
X44611380Y-85884576D01*
X44786612Y-85871095D01*
X44973435Y-85858345D01*
X45176708Y-85845979D01*
X45401290Y-85833650D01*
X45652039Y-85821010D01*
X45834355Y-85812142D01*
X45834355Y-91821996D01*
X45451240Y-91811549D01*
G37*
G36*
X46350268Y-85818264D02*
G01*
X46368502Y-85819126D01*
X46461573Y-85823292D01*
X46570693Y-85827890D01*
X46683742Y-85832420D01*
X46788600Y-85836381D01*
X46840558Y-85838413D01*
X46922041Y-85842224D01*
X46990427Y-85846193D01*
X47039742Y-85849958D01*
X47064013Y-85853154D01*
X47064429Y-85853279D01*
X47069465Y-85856346D01*
X47073829Y-85863517D01*
X47077567Y-85876861D01*
X47080728Y-85898450D01*
X47083360Y-85930357D01*
X47085511Y-85974652D01*
X47087229Y-86033408D01*
X47088562Y-86108695D01*
X47089558Y-86202585D01*
X47090265Y-86317150D01*
X47090731Y-86454461D01*
X47091005Y-86616590D01*
X47091134Y-86805608D01*
X47091166Y-87023587D01*
X47091166Y-88186256D01*
X47542271Y-88186256D01*
X47537824Y-87038054D01*
X47537525Y-86960262D01*
X47536774Y-86754278D01*
X47536231Y-86576533D01*
X47535942Y-86424949D01*
X47535949Y-86297448D01*
X47536297Y-86191952D01*
X47537028Y-86106384D01*
X47538186Y-86038664D01*
X47539816Y-85986716D01*
X47541960Y-85948461D01*
X47544662Y-85921821D01*
X47547967Y-85904719D01*
X47551916Y-85895076D01*
X47556555Y-85890814D01*
X47561927Y-85889856D01*
X47576801Y-85890872D01*
X47619575Y-85894915D01*
X47684192Y-85901521D01*
X47765582Y-85910133D01*
X47858674Y-85920192D01*
X47958397Y-85931141D01*
X48059682Y-85942423D01*
X48157456Y-85953478D01*
X48246649Y-85963751D01*
X48322190Y-85972683D01*
X48379010Y-85979717D01*
X48464349Y-85990715D01*
X48468269Y-88816592D01*
X48472190Y-91642470D01*
X48422689Y-91652370D01*
X48417293Y-91653279D01*
X48383578Y-91657896D01*
X48326216Y-91665135D01*
X48250158Y-91674420D01*
X48160354Y-91685175D01*
X48061754Y-91696824D01*
X47959310Y-91708790D01*
X47857972Y-91720497D01*
X47762690Y-91731369D01*
X47678414Y-91740829D01*
X47610097Y-91748302D01*
X47562687Y-91753212D01*
X47541135Y-91754981D01*
X47540544Y-91751868D01*
X47539373Y-91723625D01*
X47538402Y-91668057D01*
X47537639Y-91587715D01*
X47537093Y-91485154D01*
X47536771Y-91362927D01*
X47536682Y-91223590D01*
X47536833Y-91069694D01*
X47537233Y-90903795D01*
X47537890Y-90728446D01*
X47538199Y-90650085D01*
X47538619Y-90478134D01*
X47538664Y-90316517D01*
X47538355Y-90167821D01*
X47537710Y-90034633D01*
X47536750Y-89919541D01*
X47535492Y-89825132D01*
X47533957Y-89753993D01*
X47532164Y-89708710D01*
X47530132Y-89691873D01*
X47527581Y-89690831D01*
X47500688Y-89687980D01*
X47450523Y-89686509D01*
X47383121Y-89686517D01*
X47304514Y-89688107D01*
X47091166Y-89694371D01*
X47091166Y-91786011D01*
X47056255Y-91787780D01*
X47054509Y-91787869D01*
X47023197Y-91789538D01*
X46968845Y-91792487D01*
X46898607Y-91796327D01*
X46819633Y-91800669D01*
X46819503Y-91800676D01*
X46723128Y-91805199D01*
X46609854Y-91809297D01*
X46493794Y-91812520D01*
X46389058Y-91814416D01*
X46160195Y-91817044D01*
X46160195Y-85809154D01*
X46350268Y-85818264D01*
G37*
%TD*%
M02*
