%TF.GenerationSoftware,KiCad,Pcbnew,(6.0.1)*%
%TF.CreationDate,2022-07-28T11:00:42-05:00*%
%TF.ProjectId,proton_detector_amplifier,70726f74-6f6e-45f6-9465-746563746f72,rev?*%
%TF.SameCoordinates,Original*%
%TF.FileFunction,Soldermask,Bot*%
%TF.FilePolarity,Negative*%
%FSLAX46Y46*%
G04 Gerber Fmt 4.6, Leading zero omitted, Abs format (unit mm)*
G04 Created by KiCad (PCBNEW (6.0.1)) date 2022-07-28 11:00:42*
%MOMM*%
%LPD*%
G01*
G04 APERTURE LIST*
%ADD10C,0.800000*%
%ADD11C,7.000000*%
%ADD12R,1.700000X1.700000*%
%ADD13C,2.050000*%
%ADD14C,2.250000*%
%ADD15R,2.400000X2.400000*%
%ADD16C,2.400000*%
%ADD17O,1.700000X1.700000*%
G04 APERTURE END LIST*
D10*
%TO.C,H2*%
X33867000Y-38100000D03*
X31242000Y-35475000D03*
D11*
X31242000Y-38100000D03*
D10*
X29385845Y-36243845D03*
X33098155Y-36243845D03*
X33098155Y-39956155D03*
X29385845Y-39956155D03*
X31242000Y-40725000D03*
X28617000Y-38100000D03*
%TD*%
D12*
%TO.C,+9V*%
X30480000Y-62738000D03*
%TD*%
D13*
%TO.C,J2*%
X58674000Y-89916000D03*
D14*
X61214000Y-87376000D03*
X56134000Y-87376000D03*
X61214000Y-92456000D03*
X56134000Y-92456000D03*
%TD*%
D12*
%TO.C,-60V*%
X43180000Y-62786000D03*
%TD*%
%TO.C,-5VA*%
X43180000Y-57150000D03*
%TD*%
D10*
%TO.C,H4*%
X93387000Y-90170000D03*
X97868155Y-92026155D03*
X96012000Y-87545000D03*
X94155845Y-88313845D03*
D11*
X96012000Y-90170000D03*
D10*
X98637000Y-90170000D03*
X94155845Y-92026155D03*
X96012000Y-92795000D03*
X97868155Y-88313845D03*
%TD*%
D12*
%TO.C,-9V*%
X36830000Y-62738000D03*
%TD*%
%TO.C,GND*%
X49530000Y-62786000D03*
%TD*%
D13*
%TO.C,J6*%
X70612000Y-38608000D03*
D14*
X73152000Y-41148000D03*
X73152000Y-36068000D03*
X68072000Y-41148000D03*
X68072000Y-36068000D03*
%TD*%
D13*
%TO.C,J5*%
X84328000Y-38608000D03*
D14*
X81788000Y-41148000D03*
X86868000Y-41148000D03*
X86868000Y-36068000D03*
X81788000Y-36068000D03*
%TD*%
D10*
%TO.C,H3*%
X33098155Y-92026155D03*
X31242000Y-87545000D03*
X28617000Y-90170000D03*
D11*
X31242000Y-90170000D03*
D10*
X33098155Y-88313845D03*
X29385845Y-88313845D03*
X31242000Y-92795000D03*
X29385845Y-92026155D03*
X33867000Y-90170000D03*
%TD*%
D15*
%TO.C,J1*%
X43828000Y-38508000D03*
D16*
X47328000Y-38508000D03*
X50828000Y-38508000D03*
X54328000Y-38508000D03*
X57828000Y-38508000D03*
X61328000Y-38508000D03*
%TD*%
D12*
%TO.C,J3*%
X64531000Y-70866000D03*
D17*
X67071000Y-70866000D03*
X69611000Y-70866000D03*
X72151000Y-70866000D03*
X74691000Y-70866000D03*
X77231000Y-70866000D03*
X79771000Y-70866000D03*
X82311000Y-70866000D03*
%TD*%
D12*
%TO.C,J4*%
X87361000Y-47244000D03*
D17*
X84821000Y-47244000D03*
X82281000Y-47244000D03*
X79741000Y-47244000D03*
X77201000Y-47244000D03*
X74661000Y-47244000D03*
X72121000Y-47244000D03*
X69581000Y-47244000D03*
%TD*%
D11*
%TO.C,H1*%
X96012000Y-38100000D03*
D10*
X94155845Y-36243845D03*
X93387000Y-38100000D03*
X94155845Y-39956155D03*
X96012000Y-35475000D03*
X96012000Y-40725000D03*
X97868155Y-39956155D03*
X98637000Y-38100000D03*
X97868155Y-36243845D03*
%TD*%
D12*
%TO.C,+5VA*%
X49530000Y-57150000D03*
%TD*%
M02*
