%TF.GenerationSoftware,KiCad,Pcbnew,(6.0.1)*%
%TF.CreationDate,2022-07-28T11:00:42-05:00*%
%TF.ProjectId,proton_detector_amplifier,70726f74-6f6e-45f6-9465-746563746f72,rev?*%
%TF.SameCoordinates,Original*%
%TF.FileFunction,Soldermask,Top*%
%TF.FilePolarity,Negative*%
%FSLAX46Y46*%
G04 Gerber Fmt 4.6, Leading zero omitted, Abs format (unit mm)*
G04 Created by KiCad (PCBNEW (6.0.1)) date 2022-07-28 11:00:42*
%MOMM*%
%LPD*%
G01*
G04 APERTURE LIST*
G04 Aperture macros list*
%AMRoundRect*
0 Rectangle with rounded corners*
0 $1 Rounding radius*
0 $2 $3 $4 $5 $6 $7 $8 $9 X,Y pos of 4 corners*
0 Add a 4 corners polygon primitive as box body*
4,1,4,$2,$3,$4,$5,$6,$7,$8,$9,$2,$3,0*
0 Add four circle primitives for the rounded corners*
1,1,$1+$1,$2,$3*
1,1,$1+$1,$4,$5*
1,1,$1+$1,$6,$7*
1,1,$1+$1,$8,$9*
0 Add four rect primitives between the rounded corners*
20,1,$1+$1,$2,$3,$4,$5,0*
20,1,$1+$1,$4,$5,$6,$7,0*
20,1,$1+$1,$6,$7,$8,$9,0*
20,1,$1+$1,$8,$9,$2,$3,0*%
G04 Aperture macros list end*
%ADD10RoundRect,0.250000X-0.412500X-0.650000X0.412500X-0.650000X0.412500X0.650000X-0.412500X0.650000X0*%
%ADD11RoundRect,0.250000X-0.312500X-0.625000X0.312500X-0.625000X0.312500X0.625000X-0.312500X0.625000X0*%
%ADD12RoundRect,0.250000X-0.650000X0.412500X-0.650000X-0.412500X0.650000X-0.412500X0.650000X0.412500X0*%
%ADD13RoundRect,0.150000X-0.825000X-0.150000X0.825000X-0.150000X0.825000X0.150000X-0.825000X0.150000X0*%
%ADD14RoundRect,0.250000X0.625000X-0.312500X0.625000X0.312500X-0.625000X0.312500X-0.625000X-0.312500X0*%
%ADD15R,1.200000X2.200000*%
%ADD16R,5.800000X6.400000*%
%ADD17RoundRect,0.250000X0.312500X0.625000X-0.312500X0.625000X-0.312500X-0.625000X0.312500X-0.625000X0*%
%ADD18RoundRect,0.250000X0.650000X-0.412500X0.650000X0.412500X-0.650000X0.412500X-0.650000X-0.412500X0*%
%ADD19C,0.800000*%
%ADD20C,7.000000*%
%ADD21R,1.700000X1.700000*%
%ADD22C,2.050000*%
%ADD23C,2.250000*%
%ADD24RoundRect,0.150000X0.825000X0.150000X-0.825000X0.150000X-0.825000X-0.150000X0.825000X-0.150000X0*%
%ADD25RoundRect,0.250000X-0.325000X-0.650000X0.325000X-0.650000X0.325000X0.650000X-0.325000X0.650000X0*%
%ADD26RoundRect,0.250000X0.625000X-0.400000X0.625000X0.400000X-0.625000X0.400000X-0.625000X-0.400000X0*%
%ADD27RoundRect,0.250000X-1.100000X0.412500X-1.100000X-0.412500X1.100000X-0.412500X1.100000X0.412500X0*%
%ADD28R,2.400000X2.400000*%
%ADD29C,2.400000*%
%ADD30O,1.700000X1.700000*%
%ADD31RoundRect,0.250000X0.412500X0.650000X-0.412500X0.650000X-0.412500X-0.650000X0.412500X-0.650000X0*%
%ADD32RoundRect,0.250000X0.650000X-0.325000X0.650000X0.325000X-0.650000X0.325000X-0.650000X-0.325000X0*%
%ADD33RoundRect,0.250000X-0.625000X0.312500X-0.625000X-0.312500X0.625000X-0.312500X0.625000X0.312500X0*%
G04 APERTURE END LIST*
D10*
%TO.C,C26*%
X62953500Y-66548000D03*
X66078500Y-66548000D03*
%TD*%
D11*
%TO.C,R6*%
X91501500Y-63754000D03*
X94426500Y-63754000D03*
%TD*%
D10*
%TO.C,C21*%
X82511500Y-67564000D03*
X85636500Y-67564000D03*
%TD*%
D12*
%TO.C,C20*%
X89154000Y-53047500D03*
X89154000Y-56172500D03*
%TD*%
D13*
%TO.C,IC2*%
X66867000Y-75311000D03*
X66867000Y-76581000D03*
X66867000Y-77851000D03*
X66867000Y-79121000D03*
X71817000Y-79121000D03*
X71817000Y-77851000D03*
X71817000Y-76581000D03*
X71817000Y-75311000D03*
%TD*%
D14*
%TO.C,R16*%
X70866000Y-61152500D03*
X70866000Y-58227500D03*
%TD*%
D15*
%TO.C,U1*%
X43174000Y-78350000D03*
D16*
X40894000Y-84650000D03*
D15*
X38614000Y-78350000D03*
%TD*%
D17*
%TO.C,R13*%
X74868500Y-54610000D03*
X71943500Y-54610000D03*
%TD*%
D18*
%TO.C,C10*%
X48129000Y-81049500D03*
X48129000Y-77924500D03*
%TD*%
D14*
%TO.C,R15*%
X59436000Y-56326500D03*
X59436000Y-53401500D03*
%TD*%
D19*
%TO.C,H2*%
X33867000Y-38100000D03*
X31242000Y-35475000D03*
D20*
X31242000Y-38100000D03*
D19*
X29385845Y-36243845D03*
X33098155Y-36243845D03*
X33098155Y-39956155D03*
X29385845Y-39956155D03*
X31242000Y-40725000D03*
X28617000Y-38100000D03*
%TD*%
D17*
%TO.C,R4*%
X94426500Y-66294000D03*
X91501500Y-66294000D03*
%TD*%
D14*
%TO.C,R9*%
X90424000Y-61660500D03*
X90424000Y-58735500D03*
%TD*%
D21*
%TO.C,+9V*%
X30480000Y-62738000D03*
%TD*%
D22*
%TO.C,J2*%
X58674000Y-89916000D03*
D23*
X61214000Y-87376000D03*
X56134000Y-87376000D03*
X61214000Y-92456000D03*
X56134000Y-92456000D03*
%TD*%
D21*
%TO.C,-60V*%
X43180000Y-62786000D03*
%TD*%
D12*
%TO.C,C27*%
X69596000Y-52031500D03*
X69596000Y-55156500D03*
%TD*%
D13*
%TO.C,IC4*%
X81345000Y-75565000D03*
X81345000Y-76835000D03*
X81345000Y-78105000D03*
X81345000Y-79375000D03*
X86295000Y-79375000D03*
X86295000Y-78105000D03*
X86295000Y-76835000D03*
X86295000Y-75565000D03*
%TD*%
D17*
%TO.C,R7*%
X87568500Y-44196000D03*
X84643500Y-44196000D03*
%TD*%
D21*
%TO.C,-5VA*%
X43180000Y-57150000D03*
%TD*%
D19*
%TO.C,H4*%
X93387000Y-90170000D03*
X97868155Y-92026155D03*
X96012000Y-87545000D03*
X94155845Y-88313845D03*
D20*
X96012000Y-90170000D03*
D19*
X98637000Y-90170000D03*
X94155845Y-92026155D03*
X96012000Y-92795000D03*
X97868155Y-88313845D03*
%TD*%
D11*
%TO.C,R-P/Z1*%
X91501500Y-71374000D03*
X94426500Y-71374000D03*
%TD*%
D15*
%TO.C,U2*%
X38615000Y-74812000D03*
D16*
X40895000Y-68512000D03*
D15*
X43175000Y-74812000D03*
%TD*%
D12*
%TO.C,C18*%
X94234000Y-58381500D03*
X94234000Y-61506500D03*
%TD*%
D21*
%TO.C,-9V*%
X36830000Y-62738000D03*
%TD*%
D18*
%TO.C,C11*%
X48260000Y-75270500D03*
X48260000Y-72145500D03*
%TD*%
D11*
%TO.C,R8*%
X73975500Y-78232000D03*
X76900500Y-78232000D03*
%TD*%
D24*
%TO.C,IC3*%
X86549000Y-60325000D03*
X86549000Y-59055000D03*
X86549000Y-57785000D03*
X86549000Y-56515000D03*
X81599000Y-56515000D03*
X81599000Y-57785000D03*
X81599000Y-59055000D03*
X81599000Y-60325000D03*
%TD*%
D12*
%TO.C,C3*%
X30086000Y-55041000D03*
X30086000Y-58166000D03*
%TD*%
D10*
%TO.C,C28*%
X82511500Y-65024000D03*
X85636500Y-65024000D03*
%TD*%
D21*
%TO.C,GND*%
X49530000Y-62786000D03*
%TD*%
D18*
%TO.C,C16*%
X78994000Y-62522500D03*
X78994000Y-59397500D03*
%TD*%
D11*
%TO.C,R3*%
X91440000Y-68834000D03*
X94365000Y-68834000D03*
%TD*%
D18*
%TO.C,C7*%
X36068000Y-75270500D03*
X36068000Y-72145500D03*
%TD*%
D25*
%TO.C,C14*%
X59993000Y-76716000D03*
X62943000Y-76716000D03*
%TD*%
D18*
%TO.C,C9*%
X45720000Y-75270500D03*
X45720000Y-72145500D03*
%TD*%
D22*
%TO.C,J6*%
X70612000Y-38608000D03*
D23*
X73152000Y-41148000D03*
X73152000Y-36068000D03*
X68072000Y-41148000D03*
X68072000Y-36068000D03*
%TD*%
D26*
%TO.C,R1*%
X52324000Y-75464000D03*
X52324000Y-72364000D03*
%TD*%
D27*
%TO.C,C1*%
X30226000Y-49453000D03*
X30226000Y-52578000D03*
%TD*%
D22*
%TO.C,J5*%
X84328000Y-38608000D03*
D23*
X81788000Y-41148000D03*
X86868000Y-41148000D03*
X86868000Y-36068000D03*
X81788000Y-36068000D03*
%TD*%
D11*
%TO.C,R11*%
X82357500Y-82042000D03*
X85282500Y-82042000D03*
%TD*%
D19*
%TO.C,H3*%
X33098155Y-92026155D03*
X31242000Y-87545000D03*
X28617000Y-90170000D03*
D20*
X31242000Y-90170000D03*
D19*
X33098155Y-88313845D03*
X29385845Y-88313845D03*
X31242000Y-92795000D03*
X29385845Y-92026155D03*
X33867000Y-90170000D03*
%TD*%
D10*
%TO.C,C30*%
X62953500Y-64008000D03*
X66078500Y-64008000D03*
%TD*%
D18*
%TO.C,C25*%
X59436000Y-61506500D03*
X59436000Y-58381500D03*
%TD*%
D28*
%TO.C,J1*%
X43828000Y-38508000D03*
D29*
X47328000Y-38508000D03*
X50828000Y-38508000D03*
X54328000Y-38508000D03*
X57828000Y-38508000D03*
X61328000Y-38508000D03*
%TD*%
D21*
%TO.C,J3*%
X64531000Y-70866000D03*
D30*
X67071000Y-70866000D03*
X69611000Y-70866000D03*
X72151000Y-70866000D03*
X74691000Y-70866000D03*
X77231000Y-70866000D03*
X79771000Y-70866000D03*
X82311000Y-70866000D03*
%TD*%
D31*
%TO.C,C15*%
X77254500Y-75692000D03*
X74129500Y-75692000D03*
%TD*%
D18*
%TO.C,C8*%
X45715000Y-81049500D03*
X45715000Y-77924500D03*
%TD*%
D12*
%TO.C,C13*%
X94234000Y-73621500D03*
X94234000Y-76746500D03*
%TD*%
D25*
%TO.C,C17*%
X67867000Y-84074000D03*
X70817000Y-84074000D03*
%TD*%
D11*
%TO.C,R2*%
X54417500Y-76708000D03*
X57342500Y-76708000D03*
%TD*%
D12*
%TO.C,C22*%
X88900000Y-73621500D03*
X88900000Y-76746500D03*
%TD*%
D32*
%TO.C,C12*%
X52324000Y-80977000D03*
X52324000Y-78027000D03*
%TD*%
D17*
%TO.C,R12*%
X79186500Y-57150000D03*
X76261500Y-57150000D03*
%TD*%
D31*
%TO.C,C29*%
X85382500Y-84582000D03*
X82257500Y-84582000D03*
%TD*%
D21*
%TO.C,J4*%
X87361000Y-47244000D03*
D30*
X84821000Y-47244000D03*
X82281000Y-47244000D03*
X79741000Y-47244000D03*
X77201000Y-47244000D03*
X74661000Y-47244000D03*
X72121000Y-47244000D03*
X69581000Y-47244000D03*
%TD*%
D10*
%TO.C,C19*%
X61429500Y-79756000D03*
X64554500Y-79756000D03*
%TD*%
D24*
%TO.C,IC5*%
X66991000Y-59309000D03*
X66991000Y-58039000D03*
X66991000Y-56769000D03*
X66991000Y-55499000D03*
X62041000Y-55499000D03*
X62041000Y-56769000D03*
X62041000Y-58039000D03*
X62041000Y-59309000D03*
%TD*%
D20*
%TO.C,H1*%
X96012000Y-38100000D03*
D19*
X94155845Y-36243845D03*
X93387000Y-38100000D03*
X94155845Y-39956155D03*
X96012000Y-35475000D03*
X96012000Y-40725000D03*
X97868155Y-39956155D03*
X98637000Y-38100000D03*
X97868155Y-36243845D03*
%TD*%
D12*
%TO.C,C6*%
X35809000Y-77924500D03*
X35809000Y-81049500D03*
%TD*%
D21*
%TO.C,+5VA*%
X49530000Y-57150000D03*
%TD*%
D27*
%TO.C,C4*%
X37196000Y-49522000D03*
X37196000Y-52647000D03*
%TD*%
D17*
%TO.C,R10*%
X85536500Y-62484000D03*
X82611500Y-62484000D03*
%TD*%
D18*
%TO.C,C24*%
X80010000Y-84620500D03*
X80010000Y-81495500D03*
%TD*%
D12*
%TO.C,C5*%
X37183000Y-55071500D03*
X37183000Y-58196500D03*
%TD*%
D33*
%TO.C,R14*%
X88900000Y-79309500D03*
X88900000Y-82234500D03*
%TD*%
D17*
%TO.C,R17*%
X65978500Y-61468000D03*
X63053500Y-61468000D03*
%TD*%
D12*
%TO.C,C2*%
X44308000Y-49483500D03*
X44308000Y-52608500D03*
%TD*%
D18*
%TO.C,C23*%
X73660000Y-61252500D03*
X73660000Y-58127500D03*
%TD*%
D11*
%TO.C,R5*%
X67879500Y-81534000D03*
X70804500Y-81534000D03*
%TD*%
M02*
