%TF.GenerationSoftware,KiCad,Pcbnew,(6.0.1)*%
%TF.CreationDate,2022-07-28T11:00:42-05:00*%
%TF.ProjectId,proton_detector_amplifier,70726f74-6f6e-45f6-9465-746563746f72,rev?*%
%TF.SameCoordinates,Original*%
%TF.FileFunction,Copper,L1,Top*%
%TF.FilePolarity,Positive*%
%FSLAX46Y46*%
G04 Gerber Fmt 4.6, Leading zero omitted, Abs format (unit mm)*
G04 Created by KiCad (PCBNEW (6.0.1)) date 2022-07-28 11:00:42*
%MOMM*%
%LPD*%
G01*
G04 APERTURE LIST*
G04 Aperture macros list*
%AMRoundRect*
0 Rectangle with rounded corners*
0 $1 Rounding radius*
0 $2 $3 $4 $5 $6 $7 $8 $9 X,Y pos of 4 corners*
0 Add a 4 corners polygon primitive as box body*
4,1,4,$2,$3,$4,$5,$6,$7,$8,$9,$2,$3,0*
0 Add four circle primitives for the rounded corners*
1,1,$1+$1,$2,$3*
1,1,$1+$1,$4,$5*
1,1,$1+$1,$6,$7*
1,1,$1+$1,$8,$9*
0 Add four rect primitives between the rounded corners*
20,1,$1+$1,$2,$3,$4,$5,0*
20,1,$1+$1,$4,$5,$6,$7,0*
20,1,$1+$1,$6,$7,$8,$9,0*
20,1,$1+$1,$8,$9,$2,$3,0*%
G04 Aperture macros list end*
%TA.AperFunction,SMDPad,CuDef*%
%ADD10RoundRect,0.250000X-0.412500X-0.650000X0.412500X-0.650000X0.412500X0.650000X-0.412500X0.650000X0*%
%TD*%
%TA.AperFunction,SMDPad,CuDef*%
%ADD11RoundRect,0.250000X-0.312500X-0.625000X0.312500X-0.625000X0.312500X0.625000X-0.312500X0.625000X0*%
%TD*%
%TA.AperFunction,SMDPad,CuDef*%
%ADD12RoundRect,0.250000X-0.650000X0.412500X-0.650000X-0.412500X0.650000X-0.412500X0.650000X0.412500X0*%
%TD*%
%TA.AperFunction,SMDPad,CuDef*%
%ADD13RoundRect,0.150000X-0.825000X-0.150000X0.825000X-0.150000X0.825000X0.150000X-0.825000X0.150000X0*%
%TD*%
%TA.AperFunction,SMDPad,CuDef*%
%ADD14RoundRect,0.250000X0.625000X-0.312500X0.625000X0.312500X-0.625000X0.312500X-0.625000X-0.312500X0*%
%TD*%
%TA.AperFunction,SMDPad,CuDef*%
%ADD15R,1.200000X2.200000*%
%TD*%
%TA.AperFunction,SMDPad,CuDef*%
%ADD16R,5.800000X6.400000*%
%TD*%
%TA.AperFunction,SMDPad,CuDef*%
%ADD17RoundRect,0.250000X0.312500X0.625000X-0.312500X0.625000X-0.312500X-0.625000X0.312500X-0.625000X0*%
%TD*%
%TA.AperFunction,SMDPad,CuDef*%
%ADD18RoundRect,0.250000X0.650000X-0.412500X0.650000X0.412500X-0.650000X0.412500X-0.650000X-0.412500X0*%
%TD*%
%TA.AperFunction,ComponentPad*%
%ADD19C,0.800000*%
%TD*%
%TA.AperFunction,ComponentPad*%
%ADD20C,7.000000*%
%TD*%
%TA.AperFunction,ComponentPad*%
%ADD21R,1.700000X1.700000*%
%TD*%
%TA.AperFunction,ComponentPad*%
%ADD22C,2.050000*%
%TD*%
%TA.AperFunction,ComponentPad*%
%ADD23C,2.250000*%
%TD*%
%TA.AperFunction,SMDPad,CuDef*%
%ADD24RoundRect,0.150000X0.825000X0.150000X-0.825000X0.150000X-0.825000X-0.150000X0.825000X-0.150000X0*%
%TD*%
%TA.AperFunction,SMDPad,CuDef*%
%ADD25RoundRect,0.250000X-0.325000X-0.650000X0.325000X-0.650000X0.325000X0.650000X-0.325000X0.650000X0*%
%TD*%
%TA.AperFunction,SMDPad,CuDef*%
%ADD26RoundRect,0.250000X0.625000X-0.400000X0.625000X0.400000X-0.625000X0.400000X-0.625000X-0.400000X0*%
%TD*%
%TA.AperFunction,SMDPad,CuDef*%
%ADD27RoundRect,0.250000X-1.100000X0.412500X-1.100000X-0.412500X1.100000X-0.412500X1.100000X0.412500X0*%
%TD*%
%TA.AperFunction,ComponentPad*%
%ADD28R,2.400000X2.400000*%
%TD*%
%TA.AperFunction,ComponentPad*%
%ADD29C,2.400000*%
%TD*%
%TA.AperFunction,ComponentPad*%
%ADD30O,1.700000X1.700000*%
%TD*%
%TA.AperFunction,SMDPad,CuDef*%
%ADD31RoundRect,0.250000X0.412500X0.650000X-0.412500X0.650000X-0.412500X-0.650000X0.412500X-0.650000X0*%
%TD*%
%TA.AperFunction,SMDPad,CuDef*%
%ADD32RoundRect,0.250000X0.650000X-0.325000X0.650000X0.325000X-0.650000X0.325000X-0.650000X-0.325000X0*%
%TD*%
%TA.AperFunction,SMDPad,CuDef*%
%ADD33RoundRect,0.250000X-0.625000X0.312500X-0.625000X-0.312500X0.625000X-0.312500X0.625000X0.312500X0*%
%TD*%
%TA.AperFunction,ViaPad*%
%ADD34C,0.800000*%
%TD*%
%TA.AperFunction,Conductor*%
%ADD35C,0.250000*%
%TD*%
%TA.AperFunction,Conductor*%
%ADD36C,0.410000*%
%TD*%
G04 APERTURE END LIST*
D10*
%TO.P,C26,1*%
%TO.N,Net-(C26-Pad1)*%
X62953500Y-66548000D03*
%TO.P,C26,2*%
%TO.N,Net-(C26-Pad2)*%
X66078500Y-66548000D03*
%TD*%
D11*
%TO.P,R6,1*%
%TO.N,Net-(C21-Pad2)*%
X91501500Y-63754000D03*
%TO.P,R6,2*%
%TO.N,Net-(C18-Pad2)*%
X94426500Y-63754000D03*
%TD*%
D10*
%TO.P,C21,1*%
%TO.N,Net-(C21-Pad1)*%
X82511500Y-67564000D03*
%TO.P,C21,2*%
%TO.N,Net-(C21-Pad2)*%
X85636500Y-67564000D03*
%TD*%
D12*
%TO.P,C20,1*%
%TO.N,Earth*%
X89154000Y-53047500D03*
%TO.P,C20,2*%
%TO.N,-5VA*%
X89154000Y-56172500D03*
%TD*%
D13*
%TO.P,IC2,1,NC_1*%
%TO.N,unconnected-(IC2-Pad1)*%
X66867000Y-75311000D03*
%TO.P,IC2,2,VIN-*%
%TO.N,Net-(C14-Pad2)*%
X66867000Y-76581000D03*
%TO.P,IC2,3,VIN+*%
%TO.N,Earth*%
X66867000Y-77851000D03*
%TO.P,IC2,4,-VS*%
%TO.N,-5VA*%
X66867000Y-79121000D03*
%TO.P,IC2,5,NC_2*%
%TO.N,unconnected-(IC2-Pad5)*%
X71817000Y-79121000D03*
%TO.P,IC2,6,VOUT*%
%TO.N,Net-(C17-Pad2)*%
X71817000Y-77851000D03*
%TO.P,IC2,7,+VS*%
%TO.N,+5VA*%
X71817000Y-76581000D03*
%TO.P,IC2,8,NC_3*%
%TO.N,unconnected-(IC2-Pad8)*%
X71817000Y-75311000D03*
%TD*%
D14*
%TO.P,R16,1*%
%TO.N,Earth*%
X70866000Y-61152500D03*
%TO.P,R16,2*%
%TO.N,Net-(C30-Pad2)*%
X70866000Y-58227500D03*
%TD*%
D15*
%TO.P,U1,1,GND*%
%TO.N,Earth*%
X43174000Y-78350000D03*
D16*
%TO.P,U1,2,VI*%
%TO.N,-5VA*%
X40894000Y-84650000D03*
D15*
%TO.P,U1,3,VO*%
%TO.N,-5V*%
X38614000Y-78350000D03*
%TD*%
D17*
%TO.P,R13,1*%
%TO.N,Net-(C26-Pad2)*%
X74868500Y-54610000D03*
%TO.P,R13,2*%
%TO.N,Net-(C23-Pad2)*%
X71943500Y-54610000D03*
%TD*%
D18*
%TO.P,C10,1*%
%TO.N,-5VA*%
X48129000Y-81049500D03*
%TO.P,C10,2*%
%TO.N,Earth*%
X48129000Y-77924500D03*
%TD*%
D14*
%TO.P,R15,1*%
%TO.N,Net-(C26-Pad1)*%
X59436000Y-56326500D03*
%TO.P,R15,2*%
%TO.N,Net-(J6-Pad1)*%
X59436000Y-53401500D03*
%TD*%
D19*
%TO.P,H2,1*%
%TO.N,N/C*%
X33867000Y-38100000D03*
X31242000Y-35475000D03*
D20*
X31242000Y-38100000D03*
D19*
X29385845Y-36243845D03*
X33098155Y-36243845D03*
X33098155Y-39956155D03*
X29385845Y-39956155D03*
X31242000Y-40725000D03*
X28617000Y-38100000D03*
%TD*%
D17*
%TO.P,R4,1*%
%TO.N,Net-(C13-Pad1)*%
X94426500Y-66294000D03*
%TO.P,R4,2*%
%TO.N,Net-(C21-Pad2)*%
X91501500Y-66294000D03*
%TD*%
D14*
%TO.P,R9,1*%
%TO.N,Earth*%
X90424000Y-61660500D03*
%TO.P,R9,2*%
%TO.N,Net-(C28-Pad2)*%
X90424000Y-58735500D03*
%TD*%
D21*
%TO.P,+9V,1,1*%
%TO.N,+5V*%
X30480000Y-62738000D03*
%TD*%
D22*
%TO.P,J2,1,In*%
%TO.N,Net-(C14-Pad1)*%
X58674000Y-89916000D03*
D23*
%TO.P,J2,2,Ext*%
%TO.N,Earth*%
X61214000Y-87376000D03*
X56134000Y-87376000D03*
X61214000Y-92456000D03*
X56134000Y-92456000D03*
%TD*%
D21*
%TO.P,-60V,1,1*%
%TO.N,-VDC*%
X43180000Y-62786000D03*
%TD*%
D12*
%TO.P,C27,1*%
%TO.N,Earth*%
X69596000Y-52031500D03*
%TO.P,C27,2*%
%TO.N,-5VA*%
X69596000Y-55156500D03*
%TD*%
D13*
%TO.P,IC4,1,NC_1*%
%TO.N,unconnected-(IC4-Pad1)*%
X81345000Y-75565000D03*
%TO.P,IC4,2,VIN-*%
%TO.N,Net-(C29-Pad2)*%
X81345000Y-76835000D03*
%TO.P,IC4,3,VIN+*%
%TO.N,Earth*%
X81345000Y-78105000D03*
%TO.P,IC4,4,-VS*%
%TO.N,-5VA*%
X81345000Y-79375000D03*
%TO.P,IC4,5,NC_2*%
%TO.N,unconnected-(IC4-Pad5)*%
X86295000Y-79375000D03*
%TO.P,IC4,6,VOUT*%
%TO.N,Net-(C13-Pad2)*%
X86295000Y-78105000D03*
%TO.P,IC4,7,+VS*%
%TO.N,+5VA*%
X86295000Y-76835000D03*
%TO.P,IC4,8,NC_3*%
%TO.N,unconnected-(IC4-Pad8)*%
X86295000Y-75565000D03*
%TD*%
D17*
%TO.P,R7,1*%
%TO.N,Net-(C13-Pad2)*%
X87568500Y-44196000D03*
%TO.P,R7,2*%
%TO.N,Net-(J4-Pad2)*%
X84643500Y-44196000D03*
%TD*%
D21*
%TO.P,-5VA,1,1*%
%TO.N,-5VA*%
X43180000Y-57150000D03*
%TD*%
D19*
%TO.P,H4,1*%
%TO.N,N/C*%
X93387000Y-90170000D03*
X97868155Y-92026155D03*
X96012000Y-87545000D03*
X94155845Y-88313845D03*
D20*
X96012000Y-90170000D03*
D19*
X98637000Y-90170000D03*
X94155845Y-92026155D03*
X96012000Y-92795000D03*
X97868155Y-88313845D03*
%TD*%
D11*
%TO.P,R-P/Z1,1*%
%TO.N,Earth*%
X91501500Y-71374000D03*
%TO.P,R-P/Z1,2*%
%TO.N,Net-(C13-Pad1)*%
X94426500Y-71374000D03*
%TD*%
D15*
%TO.P,U2,1,VI*%
%TO.N,+5V*%
X38615000Y-74812000D03*
D16*
%TO.P,U2,2,GND*%
%TO.N,Earth*%
X40895000Y-68512000D03*
D15*
%TO.P,U2,3,VO*%
%TO.N,+5VA*%
X43175000Y-74812000D03*
%TD*%
D12*
%TO.P,C18,1*%
%TO.N,Earth*%
X94234000Y-58381500D03*
%TO.P,C18,2*%
%TO.N,Net-(C18-Pad2)*%
X94234000Y-61506500D03*
%TD*%
D21*
%TO.P,-9V,1,1*%
%TO.N,-5V*%
X36830000Y-62738000D03*
%TD*%
D18*
%TO.P,C11,1*%
%TO.N,+5VA*%
X48260000Y-75270500D03*
%TO.P,C11,2*%
%TO.N,Earth*%
X48260000Y-72145500D03*
%TD*%
D11*
%TO.P,R8,1*%
%TO.N,Net-(C17-Pad2)*%
X73975500Y-78232000D03*
%TO.P,R8,2*%
%TO.N,Net-(C29-Pad2)*%
X76900500Y-78232000D03*
%TD*%
D24*
%TO.P,IC3,1,NC_1*%
%TO.N,unconnected-(IC3-Pad1)*%
X86549000Y-60325000D03*
%TO.P,IC3,2,VIN-*%
%TO.N,Net-(C28-Pad2)*%
X86549000Y-59055000D03*
%TO.P,IC3,3,VIN+*%
%TO.N,Net-(C18-Pad2)*%
X86549000Y-57785000D03*
%TO.P,IC3,4,-VS*%
%TO.N,-5VA*%
X86549000Y-56515000D03*
%TO.P,IC3,5,NC_2*%
%TO.N,unconnected-(IC3-Pad5)*%
X81599000Y-56515000D03*
%TO.P,IC3,6,VOUT*%
%TO.N,Net-(C21-Pad1)*%
X81599000Y-57785000D03*
%TO.P,IC3,7,+VS*%
%TO.N,+5VA*%
X81599000Y-59055000D03*
%TO.P,IC3,8,NC_3*%
%TO.N,unconnected-(IC3-Pad8)*%
X81599000Y-60325000D03*
%TD*%
D12*
%TO.P,C3,1*%
%TO.N,+5V*%
X30086000Y-55041000D03*
%TO.P,C3,2*%
%TO.N,Earth*%
X30086000Y-58166000D03*
%TD*%
D10*
%TO.P,C28,1*%
%TO.N,Net-(C21-Pad1)*%
X82511500Y-65024000D03*
%TO.P,C28,2*%
%TO.N,Net-(C28-Pad2)*%
X85636500Y-65024000D03*
%TD*%
D21*
%TO.P,GND,1,1*%
%TO.N,Earth*%
X49530000Y-62786000D03*
%TD*%
D18*
%TO.P,C16,1*%
%TO.N,Earth*%
X78994000Y-62522500D03*
%TO.P,C16,2*%
%TO.N,+5VA*%
X78994000Y-59397500D03*
%TD*%
D11*
%TO.P,R3,1*%
%TO.N,Earth*%
X91440000Y-68834000D03*
%TO.P,R3,2*%
%TO.N,Net-(C13-Pad1)*%
X94365000Y-68834000D03*
%TD*%
D18*
%TO.P,C7,1*%
%TO.N,+5V*%
X36068000Y-75270500D03*
%TO.P,C7,2*%
%TO.N,Earth*%
X36068000Y-72145500D03*
%TD*%
D25*
%TO.P,C14,1*%
%TO.N,Net-(C14-Pad1)*%
X59993000Y-76716000D03*
%TO.P,C14,2*%
%TO.N,Net-(C14-Pad2)*%
X62943000Y-76716000D03*
%TD*%
D18*
%TO.P,C9,1*%
%TO.N,+5VA*%
X45720000Y-75270500D03*
%TO.P,C9,2*%
%TO.N,Earth*%
X45720000Y-72145500D03*
%TD*%
D22*
%TO.P,J6,1,In*%
%TO.N,Net-(J6-Pad1)*%
X70612000Y-38608000D03*
D23*
%TO.P,J6,2,Ext*%
%TO.N,Earth*%
X73152000Y-41148000D03*
X73152000Y-36068000D03*
X68072000Y-41148000D03*
X68072000Y-36068000D03*
%TD*%
D26*
%TO.P,R1,1*%
%TO.N,Net-(C12-Pad2)*%
X52324000Y-75464000D03*
%TO.P,R1,2*%
%TO.N,-VDC*%
X52324000Y-72364000D03*
%TD*%
D27*
%TO.P,C1,1*%
%TO.N,+5V*%
X30226000Y-49453000D03*
%TO.P,C1,2*%
%TO.N,Earth*%
X30226000Y-52578000D03*
%TD*%
D22*
%TO.P,J5,1,In*%
%TO.N,Net-(J5-Pad1)*%
X84328000Y-38608000D03*
D23*
%TO.P,J5,2,Ext*%
%TO.N,Earth*%
X81788000Y-41148000D03*
X86868000Y-41148000D03*
X86868000Y-36068000D03*
X81788000Y-36068000D03*
%TD*%
D11*
%TO.P,R11,1*%
%TO.N,Net-(C29-Pad2)*%
X82357500Y-82042000D03*
%TO.P,R11,2*%
%TO.N,Net-(C13-Pad2)*%
X85282500Y-82042000D03*
%TD*%
D19*
%TO.P,H3,1*%
%TO.N,N/C*%
X33098155Y-92026155D03*
X31242000Y-87545000D03*
X28617000Y-90170000D03*
D20*
X31242000Y-90170000D03*
D19*
X33098155Y-88313845D03*
X29385845Y-88313845D03*
X31242000Y-92795000D03*
X29385845Y-92026155D03*
X33867000Y-90170000D03*
%TD*%
D10*
%TO.P,C30,1*%
%TO.N,Net-(C26-Pad1)*%
X62953500Y-64008000D03*
%TO.P,C30,2*%
%TO.N,Net-(C30-Pad2)*%
X66078500Y-64008000D03*
%TD*%
D18*
%TO.P,C25,1*%
%TO.N,Earth*%
X59436000Y-61506500D03*
%TO.P,C25,2*%
%TO.N,+5VA*%
X59436000Y-58381500D03*
%TD*%
D28*
%TO.P,J1,1,Pin_1*%
%TO.N,+5V*%
X43828000Y-38508000D03*
D29*
%TO.P,J1,2,Pin_2*%
%TO.N,Earth*%
X47328000Y-38508000D03*
%TO.P,J1,3,Pin_3*%
%TO.N,-5V*%
X50828000Y-38508000D03*
%TO.P,J1,4,Pin_4*%
%TO.N,Earth*%
X54328000Y-38508000D03*
%TO.P,J1,5,Pin_5*%
%TO.N,-VDC*%
X57828000Y-38508000D03*
%TO.P,J1,6,Pin_6*%
%TO.N,Earth*%
X61328000Y-38508000D03*
%TD*%
D21*
%TO.P,J3,1,Pin_1*%
%TO.N,Net-(C14-Pad2)*%
X64531000Y-70866000D03*
D30*
%TO.P,J3,2,Pin_2*%
%TO.N,Earth*%
X67071000Y-70866000D03*
%TO.P,J3,3,Pin_3*%
%TO.N,unconnected-(J3-Pad3)*%
X69611000Y-70866000D03*
%TO.P,J3,4,Pin_4*%
%TO.N,Earth*%
X72151000Y-70866000D03*
%TO.P,J3,5,Pin_5*%
%TO.N,-5VA*%
X74691000Y-70866000D03*
%TO.P,J3,6,Pin_6*%
%TO.N,+5VA*%
X77231000Y-70866000D03*
%TO.P,J3,7,Pin_7*%
%TO.N,Earth*%
X79771000Y-70866000D03*
%TO.P,J3,8,Pin_8*%
%TO.N,Net-(C17-Pad2)*%
X82311000Y-70866000D03*
%TD*%
D31*
%TO.P,C15,1*%
%TO.N,Earth*%
X77254500Y-75692000D03*
%TO.P,C15,2*%
%TO.N,+5VA*%
X74129500Y-75692000D03*
%TD*%
D18*
%TO.P,C8,1*%
%TO.N,-5VA*%
X45715000Y-81049500D03*
%TO.P,C8,2*%
%TO.N,Earth*%
X45715000Y-77924500D03*
%TD*%
D12*
%TO.P,C13,1*%
%TO.N,Net-(C13-Pad1)*%
X94234000Y-73621500D03*
%TO.P,C13,2*%
%TO.N,Net-(C13-Pad2)*%
X94234000Y-76746500D03*
%TD*%
D25*
%TO.P,C17,1*%
%TO.N,Net-(C14-Pad2)*%
X67867000Y-84074000D03*
%TO.P,C17,2*%
%TO.N,Net-(C17-Pad2)*%
X70817000Y-84074000D03*
%TD*%
D11*
%TO.P,R2,1*%
%TO.N,Net-(C12-Pad2)*%
X54417500Y-76708000D03*
%TO.P,R2,2*%
%TO.N,Net-(C14-Pad1)*%
X57342500Y-76708000D03*
%TD*%
D12*
%TO.P,C22,1*%
%TO.N,Earth*%
X88900000Y-73621500D03*
%TO.P,C22,2*%
%TO.N,+5VA*%
X88900000Y-76746500D03*
%TD*%
D32*
%TO.P,C12,1*%
%TO.N,Earth*%
X52324000Y-80977000D03*
%TO.P,C12,2*%
%TO.N,Net-(C12-Pad2)*%
X52324000Y-78027000D03*
%TD*%
D17*
%TO.P,R12,1*%
%TO.N,Net-(C21-Pad1)*%
X79186500Y-57150000D03*
%TO.P,R12,2*%
%TO.N,Net-(C26-Pad2)*%
X76261500Y-57150000D03*
%TD*%
D31*
%TO.P,C29,1*%
%TO.N,Net-(C13-Pad2)*%
X85382500Y-84582000D03*
%TO.P,C29,2*%
%TO.N,Net-(C29-Pad2)*%
X82257500Y-84582000D03*
%TD*%
D21*
%TO.P,J4,1,Pin_1*%
%TO.N,Net-(C13-Pad2)*%
X87361000Y-47244000D03*
D30*
%TO.P,J4,2,Pin_2*%
%TO.N,Net-(J4-Pad2)*%
X84821000Y-47244000D03*
%TO.P,J4,3,Pin_3*%
%TO.N,Earth*%
X82281000Y-47244000D03*
%TO.P,J4,4,Pin_4*%
%TO.N,-5VA*%
X79741000Y-47244000D03*
%TO.P,J4,5,Pin_5*%
%TO.N,+5VA*%
X77201000Y-47244000D03*
%TO.P,J4,6,Pin_6*%
%TO.N,Earth*%
X74661000Y-47244000D03*
%TO.P,J4,7,Pin_7*%
X72121000Y-47244000D03*
%TO.P,J4,8,Pin_8*%
%TO.N,Net-(C26-Pad1)*%
X69581000Y-47244000D03*
%TD*%
D10*
%TO.P,C19,1*%
%TO.N,Earth*%
X61429500Y-79756000D03*
%TO.P,C19,2*%
%TO.N,-5VA*%
X64554500Y-79756000D03*
%TD*%
D24*
%TO.P,IC5,1,NC_1*%
%TO.N,unconnected-(IC5-Pad1)*%
X66991000Y-59309000D03*
%TO.P,IC5,2,VIN-*%
%TO.N,Net-(C30-Pad2)*%
X66991000Y-58039000D03*
%TO.P,IC5,3,VIN+*%
%TO.N,Net-(C23-Pad2)*%
X66991000Y-56769000D03*
%TO.P,IC5,4,-VS*%
%TO.N,-5VA*%
X66991000Y-55499000D03*
%TO.P,IC5,5,NC_2*%
%TO.N,unconnected-(IC5-Pad5)*%
X62041000Y-55499000D03*
%TO.P,IC5,6,VOUT*%
%TO.N,Net-(C26-Pad1)*%
X62041000Y-56769000D03*
%TO.P,IC5,7,+VS*%
%TO.N,+5VA*%
X62041000Y-58039000D03*
%TO.P,IC5,8,NC_3*%
%TO.N,unconnected-(IC5-Pad8)*%
X62041000Y-59309000D03*
%TD*%
D20*
%TO.P,H1,1*%
%TO.N,N/C*%
X96012000Y-38100000D03*
D19*
X94155845Y-36243845D03*
X93387000Y-38100000D03*
X94155845Y-39956155D03*
X96012000Y-35475000D03*
X96012000Y-40725000D03*
X97868155Y-39956155D03*
X98637000Y-38100000D03*
X97868155Y-36243845D03*
%TD*%
D12*
%TO.P,C6,1*%
%TO.N,-5V*%
X35809000Y-77924500D03*
%TO.P,C6,2*%
%TO.N,Earth*%
X35809000Y-81049500D03*
%TD*%
D21*
%TO.P,+5VA,1,1*%
%TO.N,+5VA*%
X49530000Y-57150000D03*
%TD*%
D27*
%TO.P,C4,1*%
%TO.N,-5V*%
X37196000Y-49522000D03*
%TO.P,C4,2*%
%TO.N,Earth*%
X37196000Y-52647000D03*
%TD*%
D17*
%TO.P,R10,1*%
%TO.N,Net-(C28-Pad2)*%
X85536500Y-62484000D03*
%TO.P,R10,2*%
%TO.N,Net-(C21-Pad1)*%
X82611500Y-62484000D03*
%TD*%
D18*
%TO.P,C24,1*%
%TO.N,Earth*%
X80010000Y-84620500D03*
%TO.P,C24,2*%
%TO.N,-5VA*%
X80010000Y-81495500D03*
%TD*%
D12*
%TO.P,C5,1*%
%TO.N,-5V*%
X37183000Y-55071500D03*
%TO.P,C5,2*%
%TO.N,Earth*%
X37183000Y-58196500D03*
%TD*%
D33*
%TO.P,R14,1*%
%TO.N,Net-(C13-Pad2)*%
X88900000Y-79309500D03*
%TO.P,R14,2*%
%TO.N,Net-(J5-Pad1)*%
X88900000Y-82234500D03*
%TD*%
D17*
%TO.P,R17,1*%
%TO.N,Net-(C30-Pad2)*%
X65978500Y-61468000D03*
%TO.P,R17,2*%
%TO.N,Net-(C26-Pad1)*%
X63053500Y-61468000D03*
%TD*%
D12*
%TO.P,C2,1*%
%TO.N,-VDC*%
X44308000Y-49483500D03*
%TO.P,C2,2*%
%TO.N,Earth*%
X44308000Y-52608500D03*
%TD*%
D18*
%TO.P,C23,1*%
%TO.N,Earth*%
X73660000Y-61252500D03*
%TO.P,C23,2*%
%TO.N,Net-(C23-Pad2)*%
X73660000Y-58127500D03*
%TD*%
D11*
%TO.P,R5,1*%
%TO.N,Net-(C14-Pad2)*%
X67879500Y-81534000D03*
%TO.P,R5,2*%
%TO.N,Net-(C17-Pad2)*%
X70804500Y-81534000D03*
%TD*%
D34*
%TO.N,+5V*%
X30226000Y-48006000D03*
X32512000Y-55118000D03*
X32512000Y-75184000D03*
%TO.N,-5V*%
X34290000Y-55118000D03*
X34290000Y-77978000D03*
X37338000Y-48006000D03*
%TO.N,-VDC*%
X52324000Y-70866000D03*
X44196000Y-48006000D03*
%TO.N,Earth*%
X97282000Y-42672000D03*
X99060000Y-41656000D03*
X52324000Y-79756000D03*
X99060000Y-64770000D03*
X99060000Y-78994000D03*
X91440000Y-38100000D03*
X60198000Y-35052000D03*
X72390000Y-44450000D03*
X99060000Y-55880000D03*
X96012000Y-70358000D03*
X99060000Y-82550000D03*
X91948000Y-40132000D03*
X94234000Y-59944000D03*
X91440000Y-84328000D03*
X36068000Y-73660000D03*
X87376000Y-73660000D03*
X96012000Y-68580000D03*
X91694000Y-36322000D03*
X92964000Y-48260000D03*
X96012000Y-61468000D03*
X99060000Y-59436000D03*
X90678000Y-35052000D03*
X89154000Y-35052000D03*
X93218000Y-41656000D03*
X62992000Y-52324000D03*
X60198000Y-40894000D03*
X99060000Y-46990000D03*
X96012000Y-79248000D03*
X96012000Y-72136000D03*
X99060000Y-84328000D03*
X93218000Y-84328000D03*
X91694000Y-46990000D03*
X99060000Y-52324000D03*
X70866000Y-44450000D03*
X29972000Y-56642000D03*
X75438000Y-44450000D03*
X99060000Y-54102000D03*
X45720000Y-79248000D03*
X63754000Y-35052000D03*
X78740000Y-35052000D03*
X96012000Y-57912000D03*
X97028000Y-84328000D03*
X66294000Y-52324000D03*
X48006000Y-79248000D03*
X67818000Y-52070000D03*
X40894000Y-72644000D03*
X35814000Y-79502000D03*
X59177701Y-48255701D03*
X48260000Y-73660000D03*
X66294000Y-44450000D03*
X88138000Y-84328000D03*
X77216000Y-35052000D03*
X89662000Y-84328000D03*
X99060000Y-73660000D03*
X90678000Y-80010000D03*
X99060000Y-77216000D03*
X99060000Y-66548000D03*
X64516000Y-52324000D03*
X90424000Y-45720000D03*
X94996000Y-84328000D03*
X80010000Y-83312000D03*
X82296000Y-44958000D03*
X92902500Y-68834000D03*
X67818000Y-44450000D03*
X99060000Y-61214000D03*
X66294000Y-46228000D03*
X96012000Y-59690000D03*
X37084000Y-51054000D03*
X59436000Y-62738000D03*
X99060000Y-45212000D03*
X96012000Y-73914000D03*
X79502000Y-78232000D03*
X99060000Y-68326000D03*
X89154000Y-54356000D03*
X58161701Y-49271701D03*
X58674000Y-52070000D03*
X99060000Y-57658000D03*
X90424000Y-60198000D03*
X78994000Y-61214000D03*
X96012000Y-65024000D03*
X69342000Y-44450000D03*
X30226000Y-51054000D03*
X99060000Y-50546000D03*
X96012000Y-77470000D03*
X95504000Y-50800000D03*
X75692000Y-35052000D03*
X99060000Y-80772000D03*
X80772000Y-44958000D03*
X65024000Y-77978000D03*
X92456000Y-80010000D03*
X99060000Y-62992000D03*
X79248000Y-44958000D03*
X94996000Y-42672000D03*
X66294000Y-50038000D03*
X99060000Y-48768000D03*
X96012000Y-52578000D03*
X92456000Y-35052000D03*
X78740000Y-75692000D03*
X99060000Y-71882000D03*
X73660000Y-59690000D03*
X94234000Y-80010000D03*
X99060000Y-43434000D03*
X99060000Y-75438000D03*
X89154000Y-44704000D03*
X96012000Y-66802000D03*
X96012000Y-63246000D03*
X96012000Y-75692000D03*
X44196000Y-51054000D03*
X96012000Y-54356000D03*
X99060000Y-70104000D03*
X45720000Y-73660000D03*
X94234000Y-49530000D03*
X61976000Y-35052000D03*
X37084000Y-56642000D03*
X66294000Y-48260000D03*
X60198000Y-45974000D03*
X60198000Y-43434000D03*
X65532000Y-35052000D03*
X76962000Y-44450000D03*
X62738000Y-79756000D03*
X96012000Y-56134000D03*
X41656000Y-78486000D03*
X73914000Y-44450000D03*
%TO.N,+5VA*%
X88900000Y-75184000D03*
X48260000Y-76454000D03*
X77216000Y-59436000D03*
X57658000Y-57912000D03*
X74168000Y-74168000D03*
%TO.N,-5VA*%
X78486000Y-81534000D03*
X64554500Y-81495500D03*
X69596000Y-53848000D03*
X50205500Y-75270500D03*
X87122000Y-54864000D03*
%TO.N,Net-(C14-Pad1)*%
X58674000Y-76708000D03*
%TO.N,Net-(C14-Pad2)*%
X64524000Y-76716000D03*
%TO.N,Net-(C17-Pad2)*%
X75438000Y-78232000D03*
%TO.N,Net-(C13-Pad2)*%
X91694000Y-76454000D03*
%TO.N,Net-(C26-Pad1)*%
X57658000Y-55626000D03*
%TD*%
D35*
%TO.N,+5V*%
X32598500Y-75270500D02*
X32512000Y-75184000D01*
X36526500Y-74812000D02*
X38615000Y-74812000D01*
X30163000Y-55118000D02*
X30086000Y-55041000D01*
X32512000Y-55118000D02*
X30163000Y-55118000D01*
X36068000Y-75270500D02*
X36526500Y-74812000D01*
X30226000Y-49453000D02*
X30226000Y-48006000D01*
X36068000Y-75270500D02*
X32598500Y-75270500D01*
D36*
%TO.N,-5V*%
X38188500Y-77924500D02*
X38614000Y-78350000D01*
X34343500Y-77924500D02*
X34290000Y-77978000D01*
D35*
X37338000Y-48006000D02*
X37338000Y-49380000D01*
D36*
X35809000Y-77924500D02*
X34343500Y-77924500D01*
X35809000Y-77924500D02*
X38188500Y-77924500D01*
D35*
X37338000Y-49380000D02*
X37196000Y-49522000D01*
X34336500Y-55071500D02*
X37183000Y-55071500D01*
X34290000Y-55118000D02*
X34336500Y-55071500D01*
%TO.N,-VDC*%
X52324000Y-72364000D02*
X52324000Y-70866000D01*
X44196000Y-49371500D02*
X44196000Y-48006000D01*
%TO.N,Earth*%
X90424000Y-61660500D02*
X90424000Y-60198000D01*
X30226000Y-52578000D02*
X30226000Y-51308000D01*
X30226000Y-51308000D02*
X30226000Y-51054000D01*
X65151000Y-77851000D02*
X65024000Y-77978000D01*
X73660000Y-61252500D02*
X70966000Y-61252500D01*
X35809000Y-79507000D02*
X35814000Y-79502000D01*
X37183000Y-58196500D02*
X37183000Y-56741000D01*
X48129000Y-79125000D02*
X48006000Y-79248000D01*
X30086000Y-56756000D02*
X29972000Y-56642000D01*
X61429500Y-79756000D02*
X62738000Y-79756000D01*
X44308000Y-52608500D02*
X44308000Y-51166000D01*
X45715000Y-79243000D02*
X45720000Y-79248000D01*
X48129000Y-77924500D02*
X48129000Y-79125000D01*
X80010000Y-84620500D02*
X80010000Y-83312000D01*
X45720000Y-72145500D02*
X45720000Y-73660000D01*
X88900000Y-73621500D02*
X87414500Y-73621500D01*
D36*
X40895000Y-72643000D02*
X40894000Y-72644000D01*
D35*
X59436000Y-61506500D02*
X59436000Y-62738000D01*
X45715000Y-77924500D02*
X45715000Y-79243000D01*
X91440000Y-71374000D02*
X91440000Y-68834000D01*
X94234000Y-58381500D02*
X94234000Y-59944000D01*
X44308000Y-51166000D02*
X44196000Y-51054000D01*
X73660000Y-59690000D02*
X73660000Y-61252500D01*
X78994000Y-62522500D02*
X78994000Y-61214000D01*
X48260000Y-72145500D02*
X48260000Y-73660000D01*
D36*
X43174000Y-78350000D02*
X41792000Y-78350000D01*
D35*
X87414500Y-73621500D02*
X87376000Y-73660000D01*
X89154000Y-53047500D02*
X89154000Y-54356000D01*
X37183000Y-56741000D02*
X37084000Y-56642000D01*
X36068000Y-72145500D02*
X36068000Y-73660000D01*
D36*
X41792000Y-78350000D02*
X41656000Y-78486000D01*
D35*
X81345000Y-78105000D02*
X79629000Y-78105000D01*
X69596000Y-52031500D02*
X67856500Y-52031500D01*
X35809000Y-81049500D02*
X35809000Y-79507000D01*
X77254500Y-75692000D02*
X78740000Y-75692000D01*
X52324000Y-80977000D02*
X52324000Y-79756000D01*
D36*
X40895000Y-68512000D02*
X40895000Y-72643000D01*
D35*
X66867000Y-77851000D02*
X65151000Y-77851000D01*
X79629000Y-78105000D02*
X79502000Y-78232000D01*
X67856500Y-52031500D02*
X67818000Y-52070000D01*
X92902500Y-68834000D02*
X91440000Y-68834000D01*
X37196000Y-52647000D02*
X37196000Y-51166000D01*
X37196000Y-51166000D02*
X37084000Y-51054000D01*
X30086000Y-58166000D02*
X30086000Y-56756000D01*
X70966000Y-61252500D02*
X70866000Y-61152500D01*
%TO.N,+5VA*%
X81599000Y-59055000D02*
X79336500Y-59055000D01*
X59778500Y-58039000D02*
X59436000Y-58381500D01*
X62041000Y-58039000D02*
X59778500Y-58039000D01*
X88811500Y-76835000D02*
X88900000Y-76746500D01*
X59436000Y-58381500D02*
X58127500Y-58381500D01*
X71817000Y-76581000D02*
X73240500Y-76581000D01*
D36*
X45261500Y-74812000D02*
X45720000Y-75270500D01*
D35*
X78994000Y-59397500D02*
X77254500Y-59397500D01*
X74129500Y-74206500D02*
X74129500Y-75692000D01*
X88900000Y-75184000D02*
X88900000Y-76746500D01*
X48260000Y-75270500D02*
X45720000Y-75270500D01*
X48260000Y-75270500D02*
X48260000Y-76454000D01*
X74168000Y-74168000D02*
X74129500Y-74206500D01*
X45480500Y-75031000D02*
X45720000Y-75270500D01*
X58127500Y-58381500D02*
X57658000Y-57912000D01*
X86295000Y-76835000D02*
X88811500Y-76835000D01*
X57658000Y-57912000D02*
X56896000Y-57150000D01*
D36*
X43175000Y-74812000D02*
X45261500Y-74812000D01*
D35*
X56896000Y-57150000D02*
X49530000Y-57150000D01*
X73240500Y-76581000D02*
X74129500Y-75692000D01*
%TO.N,-5VA*%
X69253500Y-55499000D02*
X69596000Y-55156500D01*
X50205500Y-78973000D02*
X48129000Y-81049500D01*
D36*
X48129000Y-81049500D02*
X45715000Y-81049500D01*
D35*
X66991000Y-55499000D02*
X69253500Y-55499000D01*
X81345000Y-79375000D02*
X81345000Y-80160500D01*
X64554500Y-79756000D02*
X64554500Y-81495500D01*
X80010000Y-81495500D02*
X78524500Y-81495500D01*
X89154000Y-56172500D02*
X88430500Y-56172500D01*
D36*
X45715000Y-81049500D02*
X44494500Y-81049500D01*
D35*
X78524500Y-81495500D02*
X78486000Y-81534000D01*
X65189500Y-79121000D02*
X64554500Y-79756000D01*
X66867000Y-79121000D02*
X65189500Y-79121000D01*
X69596000Y-53848000D02*
X69596000Y-55156500D01*
X88430500Y-56172500D02*
X87122000Y-54864000D01*
D36*
X44494500Y-81049500D02*
X40894000Y-84650000D01*
D35*
X86549000Y-56515000D02*
X88811500Y-56515000D01*
X81345000Y-80160500D02*
X80010000Y-81495500D01*
X50205500Y-75270500D02*
X50205500Y-78973000D01*
%TO.N,Net-(C12-Pad2)*%
X52324000Y-76708000D02*
X54417500Y-76708000D01*
X52324000Y-78027000D02*
X52324000Y-76708000D01*
X52324000Y-75464000D02*
X52324000Y-76708000D01*
%TO.N,Net-(C13-Pad1)*%
X94365000Y-66355500D02*
X94426500Y-66294000D01*
X94234000Y-73621500D02*
X94234000Y-71505000D01*
X94234000Y-71505000D02*
X94365000Y-71374000D01*
X94365000Y-68834000D02*
X94365000Y-66355500D01*
X94365000Y-68834000D02*
X94365000Y-71374000D01*
%TO.N,Net-(C14-Pad1)*%
X59985000Y-76708000D02*
X59993000Y-76716000D01*
X58674000Y-76708000D02*
X59985000Y-76708000D01*
X57342500Y-76708000D02*
X58674000Y-76708000D01*
%TO.N,Net-(C14-Pad2)*%
X67879500Y-84061500D02*
X67867000Y-84074000D01*
X67945000Y-76581000D02*
X66867000Y-76581000D01*
X66867000Y-76581000D02*
X66732000Y-76716000D01*
X66732000Y-76716000D02*
X64524000Y-76716000D01*
X67879500Y-81534000D02*
X67879500Y-84061500D01*
X67879500Y-81534000D02*
X68834000Y-80579500D01*
X68834000Y-80579500D02*
X68834000Y-77470000D01*
X62943000Y-76716000D02*
X64524000Y-76716000D01*
X68834000Y-77470000D02*
X67945000Y-76581000D01*
%TO.N,Net-(C17-Pad2)*%
X70817000Y-81546500D02*
X70804500Y-81534000D01*
X71817000Y-77851000D02*
X73594500Y-77851000D01*
X70817000Y-84074000D02*
X70817000Y-81546500D01*
X73975500Y-78232000D02*
X75438000Y-78232000D01*
X70485000Y-77851000D02*
X71817000Y-77851000D01*
X69850000Y-80579500D02*
X69850000Y-78486000D01*
X69850000Y-78486000D02*
X70485000Y-77851000D01*
X70804500Y-81534000D02*
X69850000Y-80579500D01*
X73594500Y-77851000D02*
X73975500Y-78232000D01*
%TO.N,Net-(C21-Pad2)*%
X88138000Y-66294000D02*
X91501500Y-66294000D01*
X85636500Y-67056000D02*
X87376000Y-67056000D01*
X87376000Y-67056000D02*
X88138000Y-66294000D01*
X91501500Y-66294000D02*
X91501500Y-63754000D01*
%TO.N,Net-(C28-Pad2)*%
X84582000Y-59944000D02*
X85471000Y-59055000D01*
X90104500Y-59055000D02*
X90424000Y-58735500D01*
X85536500Y-62484000D02*
X85536500Y-64670000D01*
X85471000Y-59055000D02*
X86549000Y-59055000D01*
X84582000Y-61529500D02*
X84582000Y-59944000D01*
X85536500Y-62484000D02*
X84582000Y-61529500D01*
X85536500Y-64670000D02*
X85636500Y-64770000D01*
X86549000Y-59055000D02*
X90104500Y-59055000D01*
%TO.N,Net-(J4-Pad2)*%
X84821000Y-44373500D02*
X84821000Y-47244000D01*
X84643500Y-44196000D02*
X84821000Y-44373500D01*
D36*
%TO.N,Net-(J5-Pad1)*%
X97282000Y-49022000D02*
X97282000Y-81026000D01*
X84328000Y-38608000D02*
X86868000Y-38608000D01*
X97282000Y-81026000D02*
X96073500Y-82234500D01*
X96073500Y-82234500D02*
X88900000Y-82234500D01*
X86868000Y-38608000D02*
X97282000Y-49022000D01*
%TO.N,Net-(J6-Pad1)*%
X59436000Y-53401500D02*
X64770000Y-48067500D01*
X64770000Y-48067500D02*
X64770000Y-40132000D01*
X64770000Y-40132000D02*
X66294000Y-38608000D01*
X66294000Y-38608000D02*
X70612000Y-38608000D01*
D35*
%TO.N,Net-(C13-Pad2)*%
X88900000Y-79309500D02*
X88900000Y-77978000D01*
X88900000Y-77978000D02*
X91694000Y-77978000D01*
X85282500Y-82042000D02*
X84582000Y-81341500D01*
X84582000Y-81341500D02*
X84582000Y-78740000D01*
X91694000Y-77978000D02*
X93002500Y-77978000D01*
X84582000Y-78740000D02*
X85217000Y-78105000D01*
X87568500Y-44196000D02*
X87361000Y-44403500D01*
X91694000Y-77978000D02*
X91694000Y-76454000D01*
X93002500Y-77978000D02*
X94234000Y-76746500D01*
X86422000Y-77978000D02*
X88900000Y-77978000D01*
X85217000Y-78105000D02*
X86295000Y-78105000D01*
X87361000Y-44403500D02*
X87361000Y-47244000D01*
X85382500Y-84582000D02*
X85382500Y-82142000D01*
X85382500Y-82142000D02*
X85282500Y-82042000D01*
%TO.N,Net-(C18-Pad2)*%
X91567000Y-57785000D02*
X92456000Y-58674000D01*
X94426500Y-63754000D02*
X94426500Y-61699000D01*
X92456000Y-60960000D02*
X93002500Y-61506500D01*
X92456000Y-58674000D02*
X92456000Y-60960000D01*
X94426500Y-61699000D02*
X94234000Y-61506500D01*
X86549000Y-57785000D02*
X91567000Y-57785000D01*
X93002500Y-61506500D02*
X94234000Y-61506500D01*
%TO.N,Net-(C21-Pad1)*%
X81599000Y-57785000D02*
X79821500Y-57785000D01*
X82611500Y-62484000D02*
X82611500Y-64924000D01*
X82611500Y-62484000D02*
X83312000Y-61783500D01*
X79821500Y-57785000D02*
X79186500Y-57150000D01*
X82677000Y-57785000D02*
X81599000Y-57785000D01*
X83312000Y-58420000D02*
X82677000Y-57785000D01*
X82511500Y-67056000D02*
X82511500Y-64770000D01*
X83312000Y-61783500D02*
X83312000Y-58420000D01*
%TO.N,Net-(C23-Pad2)*%
X72301500Y-56769000D02*
X73660000Y-58127500D01*
X71943500Y-54610000D02*
X71943500Y-56703500D01*
X72009000Y-56769000D02*
X72301500Y-56769000D01*
X66991000Y-56769000D02*
X72009000Y-56769000D01*
X71943500Y-56703500D02*
X72009000Y-56769000D01*
%TO.N,Net-(C26-Pad1)*%
X63119000Y-56769000D02*
X62041000Y-56769000D01*
X63754000Y-60767500D02*
X63754000Y-57404000D01*
X58358500Y-56326500D02*
X57658000Y-55626000D01*
X59436000Y-56326500D02*
X58358500Y-56326500D01*
X62953500Y-66548000D02*
X62953500Y-64008000D01*
X62953500Y-64008000D02*
X62953500Y-61568000D01*
X62041000Y-56769000D02*
X59878500Y-56769000D01*
X63053500Y-61468000D02*
X63754000Y-60767500D01*
X59878500Y-56769000D02*
X59436000Y-56326500D01*
X62953500Y-61568000D02*
X63053500Y-61468000D01*
X63754000Y-57404000D02*
X63119000Y-56769000D01*
%TO.N,Net-(C26-Pad2)*%
X76261500Y-56003000D02*
X74868500Y-54610000D01*
X71882000Y-66548000D02*
X66078500Y-66548000D01*
X76261500Y-57150000D02*
X76261500Y-56003000D01*
X76261500Y-62168500D02*
X71882000Y-66548000D01*
X76261500Y-57150000D02*
X76261500Y-62168500D01*
%TO.N,Net-(C29-Pad2)*%
X78232000Y-78232000D02*
X79629000Y-76835000D01*
X82257500Y-82142000D02*
X82357500Y-82042000D01*
X76900500Y-78232000D02*
X78232000Y-78232000D01*
X83312000Y-81087500D02*
X83312000Y-78425928D01*
X82357500Y-82042000D02*
X83312000Y-81087500D01*
X79629000Y-76835000D02*
X81345000Y-76835000D01*
X83312000Y-78425928D02*
X81721072Y-76835000D01*
X82257500Y-84582000D02*
X82257500Y-82142000D01*
%TO.N,Net-(C30-Pad2)*%
X65024000Y-58420000D02*
X65405000Y-58039000D01*
X65024000Y-60960000D02*
X65024000Y-58420000D01*
X65405000Y-58039000D02*
X66991000Y-58039000D01*
X65532000Y-61468000D02*
X65024000Y-60960000D01*
X65978500Y-61468000D02*
X65532000Y-61468000D01*
X66078500Y-61568000D02*
X65978500Y-61468000D01*
X66078500Y-64008000D02*
X66078500Y-61568000D01*
X70677500Y-58039000D02*
X70866000Y-58227500D01*
X66991000Y-58039000D02*
X70677500Y-58039000D01*
%TD*%
M02*
