%TF.GenerationSoftware,KiCad,Pcbnew,(6.0.1)*%
%TF.CreationDate,2022-07-28T11:00:42-05:00*%
%TF.ProjectId,proton_detector_amplifier,70726f74-6f6e-45f6-9465-746563746f72,rev?*%
%TF.SameCoordinates,Original*%
%TF.FileFunction,Copper,L3,Inr*%
%TF.FilePolarity,Positive*%
%FSLAX46Y46*%
G04 Gerber Fmt 4.6, Leading zero omitted, Abs format (unit mm)*
G04 Created by KiCad (PCBNEW (6.0.1)) date 2022-07-28 11:00:42*
%MOMM*%
%LPD*%
G01*
G04 APERTURE LIST*
%TA.AperFunction,ComponentPad*%
%ADD10C,0.800000*%
%TD*%
%TA.AperFunction,ComponentPad*%
%ADD11C,7.000000*%
%TD*%
%TA.AperFunction,ComponentPad*%
%ADD12R,1.700000X1.700000*%
%TD*%
%TA.AperFunction,ComponentPad*%
%ADD13C,2.050000*%
%TD*%
%TA.AperFunction,ComponentPad*%
%ADD14C,2.250000*%
%TD*%
%TA.AperFunction,ComponentPad*%
%ADD15R,2.400000X2.400000*%
%TD*%
%TA.AperFunction,ComponentPad*%
%ADD16C,2.400000*%
%TD*%
%TA.AperFunction,ComponentPad*%
%ADD17O,1.700000X1.700000*%
%TD*%
%TA.AperFunction,ViaPad*%
%ADD18C,0.800000*%
%TD*%
%TA.AperFunction,Conductor*%
%ADD19C,0.250000*%
%TD*%
G04 APERTURE END LIST*
D10*
%TO.N,N/C*%
%TO.C,H2*%
X33867000Y-38100000D03*
X31242000Y-35475000D03*
D11*
X31242000Y-38100000D03*
D10*
X29385845Y-36243845D03*
X33098155Y-36243845D03*
X33098155Y-39956155D03*
X29385845Y-39956155D03*
X31242000Y-40725000D03*
X28617000Y-38100000D03*
%TD*%
D12*
%TO.N,+5V*%
%TO.C,+9V*%
X30480000Y-62738000D03*
%TD*%
D13*
%TO.N,Net-(C14-Pad1)*%
%TO.C,J2*%
X58674000Y-89916000D03*
D14*
%TO.N,Earth*%
X61214000Y-87376000D03*
X56134000Y-87376000D03*
X61214000Y-92456000D03*
X56134000Y-92456000D03*
%TD*%
D12*
%TO.N,-VDC*%
%TO.C,-60V*%
X43180000Y-62786000D03*
%TD*%
%TO.N,-5VA*%
%TO.C,-5VA*%
X43180000Y-57150000D03*
%TD*%
D10*
%TO.N,N/C*%
%TO.C,H4*%
X93387000Y-90170000D03*
X97868155Y-92026155D03*
X96012000Y-87545000D03*
X94155845Y-88313845D03*
D11*
X96012000Y-90170000D03*
D10*
X98637000Y-90170000D03*
X94155845Y-92026155D03*
X96012000Y-92795000D03*
X97868155Y-88313845D03*
%TD*%
D12*
%TO.N,-5V*%
%TO.C,-9V*%
X36830000Y-62738000D03*
%TD*%
%TO.N,Earth*%
%TO.C,GND*%
X49530000Y-62786000D03*
%TD*%
D13*
%TO.N,Net-(J6-Pad1)*%
%TO.C,J6*%
X70612000Y-38608000D03*
D14*
%TO.N,Earth*%
X73152000Y-41148000D03*
X73152000Y-36068000D03*
X68072000Y-41148000D03*
X68072000Y-36068000D03*
%TD*%
D13*
%TO.N,Net-(J5-Pad1)*%
%TO.C,J5*%
X84328000Y-38608000D03*
D14*
%TO.N,Earth*%
X81788000Y-41148000D03*
X86868000Y-41148000D03*
X86868000Y-36068000D03*
X81788000Y-36068000D03*
%TD*%
D10*
%TO.N,N/C*%
%TO.C,H3*%
X33098155Y-92026155D03*
X31242000Y-87545000D03*
X28617000Y-90170000D03*
D11*
X31242000Y-90170000D03*
D10*
X33098155Y-88313845D03*
X29385845Y-88313845D03*
X31242000Y-92795000D03*
X29385845Y-92026155D03*
X33867000Y-90170000D03*
%TD*%
D15*
%TO.N,+5V*%
%TO.C,J1*%
X43828000Y-38508000D03*
D16*
%TO.N,Earth*%
X47328000Y-38508000D03*
%TO.N,-5V*%
X50828000Y-38508000D03*
%TO.N,Earth*%
X54328000Y-38508000D03*
%TO.N,-VDC*%
X57828000Y-38508000D03*
%TO.N,Earth*%
X61328000Y-38508000D03*
%TD*%
D12*
%TO.N,Net-(C14-Pad2)*%
%TO.C,J3*%
X64531000Y-70866000D03*
D17*
%TO.N,Earth*%
X67071000Y-70866000D03*
%TO.N,unconnected-(J3-Pad3)*%
X69611000Y-70866000D03*
%TO.N,Earth*%
X72151000Y-70866000D03*
%TO.N,-5VA*%
X74691000Y-70866000D03*
%TO.N,+5VA*%
X77231000Y-70866000D03*
%TO.N,Earth*%
X79771000Y-70866000D03*
%TO.N,Net-(C17-Pad2)*%
X82311000Y-70866000D03*
%TD*%
D12*
%TO.N,Net-(C13-Pad2)*%
%TO.C,J4*%
X87361000Y-47244000D03*
D17*
%TO.N,Net-(J4-Pad2)*%
X84821000Y-47244000D03*
%TO.N,Earth*%
X82281000Y-47244000D03*
%TO.N,-5VA*%
X79741000Y-47244000D03*
%TO.N,+5VA*%
X77201000Y-47244000D03*
%TO.N,Earth*%
X74661000Y-47244000D03*
X72121000Y-47244000D03*
%TO.N,Net-(C26-Pad1)*%
X69581000Y-47244000D03*
%TD*%
D11*
%TO.N,N/C*%
%TO.C,H1*%
X96012000Y-38100000D03*
D10*
X94155845Y-36243845D03*
X93387000Y-38100000D03*
X94155845Y-39956155D03*
X96012000Y-35475000D03*
X96012000Y-40725000D03*
X97868155Y-39956155D03*
X98637000Y-38100000D03*
X97868155Y-36243845D03*
%TD*%
D12*
%TO.N,+5VA*%
%TO.C,+5VA*%
X49530000Y-57150000D03*
%TD*%
D18*
%TO.N,+5V*%
X30226000Y-48006000D03*
X32512000Y-55118000D03*
X32512000Y-75184000D03*
%TO.N,-5V*%
X34290000Y-55118000D03*
X34290000Y-77978000D03*
X37338000Y-48006000D03*
%TO.N,-VDC*%
X52324000Y-70866000D03*
X44196000Y-48006000D03*
%TO.N,Earth*%
X97282000Y-42672000D03*
X99060000Y-41656000D03*
X52324000Y-79756000D03*
X99060000Y-64770000D03*
X99060000Y-78994000D03*
X91440000Y-38100000D03*
X60198000Y-35052000D03*
X72390000Y-44450000D03*
X99060000Y-55880000D03*
X96012000Y-70358000D03*
X99060000Y-82550000D03*
X91948000Y-40132000D03*
X94234000Y-59944000D03*
X91440000Y-84328000D03*
X36068000Y-73660000D03*
X87376000Y-73660000D03*
X96012000Y-68580000D03*
X91694000Y-36322000D03*
X92964000Y-48260000D03*
X96012000Y-61468000D03*
X99060000Y-59436000D03*
X90678000Y-35052000D03*
X89154000Y-35052000D03*
X93218000Y-41656000D03*
X62992000Y-52324000D03*
X60198000Y-40894000D03*
X99060000Y-46990000D03*
X96012000Y-79248000D03*
X96012000Y-72136000D03*
X99060000Y-84328000D03*
X93218000Y-84328000D03*
X91694000Y-46990000D03*
X99060000Y-52324000D03*
X70866000Y-44450000D03*
X29972000Y-56642000D03*
X75438000Y-44450000D03*
X99060000Y-54102000D03*
X45720000Y-79248000D03*
X63754000Y-35052000D03*
X78740000Y-35052000D03*
X96012000Y-57912000D03*
X97028000Y-84328000D03*
X66294000Y-52324000D03*
X48006000Y-79248000D03*
X67818000Y-52070000D03*
X40894000Y-72644000D03*
X35814000Y-79502000D03*
X59177701Y-48255701D03*
X48260000Y-73660000D03*
X66294000Y-44450000D03*
X88138000Y-84328000D03*
X77216000Y-35052000D03*
X89662000Y-84328000D03*
X99060000Y-73660000D03*
X90678000Y-80010000D03*
X99060000Y-77216000D03*
X99060000Y-66548000D03*
X64516000Y-52324000D03*
X90424000Y-45720000D03*
X94996000Y-84328000D03*
X80010000Y-83312000D03*
X82296000Y-44958000D03*
X92902500Y-68834000D03*
X67818000Y-44450000D03*
X99060000Y-61214000D03*
X66294000Y-46228000D03*
X96012000Y-59690000D03*
X37084000Y-51054000D03*
X59436000Y-62738000D03*
X99060000Y-45212000D03*
X96012000Y-73914000D03*
X79502000Y-78232000D03*
X99060000Y-68326000D03*
X89154000Y-54356000D03*
X58161701Y-49271701D03*
X58674000Y-52070000D03*
X99060000Y-57658000D03*
X90424000Y-60198000D03*
X78994000Y-61214000D03*
X96012000Y-65024000D03*
X69342000Y-44450000D03*
X30226000Y-51054000D03*
X99060000Y-50546000D03*
X96012000Y-77470000D03*
X95504000Y-50800000D03*
X75692000Y-35052000D03*
X99060000Y-80772000D03*
X80772000Y-44958000D03*
X65024000Y-77978000D03*
X92456000Y-80010000D03*
X99060000Y-62992000D03*
X79248000Y-44958000D03*
X94996000Y-42672000D03*
X66294000Y-50038000D03*
X99060000Y-48768000D03*
X96012000Y-52578000D03*
X92456000Y-35052000D03*
X78740000Y-75692000D03*
X99060000Y-71882000D03*
X73660000Y-59690000D03*
X94234000Y-80010000D03*
X99060000Y-43434000D03*
X99060000Y-75438000D03*
X89154000Y-44704000D03*
X96012000Y-66802000D03*
X96012000Y-63246000D03*
X96012000Y-75692000D03*
X44196000Y-51054000D03*
X96012000Y-54356000D03*
X99060000Y-70104000D03*
X45720000Y-73660000D03*
X94234000Y-49530000D03*
X61976000Y-35052000D03*
X37084000Y-56642000D03*
X66294000Y-48260000D03*
X60198000Y-45974000D03*
X60198000Y-43434000D03*
X65532000Y-35052000D03*
X76962000Y-44450000D03*
X62738000Y-79756000D03*
X96012000Y-56134000D03*
X41656000Y-78486000D03*
X73914000Y-44450000D03*
%TO.N,+5VA*%
X88900000Y-75184000D03*
X48260000Y-76454000D03*
X77216000Y-59436000D03*
X57658000Y-57912000D03*
X74168000Y-74168000D03*
%TO.N,-5VA*%
X78486000Y-81534000D03*
X64554500Y-81495500D03*
X69596000Y-53848000D03*
X50205500Y-75270500D03*
X87122000Y-54864000D03*
%TO.N,Net-(C14-Pad1)*%
X58674000Y-76708000D03*
%TO.N,Net-(C14-Pad2)*%
X64524000Y-76716000D03*
%TO.N,Net-(C17-Pad2)*%
X75438000Y-78232000D03*
%TO.N,Net-(C13-Pad2)*%
X91694000Y-76454000D03*
%TO.N,Net-(C26-Pad1)*%
X57658000Y-55626000D03*
%TD*%
D19*
%TO.N,+5VA*%
X81026000Y-74168000D02*
X77216000Y-74168000D01*
X77216000Y-74168000D02*
X77231000Y-74153000D01*
X75184000Y-86106000D02*
X84328000Y-76962000D01*
X62446511Y-53123489D02*
X57658000Y-57912000D01*
X88900000Y-75184000D02*
X86106000Y-75184000D01*
X80010000Y-64516000D02*
X80010000Y-60706000D01*
X77231000Y-74153000D02*
X77231000Y-70866000D01*
X75946000Y-56642000D02*
X77201000Y-55387000D01*
X50038000Y-81026000D02*
X54610000Y-85598000D01*
X77201000Y-55387000D02*
X77201000Y-47244000D01*
X77216000Y-59436000D02*
X77216000Y-58674000D01*
X63500000Y-86106000D02*
X75184000Y-86106000D01*
X81534000Y-74168000D02*
X81026000Y-74168000D01*
X81026000Y-74168000D02*
X81026000Y-65532000D01*
X86106000Y-75184000D02*
X84328000Y-76962000D01*
X80010000Y-60706000D02*
X77597000Y-58293000D01*
X50038000Y-78232000D02*
X50038000Y-81026000D01*
X77216000Y-58674000D02*
X77597000Y-58293000D01*
X48260000Y-76454000D02*
X50038000Y-78232000D01*
X62992000Y-85598000D02*
X63500000Y-86106000D01*
X81026000Y-65532000D02*
X80010000Y-64516000D01*
X74168000Y-74168000D02*
X77216000Y-74168000D01*
X54610000Y-85598000D02*
X62992000Y-85598000D01*
X75946000Y-56642000D02*
X72427489Y-53123489D01*
X77597000Y-58293000D02*
X75946000Y-56642000D01*
X84328000Y-76962000D02*
X81534000Y-74168000D01*
X72427489Y-53123489D02*
X62446511Y-53123489D01*
%TO.N,-5VA*%
X51562000Y-73914000D02*
X53657022Y-73914000D01*
X58166000Y-45212000D02*
X77709000Y-45212000D01*
X77709000Y-45212000D02*
X78605500Y-46108500D01*
X63500000Y-82550000D02*
X64554500Y-81495500D01*
X78605500Y-46108500D02*
X79741000Y-47244000D01*
X53657022Y-73914000D02*
X55626000Y-71945022D01*
X55626000Y-67818000D02*
X55626000Y-59690000D01*
X74550980Y-85469020D02*
X66419020Y-85469020D01*
X50205500Y-75270500D02*
X51562000Y-73914000D01*
X77470000Y-82550000D02*
X78486000Y-81534000D01*
X57485000Y-82550000D02*
X63500000Y-82550000D01*
X55626000Y-67818000D02*
X72898000Y-67818000D01*
X74691000Y-69611000D02*
X74691000Y-70866000D01*
X56973196Y-59690000D02*
X55626000Y-59690000D01*
X87122000Y-54864000D02*
X84836000Y-54864000D01*
X50205500Y-75270500D02*
X57485000Y-82550000D01*
X55626000Y-71945022D02*
X55626000Y-67818000D01*
X66802000Y-53848000D02*
X64387020Y-56262980D01*
X78375511Y-46338489D02*
X78605500Y-46108500D01*
X55626000Y-59690000D02*
X45720000Y-59690000D01*
X77470000Y-82550000D02*
X74550980Y-85469020D01*
X69596000Y-53848000D02*
X66802000Y-53848000D01*
X60400216Y-56262980D02*
X56973196Y-59690000D01*
X55626000Y-47752000D02*
X58166000Y-45212000D01*
X84836000Y-54864000D02*
X78375511Y-48403511D01*
X72898000Y-67818000D02*
X74691000Y-69611000D01*
X45720000Y-59690000D02*
X43180000Y-57150000D01*
X66419020Y-85469020D02*
X63500000Y-82550000D01*
X55626000Y-59690000D02*
X55626000Y-47752000D01*
X78375511Y-48403511D02*
X78375511Y-46338489D01*
X64387020Y-56262980D02*
X60400216Y-56262980D01*
%TO.N,Net-(C26-Pad1)*%
X61214000Y-47244000D02*
X69581000Y-47244000D01*
X57658000Y-50800000D02*
X57658000Y-55626000D01*
X59182000Y-49276000D02*
X61214000Y-47244000D01*
X59182000Y-49276000D02*
X57658000Y-50800000D01*
%TD*%
M02*
