%TF.GenerationSoftware,KiCad,Pcbnew,(6.0.1)*%
%TF.CreationDate,2022-07-28T11:00:42-05:00*%
%TF.ProjectId,proton_detector_amplifier,70726f74-6f6e-45f6-9465-746563746f72,rev?*%
%TF.SameCoordinates,Original*%
%TF.FileFunction,Legend,Top*%
%TF.FilePolarity,Positive*%
%FSLAX46Y46*%
G04 Gerber Fmt 4.6, Leading zero omitted, Abs format (unit mm)*
G04 Created by KiCad (PCBNEW (6.0.1)) date 2022-07-28 11:00:42*
%MOMM*%
%LPD*%
G01*
G04 APERTURE LIST*
%ADD10C,0.150000*%
%ADD11C,0.120000*%
G04 APERTURE END LIST*
D10*
X61968000Y-43434095D02*
X62015619Y-43338857D01*
X62015619Y-43196000D01*
X61968000Y-43053142D01*
X61872761Y-42957904D01*
X61777523Y-42910285D01*
X61587047Y-42862666D01*
X61444190Y-42862666D01*
X61253714Y-42910285D01*
X61158476Y-42957904D01*
X61063238Y-43053142D01*
X61015619Y-43196000D01*
X61015619Y-43291238D01*
X61063238Y-43434095D01*
X61110857Y-43481714D01*
X61444190Y-43481714D01*
X61444190Y-43291238D01*
X61015619Y-43910285D02*
X62015619Y-43910285D01*
X61015619Y-44481714D01*
X62015619Y-44481714D01*
X61015619Y-44957904D02*
X62015619Y-44957904D01*
X62015619Y-45196000D01*
X61968000Y-45338857D01*
X61872761Y-45434095D01*
X61777523Y-45481714D01*
X61587047Y-45529333D01*
X61444190Y-45529333D01*
X61253714Y-45481714D01*
X61158476Y-45434095D01*
X61063238Y-45338857D01*
X61015619Y-45196000D01*
X61015619Y-44957904D01*
X54602000Y-43434095D02*
X54649619Y-43338857D01*
X54649619Y-43196000D01*
X54602000Y-43053142D01*
X54506761Y-42957904D01*
X54411523Y-42910285D01*
X54221047Y-42862666D01*
X54078190Y-42862666D01*
X53887714Y-42910285D01*
X53792476Y-42957904D01*
X53697238Y-43053142D01*
X53649619Y-43196000D01*
X53649619Y-43291238D01*
X53697238Y-43434095D01*
X53744857Y-43481714D01*
X54078190Y-43481714D01*
X54078190Y-43291238D01*
X53649619Y-43910285D02*
X54649619Y-43910285D01*
X53649619Y-44481714D01*
X54649619Y-44481714D01*
X53649619Y-44957904D02*
X54649619Y-44957904D01*
X54649619Y-45196000D01*
X54602000Y-45338857D01*
X54506761Y-45434095D01*
X54411523Y-45481714D01*
X54221047Y-45529333D01*
X54078190Y-45529333D01*
X53887714Y-45481714D01*
X53792476Y-45434095D01*
X53697238Y-45338857D01*
X53649619Y-45196000D01*
X53649619Y-44957904D01*
X47998000Y-43434095D02*
X48045619Y-43338857D01*
X48045619Y-43196000D01*
X47998000Y-43053142D01*
X47902761Y-42957904D01*
X47807523Y-42910285D01*
X47617047Y-42862666D01*
X47474190Y-42862666D01*
X47283714Y-42910285D01*
X47188476Y-42957904D01*
X47093238Y-43053142D01*
X47045619Y-43196000D01*
X47045619Y-43291238D01*
X47093238Y-43434095D01*
X47140857Y-43481714D01*
X47474190Y-43481714D01*
X47474190Y-43291238D01*
X47045619Y-43910285D02*
X48045619Y-43910285D01*
X47045619Y-44481714D01*
X48045619Y-44481714D01*
X47045619Y-44957904D02*
X48045619Y-44957904D01*
X48045619Y-45196000D01*
X47998000Y-45338857D01*
X47902761Y-45434095D01*
X47807523Y-45481714D01*
X47617047Y-45529333D01*
X47474190Y-45529333D01*
X47283714Y-45481714D01*
X47188476Y-45434095D01*
X47093238Y-45338857D01*
X47045619Y-45196000D01*
X47045619Y-44957904D01*
X57840571Y-42942095D02*
X57840571Y-43704000D01*
X58459619Y-44608761D02*
X58459619Y-44418285D01*
X58412000Y-44323047D01*
X58364380Y-44275428D01*
X58221523Y-44180190D01*
X58031047Y-44132571D01*
X57650095Y-44132571D01*
X57554857Y-44180190D01*
X57507238Y-44227809D01*
X57459619Y-44323047D01*
X57459619Y-44513523D01*
X57507238Y-44608761D01*
X57554857Y-44656380D01*
X57650095Y-44704000D01*
X57888190Y-44704000D01*
X57983428Y-44656380D01*
X58031047Y-44608761D01*
X58078666Y-44513523D01*
X58078666Y-44323047D01*
X58031047Y-44227809D01*
X57983428Y-44180190D01*
X57888190Y-44132571D01*
X58459619Y-45323047D02*
X58459619Y-45418285D01*
X58412000Y-45513523D01*
X58364380Y-45561142D01*
X58269142Y-45608761D01*
X58078666Y-45656380D01*
X57840571Y-45656380D01*
X57650095Y-45608761D01*
X57554857Y-45561142D01*
X57507238Y-45513523D01*
X57459619Y-45418285D01*
X57459619Y-45323047D01*
X57507238Y-45227809D01*
X57554857Y-45180190D01*
X57650095Y-45132571D01*
X57840571Y-45084952D01*
X58078666Y-45084952D01*
X58269142Y-45132571D01*
X58364380Y-45180190D01*
X58412000Y-45227809D01*
X58459619Y-45323047D01*
X58459619Y-45942095D02*
X57459619Y-46275428D01*
X58459619Y-46608761D01*
X50728571Y-42910285D02*
X50728571Y-43672190D01*
X50347619Y-44196000D02*
X50347619Y-44386476D01*
X50395238Y-44481714D01*
X50442857Y-44529333D01*
X50585714Y-44624571D01*
X50776190Y-44672190D01*
X51157142Y-44672190D01*
X51252380Y-44624571D01*
X51300000Y-44576952D01*
X51347619Y-44481714D01*
X51347619Y-44291238D01*
X51300000Y-44196000D01*
X51252380Y-44148380D01*
X51157142Y-44100761D01*
X50919047Y-44100761D01*
X50823809Y-44148380D01*
X50776190Y-44196000D01*
X50728571Y-44291238D01*
X50728571Y-44481714D01*
X50776190Y-44576952D01*
X50823809Y-44624571D01*
X50919047Y-44672190D01*
X51347619Y-44957904D02*
X50347619Y-45291238D01*
X51347619Y-45624571D01*
X43870571Y-42910285D02*
X43870571Y-43672190D01*
X43489619Y-43291238D02*
X44251523Y-43291238D01*
X43489619Y-44196000D02*
X43489619Y-44386476D01*
X43537238Y-44481714D01*
X43584857Y-44529333D01*
X43727714Y-44624571D01*
X43918190Y-44672190D01*
X44299142Y-44672190D01*
X44394380Y-44624571D01*
X44442000Y-44576952D01*
X44489619Y-44481714D01*
X44489619Y-44291238D01*
X44442000Y-44196000D01*
X44394380Y-44148380D01*
X44299142Y-44100761D01*
X44061047Y-44100761D01*
X43965809Y-44148380D01*
X43918190Y-44196000D01*
X43870571Y-44291238D01*
X43870571Y-44481714D01*
X43918190Y-44576952D01*
X43965809Y-44624571D01*
X44061047Y-44672190D01*
X44489619Y-44957904D02*
X43489619Y-45291238D01*
X44489619Y-45624571D01*
X73112857Y-89012380D02*
X73112857Y-88012380D01*
X73684285Y-89012380D02*
X73255714Y-88440952D01*
X73684285Y-88012380D02*
X73112857Y-88583809D01*
X74112857Y-88917142D02*
X74160476Y-88964761D01*
X74112857Y-89012380D01*
X74065238Y-88964761D01*
X74112857Y-88917142D01*
X74112857Y-89012380D01*
X75303333Y-88964761D02*
X75446190Y-89012380D01*
X75684285Y-89012380D01*
X75779523Y-88964761D01*
X75827142Y-88917142D01*
X75874761Y-88821904D01*
X75874761Y-88726666D01*
X75827142Y-88631428D01*
X75779523Y-88583809D01*
X75684285Y-88536190D01*
X75493809Y-88488571D01*
X75398571Y-88440952D01*
X75350952Y-88393333D01*
X75303333Y-88298095D01*
X75303333Y-88202857D01*
X75350952Y-88107619D01*
X75398571Y-88060000D01*
X75493809Y-88012380D01*
X75731904Y-88012380D01*
X75874761Y-88060000D01*
X76731904Y-89012380D02*
X76731904Y-88488571D01*
X76684285Y-88393333D01*
X76589047Y-88345714D01*
X76398571Y-88345714D01*
X76303333Y-88393333D01*
X76731904Y-88964761D02*
X76636666Y-89012380D01*
X76398571Y-89012380D01*
X76303333Y-88964761D01*
X76255714Y-88869523D01*
X76255714Y-88774285D01*
X76303333Y-88679047D01*
X76398571Y-88631428D01*
X76636666Y-88631428D01*
X76731904Y-88583809D01*
X77208095Y-88345714D02*
X77208095Y-89012380D01*
X77208095Y-88440952D02*
X77255714Y-88393333D01*
X77350952Y-88345714D01*
X77493809Y-88345714D01*
X77589047Y-88393333D01*
X77636666Y-88488571D01*
X77636666Y-89012380D01*
X78017619Y-88345714D02*
X78208095Y-89012380D01*
X78398571Y-88536190D01*
X78589047Y-89012380D01*
X78779523Y-88345714D01*
X79589047Y-89012380D02*
X79589047Y-88488571D01*
X79541428Y-88393333D01*
X79446190Y-88345714D01*
X79255714Y-88345714D01*
X79160476Y-88393333D01*
X79589047Y-88964761D02*
X79493809Y-89012380D01*
X79255714Y-89012380D01*
X79160476Y-88964761D01*
X79112857Y-88869523D01*
X79112857Y-88774285D01*
X79160476Y-88679047D01*
X79255714Y-88631428D01*
X79493809Y-88631428D01*
X79589047Y-88583809D01*
X80208095Y-89012380D02*
X80112857Y-88964761D01*
X80065238Y-88869523D01*
X80065238Y-88012380D01*
X80589047Y-89012380D02*
X80589047Y-88012380D01*
X80684285Y-88631428D02*
X80970000Y-89012380D01*
X80970000Y-88345714D02*
X80589047Y-88726666D01*
X81827142Y-89012380D02*
X81827142Y-88488571D01*
X81779523Y-88393333D01*
X81684285Y-88345714D01*
X81493809Y-88345714D01*
X81398571Y-88393333D01*
X81827142Y-88964761D02*
X81731904Y-89012380D01*
X81493809Y-89012380D01*
X81398571Y-88964761D01*
X81350952Y-88869523D01*
X81350952Y-88774285D01*
X81398571Y-88679047D01*
X81493809Y-88631428D01*
X81731904Y-88631428D01*
X81827142Y-88583809D01*
X68279523Y-90527142D02*
X68231904Y-90574761D01*
X68089047Y-90622380D01*
X67993809Y-90622380D01*
X67850952Y-90574761D01*
X67755714Y-90479523D01*
X67708095Y-90384285D01*
X67660476Y-90193809D01*
X67660476Y-90050952D01*
X67708095Y-89860476D01*
X67755714Y-89765238D01*
X67850952Y-89670000D01*
X67993809Y-89622380D01*
X68089047Y-89622380D01*
X68231904Y-89670000D01*
X68279523Y-89717619D01*
X68708095Y-90622380D02*
X68708095Y-89622380D01*
X69136666Y-90622380D02*
X69136666Y-90098571D01*
X69089047Y-90003333D01*
X68993809Y-89955714D01*
X68850952Y-89955714D01*
X68755714Y-90003333D01*
X68708095Y-90050952D01*
X70041428Y-90622380D02*
X70041428Y-90098571D01*
X69993809Y-90003333D01*
X69898571Y-89955714D01*
X69708095Y-89955714D01*
X69612857Y-90003333D01*
X70041428Y-90574761D02*
X69946190Y-90622380D01*
X69708095Y-90622380D01*
X69612857Y-90574761D01*
X69565238Y-90479523D01*
X69565238Y-90384285D01*
X69612857Y-90289047D01*
X69708095Y-90241428D01*
X69946190Y-90241428D01*
X70041428Y-90193809D01*
X70517619Y-90622380D02*
X70517619Y-89955714D01*
X70517619Y-90146190D02*
X70565238Y-90050952D01*
X70612857Y-90003333D01*
X70708095Y-89955714D01*
X70803333Y-89955714D01*
X71565238Y-89955714D02*
X71565238Y-90765238D01*
X71517619Y-90860476D01*
X71470000Y-90908095D01*
X71374761Y-90955714D01*
X71231904Y-90955714D01*
X71136666Y-90908095D01*
X71565238Y-90574761D02*
X71470000Y-90622380D01*
X71279523Y-90622380D01*
X71184285Y-90574761D01*
X71136666Y-90527142D01*
X71089047Y-90431904D01*
X71089047Y-90146190D01*
X71136666Y-90050952D01*
X71184285Y-90003333D01*
X71279523Y-89955714D01*
X71470000Y-89955714D01*
X71565238Y-90003333D01*
X72422380Y-90574761D02*
X72327142Y-90622380D01*
X72136666Y-90622380D01*
X72041428Y-90574761D01*
X71993809Y-90479523D01*
X71993809Y-90098571D01*
X72041428Y-90003333D01*
X72136666Y-89955714D01*
X72327142Y-89955714D01*
X72422380Y-90003333D01*
X72470000Y-90098571D01*
X72470000Y-90193809D01*
X71993809Y-90289047D01*
X73612857Y-90574761D02*
X73755714Y-90622380D01*
X73993809Y-90622380D01*
X74089047Y-90574761D01*
X74136666Y-90527142D01*
X74184285Y-90431904D01*
X74184285Y-90336666D01*
X74136666Y-90241428D01*
X74089047Y-90193809D01*
X73993809Y-90146190D01*
X73803333Y-90098571D01*
X73708095Y-90050952D01*
X73660476Y-90003333D01*
X73612857Y-89908095D01*
X73612857Y-89812857D01*
X73660476Y-89717619D01*
X73708095Y-89670000D01*
X73803333Y-89622380D01*
X74041428Y-89622380D01*
X74184285Y-89670000D01*
X74993809Y-90574761D02*
X74898571Y-90622380D01*
X74708095Y-90622380D01*
X74612857Y-90574761D01*
X74565238Y-90479523D01*
X74565238Y-90098571D01*
X74612857Y-90003333D01*
X74708095Y-89955714D01*
X74898571Y-89955714D01*
X74993809Y-90003333D01*
X75041428Y-90098571D01*
X75041428Y-90193809D01*
X74565238Y-90289047D01*
X75470000Y-89955714D02*
X75470000Y-90622380D01*
X75470000Y-90050952D02*
X75517619Y-90003333D01*
X75612857Y-89955714D01*
X75755714Y-89955714D01*
X75850952Y-90003333D01*
X75898571Y-90098571D01*
X75898571Y-90622380D01*
X76327142Y-90574761D02*
X76422380Y-90622380D01*
X76612857Y-90622380D01*
X76708095Y-90574761D01*
X76755714Y-90479523D01*
X76755714Y-90431904D01*
X76708095Y-90336666D01*
X76612857Y-90289047D01*
X76470000Y-90289047D01*
X76374761Y-90241428D01*
X76327142Y-90146190D01*
X76327142Y-90098571D01*
X76374761Y-90003333D01*
X76470000Y-89955714D01*
X76612857Y-89955714D01*
X76708095Y-90003333D01*
X77184285Y-90622380D02*
X77184285Y-89955714D01*
X77184285Y-89622380D02*
X77136666Y-89670000D01*
X77184285Y-89717619D01*
X77231904Y-89670000D01*
X77184285Y-89622380D01*
X77184285Y-89717619D01*
X77517619Y-89955714D02*
X77898571Y-89955714D01*
X77660476Y-89622380D02*
X77660476Y-90479523D01*
X77708095Y-90574761D01*
X77803333Y-90622380D01*
X77898571Y-90622380D01*
X78231904Y-90622380D02*
X78231904Y-89955714D01*
X78231904Y-89622380D02*
X78184285Y-89670000D01*
X78231904Y-89717619D01*
X78279523Y-89670000D01*
X78231904Y-89622380D01*
X78231904Y-89717619D01*
X78612857Y-89955714D02*
X78850952Y-90622380D01*
X79089047Y-89955714D01*
X79850952Y-90574761D02*
X79755714Y-90622380D01*
X79565238Y-90622380D01*
X79470000Y-90574761D01*
X79422380Y-90479523D01*
X79422380Y-90098571D01*
X79470000Y-90003333D01*
X79565238Y-89955714D01*
X79755714Y-89955714D01*
X79850952Y-90003333D01*
X79898571Y-90098571D01*
X79898571Y-90193809D01*
X79422380Y-90289047D01*
X81041428Y-90336666D02*
X81517619Y-90336666D01*
X80946190Y-90622380D02*
X81279523Y-89622380D01*
X81612857Y-90622380D01*
X81946190Y-90622380D02*
X81946190Y-89955714D01*
X81946190Y-90050952D02*
X81993809Y-90003333D01*
X82089047Y-89955714D01*
X82231904Y-89955714D01*
X82327142Y-90003333D01*
X82374761Y-90098571D01*
X82374761Y-90622380D01*
X82374761Y-90098571D02*
X82422380Y-90003333D01*
X82517619Y-89955714D01*
X82660476Y-89955714D01*
X82755714Y-90003333D01*
X82803333Y-90098571D01*
X82803333Y-90622380D01*
X83279523Y-89955714D02*
X83279523Y-90955714D01*
X83279523Y-90003333D02*
X83374761Y-89955714D01*
X83565238Y-89955714D01*
X83660476Y-90003333D01*
X83708095Y-90050952D01*
X83755714Y-90146190D01*
X83755714Y-90431904D01*
X83708095Y-90527142D01*
X83660476Y-90574761D01*
X83565238Y-90622380D01*
X83374761Y-90622380D01*
X83279523Y-90574761D01*
X84327142Y-90622380D02*
X84231904Y-90574761D01*
X84184285Y-90479523D01*
X84184285Y-89622380D01*
X84708095Y-90622380D02*
X84708095Y-89955714D01*
X84708095Y-89622380D02*
X84660476Y-89670000D01*
X84708095Y-89717619D01*
X84755714Y-89670000D01*
X84708095Y-89622380D01*
X84708095Y-89717619D01*
X85041428Y-89955714D02*
X85422380Y-89955714D01*
X85184285Y-90622380D02*
X85184285Y-89765238D01*
X85231904Y-89670000D01*
X85327142Y-89622380D01*
X85422380Y-89622380D01*
X85755714Y-90622380D02*
X85755714Y-89955714D01*
X85755714Y-89622380D02*
X85708095Y-89670000D01*
X85755714Y-89717619D01*
X85803333Y-89670000D01*
X85755714Y-89622380D01*
X85755714Y-89717619D01*
X86612857Y-90574761D02*
X86517619Y-90622380D01*
X86327142Y-90622380D01*
X86231904Y-90574761D01*
X86184285Y-90479523D01*
X86184285Y-90098571D01*
X86231904Y-90003333D01*
X86327142Y-89955714D01*
X86517619Y-89955714D01*
X86612857Y-90003333D01*
X86660476Y-90098571D01*
X86660476Y-90193809D01*
X86184285Y-90289047D01*
X87089047Y-90622380D02*
X87089047Y-89955714D01*
X87089047Y-90146190D02*
X87136666Y-90050952D01*
X87184285Y-90003333D01*
X87279523Y-89955714D01*
X87374761Y-89955714D01*
X71493809Y-92232380D02*
X71160476Y-91756190D01*
X70922380Y-92232380D02*
X70922380Y-91232380D01*
X71303333Y-91232380D01*
X71398571Y-91280000D01*
X71446190Y-91327619D01*
X71493809Y-91422857D01*
X71493809Y-91565714D01*
X71446190Y-91660952D01*
X71398571Y-91708571D01*
X71303333Y-91756190D01*
X70922380Y-91756190D01*
X72303333Y-92184761D02*
X72208095Y-92232380D01*
X72017619Y-92232380D01*
X71922380Y-92184761D01*
X71874761Y-92089523D01*
X71874761Y-91708571D01*
X71922380Y-91613333D01*
X72017619Y-91565714D01*
X72208095Y-91565714D01*
X72303333Y-91613333D01*
X72350952Y-91708571D01*
X72350952Y-91803809D01*
X71874761Y-91899047D01*
X72684285Y-91565714D02*
X72922380Y-92232380D01*
X73160476Y-91565714D01*
X73541428Y-92137142D02*
X73589047Y-92184761D01*
X73541428Y-92232380D01*
X73493809Y-92184761D01*
X73541428Y-92137142D01*
X73541428Y-92232380D01*
X74731904Y-91327619D02*
X74779523Y-91280000D01*
X74874761Y-91232380D01*
X75112857Y-91232380D01*
X75208095Y-91280000D01*
X75255714Y-91327619D01*
X75303333Y-91422857D01*
X75303333Y-91518095D01*
X75255714Y-91660952D01*
X74684285Y-92232380D01*
X75303333Y-92232380D01*
X75779523Y-92184761D02*
X75779523Y-92232380D01*
X75731904Y-92327619D01*
X75684285Y-92375238D01*
X77255714Y-91232380D02*
X77255714Y-91946666D01*
X77208095Y-92089523D01*
X77112857Y-92184761D01*
X76970000Y-92232380D01*
X76874761Y-92232380D01*
X78160476Y-91565714D02*
X78160476Y-92232380D01*
X77731904Y-91565714D02*
X77731904Y-92089523D01*
X77779523Y-92184761D01*
X77874761Y-92232380D01*
X78017619Y-92232380D01*
X78112857Y-92184761D01*
X78160476Y-92137142D01*
X78779523Y-92232380D02*
X78684285Y-92184761D01*
X78636666Y-92089523D01*
X78636666Y-91232380D01*
X79065238Y-91565714D02*
X79303333Y-92232380D01*
X79541428Y-91565714D02*
X79303333Y-92232380D01*
X79208095Y-92470476D01*
X79160476Y-92518095D01*
X79065238Y-92565714D01*
X80636666Y-91327619D02*
X80684285Y-91280000D01*
X80779523Y-91232380D01*
X81017619Y-91232380D01*
X81112857Y-91280000D01*
X81160476Y-91327619D01*
X81208095Y-91422857D01*
X81208095Y-91518095D01*
X81160476Y-91660952D01*
X80589047Y-92232380D01*
X81208095Y-92232380D01*
X81827142Y-91232380D02*
X81922380Y-91232380D01*
X82017619Y-91280000D01*
X82065238Y-91327619D01*
X82112857Y-91422857D01*
X82160476Y-91613333D01*
X82160476Y-91851428D01*
X82112857Y-92041904D01*
X82065238Y-92137142D01*
X82017619Y-92184761D01*
X81922380Y-92232380D01*
X81827142Y-92232380D01*
X81731904Y-92184761D01*
X81684285Y-92137142D01*
X81636666Y-92041904D01*
X81589047Y-91851428D01*
X81589047Y-91613333D01*
X81636666Y-91422857D01*
X81684285Y-91327619D01*
X81731904Y-91280000D01*
X81827142Y-91232380D01*
X82541428Y-91327619D02*
X82589047Y-91280000D01*
X82684285Y-91232380D01*
X82922380Y-91232380D01*
X83017619Y-91280000D01*
X83065238Y-91327619D01*
X83112857Y-91422857D01*
X83112857Y-91518095D01*
X83065238Y-91660952D01*
X82493809Y-92232380D01*
X83112857Y-92232380D01*
X83493809Y-91327619D02*
X83541428Y-91280000D01*
X83636666Y-91232380D01*
X83874761Y-91232380D01*
X83970000Y-91280000D01*
X84017619Y-91327619D01*
X84065238Y-91422857D01*
X84065238Y-91518095D01*
X84017619Y-91660952D01*
X83446190Y-92232380D01*
X84065238Y-92232380D01*
%TO.C,C26*%
X59809142Y-66905142D02*
X59761523Y-66952761D01*
X59618666Y-67000380D01*
X59523428Y-67000380D01*
X59380571Y-66952761D01*
X59285333Y-66857523D01*
X59237714Y-66762285D01*
X59190095Y-66571809D01*
X59190095Y-66428952D01*
X59237714Y-66238476D01*
X59285333Y-66143238D01*
X59380571Y-66048000D01*
X59523428Y-66000380D01*
X59618666Y-66000380D01*
X59761523Y-66048000D01*
X59809142Y-66095619D01*
X60190095Y-66095619D02*
X60237714Y-66048000D01*
X60332952Y-66000380D01*
X60571047Y-66000380D01*
X60666285Y-66048000D01*
X60713904Y-66095619D01*
X60761523Y-66190857D01*
X60761523Y-66286095D01*
X60713904Y-66428952D01*
X60142476Y-67000380D01*
X60761523Y-67000380D01*
X61618666Y-66000380D02*
X61428190Y-66000380D01*
X61332952Y-66048000D01*
X61285333Y-66095619D01*
X61190095Y-66238476D01*
X61142476Y-66428952D01*
X61142476Y-66809904D01*
X61190095Y-66905142D01*
X61237714Y-66952761D01*
X61332952Y-67000380D01*
X61523428Y-67000380D01*
X61618666Y-66952761D01*
X61666285Y-66905142D01*
X61713904Y-66809904D01*
X61713904Y-66571809D01*
X61666285Y-66476571D01*
X61618666Y-66428952D01*
X61523428Y-66381333D01*
X61332952Y-66381333D01*
X61237714Y-66428952D01*
X61190095Y-66476571D01*
X61142476Y-66571809D01*
%TO.C,R6*%
X89495333Y-64206380D02*
X89162000Y-63730190D01*
X88923904Y-64206380D02*
X88923904Y-63206380D01*
X89304857Y-63206380D01*
X89400095Y-63254000D01*
X89447714Y-63301619D01*
X89495333Y-63396857D01*
X89495333Y-63539714D01*
X89447714Y-63634952D01*
X89400095Y-63682571D01*
X89304857Y-63730190D01*
X88923904Y-63730190D01*
X90352476Y-63206380D02*
X90162000Y-63206380D01*
X90066761Y-63254000D01*
X90019142Y-63301619D01*
X89923904Y-63444476D01*
X89876285Y-63634952D01*
X89876285Y-64015904D01*
X89923904Y-64111142D01*
X89971523Y-64158761D01*
X90066761Y-64206380D01*
X90257238Y-64206380D01*
X90352476Y-64158761D01*
X90400095Y-64111142D01*
X90447714Y-64015904D01*
X90447714Y-63777809D01*
X90400095Y-63682571D01*
X90352476Y-63634952D01*
X90257238Y-63587333D01*
X90066761Y-63587333D01*
X89971523Y-63634952D01*
X89923904Y-63682571D01*
X89876285Y-63777809D01*
%TO.C,C21*%
X79367142Y-67921142D02*
X79319523Y-67968761D01*
X79176666Y-68016380D01*
X79081428Y-68016380D01*
X78938571Y-67968761D01*
X78843333Y-67873523D01*
X78795714Y-67778285D01*
X78748095Y-67587809D01*
X78748095Y-67444952D01*
X78795714Y-67254476D01*
X78843333Y-67159238D01*
X78938571Y-67064000D01*
X79081428Y-67016380D01*
X79176666Y-67016380D01*
X79319523Y-67064000D01*
X79367142Y-67111619D01*
X79748095Y-67111619D02*
X79795714Y-67064000D01*
X79890952Y-67016380D01*
X80129047Y-67016380D01*
X80224285Y-67064000D01*
X80271904Y-67111619D01*
X80319523Y-67206857D01*
X80319523Y-67302095D01*
X80271904Y-67444952D01*
X79700476Y-68016380D01*
X80319523Y-68016380D01*
X81271904Y-68016380D02*
X80700476Y-68016380D01*
X80986190Y-68016380D02*
X80986190Y-67016380D01*
X80890952Y-67159238D01*
X80795714Y-67254476D01*
X80700476Y-67302095D01*
%TO.C,C20*%
X88511142Y-51665142D02*
X88463523Y-51712761D01*
X88320666Y-51760380D01*
X88225428Y-51760380D01*
X88082571Y-51712761D01*
X87987333Y-51617523D01*
X87939714Y-51522285D01*
X87892095Y-51331809D01*
X87892095Y-51188952D01*
X87939714Y-50998476D01*
X87987333Y-50903238D01*
X88082571Y-50808000D01*
X88225428Y-50760380D01*
X88320666Y-50760380D01*
X88463523Y-50808000D01*
X88511142Y-50855619D01*
X88892095Y-50855619D02*
X88939714Y-50808000D01*
X89034952Y-50760380D01*
X89273047Y-50760380D01*
X89368285Y-50808000D01*
X89415904Y-50855619D01*
X89463523Y-50950857D01*
X89463523Y-51046095D01*
X89415904Y-51188952D01*
X88844476Y-51760380D01*
X89463523Y-51760380D01*
X90082571Y-50760380D02*
X90177809Y-50760380D01*
X90273047Y-50808000D01*
X90320666Y-50855619D01*
X90368285Y-50950857D01*
X90415904Y-51141333D01*
X90415904Y-51379428D01*
X90368285Y-51569904D01*
X90320666Y-51665142D01*
X90273047Y-51712761D01*
X90177809Y-51760380D01*
X90082571Y-51760380D01*
X89987333Y-51712761D01*
X89939714Y-51665142D01*
X89892095Y-51569904D01*
X89844476Y-51379428D01*
X89844476Y-51141333D01*
X89892095Y-50950857D01*
X89939714Y-50855619D01*
X89987333Y-50808000D01*
X90082571Y-50760380D01*
%TO.C,IC2*%
X68365809Y-74268380D02*
X68365809Y-73268380D01*
X69413428Y-74173142D02*
X69365809Y-74220761D01*
X69222952Y-74268380D01*
X69127714Y-74268380D01*
X68984857Y-74220761D01*
X68889619Y-74125523D01*
X68842000Y-74030285D01*
X68794380Y-73839809D01*
X68794380Y-73696952D01*
X68842000Y-73506476D01*
X68889619Y-73411238D01*
X68984857Y-73316000D01*
X69127714Y-73268380D01*
X69222952Y-73268380D01*
X69365809Y-73316000D01*
X69413428Y-73363619D01*
X69794380Y-73363619D02*
X69842000Y-73316000D01*
X69937238Y-73268380D01*
X70175333Y-73268380D01*
X70270571Y-73316000D01*
X70318190Y-73363619D01*
X70365809Y-73458857D01*
X70365809Y-73554095D01*
X70318190Y-73696952D01*
X69746761Y-74268380D01*
X70365809Y-74268380D01*
%TO.C,R16*%
X69498380Y-60332857D02*
X69022190Y-60666190D01*
X69498380Y-60904285D02*
X68498380Y-60904285D01*
X68498380Y-60523333D01*
X68546000Y-60428095D01*
X68593619Y-60380476D01*
X68688857Y-60332857D01*
X68831714Y-60332857D01*
X68926952Y-60380476D01*
X68974571Y-60428095D01*
X69022190Y-60523333D01*
X69022190Y-60904285D01*
X69498380Y-59380476D02*
X69498380Y-59951904D01*
X69498380Y-59666190D02*
X68498380Y-59666190D01*
X68641238Y-59761428D01*
X68736476Y-59856666D01*
X68784095Y-59951904D01*
X68498380Y-58523333D02*
X68498380Y-58713809D01*
X68546000Y-58809047D01*
X68593619Y-58856666D01*
X68736476Y-58951904D01*
X68926952Y-58999523D01*
X69307904Y-58999523D01*
X69403142Y-58951904D01*
X69450761Y-58904285D01*
X69498380Y-58809047D01*
X69498380Y-58618571D01*
X69450761Y-58523333D01*
X69403142Y-58475714D01*
X69307904Y-58428095D01*
X69069809Y-58428095D01*
X68974571Y-58475714D01*
X68926952Y-58523333D01*
X68879333Y-58618571D01*
X68879333Y-58809047D01*
X68926952Y-58904285D01*
X68974571Y-58951904D01*
X69069809Y-58999523D01*
%TO.C,U1*%
X44704095Y-86828380D02*
X44704095Y-87637904D01*
X44751714Y-87733142D01*
X44799333Y-87780761D01*
X44894571Y-87828380D01*
X45085047Y-87828380D01*
X45180285Y-87780761D01*
X45227904Y-87733142D01*
X45275523Y-87637904D01*
X45275523Y-86828380D01*
X46275523Y-87828380D02*
X45704095Y-87828380D01*
X45989809Y-87828380D02*
X45989809Y-86828380D01*
X45894571Y-86971238D01*
X45799333Y-87066476D01*
X45704095Y-87114095D01*
%TO.C,R13*%
X72763142Y-53284380D02*
X72429809Y-52808190D01*
X72191714Y-53284380D02*
X72191714Y-52284380D01*
X72572666Y-52284380D01*
X72667904Y-52332000D01*
X72715523Y-52379619D01*
X72763142Y-52474857D01*
X72763142Y-52617714D01*
X72715523Y-52712952D01*
X72667904Y-52760571D01*
X72572666Y-52808190D01*
X72191714Y-52808190D01*
X73715523Y-53284380D02*
X73144095Y-53284380D01*
X73429809Y-53284380D02*
X73429809Y-52284380D01*
X73334571Y-52427238D01*
X73239333Y-52522476D01*
X73144095Y-52570095D01*
X74048857Y-52284380D02*
X74667904Y-52284380D01*
X74334571Y-52665333D01*
X74477428Y-52665333D01*
X74572666Y-52712952D01*
X74620285Y-52760571D01*
X74667904Y-52855809D01*
X74667904Y-53093904D01*
X74620285Y-53189142D01*
X74572666Y-53236761D01*
X74477428Y-53284380D01*
X74191714Y-53284380D01*
X74096476Y-53236761D01*
X74048857Y-53189142D01*
%TO.C,C10*%
X47617142Y-83161142D02*
X47569523Y-83208761D01*
X47426666Y-83256380D01*
X47331428Y-83256380D01*
X47188571Y-83208761D01*
X47093333Y-83113523D01*
X47045714Y-83018285D01*
X46998095Y-82827809D01*
X46998095Y-82684952D01*
X47045714Y-82494476D01*
X47093333Y-82399238D01*
X47188571Y-82304000D01*
X47331428Y-82256380D01*
X47426666Y-82256380D01*
X47569523Y-82304000D01*
X47617142Y-82351619D01*
X48569523Y-83256380D02*
X47998095Y-83256380D01*
X48283809Y-83256380D02*
X48283809Y-82256380D01*
X48188571Y-82399238D01*
X48093333Y-82494476D01*
X47998095Y-82542095D01*
X49188571Y-82256380D02*
X49283809Y-82256380D01*
X49379047Y-82304000D01*
X49426666Y-82351619D01*
X49474285Y-82446857D01*
X49521904Y-82637333D01*
X49521904Y-82875428D01*
X49474285Y-83065904D01*
X49426666Y-83161142D01*
X49379047Y-83208761D01*
X49283809Y-83256380D01*
X49188571Y-83256380D01*
X49093333Y-83208761D01*
X49045714Y-83161142D01*
X48998095Y-83065904D01*
X48950476Y-82875428D01*
X48950476Y-82637333D01*
X48998095Y-82446857D01*
X49045714Y-82351619D01*
X49093333Y-82304000D01*
X49188571Y-82256380D01*
%TO.C,R15*%
X56253142Y-53538380D02*
X55919809Y-53062190D01*
X55681714Y-53538380D02*
X55681714Y-52538380D01*
X56062666Y-52538380D01*
X56157904Y-52586000D01*
X56205523Y-52633619D01*
X56253142Y-52728857D01*
X56253142Y-52871714D01*
X56205523Y-52966952D01*
X56157904Y-53014571D01*
X56062666Y-53062190D01*
X55681714Y-53062190D01*
X57205523Y-53538380D02*
X56634095Y-53538380D01*
X56919809Y-53538380D02*
X56919809Y-52538380D01*
X56824571Y-52681238D01*
X56729333Y-52776476D01*
X56634095Y-52824095D01*
X58110285Y-52538380D02*
X57634095Y-52538380D01*
X57586476Y-53014571D01*
X57634095Y-52966952D01*
X57729333Y-52919333D01*
X57967428Y-52919333D01*
X58062666Y-52966952D01*
X58110285Y-53014571D01*
X58157904Y-53109809D01*
X58157904Y-53347904D01*
X58110285Y-53443142D01*
X58062666Y-53490761D01*
X57967428Y-53538380D01*
X57729333Y-53538380D01*
X57634095Y-53490761D01*
X57586476Y-53443142D01*
%TO.C,H2*%
X30480095Y-33726380D02*
X30480095Y-32726380D01*
X30480095Y-33202571D02*
X31051523Y-33202571D01*
X31051523Y-33726380D02*
X31051523Y-32726380D01*
X31480095Y-32821619D02*
X31527714Y-32774000D01*
X31622952Y-32726380D01*
X31861047Y-32726380D01*
X31956285Y-32774000D01*
X32003904Y-32821619D01*
X32051523Y-32916857D01*
X32051523Y-33012095D01*
X32003904Y-33154952D01*
X31432476Y-33726380D01*
X32051523Y-33726380D01*
%TO.C,R4*%
X89495333Y-66746380D02*
X89162000Y-66270190D01*
X88923904Y-66746380D02*
X88923904Y-65746380D01*
X89304857Y-65746380D01*
X89400095Y-65794000D01*
X89447714Y-65841619D01*
X89495333Y-65936857D01*
X89495333Y-66079714D01*
X89447714Y-66174952D01*
X89400095Y-66222571D01*
X89304857Y-66270190D01*
X88923904Y-66270190D01*
X90352476Y-66079714D02*
X90352476Y-66746380D01*
X90114380Y-65698761D02*
X89876285Y-66413047D01*
X90495333Y-66413047D01*
%TO.C,R9*%
X89056380Y-60364666D02*
X88580190Y-60698000D01*
X89056380Y-60936095D02*
X88056380Y-60936095D01*
X88056380Y-60555142D01*
X88104000Y-60459904D01*
X88151619Y-60412285D01*
X88246857Y-60364666D01*
X88389714Y-60364666D01*
X88484952Y-60412285D01*
X88532571Y-60459904D01*
X88580190Y-60555142D01*
X88580190Y-60936095D01*
X89056380Y-59888476D02*
X89056380Y-59698000D01*
X89008761Y-59602761D01*
X88961142Y-59555142D01*
X88818285Y-59459904D01*
X88627809Y-59412285D01*
X88246857Y-59412285D01*
X88151619Y-59459904D01*
X88104000Y-59507523D01*
X88056380Y-59602761D01*
X88056380Y-59793238D01*
X88104000Y-59888476D01*
X88151619Y-59936095D01*
X88246857Y-59983714D01*
X88484952Y-59983714D01*
X88580190Y-59936095D01*
X88627809Y-59888476D01*
X88675428Y-59793238D01*
X88675428Y-59602761D01*
X88627809Y-59507523D01*
X88580190Y-59459904D01*
X88484952Y-59412285D01*
%TO.C,+9V*%
X29194285Y-60479428D02*
X29956190Y-60479428D01*
X29575238Y-60860380D02*
X29575238Y-60098476D01*
X30480000Y-60860380D02*
X30670476Y-60860380D01*
X30765714Y-60812761D01*
X30813333Y-60765142D01*
X30908571Y-60622285D01*
X30956190Y-60431809D01*
X30956190Y-60050857D01*
X30908571Y-59955619D01*
X30860952Y-59908000D01*
X30765714Y-59860380D01*
X30575238Y-59860380D01*
X30480000Y-59908000D01*
X30432380Y-59955619D01*
X30384761Y-60050857D01*
X30384761Y-60288952D01*
X30432380Y-60384190D01*
X30480000Y-60431809D01*
X30575238Y-60479428D01*
X30765714Y-60479428D01*
X30860952Y-60431809D01*
X30908571Y-60384190D01*
X30956190Y-60288952D01*
X31241904Y-59860380D02*
X31575238Y-60860380D01*
X31908571Y-59860380D01*
%TO.C,J2*%
X58340666Y-84618380D02*
X58340666Y-85332666D01*
X58293047Y-85475523D01*
X58197809Y-85570761D01*
X58054952Y-85618380D01*
X57959714Y-85618380D01*
X58769238Y-84713619D02*
X58816857Y-84666000D01*
X58912095Y-84618380D01*
X59150190Y-84618380D01*
X59245428Y-84666000D01*
X59293047Y-84713619D01*
X59340666Y-84808857D01*
X59340666Y-84904095D01*
X59293047Y-85046952D01*
X58721619Y-85618380D01*
X59340666Y-85618380D01*
%TO.C,-60V*%
X41418095Y-60527428D02*
X42180000Y-60527428D01*
X43084761Y-59908380D02*
X42894285Y-59908380D01*
X42799047Y-59956000D01*
X42751428Y-60003619D01*
X42656190Y-60146476D01*
X42608571Y-60336952D01*
X42608571Y-60717904D01*
X42656190Y-60813142D01*
X42703809Y-60860761D01*
X42799047Y-60908380D01*
X42989523Y-60908380D01*
X43084761Y-60860761D01*
X43132380Y-60813142D01*
X43180000Y-60717904D01*
X43180000Y-60479809D01*
X43132380Y-60384571D01*
X43084761Y-60336952D01*
X42989523Y-60289333D01*
X42799047Y-60289333D01*
X42703809Y-60336952D01*
X42656190Y-60384571D01*
X42608571Y-60479809D01*
X43799047Y-59908380D02*
X43894285Y-59908380D01*
X43989523Y-59956000D01*
X44037142Y-60003619D01*
X44084761Y-60098857D01*
X44132380Y-60289333D01*
X44132380Y-60527428D01*
X44084761Y-60717904D01*
X44037142Y-60813142D01*
X43989523Y-60860761D01*
X43894285Y-60908380D01*
X43799047Y-60908380D01*
X43703809Y-60860761D01*
X43656190Y-60813142D01*
X43608571Y-60717904D01*
X43560952Y-60527428D01*
X43560952Y-60289333D01*
X43608571Y-60098857D01*
X43656190Y-60003619D01*
X43703809Y-59956000D01*
X43799047Y-59908380D01*
X44418095Y-59908380D02*
X44751428Y-60908380D01*
X45084761Y-59908380D01*
%TO.C,C27*%
X68953142Y-50649142D02*
X68905523Y-50696761D01*
X68762666Y-50744380D01*
X68667428Y-50744380D01*
X68524571Y-50696761D01*
X68429333Y-50601523D01*
X68381714Y-50506285D01*
X68334095Y-50315809D01*
X68334095Y-50172952D01*
X68381714Y-49982476D01*
X68429333Y-49887238D01*
X68524571Y-49792000D01*
X68667428Y-49744380D01*
X68762666Y-49744380D01*
X68905523Y-49792000D01*
X68953142Y-49839619D01*
X69334095Y-49839619D02*
X69381714Y-49792000D01*
X69476952Y-49744380D01*
X69715047Y-49744380D01*
X69810285Y-49792000D01*
X69857904Y-49839619D01*
X69905523Y-49934857D01*
X69905523Y-50030095D01*
X69857904Y-50172952D01*
X69286476Y-50744380D01*
X69905523Y-50744380D01*
X70238857Y-49744380D02*
X70905523Y-49744380D01*
X70476952Y-50744380D01*
%TO.C,IC4*%
X82843809Y-74522380D02*
X82843809Y-73522380D01*
X83891428Y-74427142D02*
X83843809Y-74474761D01*
X83700952Y-74522380D01*
X83605714Y-74522380D01*
X83462857Y-74474761D01*
X83367619Y-74379523D01*
X83320000Y-74284285D01*
X83272380Y-74093809D01*
X83272380Y-73950952D01*
X83320000Y-73760476D01*
X83367619Y-73665238D01*
X83462857Y-73570000D01*
X83605714Y-73522380D01*
X83700952Y-73522380D01*
X83843809Y-73570000D01*
X83891428Y-73617619D01*
X84748571Y-73855714D02*
X84748571Y-74522380D01*
X84510476Y-73474761D02*
X84272380Y-74189047D01*
X84891428Y-74189047D01*
%TO.C,R7*%
X82637333Y-44140380D02*
X82304000Y-43664190D01*
X82065904Y-44140380D02*
X82065904Y-43140380D01*
X82446857Y-43140380D01*
X82542095Y-43188000D01*
X82589714Y-43235619D01*
X82637333Y-43330857D01*
X82637333Y-43473714D01*
X82589714Y-43568952D01*
X82542095Y-43616571D01*
X82446857Y-43664190D01*
X82065904Y-43664190D01*
X82970666Y-43140380D02*
X83637333Y-43140380D01*
X83208761Y-44140380D01*
%TO.C,-5VA*%
X41465714Y-54891428D02*
X42227619Y-54891428D01*
X43180000Y-54272380D02*
X42703809Y-54272380D01*
X42656190Y-54748571D01*
X42703809Y-54700952D01*
X42799047Y-54653333D01*
X43037142Y-54653333D01*
X43132380Y-54700952D01*
X43180000Y-54748571D01*
X43227619Y-54843809D01*
X43227619Y-55081904D01*
X43180000Y-55177142D01*
X43132380Y-55224761D01*
X43037142Y-55272380D01*
X42799047Y-55272380D01*
X42703809Y-55224761D01*
X42656190Y-55177142D01*
X43513333Y-54272380D02*
X43846666Y-55272380D01*
X44180000Y-54272380D01*
X44465714Y-54986666D02*
X44941904Y-54986666D01*
X44370476Y-55272380D02*
X44703809Y-54272380D01*
X45037142Y-55272380D01*
%TO.C,H4*%
X100330095Y-90622380D02*
X100330095Y-89622380D01*
X100330095Y-90098571D02*
X100901523Y-90098571D01*
X100901523Y-90622380D02*
X100901523Y-89622380D01*
X101806285Y-89955714D02*
X101806285Y-90622380D01*
X101568190Y-89574761D02*
X101330095Y-90289047D01*
X101949142Y-90289047D01*
%TO.C,R-P/Z1*%
X85344285Y-71826380D02*
X85010952Y-71350190D01*
X84772857Y-71826380D02*
X84772857Y-70826380D01*
X85153809Y-70826380D01*
X85249047Y-70874000D01*
X85296666Y-70921619D01*
X85344285Y-71016857D01*
X85344285Y-71159714D01*
X85296666Y-71254952D01*
X85249047Y-71302571D01*
X85153809Y-71350190D01*
X84772857Y-71350190D01*
X85772857Y-71445428D02*
X86534761Y-71445428D01*
X87010952Y-71826380D02*
X87010952Y-70826380D01*
X87391904Y-70826380D01*
X87487142Y-70874000D01*
X87534761Y-70921619D01*
X87582380Y-71016857D01*
X87582380Y-71159714D01*
X87534761Y-71254952D01*
X87487142Y-71302571D01*
X87391904Y-71350190D01*
X87010952Y-71350190D01*
X88725238Y-70778761D02*
X87868095Y-72064476D01*
X88963333Y-70826380D02*
X89630000Y-70826380D01*
X88963333Y-71826380D01*
X89630000Y-71826380D01*
X90534761Y-71826380D02*
X89963333Y-71826380D01*
X90249047Y-71826380D02*
X90249047Y-70826380D01*
X90153809Y-70969238D01*
X90058571Y-71064476D01*
X89963333Y-71112095D01*
%TO.C,U2*%
X35562095Y-65273380D02*
X35562095Y-66082904D01*
X35609714Y-66178142D01*
X35657333Y-66225761D01*
X35752571Y-66273380D01*
X35943047Y-66273380D01*
X36038285Y-66225761D01*
X36085904Y-66178142D01*
X36133523Y-66082904D01*
X36133523Y-65273380D01*
X36562095Y-65368619D02*
X36609714Y-65321000D01*
X36704952Y-65273380D01*
X36943047Y-65273380D01*
X37038285Y-65321000D01*
X37085904Y-65368619D01*
X37133523Y-65463857D01*
X37133523Y-65559095D01*
X37085904Y-65701952D01*
X36514476Y-66273380D01*
X37133523Y-66273380D01*
%TO.C,C18*%
X93337142Y-56999142D02*
X93289523Y-57046761D01*
X93146666Y-57094380D01*
X93051428Y-57094380D01*
X92908571Y-57046761D01*
X92813333Y-56951523D01*
X92765714Y-56856285D01*
X92718095Y-56665809D01*
X92718095Y-56522952D01*
X92765714Y-56332476D01*
X92813333Y-56237238D01*
X92908571Y-56142000D01*
X93051428Y-56094380D01*
X93146666Y-56094380D01*
X93289523Y-56142000D01*
X93337142Y-56189619D01*
X94289523Y-57094380D02*
X93718095Y-57094380D01*
X94003809Y-57094380D02*
X94003809Y-56094380D01*
X93908571Y-56237238D01*
X93813333Y-56332476D01*
X93718095Y-56380095D01*
X94860952Y-56522952D02*
X94765714Y-56475333D01*
X94718095Y-56427714D01*
X94670476Y-56332476D01*
X94670476Y-56284857D01*
X94718095Y-56189619D01*
X94765714Y-56142000D01*
X94860952Y-56094380D01*
X95051428Y-56094380D01*
X95146666Y-56142000D01*
X95194285Y-56189619D01*
X95241904Y-56284857D01*
X95241904Y-56332476D01*
X95194285Y-56427714D01*
X95146666Y-56475333D01*
X95051428Y-56522952D01*
X94860952Y-56522952D01*
X94765714Y-56570571D01*
X94718095Y-56618190D01*
X94670476Y-56713428D01*
X94670476Y-56903904D01*
X94718095Y-56999142D01*
X94765714Y-57046761D01*
X94860952Y-57094380D01*
X95051428Y-57094380D01*
X95146666Y-57046761D01*
X95194285Y-56999142D01*
X95241904Y-56903904D01*
X95241904Y-56713428D01*
X95194285Y-56618190D01*
X95146666Y-56570571D01*
X95051428Y-56522952D01*
%TO.C,-9V*%
X35544285Y-60479428D02*
X36306190Y-60479428D01*
X36830000Y-60860380D02*
X37020476Y-60860380D01*
X37115714Y-60812761D01*
X37163333Y-60765142D01*
X37258571Y-60622285D01*
X37306190Y-60431809D01*
X37306190Y-60050857D01*
X37258571Y-59955619D01*
X37210952Y-59908000D01*
X37115714Y-59860380D01*
X36925238Y-59860380D01*
X36830000Y-59908000D01*
X36782380Y-59955619D01*
X36734761Y-60050857D01*
X36734761Y-60288952D01*
X36782380Y-60384190D01*
X36830000Y-60431809D01*
X36925238Y-60479428D01*
X37115714Y-60479428D01*
X37210952Y-60431809D01*
X37258571Y-60384190D01*
X37306190Y-60288952D01*
X37591904Y-59860380D02*
X37925238Y-60860380D01*
X38258571Y-59860380D01*
%TO.C,C11*%
X47617142Y-70969142D02*
X47569523Y-71016761D01*
X47426666Y-71064380D01*
X47331428Y-71064380D01*
X47188571Y-71016761D01*
X47093333Y-70921523D01*
X47045714Y-70826285D01*
X46998095Y-70635809D01*
X46998095Y-70492952D01*
X47045714Y-70302476D01*
X47093333Y-70207238D01*
X47188571Y-70112000D01*
X47331428Y-70064380D01*
X47426666Y-70064380D01*
X47569523Y-70112000D01*
X47617142Y-70159619D01*
X48569523Y-71064380D02*
X47998095Y-71064380D01*
X48283809Y-71064380D02*
X48283809Y-70064380D01*
X48188571Y-70207238D01*
X48093333Y-70302476D01*
X47998095Y-70350095D01*
X49521904Y-71064380D02*
X48950476Y-71064380D01*
X49236190Y-71064380D02*
X49236190Y-70064380D01*
X49140952Y-70207238D01*
X49045714Y-70302476D01*
X48950476Y-70350095D01*
%TO.C,R8*%
X75271333Y-80716380D02*
X74938000Y-80240190D01*
X74699904Y-80716380D02*
X74699904Y-79716380D01*
X75080857Y-79716380D01*
X75176095Y-79764000D01*
X75223714Y-79811619D01*
X75271333Y-79906857D01*
X75271333Y-80049714D01*
X75223714Y-80144952D01*
X75176095Y-80192571D01*
X75080857Y-80240190D01*
X74699904Y-80240190D01*
X75842761Y-80144952D02*
X75747523Y-80097333D01*
X75699904Y-80049714D01*
X75652285Y-79954476D01*
X75652285Y-79906857D01*
X75699904Y-79811619D01*
X75747523Y-79764000D01*
X75842761Y-79716380D01*
X76033238Y-79716380D01*
X76128476Y-79764000D01*
X76176095Y-79811619D01*
X76223714Y-79906857D01*
X76223714Y-79954476D01*
X76176095Y-80049714D01*
X76128476Y-80097333D01*
X76033238Y-80144952D01*
X75842761Y-80144952D01*
X75747523Y-80192571D01*
X75699904Y-80240190D01*
X75652285Y-80335428D01*
X75652285Y-80525904D01*
X75699904Y-80621142D01*
X75747523Y-80668761D01*
X75842761Y-80716380D01*
X76033238Y-80716380D01*
X76128476Y-80668761D01*
X76176095Y-80621142D01*
X76223714Y-80525904D01*
X76223714Y-80335428D01*
X76176095Y-80240190D01*
X76128476Y-80192571D01*
X76033238Y-80144952D01*
%TO.C,IC3*%
X83097809Y-55570380D02*
X83097809Y-54570380D01*
X84145428Y-55475142D02*
X84097809Y-55522761D01*
X83954952Y-55570380D01*
X83859714Y-55570380D01*
X83716857Y-55522761D01*
X83621619Y-55427523D01*
X83574000Y-55332285D01*
X83526380Y-55141809D01*
X83526380Y-54998952D01*
X83574000Y-54808476D01*
X83621619Y-54713238D01*
X83716857Y-54618000D01*
X83859714Y-54570380D01*
X83954952Y-54570380D01*
X84097809Y-54618000D01*
X84145428Y-54665619D01*
X84478761Y-54570380D02*
X85097809Y-54570380D01*
X84764476Y-54951333D01*
X84907333Y-54951333D01*
X85002571Y-54998952D01*
X85050190Y-55046571D01*
X85097809Y-55141809D01*
X85097809Y-55379904D01*
X85050190Y-55475142D01*
X85002571Y-55522761D01*
X84907333Y-55570380D01*
X84621619Y-55570380D01*
X84526380Y-55522761D01*
X84478761Y-55475142D01*
%TO.C,C3*%
X32293142Y-56770166D02*
X32340761Y-56817785D01*
X32388380Y-56960642D01*
X32388380Y-57055880D01*
X32340761Y-57198738D01*
X32245523Y-57293976D01*
X32150285Y-57341595D01*
X31959809Y-57389214D01*
X31816952Y-57389214D01*
X31626476Y-57341595D01*
X31531238Y-57293976D01*
X31436000Y-57198738D01*
X31388380Y-57055880D01*
X31388380Y-56960642D01*
X31436000Y-56817785D01*
X31483619Y-56770166D01*
X31388380Y-56436833D02*
X31388380Y-55817785D01*
X31769333Y-56151119D01*
X31769333Y-56008261D01*
X31816952Y-55913023D01*
X31864571Y-55865404D01*
X31959809Y-55817785D01*
X32197904Y-55817785D01*
X32293142Y-55865404D01*
X32340761Y-55913023D01*
X32388380Y-56008261D01*
X32388380Y-56293976D01*
X32340761Y-56389214D01*
X32293142Y-56436833D01*
%TO.C,C28*%
X79367142Y-65381142D02*
X79319523Y-65428761D01*
X79176666Y-65476380D01*
X79081428Y-65476380D01*
X78938571Y-65428761D01*
X78843333Y-65333523D01*
X78795714Y-65238285D01*
X78748095Y-65047809D01*
X78748095Y-64904952D01*
X78795714Y-64714476D01*
X78843333Y-64619238D01*
X78938571Y-64524000D01*
X79081428Y-64476380D01*
X79176666Y-64476380D01*
X79319523Y-64524000D01*
X79367142Y-64571619D01*
X79748095Y-64571619D02*
X79795714Y-64524000D01*
X79890952Y-64476380D01*
X80129047Y-64476380D01*
X80224285Y-64524000D01*
X80271904Y-64571619D01*
X80319523Y-64666857D01*
X80319523Y-64762095D01*
X80271904Y-64904952D01*
X79700476Y-65476380D01*
X80319523Y-65476380D01*
X80890952Y-64904952D02*
X80795714Y-64857333D01*
X80748095Y-64809714D01*
X80700476Y-64714476D01*
X80700476Y-64666857D01*
X80748095Y-64571619D01*
X80795714Y-64524000D01*
X80890952Y-64476380D01*
X81081428Y-64476380D01*
X81176666Y-64524000D01*
X81224285Y-64571619D01*
X81271904Y-64666857D01*
X81271904Y-64714476D01*
X81224285Y-64809714D01*
X81176666Y-64857333D01*
X81081428Y-64904952D01*
X80890952Y-64904952D01*
X80795714Y-64952571D01*
X80748095Y-65000190D01*
X80700476Y-65095428D01*
X80700476Y-65285904D01*
X80748095Y-65381142D01*
X80795714Y-65428761D01*
X80890952Y-65476380D01*
X81081428Y-65476380D01*
X81176666Y-65428761D01*
X81224285Y-65381142D01*
X81271904Y-65285904D01*
X81271904Y-65095428D01*
X81224285Y-65000190D01*
X81176666Y-64952571D01*
X81081428Y-64904952D01*
%TO.C,GND*%
X48768095Y-59956000D02*
X48672857Y-59908380D01*
X48530000Y-59908380D01*
X48387142Y-59956000D01*
X48291904Y-60051238D01*
X48244285Y-60146476D01*
X48196666Y-60336952D01*
X48196666Y-60479809D01*
X48244285Y-60670285D01*
X48291904Y-60765523D01*
X48387142Y-60860761D01*
X48530000Y-60908380D01*
X48625238Y-60908380D01*
X48768095Y-60860761D01*
X48815714Y-60813142D01*
X48815714Y-60479809D01*
X48625238Y-60479809D01*
X49244285Y-60908380D02*
X49244285Y-59908380D01*
X49815714Y-60908380D01*
X49815714Y-59908380D01*
X50291904Y-60908380D02*
X50291904Y-59908380D01*
X50530000Y-59908380D01*
X50672857Y-59956000D01*
X50768095Y-60051238D01*
X50815714Y-60146476D01*
X50863333Y-60336952D01*
X50863333Y-60479809D01*
X50815714Y-60670285D01*
X50768095Y-60765523D01*
X50672857Y-60860761D01*
X50530000Y-60908380D01*
X50291904Y-60908380D01*
%TO.C,C16*%
X77573142Y-62364857D02*
X77620761Y-62412476D01*
X77668380Y-62555333D01*
X77668380Y-62650571D01*
X77620761Y-62793428D01*
X77525523Y-62888666D01*
X77430285Y-62936285D01*
X77239809Y-62983904D01*
X77096952Y-62983904D01*
X76906476Y-62936285D01*
X76811238Y-62888666D01*
X76716000Y-62793428D01*
X76668380Y-62650571D01*
X76668380Y-62555333D01*
X76716000Y-62412476D01*
X76763619Y-62364857D01*
X77668380Y-61412476D02*
X77668380Y-61983904D01*
X77668380Y-61698190D02*
X76668380Y-61698190D01*
X76811238Y-61793428D01*
X76906476Y-61888666D01*
X76954095Y-61983904D01*
X76668380Y-60555333D02*
X76668380Y-60745809D01*
X76716000Y-60841047D01*
X76763619Y-60888666D01*
X76906476Y-60983904D01*
X77096952Y-61031523D01*
X77477904Y-61031523D01*
X77573142Y-60983904D01*
X77620761Y-60936285D01*
X77668380Y-60841047D01*
X77668380Y-60650571D01*
X77620761Y-60555333D01*
X77573142Y-60507714D01*
X77477904Y-60460095D01*
X77239809Y-60460095D01*
X77144571Y-60507714D01*
X77096952Y-60555333D01*
X77049333Y-60650571D01*
X77049333Y-60841047D01*
X77096952Y-60936285D01*
X77144571Y-60983904D01*
X77239809Y-61031523D01*
%TO.C,R3*%
X89433833Y-69286380D02*
X89100500Y-68810190D01*
X88862404Y-69286380D02*
X88862404Y-68286380D01*
X89243357Y-68286380D01*
X89338595Y-68334000D01*
X89386214Y-68381619D01*
X89433833Y-68476857D01*
X89433833Y-68619714D01*
X89386214Y-68714952D01*
X89338595Y-68762571D01*
X89243357Y-68810190D01*
X88862404Y-68810190D01*
X89767166Y-68286380D02*
X90386214Y-68286380D01*
X90052880Y-68667333D01*
X90195738Y-68667333D01*
X90290976Y-68714952D01*
X90338595Y-68762571D01*
X90386214Y-68857809D01*
X90386214Y-69095904D01*
X90338595Y-69191142D01*
X90290976Y-69238761D01*
X90195738Y-69286380D01*
X89910023Y-69286380D01*
X89814785Y-69238761D01*
X89767166Y-69191142D01*
%TO.C,C7*%
X35901333Y-70763142D02*
X35853714Y-70810761D01*
X35710857Y-70858380D01*
X35615619Y-70858380D01*
X35472761Y-70810761D01*
X35377523Y-70715523D01*
X35329904Y-70620285D01*
X35282285Y-70429809D01*
X35282285Y-70286952D01*
X35329904Y-70096476D01*
X35377523Y-70001238D01*
X35472761Y-69906000D01*
X35615619Y-69858380D01*
X35710857Y-69858380D01*
X35853714Y-69906000D01*
X35901333Y-69953619D01*
X36234666Y-69858380D02*
X36901333Y-69858380D01*
X36472761Y-70858380D01*
%TO.C,C14*%
X60825142Y-75223142D02*
X60777523Y-75270761D01*
X60634666Y-75318380D01*
X60539428Y-75318380D01*
X60396571Y-75270761D01*
X60301333Y-75175523D01*
X60253714Y-75080285D01*
X60206095Y-74889809D01*
X60206095Y-74746952D01*
X60253714Y-74556476D01*
X60301333Y-74461238D01*
X60396571Y-74366000D01*
X60539428Y-74318380D01*
X60634666Y-74318380D01*
X60777523Y-74366000D01*
X60825142Y-74413619D01*
X61777523Y-75318380D02*
X61206095Y-75318380D01*
X61491809Y-75318380D02*
X61491809Y-74318380D01*
X61396571Y-74461238D01*
X61301333Y-74556476D01*
X61206095Y-74604095D01*
X62634666Y-74651714D02*
X62634666Y-75318380D01*
X62396571Y-74270761D02*
X62158476Y-74985047D01*
X62777523Y-74985047D01*
%TO.C,C9*%
X45553333Y-71008142D02*
X45505714Y-71055761D01*
X45362857Y-71103380D01*
X45267619Y-71103380D01*
X45124761Y-71055761D01*
X45029523Y-70960523D01*
X44981904Y-70865285D01*
X44934285Y-70674809D01*
X44934285Y-70531952D01*
X44981904Y-70341476D01*
X45029523Y-70246238D01*
X45124761Y-70151000D01*
X45267619Y-70103380D01*
X45362857Y-70103380D01*
X45505714Y-70151000D01*
X45553333Y-70198619D01*
X46029523Y-71103380D02*
X46220000Y-71103380D01*
X46315238Y-71055761D01*
X46362857Y-71008142D01*
X46458095Y-70865285D01*
X46505714Y-70674809D01*
X46505714Y-70293857D01*
X46458095Y-70198619D01*
X46410476Y-70151000D01*
X46315238Y-70103380D01*
X46124761Y-70103380D01*
X46029523Y-70151000D01*
X45981904Y-70198619D01*
X45934285Y-70293857D01*
X45934285Y-70531952D01*
X45981904Y-70627190D01*
X46029523Y-70674809D01*
X46124761Y-70722428D01*
X46315238Y-70722428D01*
X46410476Y-70674809D01*
X46458095Y-70627190D01*
X46505714Y-70531952D01*
%TO.C,J6*%
X75144380Y-38941333D02*
X75858666Y-38941333D01*
X76001523Y-38988952D01*
X76096761Y-39084190D01*
X76144380Y-39227047D01*
X76144380Y-39322285D01*
X75144380Y-38036571D02*
X75144380Y-38227047D01*
X75192000Y-38322285D01*
X75239619Y-38369904D01*
X75382476Y-38465142D01*
X75572952Y-38512761D01*
X75953904Y-38512761D01*
X76049142Y-38465142D01*
X76096761Y-38417523D01*
X76144380Y-38322285D01*
X76144380Y-38131809D01*
X76096761Y-38036571D01*
X76049142Y-37988952D01*
X75953904Y-37941333D01*
X75715809Y-37941333D01*
X75620571Y-37988952D01*
X75572952Y-38036571D01*
X75525333Y-38131809D01*
X75525333Y-38322285D01*
X75572952Y-38417523D01*
X75620571Y-38465142D01*
X75715809Y-38512761D01*
%TO.C,R1*%
X54428333Y-72588380D02*
X54095000Y-72112190D01*
X53856904Y-72588380D02*
X53856904Y-71588380D01*
X54237857Y-71588380D01*
X54333095Y-71636000D01*
X54380714Y-71683619D01*
X54428333Y-71778857D01*
X54428333Y-71921714D01*
X54380714Y-72016952D01*
X54333095Y-72064571D01*
X54237857Y-72112190D01*
X53856904Y-72112190D01*
X55380714Y-72588380D02*
X54809285Y-72588380D01*
X55095000Y-72588380D02*
X55095000Y-71588380D01*
X54999761Y-71731238D01*
X54904523Y-71826476D01*
X54809285Y-71874095D01*
%TO.C,C1*%
X32883142Y-51182166D02*
X32930761Y-51229785D01*
X32978380Y-51372642D01*
X32978380Y-51467880D01*
X32930761Y-51610738D01*
X32835523Y-51705976D01*
X32740285Y-51753595D01*
X32549809Y-51801214D01*
X32406952Y-51801214D01*
X32216476Y-51753595D01*
X32121238Y-51705976D01*
X32026000Y-51610738D01*
X31978380Y-51467880D01*
X31978380Y-51372642D01*
X32026000Y-51229785D01*
X32073619Y-51182166D01*
X32978380Y-50229785D02*
X32978380Y-50801214D01*
X32978380Y-50515500D02*
X31978380Y-50515500D01*
X32121238Y-50610738D01*
X32216476Y-50705976D01*
X32264095Y-50801214D01*
%TO.C,J5*%
X78954380Y-38941333D02*
X79668666Y-38941333D01*
X79811523Y-38988952D01*
X79906761Y-39084190D01*
X79954380Y-39227047D01*
X79954380Y-39322285D01*
X78954380Y-37988952D02*
X78954380Y-38465142D01*
X79430571Y-38512761D01*
X79382952Y-38465142D01*
X79335333Y-38369904D01*
X79335333Y-38131809D01*
X79382952Y-38036571D01*
X79430571Y-37988952D01*
X79525809Y-37941333D01*
X79763904Y-37941333D01*
X79859142Y-37988952D01*
X79906761Y-38036571D01*
X79954380Y-38131809D01*
X79954380Y-38369904D01*
X79906761Y-38465142D01*
X79859142Y-38512761D01*
%TO.C,R11*%
X87320380Y-82684857D02*
X86844190Y-83018190D01*
X87320380Y-83256285D02*
X86320380Y-83256285D01*
X86320380Y-82875333D01*
X86368000Y-82780095D01*
X86415619Y-82732476D01*
X86510857Y-82684857D01*
X86653714Y-82684857D01*
X86748952Y-82732476D01*
X86796571Y-82780095D01*
X86844190Y-82875333D01*
X86844190Y-83256285D01*
X87320380Y-81732476D02*
X87320380Y-82303904D01*
X87320380Y-82018190D02*
X86320380Y-82018190D01*
X86463238Y-82113428D01*
X86558476Y-82208666D01*
X86606095Y-82303904D01*
X87320380Y-80780095D02*
X87320380Y-81351523D01*
X87320380Y-81065809D02*
X86320380Y-81065809D01*
X86463238Y-81161047D01*
X86558476Y-81256285D01*
X86606095Y-81351523D01*
%TO.C,H3*%
X25400095Y-90622380D02*
X25400095Y-89622380D01*
X25400095Y-90098571D02*
X25971523Y-90098571D01*
X25971523Y-90622380D02*
X25971523Y-89622380D01*
X26352476Y-89622380D02*
X26971523Y-89622380D01*
X26638190Y-90003333D01*
X26781047Y-90003333D01*
X26876285Y-90050952D01*
X26923904Y-90098571D01*
X26971523Y-90193809D01*
X26971523Y-90431904D01*
X26923904Y-90527142D01*
X26876285Y-90574761D01*
X26781047Y-90622380D01*
X26495333Y-90622380D01*
X26400095Y-90574761D01*
X26352476Y-90527142D01*
%TO.C,C30*%
X59809142Y-64365142D02*
X59761523Y-64412761D01*
X59618666Y-64460380D01*
X59523428Y-64460380D01*
X59380571Y-64412761D01*
X59285333Y-64317523D01*
X59237714Y-64222285D01*
X59190095Y-64031809D01*
X59190095Y-63888952D01*
X59237714Y-63698476D01*
X59285333Y-63603238D01*
X59380571Y-63508000D01*
X59523428Y-63460380D01*
X59618666Y-63460380D01*
X59761523Y-63508000D01*
X59809142Y-63555619D01*
X60142476Y-63460380D02*
X60761523Y-63460380D01*
X60428190Y-63841333D01*
X60571047Y-63841333D01*
X60666285Y-63888952D01*
X60713904Y-63936571D01*
X60761523Y-64031809D01*
X60761523Y-64269904D01*
X60713904Y-64365142D01*
X60666285Y-64412761D01*
X60571047Y-64460380D01*
X60285333Y-64460380D01*
X60190095Y-64412761D01*
X60142476Y-64365142D01*
X61380571Y-63460380D02*
X61475809Y-63460380D01*
X61571047Y-63508000D01*
X61618666Y-63555619D01*
X61666285Y-63650857D01*
X61713904Y-63841333D01*
X61713904Y-64079428D01*
X61666285Y-64269904D01*
X61618666Y-64365142D01*
X61571047Y-64412761D01*
X61475809Y-64460380D01*
X61380571Y-64460380D01*
X61285333Y-64412761D01*
X61237714Y-64365142D01*
X61190095Y-64269904D01*
X61142476Y-64079428D01*
X61142476Y-63841333D01*
X61190095Y-63650857D01*
X61237714Y-63555619D01*
X61285333Y-63508000D01*
X61380571Y-63460380D01*
%TO.C,C25*%
X57943142Y-60586857D02*
X57990761Y-60634476D01*
X58038380Y-60777333D01*
X58038380Y-60872571D01*
X57990761Y-61015428D01*
X57895523Y-61110666D01*
X57800285Y-61158285D01*
X57609809Y-61205904D01*
X57466952Y-61205904D01*
X57276476Y-61158285D01*
X57181238Y-61110666D01*
X57086000Y-61015428D01*
X57038380Y-60872571D01*
X57038380Y-60777333D01*
X57086000Y-60634476D01*
X57133619Y-60586857D01*
X57133619Y-60205904D02*
X57086000Y-60158285D01*
X57038380Y-60063047D01*
X57038380Y-59824952D01*
X57086000Y-59729714D01*
X57133619Y-59682095D01*
X57228857Y-59634476D01*
X57324095Y-59634476D01*
X57466952Y-59682095D01*
X58038380Y-60253523D01*
X58038380Y-59634476D01*
X57038380Y-58729714D02*
X57038380Y-59205904D01*
X57514571Y-59253523D01*
X57466952Y-59205904D01*
X57419333Y-59110666D01*
X57419333Y-58872571D01*
X57466952Y-58777333D01*
X57514571Y-58729714D01*
X57609809Y-58682095D01*
X57847904Y-58682095D01*
X57943142Y-58729714D01*
X57990761Y-58777333D01*
X58038380Y-58872571D01*
X58038380Y-59110666D01*
X57990761Y-59205904D01*
X57943142Y-59253523D01*
%TO.C,J1*%
X40052666Y-34758380D02*
X40052666Y-35472666D01*
X40005047Y-35615523D01*
X39909809Y-35710761D01*
X39766952Y-35758380D01*
X39671714Y-35758380D01*
X41052666Y-35758380D02*
X40481238Y-35758380D01*
X40766952Y-35758380D02*
X40766952Y-34758380D01*
X40671714Y-34901238D01*
X40576476Y-34996476D01*
X40481238Y-35044095D01*
%TO.C,J3*%
X61653380Y-71199333D02*
X62367666Y-71199333D01*
X62510523Y-71246952D01*
X62605761Y-71342190D01*
X62653380Y-71485047D01*
X62653380Y-71580285D01*
X61653380Y-70818380D02*
X61653380Y-70199333D01*
X62034333Y-70532666D01*
X62034333Y-70389809D01*
X62081952Y-70294571D01*
X62129571Y-70246952D01*
X62224809Y-70199333D01*
X62462904Y-70199333D01*
X62558142Y-70246952D01*
X62605761Y-70294571D01*
X62653380Y-70389809D01*
X62653380Y-70675523D01*
X62605761Y-70770761D01*
X62558142Y-70818380D01*
%TO.C,C15*%
X75557142Y-74144142D02*
X75509523Y-74191761D01*
X75366666Y-74239380D01*
X75271428Y-74239380D01*
X75128571Y-74191761D01*
X75033333Y-74096523D01*
X74985714Y-74001285D01*
X74938095Y-73810809D01*
X74938095Y-73667952D01*
X74985714Y-73477476D01*
X75033333Y-73382238D01*
X75128571Y-73287000D01*
X75271428Y-73239380D01*
X75366666Y-73239380D01*
X75509523Y-73287000D01*
X75557142Y-73334619D01*
X76509523Y-74239380D02*
X75938095Y-74239380D01*
X76223809Y-74239380D02*
X76223809Y-73239380D01*
X76128571Y-73382238D01*
X76033333Y-73477476D01*
X75938095Y-73525095D01*
X77414285Y-73239380D02*
X76938095Y-73239380D01*
X76890476Y-73715571D01*
X76938095Y-73667952D01*
X77033333Y-73620333D01*
X77271428Y-73620333D01*
X77366666Y-73667952D01*
X77414285Y-73715571D01*
X77461904Y-73810809D01*
X77461904Y-74048904D01*
X77414285Y-74144142D01*
X77366666Y-74191761D01*
X77271428Y-74239380D01*
X77033333Y-74239380D01*
X76938095Y-74191761D01*
X76890476Y-74144142D01*
%TO.C,C8*%
X45553333Y-83019142D02*
X45505714Y-83066761D01*
X45362857Y-83114380D01*
X45267619Y-83114380D01*
X45124761Y-83066761D01*
X45029523Y-82971523D01*
X44981904Y-82876285D01*
X44934285Y-82685809D01*
X44934285Y-82542952D01*
X44981904Y-82352476D01*
X45029523Y-82257238D01*
X45124761Y-82162000D01*
X45267619Y-82114380D01*
X45362857Y-82114380D01*
X45505714Y-82162000D01*
X45553333Y-82209619D01*
X46124761Y-82542952D02*
X46029523Y-82495333D01*
X45981904Y-82447714D01*
X45934285Y-82352476D01*
X45934285Y-82304857D01*
X45981904Y-82209619D01*
X46029523Y-82162000D01*
X46124761Y-82114380D01*
X46315238Y-82114380D01*
X46410476Y-82162000D01*
X46458095Y-82209619D01*
X46505714Y-82304857D01*
X46505714Y-82352476D01*
X46458095Y-82447714D01*
X46410476Y-82495333D01*
X46315238Y-82542952D01*
X46124761Y-82542952D01*
X46029523Y-82590571D01*
X45981904Y-82638190D01*
X45934285Y-82733428D01*
X45934285Y-82923904D01*
X45981904Y-83019142D01*
X46029523Y-83066761D01*
X46124761Y-83114380D01*
X46315238Y-83114380D01*
X46410476Y-83066761D01*
X46458095Y-83019142D01*
X46505714Y-82923904D01*
X46505714Y-82733428D01*
X46458095Y-82638190D01*
X46410476Y-82590571D01*
X46315238Y-82542952D01*
%TO.C,C13*%
X93337142Y-78843142D02*
X93289523Y-78890761D01*
X93146666Y-78938380D01*
X93051428Y-78938380D01*
X92908571Y-78890761D01*
X92813333Y-78795523D01*
X92765714Y-78700285D01*
X92718095Y-78509809D01*
X92718095Y-78366952D01*
X92765714Y-78176476D01*
X92813333Y-78081238D01*
X92908571Y-77986000D01*
X93051428Y-77938380D01*
X93146666Y-77938380D01*
X93289523Y-77986000D01*
X93337142Y-78033619D01*
X94289523Y-78938380D02*
X93718095Y-78938380D01*
X94003809Y-78938380D02*
X94003809Y-77938380D01*
X93908571Y-78081238D01*
X93813333Y-78176476D01*
X93718095Y-78224095D01*
X94622857Y-77938380D02*
X95241904Y-77938380D01*
X94908571Y-78319333D01*
X95051428Y-78319333D01*
X95146666Y-78366952D01*
X95194285Y-78414571D01*
X95241904Y-78509809D01*
X95241904Y-78747904D01*
X95194285Y-78843142D01*
X95146666Y-78890761D01*
X95051428Y-78938380D01*
X94765714Y-78938380D01*
X94670476Y-78890761D01*
X94622857Y-78843142D01*
%TO.C,C17*%
X72509142Y-84431142D02*
X72461523Y-84478761D01*
X72318666Y-84526380D01*
X72223428Y-84526380D01*
X72080571Y-84478761D01*
X71985333Y-84383523D01*
X71937714Y-84288285D01*
X71890095Y-84097809D01*
X71890095Y-83954952D01*
X71937714Y-83764476D01*
X71985333Y-83669238D01*
X72080571Y-83574000D01*
X72223428Y-83526380D01*
X72318666Y-83526380D01*
X72461523Y-83574000D01*
X72509142Y-83621619D01*
X73461523Y-84526380D02*
X72890095Y-84526380D01*
X73175809Y-84526380D02*
X73175809Y-83526380D01*
X73080571Y-83669238D01*
X72985333Y-83764476D01*
X72890095Y-83812095D01*
X73794857Y-83526380D02*
X74461523Y-83526380D01*
X74032952Y-84526380D01*
%TO.C,R2*%
X55713333Y-75340380D02*
X55380000Y-74864190D01*
X55141904Y-75340380D02*
X55141904Y-74340380D01*
X55522857Y-74340380D01*
X55618095Y-74388000D01*
X55665714Y-74435619D01*
X55713333Y-74530857D01*
X55713333Y-74673714D01*
X55665714Y-74768952D01*
X55618095Y-74816571D01*
X55522857Y-74864190D01*
X55141904Y-74864190D01*
X56094285Y-74435619D02*
X56141904Y-74388000D01*
X56237142Y-74340380D01*
X56475238Y-74340380D01*
X56570476Y-74388000D01*
X56618095Y-74435619D01*
X56665714Y-74530857D01*
X56665714Y-74626095D01*
X56618095Y-74768952D01*
X56046666Y-75340380D01*
X56665714Y-75340380D01*
%TO.C,C22*%
X91289142Y-74810857D02*
X91336761Y-74858476D01*
X91384380Y-75001333D01*
X91384380Y-75096571D01*
X91336761Y-75239428D01*
X91241523Y-75334666D01*
X91146285Y-75382285D01*
X90955809Y-75429904D01*
X90812952Y-75429904D01*
X90622476Y-75382285D01*
X90527238Y-75334666D01*
X90432000Y-75239428D01*
X90384380Y-75096571D01*
X90384380Y-75001333D01*
X90432000Y-74858476D01*
X90479619Y-74810857D01*
X90479619Y-74429904D02*
X90432000Y-74382285D01*
X90384380Y-74287047D01*
X90384380Y-74048952D01*
X90432000Y-73953714D01*
X90479619Y-73906095D01*
X90574857Y-73858476D01*
X90670095Y-73858476D01*
X90812952Y-73906095D01*
X91384380Y-74477523D01*
X91384380Y-73858476D01*
X90479619Y-73477523D02*
X90432000Y-73429904D01*
X90384380Y-73334666D01*
X90384380Y-73096571D01*
X90432000Y-73001333D01*
X90479619Y-72953714D01*
X90574857Y-72906095D01*
X90670095Y-72906095D01*
X90812952Y-72953714D01*
X91384380Y-73525142D01*
X91384380Y-72906095D01*
%TO.C,C12*%
X51666142Y-82907142D02*
X51618523Y-82954761D01*
X51475666Y-83002380D01*
X51380428Y-83002380D01*
X51237571Y-82954761D01*
X51142333Y-82859523D01*
X51094714Y-82764285D01*
X51047095Y-82573809D01*
X51047095Y-82430952D01*
X51094714Y-82240476D01*
X51142333Y-82145238D01*
X51237571Y-82050000D01*
X51380428Y-82002380D01*
X51475666Y-82002380D01*
X51618523Y-82050000D01*
X51666142Y-82097619D01*
X52618523Y-83002380D02*
X52047095Y-83002380D01*
X52332809Y-83002380D02*
X52332809Y-82002380D01*
X52237571Y-82145238D01*
X52142333Y-82240476D01*
X52047095Y-82288095D01*
X52999476Y-82097619D02*
X53047095Y-82050000D01*
X53142333Y-82002380D01*
X53380428Y-82002380D01*
X53475666Y-82050000D01*
X53523285Y-82097619D01*
X53570904Y-82192857D01*
X53570904Y-82288095D01*
X53523285Y-82430952D01*
X52951857Y-83002380D01*
X53570904Y-83002380D01*
%TO.C,R12*%
X77081142Y-55824380D02*
X76747809Y-55348190D01*
X76509714Y-55824380D02*
X76509714Y-54824380D01*
X76890666Y-54824380D01*
X76985904Y-54872000D01*
X77033523Y-54919619D01*
X77081142Y-55014857D01*
X77081142Y-55157714D01*
X77033523Y-55252952D01*
X76985904Y-55300571D01*
X76890666Y-55348190D01*
X76509714Y-55348190D01*
X78033523Y-55824380D02*
X77462095Y-55824380D01*
X77747809Y-55824380D02*
X77747809Y-54824380D01*
X77652571Y-54967238D01*
X77557333Y-55062476D01*
X77462095Y-55110095D01*
X78414476Y-54919619D02*
X78462095Y-54872000D01*
X78557333Y-54824380D01*
X78795428Y-54824380D01*
X78890666Y-54872000D01*
X78938285Y-54919619D01*
X78985904Y-55014857D01*
X78985904Y-55110095D01*
X78938285Y-55252952D01*
X78366857Y-55824380D01*
X78985904Y-55824380D01*
%TO.C,C29*%
X83177142Y-86789142D02*
X83129523Y-86836761D01*
X82986666Y-86884380D01*
X82891428Y-86884380D01*
X82748571Y-86836761D01*
X82653333Y-86741523D01*
X82605714Y-86646285D01*
X82558095Y-86455809D01*
X82558095Y-86312952D01*
X82605714Y-86122476D01*
X82653333Y-86027238D01*
X82748571Y-85932000D01*
X82891428Y-85884380D01*
X82986666Y-85884380D01*
X83129523Y-85932000D01*
X83177142Y-85979619D01*
X83558095Y-85979619D02*
X83605714Y-85932000D01*
X83700952Y-85884380D01*
X83939047Y-85884380D01*
X84034285Y-85932000D01*
X84081904Y-85979619D01*
X84129523Y-86074857D01*
X84129523Y-86170095D01*
X84081904Y-86312952D01*
X83510476Y-86884380D01*
X84129523Y-86884380D01*
X84605714Y-86884380D02*
X84796190Y-86884380D01*
X84891428Y-86836761D01*
X84939047Y-86789142D01*
X85034285Y-86646285D01*
X85081904Y-86455809D01*
X85081904Y-86074857D01*
X85034285Y-85979619D01*
X84986666Y-85932000D01*
X84891428Y-85884380D01*
X84700952Y-85884380D01*
X84605714Y-85932000D01*
X84558095Y-85979619D01*
X84510476Y-86074857D01*
X84510476Y-86312952D01*
X84558095Y-86408190D01*
X84605714Y-86455809D01*
X84700952Y-86503428D01*
X84891428Y-86503428D01*
X84986666Y-86455809D01*
X85034285Y-86408190D01*
X85081904Y-86312952D01*
%TO.C,J4*%
X87042666Y-49236380D02*
X87042666Y-49950666D01*
X86995047Y-50093523D01*
X86899809Y-50188761D01*
X86756952Y-50236380D01*
X86661714Y-50236380D01*
X87947428Y-49569714D02*
X87947428Y-50236380D01*
X87709333Y-49188761D02*
X87471238Y-49903047D01*
X88090285Y-49903047D01*
%TO.C,C19*%
X61841142Y-82145142D02*
X61793523Y-82192761D01*
X61650666Y-82240380D01*
X61555428Y-82240380D01*
X61412571Y-82192761D01*
X61317333Y-82097523D01*
X61269714Y-82002285D01*
X61222095Y-81811809D01*
X61222095Y-81668952D01*
X61269714Y-81478476D01*
X61317333Y-81383238D01*
X61412571Y-81288000D01*
X61555428Y-81240380D01*
X61650666Y-81240380D01*
X61793523Y-81288000D01*
X61841142Y-81335619D01*
X62793523Y-82240380D02*
X62222095Y-82240380D01*
X62507809Y-82240380D02*
X62507809Y-81240380D01*
X62412571Y-81383238D01*
X62317333Y-81478476D01*
X62222095Y-81526095D01*
X63269714Y-82240380D02*
X63460190Y-82240380D01*
X63555428Y-82192761D01*
X63603047Y-82145142D01*
X63698285Y-82002285D01*
X63745904Y-81811809D01*
X63745904Y-81430857D01*
X63698285Y-81335619D01*
X63650666Y-81288000D01*
X63555428Y-81240380D01*
X63364952Y-81240380D01*
X63269714Y-81288000D01*
X63222095Y-81335619D01*
X63174476Y-81430857D01*
X63174476Y-81668952D01*
X63222095Y-81764190D01*
X63269714Y-81811809D01*
X63364952Y-81859428D01*
X63555428Y-81859428D01*
X63650666Y-81811809D01*
X63698285Y-81764190D01*
X63745904Y-81668952D01*
%TO.C,IC5*%
X63539809Y-54554380D02*
X63539809Y-53554380D01*
X64587428Y-54459142D02*
X64539809Y-54506761D01*
X64396952Y-54554380D01*
X64301714Y-54554380D01*
X64158857Y-54506761D01*
X64063619Y-54411523D01*
X64016000Y-54316285D01*
X63968380Y-54125809D01*
X63968380Y-53982952D01*
X64016000Y-53792476D01*
X64063619Y-53697238D01*
X64158857Y-53602000D01*
X64301714Y-53554380D01*
X64396952Y-53554380D01*
X64539809Y-53602000D01*
X64587428Y-53649619D01*
X65492190Y-53554380D02*
X65016000Y-53554380D01*
X64968380Y-54030571D01*
X65016000Y-53982952D01*
X65111238Y-53935333D01*
X65349333Y-53935333D01*
X65444571Y-53982952D01*
X65492190Y-54030571D01*
X65539809Y-54125809D01*
X65539809Y-54363904D01*
X65492190Y-54459142D01*
X65444571Y-54506761D01*
X65349333Y-54554380D01*
X65111238Y-54554380D01*
X65016000Y-54506761D01*
X64968380Y-54459142D01*
%TO.C,H1*%
X95250095Y-33726380D02*
X95250095Y-32726380D01*
X95250095Y-33202571D02*
X95821523Y-33202571D01*
X95821523Y-33726380D02*
X95821523Y-32726380D01*
X96821523Y-33726380D02*
X96250095Y-33726380D01*
X96535809Y-33726380D02*
X96535809Y-32726380D01*
X96440571Y-32869238D01*
X96345333Y-32964476D01*
X96250095Y-33012095D01*
%TO.C,C6*%
X35641333Y-82995142D02*
X35593714Y-83042761D01*
X35450857Y-83090380D01*
X35355619Y-83090380D01*
X35212761Y-83042761D01*
X35117523Y-82947523D01*
X35069904Y-82852285D01*
X35022285Y-82661809D01*
X35022285Y-82518952D01*
X35069904Y-82328476D01*
X35117523Y-82233238D01*
X35212761Y-82138000D01*
X35355619Y-82090380D01*
X35450857Y-82090380D01*
X35593714Y-82138000D01*
X35641333Y-82185619D01*
X36498476Y-82090380D02*
X36308000Y-82090380D01*
X36212761Y-82138000D01*
X36165142Y-82185619D01*
X36069904Y-82328476D01*
X36022285Y-82518952D01*
X36022285Y-82899904D01*
X36069904Y-82995142D01*
X36117523Y-83042761D01*
X36212761Y-83090380D01*
X36403238Y-83090380D01*
X36498476Y-83042761D01*
X36546095Y-82995142D01*
X36593714Y-82899904D01*
X36593714Y-82661809D01*
X36546095Y-82566571D01*
X36498476Y-82518952D01*
X36403238Y-82471333D01*
X36212761Y-82471333D01*
X36117523Y-82518952D01*
X36069904Y-82566571D01*
X36022285Y-82661809D01*
%TO.C,+5VA*%
X47815714Y-54891428D02*
X48577619Y-54891428D01*
X48196666Y-55272380D02*
X48196666Y-54510476D01*
X49530000Y-54272380D02*
X49053809Y-54272380D01*
X49006190Y-54748571D01*
X49053809Y-54700952D01*
X49149047Y-54653333D01*
X49387142Y-54653333D01*
X49482380Y-54700952D01*
X49530000Y-54748571D01*
X49577619Y-54843809D01*
X49577619Y-55081904D01*
X49530000Y-55177142D01*
X49482380Y-55224761D01*
X49387142Y-55272380D01*
X49149047Y-55272380D01*
X49053809Y-55224761D01*
X49006190Y-55177142D01*
X49863333Y-54272380D02*
X50196666Y-55272380D01*
X50530000Y-54272380D01*
X50815714Y-54986666D02*
X51291904Y-54986666D01*
X50720476Y-55272380D02*
X51053809Y-54272380D01*
X51387142Y-55272380D01*
%TO.C,C4*%
X39853142Y-51251166D02*
X39900761Y-51298785D01*
X39948380Y-51441642D01*
X39948380Y-51536880D01*
X39900761Y-51679738D01*
X39805523Y-51774976D01*
X39710285Y-51822595D01*
X39519809Y-51870214D01*
X39376952Y-51870214D01*
X39186476Y-51822595D01*
X39091238Y-51774976D01*
X38996000Y-51679738D01*
X38948380Y-51536880D01*
X38948380Y-51441642D01*
X38996000Y-51298785D01*
X39043619Y-51251166D01*
X39281714Y-50394023D02*
X39948380Y-50394023D01*
X38900761Y-50632119D02*
X39615047Y-50870214D01*
X39615047Y-50251166D01*
%TO.C,R10*%
X81478380Y-63126857D02*
X81002190Y-63460190D01*
X81478380Y-63698285D02*
X80478380Y-63698285D01*
X80478380Y-63317333D01*
X80526000Y-63222095D01*
X80573619Y-63174476D01*
X80668857Y-63126857D01*
X80811714Y-63126857D01*
X80906952Y-63174476D01*
X80954571Y-63222095D01*
X81002190Y-63317333D01*
X81002190Y-63698285D01*
X81478380Y-62174476D02*
X81478380Y-62745904D01*
X81478380Y-62460190D02*
X80478380Y-62460190D01*
X80621238Y-62555428D01*
X80716476Y-62650666D01*
X80764095Y-62745904D01*
X80478380Y-61555428D02*
X80478380Y-61460190D01*
X80526000Y-61364952D01*
X80573619Y-61317333D01*
X80668857Y-61269714D01*
X80859333Y-61222095D01*
X81097428Y-61222095D01*
X81287904Y-61269714D01*
X81383142Y-61317333D01*
X81430761Y-61364952D01*
X81478380Y-61460190D01*
X81478380Y-61555428D01*
X81430761Y-61650666D01*
X81383142Y-61698285D01*
X81287904Y-61745904D01*
X81097428Y-61793523D01*
X80859333Y-61793523D01*
X80668857Y-61745904D01*
X80573619Y-61698285D01*
X80526000Y-61650666D01*
X80478380Y-61555428D01*
%TO.C,C24*%
X79367142Y-86717142D02*
X79319523Y-86764761D01*
X79176666Y-86812380D01*
X79081428Y-86812380D01*
X78938571Y-86764761D01*
X78843333Y-86669523D01*
X78795714Y-86574285D01*
X78748095Y-86383809D01*
X78748095Y-86240952D01*
X78795714Y-86050476D01*
X78843333Y-85955238D01*
X78938571Y-85860000D01*
X79081428Y-85812380D01*
X79176666Y-85812380D01*
X79319523Y-85860000D01*
X79367142Y-85907619D01*
X79748095Y-85907619D02*
X79795714Y-85860000D01*
X79890952Y-85812380D01*
X80129047Y-85812380D01*
X80224285Y-85860000D01*
X80271904Y-85907619D01*
X80319523Y-86002857D01*
X80319523Y-86098095D01*
X80271904Y-86240952D01*
X79700476Y-86812380D01*
X80319523Y-86812380D01*
X81176666Y-86145714D02*
X81176666Y-86812380D01*
X80938571Y-85764761D02*
X80700476Y-86479047D01*
X81319523Y-86479047D01*
%TO.C,C5*%
X39390142Y-56800666D02*
X39437761Y-56848285D01*
X39485380Y-56991142D01*
X39485380Y-57086380D01*
X39437761Y-57229238D01*
X39342523Y-57324476D01*
X39247285Y-57372095D01*
X39056809Y-57419714D01*
X38913952Y-57419714D01*
X38723476Y-57372095D01*
X38628238Y-57324476D01*
X38533000Y-57229238D01*
X38485380Y-57086380D01*
X38485380Y-56991142D01*
X38533000Y-56848285D01*
X38580619Y-56800666D01*
X38485380Y-55895904D02*
X38485380Y-56372095D01*
X38961571Y-56419714D01*
X38913952Y-56372095D01*
X38866333Y-56276857D01*
X38866333Y-56038761D01*
X38913952Y-55943523D01*
X38961571Y-55895904D01*
X39056809Y-55848285D01*
X39294904Y-55848285D01*
X39390142Y-55895904D01*
X39437761Y-55943523D01*
X39485380Y-56038761D01*
X39485380Y-56276857D01*
X39437761Y-56372095D01*
X39390142Y-56419714D01*
%TO.C,R14*%
X91384380Y-82430857D02*
X90908190Y-82764190D01*
X91384380Y-83002285D02*
X90384380Y-83002285D01*
X90384380Y-82621333D01*
X90432000Y-82526095D01*
X90479619Y-82478476D01*
X90574857Y-82430857D01*
X90717714Y-82430857D01*
X90812952Y-82478476D01*
X90860571Y-82526095D01*
X90908190Y-82621333D01*
X90908190Y-83002285D01*
X91384380Y-81478476D02*
X91384380Y-82049904D01*
X91384380Y-81764190D02*
X90384380Y-81764190D01*
X90527238Y-81859428D01*
X90622476Y-81954666D01*
X90670095Y-82049904D01*
X90717714Y-80621333D02*
X91384380Y-80621333D01*
X90336761Y-80859428D02*
X91051047Y-81097523D01*
X91051047Y-80478476D01*
%TO.C,R17*%
X61920380Y-62364857D02*
X61444190Y-62698190D01*
X61920380Y-62936285D02*
X60920380Y-62936285D01*
X60920380Y-62555333D01*
X60968000Y-62460095D01*
X61015619Y-62412476D01*
X61110857Y-62364857D01*
X61253714Y-62364857D01*
X61348952Y-62412476D01*
X61396571Y-62460095D01*
X61444190Y-62555333D01*
X61444190Y-62936285D01*
X61920380Y-61412476D02*
X61920380Y-61983904D01*
X61920380Y-61698190D02*
X60920380Y-61698190D01*
X61063238Y-61793428D01*
X61158476Y-61888666D01*
X61206095Y-61983904D01*
X60920380Y-61079142D02*
X60920380Y-60412476D01*
X61920380Y-60841047D01*
%TO.C,C2*%
X46515142Y-51212666D02*
X46562761Y-51260285D01*
X46610380Y-51403142D01*
X46610380Y-51498380D01*
X46562761Y-51641238D01*
X46467523Y-51736476D01*
X46372285Y-51784095D01*
X46181809Y-51831714D01*
X46038952Y-51831714D01*
X45848476Y-51784095D01*
X45753238Y-51736476D01*
X45658000Y-51641238D01*
X45610380Y-51498380D01*
X45610380Y-51403142D01*
X45658000Y-51260285D01*
X45705619Y-51212666D01*
X45705619Y-50831714D02*
X45658000Y-50784095D01*
X45610380Y-50688857D01*
X45610380Y-50450761D01*
X45658000Y-50355523D01*
X45705619Y-50307904D01*
X45800857Y-50260285D01*
X45896095Y-50260285D01*
X46038952Y-50307904D01*
X46610380Y-50879333D01*
X46610380Y-50260285D01*
%TO.C,C23*%
X73017142Y-63349142D02*
X72969523Y-63396761D01*
X72826666Y-63444380D01*
X72731428Y-63444380D01*
X72588571Y-63396761D01*
X72493333Y-63301523D01*
X72445714Y-63206285D01*
X72398095Y-63015809D01*
X72398095Y-62872952D01*
X72445714Y-62682476D01*
X72493333Y-62587238D01*
X72588571Y-62492000D01*
X72731428Y-62444380D01*
X72826666Y-62444380D01*
X72969523Y-62492000D01*
X73017142Y-62539619D01*
X73398095Y-62539619D02*
X73445714Y-62492000D01*
X73540952Y-62444380D01*
X73779047Y-62444380D01*
X73874285Y-62492000D01*
X73921904Y-62539619D01*
X73969523Y-62634857D01*
X73969523Y-62730095D01*
X73921904Y-62872952D01*
X73350476Y-63444380D01*
X73969523Y-63444380D01*
X74302857Y-62444380D02*
X74921904Y-62444380D01*
X74588571Y-62825333D01*
X74731428Y-62825333D01*
X74826666Y-62872952D01*
X74874285Y-62920571D01*
X74921904Y-63015809D01*
X74921904Y-63253904D01*
X74874285Y-63349142D01*
X74826666Y-63396761D01*
X74731428Y-63444380D01*
X74445714Y-63444380D01*
X74350476Y-63396761D01*
X74302857Y-63349142D01*
%TO.C,R5*%
X72477333Y-81986380D02*
X72144000Y-81510190D01*
X71905904Y-81986380D02*
X71905904Y-80986380D01*
X72286857Y-80986380D01*
X72382095Y-81034000D01*
X72429714Y-81081619D01*
X72477333Y-81176857D01*
X72477333Y-81319714D01*
X72429714Y-81414952D01*
X72382095Y-81462571D01*
X72286857Y-81510190D01*
X71905904Y-81510190D01*
X73382095Y-80986380D02*
X72905904Y-80986380D01*
X72858285Y-81462571D01*
X72905904Y-81414952D01*
X73001142Y-81367333D01*
X73239238Y-81367333D01*
X73334476Y-81414952D01*
X73382095Y-81462571D01*
X73429714Y-81557809D01*
X73429714Y-81795904D01*
X73382095Y-81891142D01*
X73334476Y-81938761D01*
X73239238Y-81986380D01*
X73001142Y-81986380D01*
X72905904Y-81938761D01*
X72858285Y-81891142D01*
D11*
%TO.C,C26*%
X63804748Y-67458000D02*
X65227252Y-67458000D01*
X63804748Y-65638000D02*
X65227252Y-65638000D01*
%TO.C,R6*%
X92236936Y-64664000D02*
X93691064Y-64664000D01*
X92236936Y-62844000D02*
X93691064Y-62844000D01*
%TO.C,C21*%
X83362748Y-66654000D02*
X84785252Y-66654000D01*
X83362748Y-68474000D02*
X84785252Y-68474000D01*
%TO.C,C20*%
X88244000Y-53898748D02*
X88244000Y-55321252D01*
X90064000Y-53898748D02*
X90064000Y-55321252D01*
%TO.C,IC2*%
X69342000Y-74656000D02*
X65892000Y-74656000D01*
X69342000Y-79776000D02*
X71292000Y-79776000D01*
X69342000Y-74656000D02*
X71292000Y-74656000D01*
X69342000Y-79776000D02*
X67392000Y-79776000D01*
%TO.C,R16*%
X69956000Y-60417064D02*
X69956000Y-58962936D01*
X71776000Y-60417064D02*
X71776000Y-58962936D01*
%TO.C,U1*%
X37444000Y-80080000D02*
X37714000Y-80080000D01*
X37714000Y-80080000D02*
X37714000Y-78980000D01*
X44344000Y-80080000D02*
X44074000Y-80080000D01*
X37444000Y-81580000D02*
X37444000Y-80080000D01*
X44344000Y-81580000D02*
X44344000Y-80080000D01*
X44074000Y-80080000D02*
X44074000Y-77250000D01*
%TO.C,R13*%
X74133064Y-53700000D02*
X72678936Y-53700000D01*
X74133064Y-55520000D02*
X72678936Y-55520000D01*
%TO.C,C10*%
X47219000Y-80198252D02*
X47219000Y-78775748D01*
X49039000Y-80198252D02*
X49039000Y-78775748D01*
%TO.C,R15*%
X58526000Y-55591064D02*
X58526000Y-54136936D01*
X60346000Y-55591064D02*
X60346000Y-54136936D01*
%TO.C,R4*%
X93691064Y-67204000D02*
X92236936Y-67204000D01*
X93691064Y-65384000D02*
X92236936Y-65384000D01*
%TO.C,R9*%
X91334000Y-60925064D02*
X91334000Y-59470936D01*
X89514000Y-60925064D02*
X89514000Y-59470936D01*
%TO.C,+9V*%
X29150000Y-64008000D02*
X31810000Y-64008000D01*
X29150000Y-64008000D02*
X29150000Y-64068000D01*
X29150000Y-62738000D02*
X29150000Y-61408000D01*
X31810000Y-64008000D02*
X31810000Y-64068000D01*
X29150000Y-64068000D02*
X31810000Y-64068000D01*
X29150000Y-61408000D02*
X30480000Y-61408000D01*
%TO.C,J2*%
X57224000Y-86561000D02*
X60124000Y-86561000D01*
X62029000Y-88466000D02*
X62029000Y-91366000D01*
X55319000Y-88466000D02*
X55319000Y-91366000D01*
X57224000Y-93271000D02*
X60124000Y-93271000D01*
%TO.C,-60V*%
X41850000Y-62786000D02*
X41850000Y-61456000D01*
X41850000Y-64056000D02*
X44510000Y-64056000D01*
X44510000Y-64056000D02*
X44510000Y-64116000D01*
X41850000Y-61456000D02*
X43180000Y-61456000D01*
X41850000Y-64056000D02*
X41850000Y-64116000D01*
X41850000Y-64116000D02*
X44510000Y-64116000D01*
%TO.C,C27*%
X70506000Y-52882748D02*
X70506000Y-54305252D01*
X68686000Y-52882748D02*
X68686000Y-54305252D01*
%TO.C,IC4*%
X83820000Y-80030000D02*
X81870000Y-80030000D01*
X83820000Y-74910000D02*
X80370000Y-74910000D01*
X83820000Y-80030000D02*
X85770000Y-80030000D01*
X83820000Y-74910000D02*
X85770000Y-74910000D01*
%TO.C,R7*%
X86833064Y-43286000D02*
X85378936Y-43286000D01*
X86833064Y-45106000D02*
X85378936Y-45106000D01*
%TO.C,-5VA*%
X41850000Y-58420000D02*
X44510000Y-58420000D01*
X41850000Y-57150000D02*
X41850000Y-55820000D01*
X41850000Y-58480000D02*
X44510000Y-58480000D01*
X44510000Y-58420000D02*
X44510000Y-58480000D01*
X41850000Y-58420000D02*
X41850000Y-58480000D01*
X41850000Y-55820000D02*
X43180000Y-55820000D01*
%TO.C,R-P/Z1*%
X92236936Y-72284000D02*
X93691064Y-72284000D01*
X92236936Y-70464000D02*
X93691064Y-70464000D01*
%TO.C,U2*%
X44075000Y-73082000D02*
X44075000Y-74182000D01*
X37445000Y-73082000D02*
X37715000Y-73082000D01*
X37445000Y-71582000D02*
X37445000Y-73082000D01*
X44345000Y-71582000D02*
X44345000Y-73082000D01*
X37715000Y-73082000D02*
X37715000Y-75912000D01*
X44345000Y-73082000D02*
X44075000Y-73082000D01*
%TO.C,C18*%
X95144000Y-59232748D02*
X95144000Y-60655252D01*
X93324000Y-59232748D02*
X93324000Y-60655252D01*
%TO.C,-9V*%
X35500000Y-64068000D02*
X38160000Y-64068000D01*
X35500000Y-64008000D02*
X35500000Y-64068000D01*
X35500000Y-64008000D02*
X38160000Y-64008000D01*
X35500000Y-62738000D02*
X35500000Y-61408000D01*
X35500000Y-61408000D02*
X36830000Y-61408000D01*
X38160000Y-64008000D02*
X38160000Y-64068000D01*
%TO.C,C11*%
X47350000Y-74419252D02*
X47350000Y-72996748D01*
X49170000Y-74419252D02*
X49170000Y-72996748D01*
%TO.C,R8*%
X74710936Y-79142000D02*
X76165064Y-79142000D01*
X74710936Y-77322000D02*
X76165064Y-77322000D01*
%TO.C,IC3*%
X84074000Y-55860000D02*
X86024000Y-55860000D01*
X84074000Y-60980000D02*
X87524000Y-60980000D01*
X84074000Y-60980000D02*
X82124000Y-60980000D01*
X84074000Y-55860000D02*
X82124000Y-55860000D01*
%TO.C,C3*%
X30996000Y-55892248D02*
X30996000Y-57314752D01*
X29176000Y-55892248D02*
X29176000Y-57314752D01*
%TO.C,C28*%
X83362748Y-65934000D02*
X84785252Y-65934000D01*
X83362748Y-64114000D02*
X84785252Y-64114000D01*
%TO.C,GND*%
X48200000Y-61456000D02*
X49530000Y-61456000D01*
X48200000Y-64056000D02*
X50860000Y-64056000D01*
X48200000Y-62786000D02*
X48200000Y-61456000D01*
X50860000Y-64056000D02*
X50860000Y-64116000D01*
X48200000Y-64056000D02*
X48200000Y-64116000D01*
X48200000Y-64116000D02*
X50860000Y-64116000D01*
%TO.C,C16*%
X79904000Y-61671252D02*
X79904000Y-60248748D01*
X78084000Y-61671252D02*
X78084000Y-60248748D01*
%TO.C,R3*%
X92175436Y-69744000D02*
X93629564Y-69744000D01*
X92175436Y-67924000D02*
X93629564Y-67924000D01*
%TO.C,C7*%
X35158000Y-74419252D02*
X35158000Y-72996748D01*
X36978000Y-74419252D02*
X36978000Y-72996748D01*
%TO.C,C14*%
X60756748Y-77626000D02*
X62179252Y-77626000D01*
X60756748Y-75806000D02*
X62179252Y-75806000D01*
%TO.C,C9*%
X46630000Y-74419252D02*
X46630000Y-72996748D01*
X44810000Y-74419252D02*
X44810000Y-72996748D01*
%TO.C,J6*%
X69162000Y-41963000D02*
X72062000Y-41963000D01*
X67257000Y-37158000D02*
X67257000Y-40058000D01*
X69162000Y-35253000D02*
X72062000Y-35253000D01*
X73967000Y-37158000D02*
X73967000Y-40058000D01*
%TO.C,R1*%
X51414000Y-74641064D02*
X51414000Y-73186936D01*
X53234000Y-74641064D02*
X53234000Y-73186936D01*
%TO.C,C1*%
X28866000Y-50304248D02*
X28866000Y-51726752D01*
X31586000Y-50304248D02*
X31586000Y-51726752D01*
%TO.C,J5*%
X82878000Y-41963000D02*
X85778000Y-41963000D01*
X80973000Y-37158000D02*
X80973000Y-40058000D01*
X87683000Y-37158000D02*
X87683000Y-40058000D01*
X82878000Y-35253000D02*
X85778000Y-35253000D01*
%TO.C,R11*%
X83092936Y-82952000D02*
X84547064Y-82952000D01*
X83092936Y-81132000D02*
X84547064Y-81132000D01*
%TO.C,C30*%
X63804748Y-63098000D02*
X65227252Y-63098000D01*
X63804748Y-64918000D02*
X65227252Y-64918000D01*
%TO.C,C25*%
X60346000Y-60655252D02*
X60346000Y-59232748D01*
X58526000Y-60655252D02*
X58526000Y-59232748D01*
%TO.C,J1*%
X41428000Y-42408000D02*
X42928000Y-42408000D01*
X41668000Y-35048000D02*
X63488000Y-35048000D01*
X41428000Y-40668000D02*
X41428000Y-42408000D01*
X41668000Y-42168000D02*
X63488000Y-42168000D01*
X41668000Y-35048000D02*
X41668000Y-42168000D01*
X63488000Y-35048000D02*
X63488000Y-42168000D01*
X41668000Y-40608000D02*
X63488000Y-40608000D01*
X42396000Y-37900000D02*
G75*
G03*
X42395891Y-39115742I1432003J-607999D01*
G01*
X43220000Y-39940000D02*
G75*
G03*
X43855011Y-40063493I607998J1431988D01*
G01*
X43828000Y-40063000D02*
G75*
G03*
X44435587Y-39939385I1J1554997D01*
G01*
X44436000Y-37076000D02*
G75*
G03*
X43220258Y-37075891I-607999J-1432003D01*
G01*
X45260000Y-39116000D02*
G75*
G03*
X45260109Y-37900258I-1432003J607999D01*
G01*
X59383000Y-38508000D02*
G75*
G03*
X59383000Y-38508000I-1555000J0D01*
G01*
X52383000Y-38508000D02*
G75*
G03*
X52383000Y-38508000I-1555000J0D01*
G01*
X55883000Y-38508000D02*
G75*
G03*
X55883000Y-38508000I-1555000J0D01*
G01*
X62883000Y-38508000D02*
G75*
G03*
X62883000Y-38508000I-1555000J0D01*
G01*
X48883000Y-38508000D02*
G75*
G03*
X48883000Y-38508000I-1555000J0D01*
G01*
%TO.C,J3*%
X65801000Y-72196000D02*
X83641000Y-72196000D01*
X83641000Y-72196000D02*
X83641000Y-69536000D01*
X65801000Y-69536000D02*
X83641000Y-69536000D01*
X63201000Y-72196000D02*
X63201000Y-70866000D01*
X65801000Y-72196000D02*
X65801000Y-69536000D01*
X64531000Y-72196000D02*
X63201000Y-72196000D01*
%TO.C,C15*%
X76403252Y-74782000D02*
X74980748Y-74782000D01*
X76403252Y-76602000D02*
X74980748Y-76602000D01*
%TO.C,C8*%
X44805000Y-80198252D02*
X44805000Y-78775748D01*
X46625000Y-80198252D02*
X46625000Y-78775748D01*
%TO.C,C13*%
X93324000Y-74472748D02*
X93324000Y-75895252D01*
X95144000Y-74472748D02*
X95144000Y-75895252D01*
%TO.C,C17*%
X68630748Y-83164000D02*
X70053252Y-83164000D01*
X68630748Y-84984000D02*
X70053252Y-84984000D01*
%TO.C,R2*%
X55152936Y-75798000D02*
X56607064Y-75798000D01*
X55152936Y-77618000D02*
X56607064Y-77618000D01*
%TO.C,C22*%
X87990000Y-74472748D02*
X87990000Y-75895252D01*
X89810000Y-74472748D02*
X89810000Y-75895252D01*
%TO.C,C12*%
X53234000Y-80213252D02*
X53234000Y-78790748D01*
X51414000Y-80213252D02*
X51414000Y-78790748D01*
%TO.C,R12*%
X78451064Y-56240000D02*
X76996936Y-56240000D01*
X78451064Y-58060000D02*
X76996936Y-58060000D01*
%TO.C,C29*%
X84531252Y-83672000D02*
X83108748Y-83672000D01*
X84531252Y-85492000D02*
X83108748Y-85492000D01*
%TO.C,J4*%
X86091000Y-45914000D02*
X68251000Y-45914000D01*
X86091000Y-48574000D02*
X68251000Y-48574000D01*
X87361000Y-45914000D02*
X88691000Y-45914000D01*
X88691000Y-45914000D02*
X88691000Y-47244000D01*
X68251000Y-45914000D02*
X68251000Y-48574000D01*
X86091000Y-45914000D02*
X86091000Y-48574000D01*
%TO.C,C19*%
X62280748Y-80666000D02*
X63703252Y-80666000D01*
X62280748Y-78846000D02*
X63703252Y-78846000D01*
%TO.C,IC5*%
X64516000Y-54844000D02*
X66466000Y-54844000D01*
X64516000Y-59964000D02*
X67966000Y-59964000D01*
X64516000Y-54844000D02*
X62566000Y-54844000D01*
X64516000Y-59964000D02*
X62566000Y-59964000D01*
%TO.C,C6*%
X34899000Y-78775748D02*
X34899000Y-80198252D01*
X36719000Y-78775748D02*
X36719000Y-80198252D01*
%TO.C,+5VA*%
X48200000Y-58420000D02*
X48200000Y-58480000D01*
X48200000Y-58480000D02*
X50860000Y-58480000D01*
X48200000Y-55820000D02*
X49530000Y-55820000D01*
X48200000Y-58420000D02*
X50860000Y-58420000D01*
X50860000Y-58420000D02*
X50860000Y-58480000D01*
X48200000Y-57150000D02*
X48200000Y-55820000D01*
%TO.C,C4*%
X38556000Y-50373248D02*
X38556000Y-51795752D01*
X35836000Y-50373248D02*
X35836000Y-51795752D01*
%TO.C,R10*%
X84801064Y-61574000D02*
X83346936Y-61574000D01*
X84801064Y-63394000D02*
X83346936Y-63394000D01*
%TO.C,C24*%
X80920000Y-83769252D02*
X80920000Y-82346748D01*
X79100000Y-83769252D02*
X79100000Y-82346748D01*
%TO.C,C5*%
X38093000Y-55922748D02*
X38093000Y-57345252D01*
X36273000Y-55922748D02*
X36273000Y-57345252D01*
%TO.C,R14*%
X89810000Y-80044936D02*
X89810000Y-81499064D01*
X87990000Y-80044936D02*
X87990000Y-81499064D01*
%TO.C,R17*%
X65243064Y-62378000D02*
X63788936Y-62378000D01*
X65243064Y-60558000D02*
X63788936Y-60558000D01*
%TO.C,C2*%
X45218000Y-50334748D02*
X45218000Y-51757252D01*
X43398000Y-50334748D02*
X43398000Y-51757252D01*
%TO.C,C23*%
X74570000Y-60401252D02*
X74570000Y-58978748D01*
X72750000Y-60401252D02*
X72750000Y-58978748D01*
%TO.C,R5*%
X68614936Y-82444000D02*
X70069064Y-82444000D01*
X68614936Y-80624000D02*
X70069064Y-80624000D01*
%TD*%
M02*
